%TF.GenerationSoftware,KiCad,Pcbnew,6.0.4-1.fc35*%
%TF.CreationDate,2022-04-18T17:29:02+01:00*%
%TF.ProjectId,esc,6573632e-6b69-4636-9164-5f7063625858,rev?*%
%TF.SameCoordinates,Original*%
%TF.FileFunction,Paste,Bot*%
%TF.FilePolarity,Positive*%
%FSLAX46Y46*%
G04 Gerber Fmt 4.6, Leading zero omitted, Abs format (unit mm)*
G04 Created by KiCad (PCBNEW 6.0.4-1.fc35) date 2022-04-18 17:29:02*
%MOMM*%
%LPD*%
G01*
G04 APERTURE LIST*
G04 Aperture macros list*
%AMRoundRect*
0 Rectangle with rounded corners*
0 $1 Rounding radius*
0 $2 $3 $4 $5 $6 $7 $8 $9 X,Y pos of 4 corners*
0 Add a 4 corners polygon primitive as box body*
4,1,4,$2,$3,$4,$5,$6,$7,$8,$9,$2,$3,0*
0 Add four circle primitives for the rounded corners*
1,1,$1+$1,$2,$3*
1,1,$1+$1,$4,$5*
1,1,$1+$1,$6,$7*
1,1,$1+$1,$8,$9*
0 Add four rect primitives between the rounded corners*
20,1,$1+$1,$2,$3,$4,$5,0*
20,1,$1+$1,$4,$5,$6,$7,0*
20,1,$1+$1,$6,$7,$8,$9,0*
20,1,$1+$1,$8,$9,$2,$3,0*%
G04 Aperture macros list end*
%ADD10RoundRect,0.200000X-0.200000X-0.275000X0.200000X-0.275000X0.200000X0.275000X-0.200000X0.275000X0*%
%ADD11R,3.050000X2.750000*%
%ADD12R,2.200000X1.200000*%
%ADD13RoundRect,0.225000X-0.225000X-0.250000X0.225000X-0.250000X0.225000X0.250000X-0.225000X0.250000X0*%
%ADD14RoundRect,0.200000X0.200000X0.275000X-0.200000X0.275000X-0.200000X-0.275000X0.200000X-0.275000X0*%
%ADD15R,0.600000X0.450000*%
%ADD16RoundRect,0.250000X-1.425000X0.362500X-1.425000X-0.362500X1.425000X-0.362500X1.425000X0.362500X0*%
%ADD17R,2.500000X1.800000*%
%ADD18RoundRect,0.150000X0.675000X0.150000X-0.675000X0.150000X-0.675000X-0.150000X0.675000X-0.150000X0*%
%ADD19RoundRect,0.150000X0.512500X0.150000X-0.512500X0.150000X-0.512500X-0.150000X0.512500X-0.150000X0*%
%ADD20RoundRect,0.150000X-0.825000X-0.150000X0.825000X-0.150000X0.825000X0.150000X-0.825000X0.150000X0*%
%ADD21RoundRect,0.200000X0.275000X-0.200000X0.275000X0.200000X-0.275000X0.200000X-0.275000X-0.200000X0*%
%ADD22RoundRect,0.250000X0.250000X0.475000X-0.250000X0.475000X-0.250000X-0.475000X0.250000X-0.475000X0*%
%ADD23RoundRect,0.225000X-0.250000X0.225000X-0.250000X-0.225000X0.250000X-0.225000X0.250000X0.225000X0*%
%ADD24RoundRect,0.250000X-0.625000X0.312500X-0.625000X-0.312500X0.625000X-0.312500X0.625000X0.312500X0*%
%ADD25RoundRect,0.200000X-0.275000X0.200000X-0.275000X-0.200000X0.275000X-0.200000X0.275000X0.200000X0*%
%ADD26RoundRect,0.250000X-0.250000X-0.475000X0.250000X-0.475000X0.250000X0.475000X-0.250000X0.475000X0*%
%ADD27RoundRect,0.225000X0.225000X0.250000X-0.225000X0.250000X-0.225000X-0.250000X0.225000X-0.250000X0*%
%ADD28R,2.000000X1.500000*%
%ADD29R,2.000000X3.800000*%
%ADD30R,1.800000X2.500000*%
G04 APERTURE END LIST*
D10*
%TO.C,R32*%
X186134000Y-38623000D03*
X187784000Y-38623000D03*
%TD*%
D11*
%TO.C,Q14*%
X124885000Y-60959000D03*
X128235000Y-60959000D03*
X124885000Y-64009000D03*
X128235000Y-64009000D03*
D12*
X120260000Y-64764000D03*
X120260000Y-60204000D03*
%TD*%
D13*
%TO.C,C35*%
X165341000Y-64008000D03*
X166891000Y-64008000D03*
%TD*%
D14*
%TO.C,R26*%
X182704000Y-59790385D03*
X181054000Y-59790385D03*
%TD*%
D11*
%TO.C,Q24*%
X142967000Y-38099000D03*
X142967000Y-41149000D03*
X139617000Y-38099000D03*
X139617000Y-41149000D03*
D12*
X134992000Y-41904000D03*
X134992000Y-37344000D03*
%TD*%
D11*
%TO.C,Q2*%
X113435000Y-64009000D03*
X110085000Y-64009000D03*
X110085000Y-60959000D03*
X113435000Y-60959000D03*
D12*
X105460000Y-64764000D03*
X105460000Y-60204000D03*
%TD*%
D14*
%TO.C,R47*%
X155765000Y-45212000D03*
X154115000Y-45212000D03*
%TD*%
D15*
%TO.C,D21*%
X167166000Y-61976000D03*
X165066000Y-61976000D03*
%TD*%
D16*
%TO.C,R7*%
X124460000Y-67649500D03*
X124460000Y-73574500D03*
%TD*%
D17*
%TO.C,D1*%
X184451000Y-54710385D03*
X188451000Y-54710385D03*
%TD*%
D18*
%TO.C,U9*%
X163153000Y-49403000D03*
X163153000Y-50673000D03*
X163153000Y-51943000D03*
X163153000Y-53213000D03*
X157903000Y-53213000D03*
X157903000Y-51943000D03*
X157903000Y-50673000D03*
X157903000Y-49403000D03*
%TD*%
D15*
%TO.C,D4*%
X152434000Y-68580000D03*
X150334000Y-68580000D03*
%TD*%
D19*
%TO.C,U2*%
X139821500Y-68646000D03*
X139821500Y-69596000D03*
X139821500Y-70546000D03*
X137546500Y-70546000D03*
X137546500Y-68646000D03*
%TD*%
D10*
%TO.C,R25*%
X181054000Y-58266385D03*
X182704000Y-58266385D03*
%TD*%
D20*
%TO.C,U5*%
X182960000Y-44084000D03*
X182960000Y-42814000D03*
X182960000Y-41544000D03*
X182960000Y-40274000D03*
X187910000Y-40274000D03*
X187910000Y-41544000D03*
X187910000Y-42814000D03*
X187910000Y-44084000D03*
%TD*%
D21*
%TO.C,R57*%
X146304000Y-70421000D03*
X146304000Y-68771000D03*
%TD*%
D16*
%TO.C,R3*%
X107188000Y-67649500D03*
X107188000Y-73574500D03*
%TD*%
D15*
%TO.C,D5*%
X152434000Y-70612000D03*
X150334000Y-70612000D03*
%TD*%
D22*
%TO.C,C28*%
X155890000Y-49276000D03*
X153990000Y-49276000D03*
%TD*%
D21*
%TO.C,R58*%
X146304000Y-73977000D03*
X146304000Y-72327000D03*
%TD*%
D14*
%TO.C,R40*%
X155765000Y-41148000D03*
X154115000Y-41148000D03*
%TD*%
D16*
%TO.C,R4*%
X111252000Y-67649500D03*
X111252000Y-73574500D03*
%TD*%
D14*
%TO.C,R22*%
X135445000Y-70358000D03*
X133795000Y-70358000D03*
%TD*%
D15*
%TO.C,D7*%
X152434000Y-56388000D03*
X150334000Y-56388000D03*
%TD*%
D23*
%TO.C,C12*%
X141732000Y-68821000D03*
X141732000Y-70371000D03*
%TD*%
D14*
%TO.C,R45*%
X155765000Y-63500000D03*
X154115000Y-63500000D03*
%TD*%
D11*
%TO.C,Q18*%
X142967000Y-60959000D03*
X139617000Y-60959000D03*
X139617000Y-64009000D03*
X142967000Y-64009000D03*
D12*
X134992000Y-64764000D03*
X134992000Y-60204000D03*
%TD*%
D11*
%TO.C,Q4*%
X113435000Y-53339000D03*
X110085000Y-53339000D03*
X113435000Y-56389000D03*
X110085000Y-56389000D03*
D12*
X105460000Y-57144000D03*
X105460000Y-52584000D03*
%TD*%
D18*
%TO.C,U13*%
X157903000Y-61595000D03*
X157903000Y-62865000D03*
X157903000Y-64135000D03*
X157903000Y-65405000D03*
X163153000Y-65405000D03*
X163153000Y-64135000D03*
X163153000Y-62865000D03*
X163153000Y-61595000D03*
%TD*%
D10*
%TO.C,R30*%
X171910000Y-48260000D03*
X173560000Y-48260000D03*
%TD*%
D15*
%TO.C,D14*%
X152434000Y-40132000D03*
X150334000Y-40132000D03*
%TD*%
D24*
%TO.C,R24*%
X193055000Y-58835885D03*
X193055000Y-61760885D03*
%TD*%
D25*
%TO.C,R19*%
X144780000Y-72327000D03*
X144780000Y-73977000D03*
%TD*%
D13*
%TO.C,C29*%
X165341000Y-39624000D03*
X166891000Y-39624000D03*
%TD*%
D26*
%TO.C,C21*%
X170246000Y-71374000D03*
X172146000Y-71374000D03*
%TD*%
D11*
%TO.C,Q6*%
X110085000Y-48769000D03*
X113435000Y-48769000D03*
X113435000Y-45719000D03*
X110085000Y-45719000D03*
D12*
X105460000Y-49524000D03*
X105460000Y-44964000D03*
%TD*%
D18*
%TO.C,U8*%
X163153000Y-55499000D03*
X163153000Y-56769000D03*
X163153000Y-58039000D03*
X163153000Y-59309000D03*
X157903000Y-59309000D03*
X157903000Y-58039000D03*
X157903000Y-56769000D03*
X157903000Y-55499000D03*
%TD*%
D15*
%TO.C,D6*%
X167166000Y-55880000D03*
X165066000Y-55880000D03*
%TD*%
D13*
%TO.C,C37*%
X165341000Y-45720000D03*
X166891000Y-45720000D03*
%TD*%
D14*
%TO.C,R36*%
X155765000Y-59436000D03*
X154115000Y-59436000D03*
%TD*%
D15*
%TO.C,D22*%
X152434000Y-62484000D03*
X150334000Y-62484000D03*
%TD*%
D27*
%TO.C,C15*%
X182654000Y-61314385D03*
X181104000Y-61314385D03*
%TD*%
D14*
%TO.C,R29*%
X188292000Y-45735000D03*
X186642000Y-45735000D03*
%TD*%
D11*
%TO.C,Q22*%
X139617000Y-45719000D03*
X142967000Y-48769000D03*
X139617000Y-48769000D03*
X142967000Y-45719000D03*
D12*
X134992000Y-49524000D03*
X134992000Y-44964000D03*
%TD*%
D13*
%TO.C,C8*%
X133845000Y-68834000D03*
X135395000Y-68834000D03*
%TD*%
D14*
%TO.C,R34*%
X155765000Y-71628000D03*
X154115000Y-71628000D03*
%TD*%
D22*
%TO.C,C36*%
X155890000Y-61468000D03*
X153990000Y-61468000D03*
%TD*%
D10*
%TO.C,R31*%
X183086000Y-38623000D03*
X184736000Y-38623000D03*
%TD*%
D18*
%TO.C,U14*%
X163153000Y-43307000D03*
X163153000Y-44577000D03*
X163153000Y-45847000D03*
X163153000Y-47117000D03*
X157903000Y-47117000D03*
X157903000Y-45847000D03*
X157903000Y-44577000D03*
X157903000Y-43307000D03*
%TD*%
D14*
%TO.C,R11*%
X132397000Y-73660000D03*
X130747000Y-73660000D03*
%TD*%
D28*
%TO.C,U6*%
X178425000Y-50532000D03*
X178425000Y-52832000D03*
D29*
X172125000Y-52832000D03*
D28*
X178425000Y-55132000D03*
%TD*%
D10*
%TO.C,R28*%
X174958000Y-48260000D03*
X176608000Y-48260000D03*
%TD*%
D15*
%TO.C,D12*%
X167166000Y-37592000D03*
X165066000Y-37592000D03*
%TD*%
D22*
%TO.C,C26*%
X155890000Y-55372000D03*
X153990000Y-55372000D03*
%TD*%
D15*
%TO.C,D9*%
X167166000Y-49784000D03*
X165066000Y-49784000D03*
%TD*%
D14*
%TO.C,R10*%
X132397000Y-72136000D03*
X130747000Y-72136000D03*
%TD*%
D13*
%TO.C,C9*%
X133845000Y-72136000D03*
X135395000Y-72136000D03*
%TD*%
D14*
%TO.C,R38*%
X155765000Y-53340000D03*
X154115000Y-53340000D03*
%TD*%
D11*
%TO.C,Q16*%
X128235000Y-38099000D03*
X124885000Y-41149000D03*
X128235000Y-41149000D03*
X124885000Y-38099000D03*
D12*
X120260000Y-41904000D03*
X120260000Y-37344000D03*
%TD*%
D30*
%TO.C,D2*%
X177800000Y-41131000D03*
X177800000Y-37131000D03*
%TD*%
D11*
%TO.C,Q10*%
X124885000Y-48769000D03*
X128235000Y-48769000D03*
X124885000Y-45719000D03*
X128235000Y-45719000D03*
D12*
X120260000Y-49524000D03*
X120260000Y-44964000D03*
%TD*%
D15*
%TO.C,D26*%
X152434000Y-46228000D03*
X150334000Y-46228000D03*
%TD*%
D23*
%TO.C,C18*%
X180594000Y-41389000D03*
X180594000Y-42939000D03*
%TD*%
%TO.C,C47*%
X148082000Y-70599000D03*
X148082000Y-72149000D03*
%TD*%
D18*
%TO.C,U7*%
X163153000Y-67691000D03*
X163153000Y-68961000D03*
X163153000Y-70231000D03*
X163153000Y-71501000D03*
X157903000Y-71501000D03*
X157903000Y-70231000D03*
X157903000Y-68961000D03*
X157903000Y-67691000D03*
%TD*%
D15*
%TO.C,D25*%
X152434000Y-44196000D03*
X150334000Y-44196000D03*
%TD*%
D14*
%TO.C,R8*%
X132397000Y-68834000D03*
X130747000Y-68834000D03*
%TD*%
D15*
%TO.C,D13*%
X152434000Y-38100000D03*
X150334000Y-38100000D03*
%TD*%
D13*
%TO.C,C23*%
X165341000Y-70104000D03*
X166891000Y-70104000D03*
%TD*%
D23*
%TO.C,C13*%
X141732000Y-72377000D03*
X141732000Y-73927000D03*
%TD*%
D13*
%TO.C,C27*%
X165341000Y-51816000D03*
X166891000Y-51816000D03*
%TD*%
D20*
%TO.C,U4*%
X184992000Y-61695385D03*
X184992000Y-60425385D03*
X184992000Y-59155385D03*
X184992000Y-57885385D03*
X189942000Y-57885385D03*
X189942000Y-59155385D03*
X189942000Y-60425385D03*
X189942000Y-61695385D03*
%TD*%
D14*
%TO.C,R37*%
X155765000Y-51308000D03*
X154115000Y-51308000D03*
%TD*%
D15*
%TO.C,D8*%
X152434000Y-58420000D03*
X150334000Y-58420000D03*
%TD*%
D22*
%TO.C,C30*%
X155890000Y-37084000D03*
X153990000Y-37084000D03*
%TD*%
D15*
%TO.C,D10*%
X152434000Y-50292000D03*
X150334000Y-50292000D03*
%TD*%
D16*
%TO.C,R6*%
X120396000Y-67649500D03*
X120396000Y-73574500D03*
%TD*%
D25*
%TO.C,R17*%
X144780000Y-68771000D03*
X144780000Y-70421000D03*
%TD*%
D21*
%TO.C,R16*%
X143256000Y-70421000D03*
X143256000Y-68771000D03*
%TD*%
D15*
%TO.C,D24*%
X167166000Y-43688000D03*
X165066000Y-43688000D03*
%TD*%
D14*
%TO.C,R35*%
X155765000Y-57404000D03*
X154115000Y-57404000D03*
%TD*%
D13*
%TO.C,C25*%
X165341000Y-57912000D03*
X166891000Y-57912000D03*
%TD*%
D14*
%TO.C,R23*%
X135445000Y-73660000D03*
X133795000Y-73660000D03*
%TD*%
D22*
%TO.C,C19*%
X178257000Y-57912000D03*
X176357000Y-57912000D03*
%TD*%
D14*
%TO.C,R48*%
X155765000Y-47244000D03*
X154115000Y-47244000D03*
%TD*%
D11*
%TO.C,Q8*%
X113435000Y-38099000D03*
X110085000Y-41149000D03*
X110085000Y-38099000D03*
X113435000Y-41149000D03*
D12*
X105460000Y-41904000D03*
X105460000Y-37344000D03*
%TD*%
D22*
%TO.C,C38*%
X155890000Y-43180000D03*
X153990000Y-43180000D03*
%TD*%
D15*
%TO.C,D11*%
X152434000Y-52324000D03*
X150334000Y-52324000D03*
%TD*%
D19*
%TO.C,U3*%
X139821500Y-72202000D03*
X139821500Y-73152000D03*
X139821500Y-74102000D03*
X137546500Y-74102000D03*
X137546500Y-72202000D03*
%TD*%
D14*
%TO.C,R46*%
X155765000Y-65532000D03*
X154115000Y-65532000D03*
%TD*%
D24*
%TO.C,R27*%
X190515000Y-40716500D03*
X190515000Y-43641500D03*
%TD*%
D11*
%TO.C,Q20*%
X142967000Y-53339000D03*
X139617000Y-53339000D03*
X142967000Y-56389000D03*
X139617000Y-56389000D03*
D12*
X134992000Y-57144000D03*
X134992000Y-52584000D03*
%TD*%
D21*
%TO.C,R18*%
X143256000Y-73977000D03*
X143256000Y-72327000D03*
%TD*%
D15*
%TO.C,D23*%
X152434000Y-64516000D03*
X150334000Y-64516000D03*
%TD*%
%TO.C,D3*%
X167166000Y-68072000D03*
X165066000Y-68072000D03*
%TD*%
D14*
%TO.C,R9*%
X132397000Y-70358000D03*
X130747000Y-70358000D03*
%TD*%
D18*
%TO.C,U10*%
X163153000Y-37211000D03*
X163153000Y-38481000D03*
X163153000Y-39751000D03*
X163153000Y-41021000D03*
X157903000Y-41021000D03*
X157903000Y-39751000D03*
X157903000Y-38481000D03*
X157903000Y-37211000D03*
%TD*%
D16*
%TO.C,R5*%
X116332000Y-67649500D03*
X116332000Y-73574500D03*
%TD*%
D22*
%TO.C,C24*%
X155890000Y-67564000D03*
X153990000Y-67564000D03*
%TD*%
D14*
%TO.C,R33*%
X155765000Y-69596000D03*
X154115000Y-69596000D03*
%TD*%
D11*
%TO.C,Q12*%
X124885000Y-56389000D03*
X128235000Y-56389000D03*
X128235000Y-53339000D03*
X124885000Y-53339000D03*
D12*
X120260000Y-57144000D03*
X120260000Y-52584000D03*
%TD*%
D16*
%TO.C,R2*%
X103124000Y-67649500D03*
X103124000Y-73574500D03*
%TD*%
D14*
%TO.C,R39*%
X155765000Y-39116000D03*
X154115000Y-39116000D03*
%TD*%
D26*
%TO.C,C20*%
X172293000Y-57912000D03*
X174193000Y-57912000D03*
%TD*%
M02*
