%TF.GenerationSoftware,KiCad,Pcbnew,6.0.9-1.fc36*%
%TF.CreationDate,2022-11-17T16:55:00+00:00*%
%TF.ProjectId,esc,6573632e-6b69-4636-9164-5f7063625858,rev?*%
%TF.SameCoordinates,Original*%
%TF.FileFunction,Soldermask,Bot*%
%TF.FilePolarity,Negative*%
%FSLAX46Y46*%
G04 Gerber Fmt 4.6, Leading zero omitted, Abs format (unit mm)*
G04 Created by KiCad (PCBNEW 6.0.9-1.fc36) date 2022-11-17 16:55:00*
%MOMM*%
%LPD*%
G01*
G04 APERTURE LIST*
G04 Aperture macros list*
%AMRoundRect*
0 Rectangle with rounded corners*
0 $1 Rounding radius*
0 $2 $3 $4 $5 $6 $7 $8 $9 X,Y pos of 4 corners*
0 Add a 4 corners polygon primitive as box body*
4,1,4,$2,$3,$4,$5,$6,$7,$8,$9,$2,$3,0*
0 Add four circle primitives for the rounded corners*
1,1,$1+$1,$2,$3*
1,1,$1+$1,$4,$5*
1,1,$1+$1,$6,$7*
1,1,$1+$1,$8,$9*
0 Add four rect primitives between the rounded corners*
20,1,$1+$1,$2,$3,$4,$5,0*
20,1,$1+$1,$4,$5,$6,$7,0*
20,1,$1+$1,$6,$7,$8,$9,0*
20,1,$1+$1,$8,$9,$2,$3,0*%
G04 Aperture macros list end*
%ADD10C,1.524000*%
%ADD11R,1.700000X1.700000*%
%ADD12O,1.700000X1.700000*%
%ADD13C,0.500000*%
%ADD14RoundRect,0.200000X-0.200000X-0.275000X0.200000X-0.275000X0.200000X0.275000X-0.200000X0.275000X0*%
%ADD15R,2.200000X1.200000*%
%ADD16R,6.400000X5.800000*%
%ADD17R,1.000000X1.000000*%
%ADD18RoundRect,0.200000X0.275000X-0.200000X0.275000X0.200000X-0.275000X0.200000X-0.275000X-0.200000X0*%
%ADD19RoundRect,0.250000X-1.425000X0.362500X-1.425000X-0.362500X1.425000X-0.362500X1.425000X0.362500X0*%
%ADD20RoundRect,0.200000X-0.275000X0.200000X-0.275000X-0.200000X0.275000X-0.200000X0.275000X0.200000X0*%
%ADD21RoundRect,0.200000X0.200000X0.275000X-0.200000X0.275000X-0.200000X-0.275000X0.200000X-0.275000X0*%
%ADD22RoundRect,0.250000X-0.475000X0.250000X-0.475000X-0.250000X0.475000X-0.250000X0.475000X0.250000X0*%
%ADD23RoundRect,0.225000X-0.250000X0.225000X-0.250000X-0.225000X0.250000X-0.225000X0.250000X0.225000X0*%
%ADD24RoundRect,0.250000X-0.250000X-0.475000X0.250000X-0.475000X0.250000X0.475000X-0.250000X0.475000X0*%
%ADD25RoundRect,0.225000X-0.225000X-0.250000X0.225000X-0.250000X0.225000X0.250000X-0.225000X0.250000X0*%
%ADD26RoundRect,0.225000X0.250000X-0.225000X0.250000X0.225000X-0.250000X0.225000X-0.250000X-0.225000X0*%
%ADD27RoundRect,0.225000X0.225000X0.250000X-0.225000X0.250000X-0.225000X-0.250000X0.225000X-0.250000X0*%
%ADD28RoundRect,0.250000X0.250000X0.475000X-0.250000X0.475000X-0.250000X-0.475000X0.250000X-0.475000X0*%
%ADD29R,2.000000X1.500000*%
%ADD30R,2.000000X3.800000*%
G04 APERTURE END LIST*
D10*
%TO.C,J67*%
X135128000Y-104648000D03*
%TD*%
%TO.C,J62*%
X124714000Y-116332000D03*
%TD*%
%TO.C,J66*%
X135128000Y-109220000D03*
%TD*%
%TO.C,J18*%
X108204000Y-109220000D03*
%TD*%
%TO.C,J12*%
X108204000Y-116332000D03*
%TD*%
%TO.C,J42*%
X121666000Y-109220000D03*
%TD*%
%TO.C,J87*%
X110998000Y-124460000D03*
%TD*%
%TO.C,J36*%
X121666000Y-116332000D03*
%TD*%
D11*
%TO.C,J7*%
X112014000Y-87757000D03*
D12*
X114554000Y-87757000D03*
X117094000Y-87757000D03*
X119634000Y-87757000D03*
X122174000Y-87757000D03*
%TD*%
D10*
%TO.C,J48*%
X121666000Y-102108000D03*
%TD*%
D13*
%TO.C,REF\u002A\u002A*%
X95758000Y-89510000D03*
X95758000Y-87910000D03*
X95758000Y-92710000D03*
X95758000Y-90310000D03*
X95758000Y-91910000D03*
X95758000Y-91110000D03*
X95758000Y-88710000D03*
%TD*%
D10*
%TO.C,J20*%
X97790000Y-109220000D03*
%TD*%
%TO.C,J55*%
X121666000Y-90424000D03*
%TD*%
%TO.C,J44*%
X111252000Y-109220000D03*
%TD*%
%TO.C,J37*%
X121666000Y-111760000D03*
%TD*%
D13*
%TO.C,REF\u002A\u002A*%
X93599000Y-92710000D03*
X93599000Y-90310000D03*
X93599000Y-91910000D03*
X93599000Y-89510000D03*
X93599000Y-88710000D03*
X93599000Y-91110000D03*
X93599000Y-87910000D03*
%TD*%
D10*
%TO.C,J72*%
X135128000Y-102108000D03*
%TD*%
%TO.C,J25*%
X108204000Y-97536000D03*
%TD*%
%TO.C,J30*%
X108204000Y-94996000D03*
%TD*%
%TO.C,J19*%
X108204000Y-104648000D03*
%TD*%
%TO.C,J80*%
X124714000Y-94996000D03*
%TD*%
%TO.C,J68*%
X124714000Y-109220000D03*
%TD*%
%TO.C,J85*%
X97790000Y-124460000D03*
%TD*%
%TO.C,J14*%
X97790000Y-116332000D03*
%TD*%
%TO.C,J74*%
X124714000Y-102108000D03*
%TD*%
%TO.C,J73*%
X135128000Y-97536000D03*
%TD*%
%TO.C,J43*%
X121666000Y-104648000D03*
%TD*%
%TO.C,J24*%
X108204000Y-102108000D03*
%TD*%
%TO.C,J54*%
X121666000Y-94996000D03*
%TD*%
%TO.C,J78*%
X135128000Y-94996000D03*
%TD*%
%TO.C,J89*%
X97790000Y-126619000D03*
%TD*%
%TO.C,J86*%
X110998000Y-121158000D03*
%TD*%
%TO.C,J31*%
X108204000Y-90424000D03*
%TD*%
%TO.C,J56*%
X111252000Y-94996000D03*
%TD*%
D13*
%TO.C,REF\u002A\u002A*%
X95758000Y-127470000D03*
X95758000Y-126670000D03*
X95758000Y-128270000D03*
X95758000Y-124270000D03*
X95758000Y-125070000D03*
X95758000Y-125870000D03*
X95758000Y-123470000D03*
%TD*%
D10*
%TO.C,J79*%
X135128000Y-90424000D03*
%TD*%
%TO.C,J32*%
X97790000Y-94996000D03*
%TD*%
%TO.C,J13*%
X108204000Y-111760000D03*
%TD*%
%TO.C,J26*%
X97790000Y-102108000D03*
%TD*%
%TO.C,J50*%
X111252000Y-102108000D03*
%TD*%
D13*
%TO.C,REF\u002A\u002A*%
X93599000Y-127470000D03*
X93599000Y-125070000D03*
X93599000Y-126670000D03*
X93599000Y-123470000D03*
X93599000Y-128270000D03*
X93599000Y-124270000D03*
X93599000Y-125870000D03*
%TD*%
D10*
%TO.C,J38*%
X111252000Y-116332000D03*
%TD*%
%TO.C,J60*%
X135128000Y-116332000D03*
%TD*%
%TO.C,J84*%
X97790000Y-121158000D03*
%TD*%
%TO.C,J49*%
X121666000Y-97536000D03*
%TD*%
%TO.C,J61*%
X135128000Y-111760000D03*
%TD*%
D14*
%TO.C,R43*%
X117793000Y-106934000D03*
X119443000Y-106934000D03*
%TD*%
D15*
%TO.C,Q14*%
X68952000Y-116326000D03*
D16*
X75252000Y-114046000D03*
D15*
X68952000Y-111766000D03*
%TD*%
D17*
%TO.C,D18*%
X117368000Y-108966000D03*
X119868000Y-108966000D03*
%TD*%
%TO.C,D38*%
X127234000Y-90678000D03*
X124734000Y-90678000D03*
%TD*%
D18*
%TO.C,R26*%
X123063000Y-121983000D03*
X123063000Y-120333000D03*
%TD*%
D15*
%TO.C,Q24*%
X82414000Y-94990000D03*
D16*
X88714000Y-92710000D03*
D15*
X82414000Y-90430000D03*
%TD*%
%TO.C,Q2*%
X55422000Y-116326000D03*
D16*
X61722000Y-114046000D03*
D15*
X55422000Y-111766000D03*
%TD*%
D14*
%TO.C,R47*%
X117793000Y-92710000D03*
X119443000Y-92710000D03*
%TD*%
D17*
%TO.C,D21*%
X117368000Y-101854000D03*
X119868000Y-101854000D03*
%TD*%
D19*
%TO.C,R7*%
X77216000Y-120142000D03*
X77216000Y-126067000D03*
%TD*%
D20*
%TO.C,R1*%
X136398000Y-127064000D03*
X136398000Y-128714000D03*
%TD*%
D17*
%TO.C,D4*%
X103652000Y-112014000D03*
X106152000Y-112014000D03*
%TD*%
D18*
%TO.C,R25*%
X121412000Y-121983000D03*
X121412000Y-120333000D03*
%TD*%
D19*
%TO.C,R3*%
X59944000Y-120142000D03*
X59944000Y-126067000D03*
%TD*%
D17*
%TO.C,D5*%
X100056000Y-112014000D03*
X97556000Y-112014000D03*
%TD*%
D21*
%TO.C,R40*%
X99123000Y-92710000D03*
X97473000Y-92710000D03*
%TD*%
D17*
%TO.C,D31*%
X130830000Y-104902000D03*
X133330000Y-104902000D03*
%TD*%
%TO.C,D27*%
X130830000Y-116078000D03*
X133330000Y-116078000D03*
%TD*%
D19*
%TO.C,R4*%
X64008000Y-120142000D03*
X64008000Y-126067000D03*
%TD*%
D17*
%TO.C,D37*%
X130830000Y-90678000D03*
X133330000Y-90678000D03*
%TD*%
%TO.C,D7*%
X103652000Y-104902000D03*
X106152000Y-104902000D03*
%TD*%
D21*
%TO.C,R42*%
X112839000Y-114046000D03*
X111189000Y-114046000D03*
%TD*%
D14*
%TO.C,R45*%
X117793000Y-99822000D03*
X119443000Y-99822000D03*
%TD*%
D17*
%TO.C,D20*%
X113772000Y-104902000D03*
X111272000Y-104902000D03*
%TD*%
D15*
%TO.C,Q18*%
X82414000Y-116326000D03*
D16*
X88714000Y-114046000D03*
D15*
X82414000Y-111766000D03*
%TD*%
%TO.C,Q4*%
X55422000Y-109216000D03*
D16*
X61722000Y-106936000D03*
D15*
X55422000Y-104656000D03*
%TD*%
D17*
%TO.C,D32*%
X127234000Y-104902000D03*
X124734000Y-104902000D03*
%TD*%
D21*
%TO.C,R52*%
X126301000Y-106934000D03*
X124651000Y-106934000D03*
%TD*%
D22*
%TO.C,C17*%
X111125000Y-126177000D03*
X111125000Y-128077000D03*
%TD*%
D17*
%TO.C,D14*%
X100056000Y-90678000D03*
X97556000Y-90678000D03*
%TD*%
%TO.C,D33*%
X130830000Y-101854000D03*
X133330000Y-101854000D03*
%TD*%
D18*
%TO.C,R24*%
X119761000Y-121983000D03*
X119761000Y-120333000D03*
%TD*%
D20*
%TO.C,R20*%
X100101000Y-125921000D03*
X100101000Y-127571000D03*
%TD*%
D14*
%TO.C,R51*%
X131255000Y-106934000D03*
X132905000Y-106934000D03*
%TD*%
D23*
%TO.C,C21*%
X123063000Y-123558000D03*
X123063000Y-125108000D03*
%TD*%
D15*
%TO.C,Q6*%
X55422000Y-102103000D03*
D16*
X61722000Y-99823000D03*
D15*
X55422000Y-97543000D03*
%TD*%
D17*
%TO.C,D6*%
X103652000Y-108966000D03*
X106152000Y-108966000D03*
%TD*%
D21*
%TO.C,R36*%
X99123000Y-106934000D03*
X97473000Y-106934000D03*
%TD*%
D17*
%TO.C,D22*%
X117368000Y-97790000D03*
X119868000Y-97790000D03*
%TD*%
D24*
%TO.C,C15*%
X103723000Y-119761000D03*
X105623000Y-119761000D03*
%TD*%
D21*
%TO.C,R29*%
X122745000Y-85471000D03*
X121095000Y-85471000D03*
%TD*%
D15*
%TO.C,Q22*%
X82414000Y-102103000D03*
D16*
X88714000Y-99823000D03*
D15*
X82414000Y-97543000D03*
%TD*%
D21*
%TO.C,R34*%
X99123000Y-114046000D03*
X97473000Y-114046000D03*
%TD*%
%TO.C,R50*%
X126301000Y-114046000D03*
X124651000Y-114046000D03*
%TD*%
%TO.C,R28*%
X119697000Y-85471000D03*
X118047000Y-85471000D03*
%TD*%
D17*
%TO.C,D12*%
X103652000Y-94742000D03*
X106152000Y-94742000D03*
%TD*%
D25*
%TO.C,C6*%
X127622000Y-125730000D03*
X129172000Y-125730000D03*
%TD*%
D21*
%TO.C,R60*%
X114617000Y-126492000D03*
X112967000Y-126492000D03*
%TD*%
%TO.C,R61*%
X114617000Y-128143000D03*
X112967000Y-128143000D03*
%TD*%
D17*
%TO.C,D9*%
X103652000Y-101854000D03*
X106152000Y-101854000D03*
%TD*%
D24*
%TO.C,C22*%
X111572000Y-85598000D03*
X113472000Y-85598000D03*
%TD*%
D21*
%TO.C,R38*%
X99123000Y-99822000D03*
X97473000Y-99822000D03*
%TD*%
D15*
%TO.C,Q16*%
X68952000Y-94990000D03*
D16*
X75252000Y-92710000D03*
D15*
X68952000Y-90430000D03*
%TD*%
%TO.C,Q10*%
X68952000Y-102103000D03*
D16*
X75252000Y-99823000D03*
D15*
X68952000Y-97543000D03*
%TD*%
D17*
%TO.C,D26*%
X113772000Y-90805000D03*
X111272000Y-90805000D03*
%TD*%
D26*
%TO.C,C1*%
X132334000Y-124092000D03*
X132334000Y-122542000D03*
%TD*%
D21*
%TO.C,R54*%
X126301000Y-99822000D03*
X124651000Y-99822000D03*
%TD*%
D17*
%TO.C,D29*%
X127234000Y-112014000D03*
X124734000Y-112014000D03*
%TD*%
%TO.C,D25*%
X117368000Y-90678000D03*
X119868000Y-90678000D03*
%TD*%
%TO.C,D13*%
X103652000Y-90678000D03*
X106152000Y-90678000D03*
%TD*%
D27*
%TO.C,C4*%
X132347000Y-125730000D03*
X130797000Y-125730000D03*
%TD*%
D17*
%TO.C,D16*%
X117368000Y-112014000D03*
X119868000Y-112014000D03*
%TD*%
%TO.C,D19*%
X117368000Y-104902000D03*
X119868000Y-104902000D03*
%TD*%
D28*
%TO.C,C16*%
X109179000Y-119761000D03*
X107279000Y-119761000D03*
%TD*%
D17*
%TO.C,D28*%
X130830000Y-112014000D03*
X133330000Y-112014000D03*
%TD*%
D29*
%TO.C,U4*%
X102412000Y-126887000D03*
X102412000Y-124587000D03*
D30*
X108712000Y-124587000D03*
D29*
X102412000Y-122287000D03*
%TD*%
D20*
%TO.C,R21*%
X100101000Y-122619000D03*
X100101000Y-124269000D03*
%TD*%
D14*
%TO.C,R37*%
X104077000Y-99822000D03*
X105727000Y-99822000D03*
%TD*%
D17*
%TO.C,D8*%
X100056000Y-104902000D03*
X97556000Y-104902000D03*
%TD*%
%TO.C,D34*%
X130830000Y-97790000D03*
X133330000Y-97790000D03*
%TD*%
%TO.C,D10*%
X103652000Y-97790000D03*
X106152000Y-97790000D03*
%TD*%
D14*
%TO.C,R49*%
X131255000Y-114046000D03*
X132905000Y-114046000D03*
%TD*%
D19*
%TO.C,R6*%
X73152000Y-120142000D03*
X73152000Y-126067000D03*
%TD*%
D17*
%TO.C,D24*%
X117368000Y-94742000D03*
X119868000Y-94742000D03*
%TD*%
D14*
%TO.C,R35*%
X104077000Y-106934000D03*
X105727000Y-106934000D03*
%TD*%
D17*
%TO.C,D36*%
X130830000Y-94742000D03*
X133330000Y-94742000D03*
%TD*%
D23*
%TO.C,C19*%
X119761000Y-123558000D03*
X119761000Y-125108000D03*
%TD*%
D21*
%TO.C,R48*%
X112839000Y-92837000D03*
X111189000Y-92837000D03*
%TD*%
D15*
%TO.C,Q8*%
X55422000Y-94990000D03*
D16*
X61722000Y-92710000D03*
D15*
X55422000Y-90430000D03*
%TD*%
D17*
%TO.C,D11*%
X100056000Y-97790000D03*
X97556000Y-97790000D03*
%TD*%
D21*
%TO.C,R46*%
X112839000Y-99949000D03*
X111189000Y-99949000D03*
%TD*%
%TO.C,R27*%
X116649000Y-85471000D03*
X114999000Y-85471000D03*
%TD*%
D14*
%TO.C,R55*%
X131255000Y-92710000D03*
X132905000Y-92710000D03*
%TD*%
D15*
%TO.C,Q20*%
X82414000Y-109216000D03*
D16*
X88714000Y-106936000D03*
D15*
X82414000Y-104656000D03*
%TD*%
D21*
%TO.C,R56*%
X126301000Y-92710000D03*
X124651000Y-92710000D03*
%TD*%
D17*
%TO.C,D23*%
X113772000Y-97917000D03*
X111272000Y-97917000D03*
%TD*%
%TO.C,D3*%
X103652000Y-116078000D03*
X106152000Y-116078000D03*
%TD*%
%TO.C,D17*%
X113772000Y-112014000D03*
X111272000Y-112014000D03*
%TD*%
D14*
%TO.C,R41*%
X117793000Y-114046000D03*
X119443000Y-114046000D03*
%TD*%
D17*
%TO.C,D35*%
X127234000Y-97790000D03*
X124734000Y-97790000D03*
%TD*%
D19*
%TO.C,R5*%
X69088000Y-120142000D03*
X69088000Y-126067000D03*
%TD*%
D17*
%TO.C,D15*%
X117368000Y-116078000D03*
X119868000Y-116078000D03*
%TD*%
%TO.C,D30*%
X130830000Y-108966000D03*
X133330000Y-108966000D03*
%TD*%
D14*
%TO.C,R33*%
X104077000Y-114046000D03*
X105727000Y-114046000D03*
%TD*%
D15*
%TO.C,Q12*%
X68952000Y-109216000D03*
D16*
X75252000Y-106936000D03*
D15*
X68952000Y-104656000D03*
%TD*%
D27*
%TO.C,C3*%
X130823000Y-121285000D03*
X129273000Y-121285000D03*
%TD*%
D14*
%TO.C,R53*%
X131255000Y-99822000D03*
X132905000Y-99822000D03*
%TD*%
D21*
%TO.C,R44*%
X112839000Y-106934000D03*
X111189000Y-106934000D03*
%TD*%
D19*
%TO.C,R2*%
X55880000Y-120142000D03*
X55880000Y-126067000D03*
%TD*%
D14*
%TO.C,R39*%
X104077000Y-92710000D03*
X105727000Y-92710000D03*
%TD*%
D23*
%TO.C,C20*%
X121412000Y-123558000D03*
X121412000Y-125108000D03*
%TD*%
G36*
X91190488Y-83820321D02*
G01*
X91466193Y-83840040D01*
X91483987Y-83842598D01*
X91749674Y-83900394D01*
X91766924Y-83905459D01*
X92021682Y-84000479D01*
X92038035Y-84007948D01*
X92276675Y-84138256D01*
X92291798Y-84147975D01*
X92509466Y-84310919D01*
X92523052Y-84322692D01*
X92715308Y-84514948D01*
X92727081Y-84528534D01*
X92890025Y-84746202D01*
X92899744Y-84761325D01*
X93030052Y-84999965D01*
X93037521Y-85016318D01*
X93132541Y-85271076D01*
X93137606Y-85288326D01*
X93195402Y-85554013D01*
X93197960Y-85571807D01*
X93217679Y-85847512D01*
X93218000Y-85856501D01*
X93218000Y-87250000D01*
X93197998Y-87318121D01*
X93144342Y-87364614D01*
X93092000Y-87376000D01*
X81652679Y-87376000D01*
X81584558Y-87355998D01*
X81538065Y-87302342D01*
X81527961Y-87232068D01*
X81551811Y-87174491D01*
X81716726Y-86954190D01*
X81721586Y-86946628D01*
X81856217Y-86700070D01*
X81859943Y-86691911D01*
X81958121Y-86428689D01*
X81960645Y-86420092D01*
X82020361Y-86145578D01*
X82021638Y-86136696D01*
X82062040Y-85571807D01*
X82064598Y-85554013D01*
X82122394Y-85288326D01*
X82127459Y-85271076D01*
X82222479Y-85016318D01*
X82229948Y-84999965D01*
X82360256Y-84761325D01*
X82369975Y-84746202D01*
X82532919Y-84528534D01*
X82544692Y-84514948D01*
X82736948Y-84322692D01*
X82750534Y-84310919D01*
X82968202Y-84147975D01*
X82983325Y-84138256D01*
X83221965Y-84007948D01*
X83238318Y-84000479D01*
X83493076Y-83905459D01*
X83510326Y-83900394D01*
X83776013Y-83842598D01*
X83793807Y-83840040D01*
X84069512Y-83820321D01*
X84078501Y-83820000D01*
X91181499Y-83820000D01*
X91190488Y-83820321D01*
G37*
G36*
X60710488Y-83820321D02*
G01*
X60986193Y-83840040D01*
X61003987Y-83842598D01*
X61269674Y-83900394D01*
X61286924Y-83905459D01*
X61541682Y-84000479D01*
X61558035Y-84007948D01*
X61796675Y-84138256D01*
X61811798Y-84147975D01*
X62029466Y-84310919D01*
X62043052Y-84322692D01*
X62235308Y-84514948D01*
X62247081Y-84528534D01*
X62410025Y-84746202D01*
X62419744Y-84761325D01*
X62550052Y-84999965D01*
X62557521Y-85016318D01*
X62652541Y-85271076D01*
X62657606Y-85288326D01*
X62715402Y-85554013D01*
X62717960Y-85571807D01*
X62758362Y-86136696D01*
X62759639Y-86145578D01*
X62819355Y-86420092D01*
X62821879Y-86428689D01*
X62920057Y-86691911D01*
X62923783Y-86700070D01*
X63058414Y-86946628D01*
X63063274Y-86954190D01*
X63228189Y-87174491D01*
X63253000Y-87241011D01*
X63237909Y-87310385D01*
X63187706Y-87360588D01*
X63127321Y-87376000D01*
X51688000Y-87376000D01*
X51619879Y-87355998D01*
X51573386Y-87302342D01*
X51562000Y-87250000D01*
X51562000Y-85856501D01*
X51562321Y-85847512D01*
X51582040Y-85571807D01*
X51584598Y-85554013D01*
X51642394Y-85288326D01*
X51647459Y-85271076D01*
X51742479Y-85016318D01*
X51749948Y-84999965D01*
X51880256Y-84761325D01*
X51889975Y-84746202D01*
X52052919Y-84528534D01*
X52064692Y-84514948D01*
X52256948Y-84322692D01*
X52270534Y-84310919D01*
X52488202Y-84147975D01*
X52503325Y-84138256D01*
X52741965Y-84007948D01*
X52758318Y-84000479D01*
X53013076Y-83905459D01*
X53030326Y-83900394D01*
X53296013Y-83842598D01*
X53313807Y-83840040D01*
X53589512Y-83820321D01*
X53598501Y-83820000D01*
X60701499Y-83820000D01*
X60710488Y-83820321D01*
G37*
G36*
X75950488Y-83820321D02*
G01*
X76226193Y-83840040D01*
X76243987Y-83842598D01*
X76509674Y-83900394D01*
X76526924Y-83905459D01*
X76781682Y-84000479D01*
X76798035Y-84007948D01*
X77036675Y-84138256D01*
X77051798Y-84147975D01*
X77269466Y-84310919D01*
X77283052Y-84322692D01*
X77475308Y-84514948D01*
X77487081Y-84528534D01*
X77650025Y-84746202D01*
X77659744Y-84761325D01*
X77790052Y-84999965D01*
X77797521Y-85016318D01*
X77892541Y-85271076D01*
X77897606Y-85288326D01*
X77955402Y-85554013D01*
X77957960Y-85571807D01*
X77998362Y-86136696D01*
X77999639Y-86145578D01*
X78059355Y-86420092D01*
X78061879Y-86428689D01*
X78160057Y-86691911D01*
X78163783Y-86700070D01*
X78298414Y-86946628D01*
X78303274Y-86954190D01*
X78468189Y-87174491D01*
X78493000Y-87241011D01*
X78477909Y-87310385D01*
X78427706Y-87360588D01*
X78367321Y-87376000D01*
X66412679Y-87376000D01*
X66344558Y-87355998D01*
X66298065Y-87302342D01*
X66287961Y-87232068D01*
X66311811Y-87174491D01*
X66476726Y-86954190D01*
X66481586Y-86946628D01*
X66616217Y-86700070D01*
X66619943Y-86691911D01*
X66718121Y-86428689D01*
X66720645Y-86420092D01*
X66780361Y-86145578D01*
X66781638Y-86136696D01*
X66822040Y-85571807D01*
X66824598Y-85554013D01*
X66882394Y-85288326D01*
X66887459Y-85271076D01*
X66982479Y-85016318D01*
X66989948Y-84999965D01*
X67120256Y-84761325D01*
X67129975Y-84746202D01*
X67292919Y-84528534D01*
X67304692Y-84514948D01*
X67496948Y-84322692D01*
X67510534Y-84310919D01*
X67728202Y-84147975D01*
X67743325Y-84138256D01*
X67981965Y-84007948D01*
X67998318Y-84000479D01*
X68253076Y-83905459D01*
X68270326Y-83900394D01*
X68536013Y-83842598D01*
X68553807Y-83840040D01*
X68829512Y-83820321D01*
X68838501Y-83820000D01*
X75941499Y-83820000D01*
X75950488Y-83820321D01*
G37*
G36*
X71456624Y-128036002D02*
G01*
X71503117Y-128089658D01*
X71513221Y-128159932D01*
X71483727Y-128224512D01*
X71448888Y-128252588D01*
X71295372Y-128336414D01*
X71287810Y-128341274D01*
X71062926Y-128509619D01*
X71056138Y-128515502D01*
X70857502Y-128714138D01*
X70851619Y-128720926D01*
X70683274Y-128945810D01*
X70678414Y-128953372D01*
X70543783Y-129199930D01*
X70540057Y-129208089D01*
X70441879Y-129471311D01*
X70439355Y-129479908D01*
X70379639Y-129754422D01*
X70378362Y-129763304D01*
X70337960Y-130328193D01*
X70335402Y-130345987D01*
X70277606Y-130611674D01*
X70272541Y-130628924D01*
X70177521Y-130883682D01*
X70170052Y-130900035D01*
X70039744Y-131138675D01*
X70030025Y-131153798D01*
X69867081Y-131371466D01*
X69855308Y-131385052D01*
X69663052Y-131577308D01*
X69649466Y-131589081D01*
X69431798Y-131752025D01*
X69416675Y-131761744D01*
X69178035Y-131892052D01*
X69161682Y-131899521D01*
X68906924Y-131994541D01*
X68889674Y-131999606D01*
X68623987Y-132057402D01*
X68606193Y-132059960D01*
X68330488Y-132079679D01*
X68321499Y-132080000D01*
X53598501Y-132080000D01*
X53589512Y-132079679D01*
X53313807Y-132059960D01*
X53296013Y-132057402D01*
X53030326Y-131999606D01*
X53013076Y-131994541D01*
X52758318Y-131899521D01*
X52741965Y-131892052D01*
X52503325Y-131761744D01*
X52488202Y-131752025D01*
X52270534Y-131589081D01*
X52256948Y-131577308D01*
X52064692Y-131385052D01*
X52052919Y-131371466D01*
X51889975Y-131153798D01*
X51880256Y-131138675D01*
X51749948Y-130900035D01*
X51742479Y-130883682D01*
X51647459Y-130628924D01*
X51642394Y-130611674D01*
X51584598Y-130345987D01*
X51582040Y-130328193D01*
X51562321Y-130052488D01*
X51562000Y-130043499D01*
X51562000Y-128142000D01*
X51582002Y-128073879D01*
X51635658Y-128027386D01*
X51688000Y-128016000D01*
X71388503Y-128016000D01*
X71456624Y-128036002D01*
G37*
G36*
X93160121Y-128036002D02*
G01*
X93206614Y-128089658D01*
X93218000Y-128142000D01*
X93218000Y-130043499D01*
X93217679Y-130052488D01*
X93197960Y-130328193D01*
X93195402Y-130345987D01*
X93137606Y-130611674D01*
X93132541Y-130628924D01*
X93037521Y-130883682D01*
X93030052Y-130900035D01*
X92899744Y-131138675D01*
X92890025Y-131153798D01*
X92727081Y-131371466D01*
X92715308Y-131385052D01*
X92523052Y-131577308D01*
X92509466Y-131589081D01*
X92291798Y-131752025D01*
X92276675Y-131761744D01*
X92038035Y-131892052D01*
X92021682Y-131899521D01*
X91766924Y-131994541D01*
X91749674Y-131999606D01*
X91483987Y-132057402D01*
X91466193Y-132059960D01*
X91190488Y-132079679D01*
X91181499Y-132080000D01*
X76458501Y-132080000D01*
X76449512Y-132079679D01*
X76173807Y-132059960D01*
X76156013Y-132057402D01*
X75890326Y-131999606D01*
X75873076Y-131994541D01*
X75618318Y-131899521D01*
X75601965Y-131892052D01*
X75363325Y-131761744D01*
X75348202Y-131752025D01*
X75130534Y-131589081D01*
X75116948Y-131577308D01*
X74924692Y-131385052D01*
X74912919Y-131371466D01*
X74749975Y-131153798D01*
X74740256Y-131138675D01*
X74609948Y-130900035D01*
X74602479Y-130883682D01*
X74507459Y-130628924D01*
X74502394Y-130611674D01*
X74444598Y-130345987D01*
X74442040Y-130328193D01*
X74401638Y-129763304D01*
X74400361Y-129754422D01*
X74340645Y-129479908D01*
X74338121Y-129471311D01*
X74239943Y-129208089D01*
X74236217Y-129199930D01*
X74101586Y-128953372D01*
X74096726Y-128945810D01*
X73928381Y-128720926D01*
X73922498Y-128714138D01*
X73723862Y-128515502D01*
X73717074Y-128509619D01*
X73492190Y-128341274D01*
X73484628Y-128336414D01*
X73331112Y-128252588D01*
X73280909Y-128202385D01*
X73265818Y-128133011D01*
X73290629Y-128066491D01*
X73347464Y-128023944D01*
X73391497Y-128016000D01*
X93092000Y-128016000D01*
X93160121Y-128036002D01*
G37*
G36*
X53790121Y-89174002D02*
G01*
X53836614Y-89227658D01*
X53848000Y-89280000D01*
X53848000Y-119000000D01*
X53827998Y-119068121D01*
X53774342Y-119114614D01*
X53722000Y-119126000D01*
X51942000Y-119126000D01*
X51873879Y-119105998D01*
X51827386Y-119052342D01*
X51816000Y-119000000D01*
X51816000Y-89280000D01*
X51836002Y-89211879D01*
X51889658Y-89165386D01*
X51942000Y-89154000D01*
X53722000Y-89154000D01*
X53790121Y-89174002D01*
G37*
G36*
X80714121Y-89174002D02*
G01*
X80760614Y-89227658D01*
X80772000Y-89280000D01*
X80772000Y-118091885D01*
X80776475Y-118107124D01*
X80777865Y-118108329D01*
X80785548Y-118110000D01*
X81154000Y-118110000D01*
X81222121Y-118130002D01*
X81268614Y-118183658D01*
X81280000Y-118236000D01*
X81280000Y-127382000D01*
X81259998Y-127450121D01*
X81206342Y-127496614D01*
X81154000Y-127508000D01*
X79374000Y-127508000D01*
X79305879Y-127487998D01*
X79259386Y-127434342D01*
X79248000Y-127382000D01*
X79248000Y-119144115D01*
X79243525Y-119128876D01*
X79242135Y-119127671D01*
X79234452Y-119126000D01*
X78866000Y-119126000D01*
X78797879Y-119105998D01*
X78751386Y-119052342D01*
X78740000Y-119000000D01*
X78740000Y-89280000D01*
X78760002Y-89211879D01*
X78813658Y-89165386D01*
X78866000Y-89154000D01*
X80646000Y-89154000D01*
X80714121Y-89174002D01*
G37*
G36*
X67252121Y-89174002D02*
G01*
X67298614Y-89227658D01*
X67310000Y-89280000D01*
X67310000Y-119000000D01*
X67289998Y-119068121D01*
X67236342Y-119114614D01*
X67184000Y-119126000D01*
X65404000Y-119126000D01*
X65335879Y-119105998D01*
X65289386Y-119052342D01*
X65278000Y-119000000D01*
X65278000Y-89280000D01*
X65298002Y-89211879D01*
X65351658Y-89165386D01*
X65404000Y-89154000D01*
X67184000Y-89154000D01*
X67252121Y-89174002D01*
G37*
M02*
