%TF.GenerationSoftware,KiCad,Pcbnew,6.0.9-1.fc36*%
%TF.CreationDate,2022-11-17T16:55:00+00:00*%
%TF.ProjectId,esc,6573632e-6b69-4636-9164-5f7063625858,rev?*%
%TF.SameCoordinates,Original*%
%TF.FileFunction,Profile,NP*%
%FSLAX46Y46*%
G04 Gerber Fmt 4.6, Leading zero omitted, Abs format (unit mm)*
G04 Created by KiCad (PCBNEW 6.0.9-1.fc36) date 2022-11-17 16:55:00*
%MOMM*%
%LPD*%
G01*
G04 APERTURE LIST*
%TA.AperFunction,Profile*%
%ADD10C,0.200000*%
%TD*%
%TA.AperFunction,Profile*%
%ADD11C,0.100000*%
%TD*%
G04 APERTURE END LIST*
D10*
X76454000Y-132080000D02*
X91186000Y-132080000D01*
X77978000Y-85852000D02*
G75*
G03*
X75946000Y-83820000I-2032000J0D01*
G01*
X68834000Y-83820000D02*
X75946000Y-83820000D01*
D11*
X93980000Y-93218000D02*
X95504000Y-93218000D01*
D10*
X84074000Y-83820000D02*
X91186000Y-83820000D01*
X84074000Y-83820000D02*
G75*
G03*
X82042000Y-85852000I0J-2032000D01*
G01*
X93218000Y-93980000D02*
X93218000Y-122174000D01*
X110236000Y-85090000D02*
X110236000Y-83820000D01*
X53594000Y-83820000D02*
X60706000Y-83820000D01*
X110236000Y-83820000D02*
X123952000Y-83820000D01*
X126238000Y-87376000D02*
X137922000Y-87376000D01*
D11*
X93980000Y-93218000D02*
G75*
G03*
X93218000Y-93980000I0J-762000D01*
G01*
D10*
X53594000Y-132080000D02*
X68326000Y-132080000D01*
X96266000Y-122174000D02*
X96266000Y-93980000D01*
X123952000Y-83820000D02*
X123952000Y-85090000D01*
D11*
X95504000Y-128778000D02*
X93980000Y-128778000D01*
X96266000Y-87376000D02*
X93980000Y-87376000D01*
X93980000Y-128778000D02*
G75*
G03*
X93218000Y-129540000I0J-762000D01*
G01*
D10*
X53594000Y-83820000D02*
G75*
G03*
X51562000Y-85852000I0J-2032000D01*
G01*
D11*
X96266000Y-130048000D02*
X96266000Y-129540000D01*
D10*
X51562000Y-85852000D02*
X51562000Y-87884000D01*
X51562000Y-130048000D02*
X51562000Y-87884000D01*
X96266000Y-87376000D02*
X107950000Y-87376000D01*
X137922000Y-130048000D02*
X96266000Y-130048000D01*
X137922000Y-87376000D02*
X137922000Y-130048000D01*
X80010000Y-87884000D02*
G75*
G03*
X82042000Y-85852000I0J2032000D01*
G01*
X74422000Y-130048000D02*
G75*
G03*
X76454000Y-132080000I2032000J0D01*
G01*
X68834000Y-83820000D02*
G75*
G03*
X66802000Y-85852000I0J-2032000D01*
G01*
D11*
X96266000Y-129540000D02*
G75*
G03*
X95504000Y-128778000I-762000J0D01*
G01*
X93218000Y-86614000D02*
X93218000Y-85852000D01*
D10*
X68326000Y-132080000D02*
G75*
G03*
X70358000Y-130048000I0J2032000D01*
G01*
X62738000Y-85852000D02*
G75*
G03*
X60706000Y-83820000I-2032000J0D01*
G01*
D11*
X93218000Y-129540000D02*
X93218000Y-130048000D01*
X93218000Y-122174000D02*
G75*
G03*
X93980000Y-122936000I762000J0D01*
G01*
D10*
X74422000Y-130048000D02*
G75*
G03*
X72390000Y-128016000I-2032000J0D01*
G01*
X64770000Y-87884000D02*
G75*
G03*
X66802000Y-85852000I0J2032000D01*
G01*
D11*
X93980000Y-122936000D02*
X95504000Y-122936000D01*
X96266000Y-93980000D02*
G75*
G03*
X95504000Y-93218000I-762000J0D01*
G01*
D10*
X107950000Y-87376000D02*
G75*
G03*
X110236000Y-85090000I0J2286000D01*
G01*
X77978000Y-85852000D02*
G75*
G03*
X80010000Y-87884000I2032000J0D01*
G01*
X51562000Y-130048000D02*
G75*
G03*
X53594000Y-132080000I2032000J0D01*
G01*
X91186000Y-132080000D02*
G75*
G03*
X93218000Y-130048000I0J2032000D01*
G01*
D11*
X93218000Y-86614000D02*
G75*
G03*
X93980000Y-87376000I762000J0D01*
G01*
D10*
X123952000Y-85090000D02*
G75*
G03*
X126238000Y-87376000I2286000J0D01*
G01*
X93218000Y-85852000D02*
G75*
G03*
X91186000Y-83820000I-2032000J0D01*
G01*
X62738000Y-85852000D02*
G75*
G03*
X64770000Y-87884000I2032000J0D01*
G01*
X72390000Y-128016000D02*
G75*
G03*
X70358000Y-130048000I0J-2032000D01*
G01*
D11*
X95504000Y-122936000D02*
G75*
G03*
X96266000Y-122174000I0J762000D01*
G01*
M02*
