M48
; DRILL file {KiCad 6.0.9-1.fc36} date Thu 17 Nov 2022 16:54:52 GMT
; FORMAT={-:-/ absolute / inch / decimal}
; #@! TF.CreationDate,2022-11-17T16:54:52+00:00
; #@! TF.GenerationSoftware,Kicad,Pcbnew,6.0.9-1.fc36
; #@! TF.FileFunction,Plated,1,4,PTH
FMAT,2
INCH
; #@! TA.AperFunction,Plated,PTH,ViaDrill
T1C0.0157
; #@! TA.AperFunction,Plated,PTH,ComponentDrill
T2C0.0300
; #@! TA.AperFunction,Plated,PTH,ComponentDrill
T3C0.0394
%
G90
G05
T1
X2.065Y-4.965
X2.065Y-5.005
X2.07Y-4.85
X2.1Y-4.82
X2.105Y-4.965
X2.105Y-5.005
X2.11Y-3.34
X2.11Y-3.38
X2.11Y-3.42
X2.12Y-5.08
X2.12Y-5.12
X2.12Y-5.16
X2.15Y-3.34
X2.15Y-3.38
X2.15Y-3.42
X2.15Y-3.79
X2.15Y-4.07
X2.15Y-4.35
X2.15Y-4.63
X2.16Y-3.69
X2.16Y-3.97
X2.16Y-4.25
X2.16Y-4.53
X2.16Y-5.08
X2.16Y-5.12
X2.16Y-5.16
X2.19Y-3.34
X2.19Y-3.38
X2.19Y-3.42
X2.2Y-3.69
X2.2Y-3.97
X2.2Y-4.25
X2.2Y-4.53
X2.2Y-5.08
X2.2Y-5.12
X2.2Y-5.16
X2.23Y-3.34
X2.23Y-3.38
X2.23Y-3.42
X2.24Y-5.08
X2.24Y-5.12
X2.24Y-5.16
X2.27Y-3.34
X2.27Y-3.38
X2.27Y-3.42
X2.28Y-5.08
X2.28Y-5.12
X2.28Y-5.16
X2.31Y-3.34
X2.31Y-3.38
X2.31Y-3.42
X2.32Y-5.08
X2.32Y-5.12
X2.32Y-5.16
X2.35Y-3.34
X2.35Y-3.38
X2.35Y-3.42
X2.36Y-5.08
X2.36Y-5.12
X2.36Y-5.16
X2.39Y-3.34
X2.39Y-3.38
X2.39Y-3.42
X2.4Y-5.08
X2.4Y-5.12
X2.4Y-5.16
X2.44Y-5.08
X2.44Y-5.12
X2.44Y-5.16
X2.45Y-3.61
X2.45Y-3.65
X2.45Y-3.69
X2.45Y-3.89
X2.45Y-3.93
X2.45Y-3.97
X2.45Y-4.17
X2.45Y-4.21
X2.45Y-4.25
X2.45Y-4.45
X2.45Y-4.49
X2.45Y-4.53
X2.48Y-5.08
X2.48Y-5.12
X2.48Y-5.16
X2.49Y-3.61
X2.49Y-3.65
X2.49Y-3.69
X2.49Y-3.89
X2.49Y-3.93
X2.49Y-3.97
X2.49Y-4.17
X2.49Y-4.21
X2.49Y-4.25
X2.49Y-4.45
X2.49Y-4.49
X2.49Y-4.53
X2.52Y-5.08
X2.52Y-5.12
X2.52Y-5.16
X2.53Y-3.61
X2.53Y-3.65
X2.53Y-3.69
X2.53Y-3.89
X2.53Y-3.93
X2.53Y-3.97
X2.53Y-4.17
X2.53Y-4.21
X2.53Y-4.25
X2.53Y-4.45
X2.53Y-4.49
X2.53Y-4.53
X2.56Y-5.08
X2.56Y-5.12
X2.56Y-5.16
X2.6Y-5.08
X2.6Y-5.12
X2.6Y-5.16
X2.64Y-5.08
X2.64Y-5.12
X2.64Y-5.16
X2.65Y-4.855
X2.655Y-4.81
X2.68Y-3.79
X2.68Y-4.07
X2.68Y-4.35
X2.68Y-4.64
X2.68Y-5.08
X2.68Y-5.12
X2.68Y-5.16
X2.685Y-3.97
X2.69Y-3.69
X2.69Y-4.25
X2.69Y-4.53
X2.71Y-3.34
X2.71Y-3.38
X2.71Y-3.42
X2.725Y-3.97
X2.73Y-3.69
X2.73Y-4.25
X2.73Y-4.53
X2.75Y-3.34
X2.75Y-3.38
X2.75Y-3.42
X2.79Y-3.34
X2.79Y-3.38
X2.79Y-3.42
X2.83Y-3.34
X2.83Y-3.38
X2.83Y-3.42
X2.87Y-3.34
X2.87Y-3.38
X2.87Y-3.42
X2.91Y-3.34
X2.91Y-3.38
X2.91Y-3.42
X2.95Y-3.34
X2.95Y-3.38
X2.95Y-3.42
X2.98Y-3.61
X2.98Y-3.65
X2.98Y-3.69
X2.98Y-3.89
X2.98Y-3.93
X2.98Y-3.97
X2.98Y-4.17
X2.98Y-4.21
X2.98Y-4.25
X2.98Y-4.45
X2.98Y-4.49
X2.98Y-4.53
X2.99Y-3.34
X2.99Y-3.38
X2.99Y-3.42
X3.02Y-3.61
X3.02Y-3.65
X3.02Y-3.69
X3.02Y-3.89
X3.02Y-3.93
X3.02Y-3.97
X3.02Y-4.17
X3.02Y-4.21
X3.02Y-4.25
X3.02Y-4.45
X3.02Y-4.49
X3.02Y-4.53
X3.02Y-5.08
X3.02Y-5.12
X3.02Y-5.16
X3.06Y-3.61
X3.06Y-3.65
X3.06Y-3.69
X3.06Y-3.89
X3.06Y-3.93
X3.06Y-3.97
X3.06Y-4.17
X3.06Y-4.21
X3.06Y-4.25
X3.06Y-4.45
X3.06Y-4.49
X3.06Y-4.53
X3.06Y-5.08
X3.06Y-5.12
X3.06Y-5.16
X3.1Y-5.08
X3.1Y-5.12
X3.1Y-5.16
X3.14Y-5.08
X3.14Y-5.12
X3.14Y-5.16
X3.18Y-5.08
X3.18Y-5.12
X3.18Y-5.16
X3.2Y-4.63
X3.21Y-3.79
X3.21Y-4.07
X3.21Y-4.35
X3.22Y-3.69
X3.22Y-3.97
X3.22Y-4.25
X3.22Y-4.53
X3.22Y-5.08
X3.22Y-5.12
X3.22Y-5.16
X3.26Y-3.69
X3.26Y-3.97
X3.26Y-4.25
X3.26Y-4.53
X3.26Y-5.08
X3.26Y-5.12
X3.26Y-5.16
X3.3Y-5.08
X3.3Y-5.12
X3.3Y-5.16
X3.31Y-3.34
X3.31Y-3.38
X3.31Y-3.42
X3.34Y-5.08
X3.34Y-5.12
X3.34Y-5.16
X3.35Y-3.34
X3.35Y-3.38
X3.35Y-3.42
X3.38Y-5.08
X3.38Y-5.12
X3.38Y-5.16
X3.39Y-3.34
X3.39Y-3.38
X3.39Y-3.42
X3.42Y-5.08
X3.42Y-5.12
X3.42Y-5.16
X3.43Y-3.34
X3.43Y-3.38
X3.43Y-3.42
X3.46Y-5.08
X3.46Y-5.12
X3.46Y-5.16
X3.47Y-3.34
X3.47Y-3.38
X3.47Y-3.42
X3.5Y-5.08
X3.5Y-5.12
X3.5Y-5.16
X3.51Y-3.34
X3.51Y-3.38
X3.51Y-3.42
X3.51Y-3.61
X3.51Y-3.65
X3.51Y-3.69
X3.51Y-3.89
X3.51Y-3.93
X3.51Y-3.97
X3.51Y-4.17
X3.51Y-4.21
X3.51Y-4.25
X3.51Y-4.45
X3.51Y-4.49
X3.51Y-4.53
X3.54Y-5.08
X3.54Y-5.12
X3.54Y-5.16
X3.55Y-3.34
X3.55Y-3.38
X3.55Y-3.42
X3.55Y-3.61
X3.55Y-3.65
X3.55Y-3.69
X3.55Y-3.89
X3.55Y-3.93
X3.55Y-3.97
X3.55Y-4.17
X3.55Y-4.21
X3.55Y-4.25
X3.55Y-4.45
X3.55Y-4.49
X3.55Y-4.53
X3.58Y-5.08
X3.58Y-5.12
X3.58Y-5.16
X3.59Y-3.34
X3.59Y-3.38
X3.59Y-3.42
X3.59Y-3.61
X3.59Y-3.65
X3.59Y-3.69
X3.59Y-3.89
X3.59Y-3.93
X3.59Y-3.97
X3.59Y-4.17
X3.59Y-4.21
X3.59Y-4.25
X3.59Y-4.45
X3.59Y-4.49
X3.59Y-4.53
X3.825Y-4.655
X3.8348Y-4.8426
X3.865Y-4.655
X3.87Y-4.825
X3.9Y-4.39
X3.905Y-4.655
X3.915Y-3.81
X3.925Y-4.085
X3.96Y-3.53
X3.969Y-4.9918
X3.9975Y-3.71
X4.0Y-4.2767
X4.0022Y-3.9949
X4.0027Y-4.4666
X4.0225Y-4.615
X4.0242Y-4.6557
X4.0297Y-3.9079
X4.0305Y-4.1705
X4.0309Y-4.4209
X4.0393Y-3.6178
X4.0525Y-3.6553
X4.06Y-4.22
X4.0615Y-3.9311
X4.0625Y-4.4998
X4.0735Y-4.5376
X4.095Y-5.025
X4.0975Y-3.7805
X4.0975Y-4.0582
X4.0975Y-4.331
X4.1777Y-4.935
X4.18Y-3.77
X4.18Y-4.33
X4.1855Y-4.0489
X4.1855Y-4.5863
X4.19Y-4.89
X4.195Y-4.6958
X4.195Y-4.775
X4.215Y-4.625
X4.25Y-3.615
X4.2547Y-3.8933
X4.255Y-4.175
X4.255Y-4.455
X4.3Y-4.635
X4.325Y-4.94
X4.3388Y-4.6285
X4.3417Y-4.72
X4.355Y-4.825
X4.3877Y-4.8504
X4.396Y-4.9469
X4.4348Y-3.5553
X4.44Y-3.83
X4.4541Y-4.3969
X4.4671Y-3.4174
X4.4805Y-4.113
X4.51Y-4.63
X4.515Y-4.985
X4.545Y-5.0525
X4.5475Y-3.6349
X4.5475Y-4.19
X4.5475Y-4.4619
X4.5495Y-3.9306
X4.55Y-4.61
X4.575Y-4.145
X4.577Y-3.8697
X4.5771Y-3.5965
X4.5775Y-4.43
X4.6Y-4.62
X4.6016Y-4.7996
X4.605Y-3.765
X4.605Y-4.505
X4.61Y-3.685
X4.615Y-3.9601
X4.62Y-4.05
X4.62Y-4.245
X4.6316Y-4.534
X4.6378Y-4.3143
X4.655Y-4.85
X4.66Y-4.92
X4.6933Y-3.735
X4.705Y-4.035
X4.705Y-4.61
X4.705Y-5.0716
X4.7259Y-4.3143
X4.7664Y-5.0638
X4.785Y-4.18
X4.785Y-4.46
X4.79Y-3.62
X4.79Y-3.9
X4.795Y-4.9855
X4.8145Y-4.9255
X4.8864Y-4.7222
X4.9033Y-4.8555
X4.9089Y-4.9558
X4.9308Y-5.0269
X4.9648Y-4.6555
X4.9709Y-4.3821
X4.971Y-4.9891
X4.9763Y-4.8363
X4.9888Y-4.6867
X5.005Y-5.02
X5.01Y-3.525
X5.015Y-3.81
X5.015Y-4.095
X5.075Y-3.635
X5.075Y-3.915
X5.075Y-4.655
X5.075Y-5.0406
X5.0775Y-4.4695
X5.0797Y-4.184
X5.1021Y-4.6265
X5.105Y-3.59
X5.105Y-3.865
X5.1073Y-4.145
X5.1098Y-4.4399
X5.114Y-5.0353
X5.1229Y-4.706
X5.1374Y-4.5
X5.1417Y-4.6715
X5.145Y-3.685
X5.145Y-3.965
X5.15Y-3.77
X5.1502Y-5.0199
X5.155Y-4.05
X5.155Y-4.2467
X5.1562Y-4.5345
X5.162Y-4.3143
X5.2265Y-3.7343
X5.2265Y-4.3143
X5.23Y-4.035
X5.23Y-4.605
X5.28Y-4.8456
X5.28Y-4.885
X5.3Y-5.03
X5.305Y-3.895
X5.31Y-4.175
X5.31Y-4.46
X5.315Y-3.615
X5.325Y-4.925
X5.3252Y-5.0602
X5.3287Y-4.8167
X5.39Y-4.81
X5.39Y-5.0028
X5.395Y-5.05
T2
X3.85Y-3.74
X3.85Y-4.02
X3.85Y-4.3
X3.85Y-4.58
X3.85Y-4.77
X3.85Y-4.9
X3.85Y-4.985
X4.26Y-3.56
X4.26Y-3.74
X4.26Y-3.84
X4.26Y-4.02
X4.26Y-4.12
X4.26Y-4.3
X4.26Y-4.4
X4.26Y-4.58
X4.37Y-4.77
X4.37Y-4.9
X4.38Y-3.74
X4.38Y-4.02
X4.38Y-4.3
X4.38Y-4.58
X4.79Y-3.56
X4.79Y-3.74
X4.79Y-3.84
X4.79Y-4.02
X4.79Y-4.12
X4.79Y-4.3
X4.79Y-4.4
X4.79Y-4.58
X4.91Y-3.74
X4.91Y-4.02
X4.91Y-4.3
X4.91Y-4.58
X5.32Y-3.56
X5.32Y-3.74
X5.32Y-3.84
X5.32Y-4.02
X5.32Y-4.12
X5.32Y-4.3
X5.32Y-4.4
X5.32Y-4.58
T3
X4.41Y-3.455
X4.51Y-3.455
X4.61Y-3.455
X4.71Y-3.455
X4.81Y-3.455
T0
M30
