%TF.GenerationSoftware,KiCad,Pcbnew,6.0.4-1.fc35*%
%TF.CreationDate,2022-04-18T17:29:02+01:00*%
%TF.ProjectId,esc,6573632e-6b69-4636-9164-5f7063625858,rev?*%
%TF.SameCoordinates,Original*%
%TF.FileFunction,Copper,L2,Inr*%
%TF.FilePolarity,Positive*%
%FSLAX46Y46*%
G04 Gerber Fmt 4.6, Leading zero omitted, Abs format (unit mm)*
G04 Created by KiCad (PCBNEW 6.0.4-1.fc35) date 2022-04-18 17:29:02*
%MOMM*%
%LPD*%
G01*
G04 APERTURE LIST*
%TA.AperFunction,ComponentPad*%
%ADD10O,1.700000X1.700000*%
%TD*%
%TA.AperFunction,ComponentPad*%
%ADD11R,1.700000X1.700000*%
%TD*%
%TA.AperFunction,ComponentPad*%
%ADD12R,1.600000X1.600000*%
%TD*%
%TA.AperFunction,ComponentPad*%
%ADD13C,1.600000*%
%TD*%
%TA.AperFunction,ComponentPad*%
%ADD14R,2.000000X2.000000*%
%TD*%
%TA.AperFunction,ComponentPad*%
%ADD15C,2.000000*%
%TD*%
%TA.AperFunction,ViaPad*%
%ADD16C,0.800000*%
%TD*%
%TA.AperFunction,Conductor*%
%ADD17C,0.200000*%
%TD*%
%TA.AperFunction,Conductor*%
%ADD18C,0.250000*%
%TD*%
%TA.AperFunction,Conductor*%
%ADD19C,0.508000*%
%TD*%
%TA.AperFunction,Conductor*%
%ADD20C,0.254000*%
%TD*%
%TA.AperFunction,Conductor*%
%ADD21C,1.000000*%
%TD*%
G04 APERTURE END LIST*
D10*
%TO.N,/Supplies/VIN*%
%TO.C,SW3*%
X194579000Y-33528000D03*
%TO.N,+12V*%
X192039000Y-33528000D03*
D11*
%TO.N,Net-(C22-Pad1)*%
X189499000Y-33528000D03*
%TD*%
%TO.N,/LV_SUPPLY*%
%TO.C,SW1*%
X196611000Y-58759385D03*
D10*
%TO.N,/Supplies/VIN*%
X196611000Y-61299385D03*
%TO.N,VDD*%
X196611000Y-63839385D03*
%TD*%
D12*
%TO.N,Net-(C22-Pad1)*%
%TO.C,C22*%
X181750349Y-36591000D03*
D13*
%TO.N,GND*%
X185250349Y-36591000D03*
%TD*%
D11*
%TO.N,/SPI_CLK*%
%TO.C,J4*%
X186944000Y-76454000D03*
D10*
%TO.N,/SPI_MISO*%
X189484000Y-76454000D03*
%TO.N,/SPI_MOSI*%
X192024000Y-76454000D03*
%TO.N,/SPI_SS*%
X194564000Y-76454000D03*
%TO.N,GND*%
X197104000Y-76454000D03*
%TD*%
D11*
%TO.N,/~{MCLR}*%
%TO.C,J3*%
X186944000Y-72136000D03*
D10*
%TO.N,+3V3*%
X189484000Y-72136000D03*
%TO.N,GND*%
X192024000Y-72136000D03*
%TO.N,/PGD1*%
X194564000Y-72136000D03*
%TO.N,/PGC1*%
X197104000Y-72136000D03*
%TD*%
D14*
%TO.N,+5V*%
%TO.C,C17*%
X194071000Y-43515677D03*
D15*
%TO.N,GND*%
X194071000Y-38515677D03*
%TD*%
D12*
%TO.N,Net-(C16-Pad1)*%
%TO.C,C16*%
X181371000Y-54331036D03*
D13*
%TO.N,GND*%
X181371000Y-50831036D03*
%TD*%
D11*
%TO.N,Net-(C16-Pad1)*%
%TO.C,SW2*%
X178831000Y-46228000D03*
D10*
%TO.N,+5V*%
X181371000Y-46228000D03*
%TO.N,/Supplies/VIN*%
X183911000Y-46228000D03*
%TD*%
D11*
%TO.N,/QEI_A{slash}HALL_A{slash}GPIO0*%
%TO.C,J5*%
X186954000Y-67818000D03*
D10*
%TO.N,/QEI_B{slash}HALL_B{slash}GPIO1*%
X189494000Y-67818000D03*
%TO.N,/HOME{slash}HALL_C{slash}GPIO2*%
X192034000Y-67818000D03*
%TO.N,GND*%
X194574000Y-67818000D03*
%TD*%
D14*
%TO.N,/Supplies/VIN*%
%TO.C,C14*%
X192039000Y-54030062D03*
D15*
%TO.N,GND*%
X192039000Y-49030062D03*
%TD*%
D16*
%TO.N,GND*%
X170180000Y-73406000D03*
%TO.N,/Phases/A_HIN*%
X174244000Y-69850000D03*
%TO.N,Net-(D4-Pad2)*%
X115107440Y-65965088D03*
X145796000Y-66802000D03*
%TO.N,VDD*%
X137414000Y-78486000D03*
X135382000Y-77470000D03*
X184404000Y-77978000D03*
X133350000Y-77470000D03*
X135382000Y-76454000D03*
X134366000Y-78486000D03*
X125222000Y-77470000D03*
X132334000Y-77470000D03*
X126238000Y-77470000D03*
X136398000Y-78486000D03*
X138430000Y-78486000D03*
X127254000Y-77470000D03*
X126238000Y-76454000D03*
X128270000Y-78486000D03*
X135382000Y-78486000D03*
X133350000Y-78486000D03*
X138430000Y-76454000D03*
X130302000Y-76454000D03*
X136398000Y-77470000D03*
X137414000Y-76454000D03*
X125222000Y-76454000D03*
X130302000Y-78486000D03*
X139446000Y-77470000D03*
X126238000Y-78486000D03*
X130302000Y-77470000D03*
X134366000Y-77470000D03*
X139446000Y-76454000D03*
X129286000Y-76454000D03*
X128270000Y-76454000D03*
X127254000Y-76454000D03*
X132334000Y-76454000D03*
X131318000Y-76454000D03*
X131318000Y-77470000D03*
X129286000Y-78486000D03*
X131318000Y-78486000D03*
X134366000Y-76454000D03*
X128270000Y-77470000D03*
X133350000Y-76454000D03*
X136398000Y-76454000D03*
X138430000Y-77470000D03*
X139446000Y-78486000D03*
X125222000Y-78486000D03*
X137414000Y-77470000D03*
X132334000Y-78486000D03*
X127254000Y-78486000D03*
X129286000Y-77470000D03*
%TO.N,/Phases/PHASE_A*%
X114554000Y-54864000D03*
X103632000Y-31750000D03*
X102616000Y-33782000D03*
X114554000Y-55880000D03*
X114554000Y-47244000D03*
X106680000Y-32766000D03*
X146304000Y-53848000D03*
X103632000Y-32766000D03*
X113538000Y-38608000D03*
X112522000Y-55880000D03*
X107696000Y-32766000D03*
X104648000Y-32766000D03*
X112522000Y-53848000D03*
X106680000Y-31750000D03*
X114554000Y-62484000D03*
X105664000Y-33782000D03*
X105664000Y-32766000D03*
X106680000Y-33782000D03*
X114554000Y-40640000D03*
X113538000Y-39624000D03*
X112522000Y-54864000D03*
X114554000Y-46228000D03*
X113538000Y-53848000D03*
X103632000Y-33782000D03*
X114554000Y-38608000D03*
X112522000Y-61468000D03*
X152654000Y-48422500D03*
X108712000Y-31750000D03*
X113538000Y-40640000D03*
X152654000Y-54518500D03*
X114554000Y-48260000D03*
X114554000Y-53848000D03*
X104648000Y-33782000D03*
X112522000Y-62484000D03*
X149098000Y-37846000D03*
X113538000Y-63500000D03*
X113538000Y-62484000D03*
X114554000Y-63500000D03*
X113538000Y-47244000D03*
X113538000Y-54864000D03*
X112522000Y-47244000D03*
X113538000Y-61468000D03*
X114554000Y-61468000D03*
X112522000Y-63500000D03*
X112522000Y-46228000D03*
X102616000Y-31750000D03*
X107696000Y-31750000D03*
X169226500Y-50800000D03*
X108712000Y-33782000D03*
X107696000Y-33782000D03*
X113538000Y-55880000D03*
X112522000Y-38608000D03*
X108712000Y-32766000D03*
X102616000Y-32766000D03*
X113538000Y-46228000D03*
X112522000Y-39624000D03*
X114554000Y-39624000D03*
X112522000Y-40640000D03*
X152654000Y-66710500D03*
X104648000Y-31750000D03*
X105664000Y-31750000D03*
X113538000Y-48260000D03*
X112522000Y-48260000D03*
%TO.N,Net-(D5-Pad2)*%
X146816299Y-67018500D03*
X104394000Y-66040000D03*
%TO.N,/Phases/Phase A/BRIDGE_LOW*%
X129540000Y-70104000D03*
X107000609Y-70849859D03*
%TO.N,Net-(D7-Pad2)*%
X146304000Y-55118000D03*
X115107440Y-58345088D03*
%TO.N,Net-(D8-Pad2)*%
X147324299Y-59939701D03*
X104394000Y-58420000D03*
%TO.N,Net-(D10-Pad2)*%
X146812000Y-51562000D03*
X115107440Y-50725088D03*
%TO.N,Net-(D11-Pad2)*%
X104394000Y-50800000D03*
X145542000Y-53086000D03*
%TO.N,Net-(D13-Pad2)*%
X146812000Y-40132000D03*
X115062000Y-43180000D03*
%TO.N,Net-(D14-Pad2)*%
X104394000Y-43180000D03*
X145791701Y-40127701D03*
%TO.N,Net-(D16-Pad2)*%
X129286000Y-50800000D03*
X145542000Y-51562000D03*
%TO.N,/Phases/PHASE_B*%
X121920000Y-33782000D03*
X127254000Y-40640000D03*
X129286000Y-40640000D03*
X129286000Y-48260000D03*
X128270000Y-40640000D03*
X129286000Y-62484000D03*
X129286000Y-46228000D03*
X127254000Y-61468000D03*
X123952000Y-31750000D03*
X127254000Y-62484000D03*
X117856000Y-32766000D03*
X128270000Y-55880000D03*
X150832042Y-42501632D03*
X128270000Y-39624000D03*
X129286000Y-38608000D03*
X120904000Y-32766000D03*
X127254000Y-39624000D03*
X169672000Y-55372000D03*
X119888000Y-32766000D03*
X118872000Y-31750000D03*
X128270000Y-48260000D03*
X127254000Y-53848000D03*
X128270000Y-61468000D03*
X123952000Y-33782000D03*
X128270000Y-62484000D03*
X118872000Y-32766000D03*
X128270000Y-63500000D03*
X120904000Y-31750000D03*
X129286000Y-61468000D03*
X119888000Y-31750000D03*
X129286000Y-39624000D03*
X117856000Y-33782000D03*
X120904000Y-33782000D03*
X121920000Y-32766000D03*
X119888000Y-33782000D03*
X150798250Y-60198000D03*
X150798250Y-54102000D03*
X129286000Y-55880000D03*
X123952000Y-32766000D03*
X122936000Y-31750000D03*
X128270000Y-46228000D03*
X122936000Y-33782000D03*
X128270000Y-38608000D03*
X127254000Y-38608000D03*
X128270000Y-47244000D03*
X121920000Y-31750000D03*
X127254000Y-46228000D03*
X129286000Y-47244000D03*
X127254000Y-55880000D03*
X129286000Y-63500000D03*
X129286000Y-53848000D03*
X129286000Y-54864000D03*
X118872000Y-33782000D03*
X127254000Y-54864000D03*
X127254000Y-63500000D03*
X127254000Y-47244000D03*
X122936000Y-32766000D03*
X128270000Y-53848000D03*
X127254000Y-48260000D03*
X117856000Y-31750000D03*
X128270000Y-54864000D03*
%TO.N,Net-(D17-Pad2)*%
X119380000Y-50800000D03*
X145542000Y-49530000D03*
%TO.N,/Phases/Phase B/BRIDGE_LOW*%
X129614595Y-72370713D03*
X120136286Y-70860286D03*
%TO.N,Net-(D19-Pad2)*%
X129810524Y-58361368D03*
X146304000Y-57658000D03*
%TO.N,Net-(D20-Pad2)*%
X119126000Y-58420000D03*
X146304000Y-56388000D03*
%TO.N,Net-(D22-Pad2)*%
X129810524Y-65981368D03*
X146050000Y-64008000D03*
%TO.N,Net-(D23-Pad2)*%
X119109476Y-65981368D03*
X147320000Y-64008000D03*
%TO.N,Net-(D25-Pad2)*%
X129810524Y-43121368D03*
X145542000Y-43845868D03*
%TO.N,Net-(D26-Pad2)*%
X119126000Y-43180000D03*
X145542000Y-44845371D03*
%TO.N,/Phases/PHASE_C*%
X141986000Y-40640000D03*
X143002000Y-40640000D03*
X144018000Y-53848000D03*
X141986000Y-39624000D03*
X144018000Y-62484000D03*
X144018000Y-61468000D03*
X137160000Y-33782000D03*
X141986000Y-48260000D03*
X143002000Y-61468000D03*
X133096000Y-31750000D03*
X138176000Y-33782000D03*
X141986000Y-46228000D03*
X134112000Y-33782000D03*
X141986000Y-47244000D03*
X136144000Y-33782000D03*
X143002000Y-39624000D03*
X133096000Y-33782000D03*
X139192000Y-31750000D03*
X135128000Y-32766000D03*
X143002000Y-53848000D03*
X141986000Y-55880000D03*
X137160000Y-32766000D03*
X144018000Y-46228000D03*
X141986000Y-54864000D03*
X143002000Y-55880000D03*
X144018000Y-55880000D03*
X141986000Y-38608000D03*
X144018000Y-38608000D03*
X141986000Y-62484000D03*
X144018000Y-40640000D03*
X143002000Y-48260000D03*
X141986000Y-61468000D03*
X139192000Y-32766000D03*
X144018000Y-47244000D03*
X170434000Y-59944000D03*
X143002000Y-63500000D03*
X136144000Y-31750000D03*
X136144000Y-32766000D03*
X144018000Y-39624000D03*
X151800500Y-42164000D03*
X138176000Y-31750000D03*
X134112000Y-32766000D03*
X141986000Y-53848000D03*
X139192000Y-33782000D03*
X144018000Y-54864000D03*
X137160000Y-31750000D03*
X143002000Y-54864000D03*
X143002000Y-47244000D03*
X141986000Y-63500000D03*
X135128000Y-31750000D03*
X143002000Y-38608000D03*
X144018000Y-48260000D03*
X133096000Y-32766000D03*
X135128000Y-33782000D03*
X134112000Y-31750000D03*
X143002000Y-46228000D03*
X151651750Y-66385500D03*
X143002000Y-62484000D03*
X150772746Y-72306500D03*
X144018000Y-63500000D03*
X151708812Y-48097500D03*
X138176000Y-32766000D03*
%TO.N,Net-(D29-Pad2)*%
X133858000Y-66040000D03*
X148703622Y-65672378D03*
%TO.N,GNDPWR*%
X129794000Y-74168000D03*
X106426000Y-77470000D03*
X167894000Y-69533500D03*
X116586000Y-76454000D03*
X167894000Y-51308000D03*
X114554000Y-78486000D03*
X116586000Y-77470000D03*
X113538000Y-77470000D03*
X167894000Y-45212000D03*
X114554000Y-77470000D03*
X112522000Y-77470000D03*
X106426000Y-76454000D03*
X116586000Y-78486000D03*
X110490000Y-77470000D03*
X111506000Y-76454000D03*
X108458000Y-77470000D03*
X107442000Y-77470000D03*
X167894000Y-57404000D03*
X167894000Y-38354000D03*
X102362000Y-78486000D03*
X109474000Y-78486000D03*
X107996424Y-70935636D03*
X104394000Y-78486000D03*
X110490000Y-76454000D03*
X115570000Y-76454000D03*
X108458000Y-78486000D03*
X115570000Y-77470000D03*
X112522000Y-78486000D03*
X107442000Y-76454000D03*
X108458000Y-76454000D03*
X121158000Y-70866000D03*
X113538000Y-78486000D03*
X112522000Y-76454000D03*
X105410000Y-78486000D03*
X104394000Y-77470000D03*
X102362000Y-77470000D03*
X122682000Y-74930000D03*
X115570000Y-78486000D03*
X102362000Y-76454000D03*
X110490000Y-78486000D03*
X105410000Y-77470000D03*
X103378000Y-76454000D03*
X106426000Y-78486000D03*
X148888628Y-67121389D03*
X111506000Y-77470000D03*
X141478000Y-75376020D03*
X109474000Y-76454000D03*
X167894000Y-63500000D03*
X103378000Y-77470000D03*
X113538000Y-76454000D03*
X129540000Y-71374000D03*
X111506000Y-78486000D03*
X104394000Y-76454000D03*
X109474000Y-77470000D03*
X105410000Y-76454000D03*
X114554000Y-76454000D03*
X107442000Y-78486000D03*
X103378000Y-78486000D03*
%TO.N,Net-(D32-Pad2)*%
X133858000Y-58420000D03*
X146304000Y-59182000D03*
%TO.N,Net-(D35-Pad2)*%
X134112000Y-50800000D03*
X146558000Y-48006000D03*
%TO.N,Net-(D38-Pad2)*%
X133841476Y-43121368D03*
X146812000Y-41656000D03*
%TO.N,/Phases/A_CURRENT_SENSE*%
X174372231Y-73471534D03*
%TO.N,GND*%
X184658000Y-74930000D03*
X185166000Y-76329011D03*
X184658000Y-43688000D03*
%TO.N,+3V3*%
X183896000Y-72898000D03*
X184260965Y-76792209D03*
X178562000Y-66739500D03*
X174327500Y-75184000D03*
%TO.N,/Phases/B_CURRENT_SENSE*%
X178911516Y-78327516D03*
%TO.N,Net-(D1-Pad1)*%
X186944000Y-60452000D03*
%TO.N,Net-(R25-Pad2)*%
X184151533Y-56714941D03*
X188722000Y-56714885D03*
%TO.N,Net-(D2-Pad2)*%
X175275000Y-36123000D03*
%TO.N,Net-(L2-Pad1)*%
X186235480Y-43380520D03*
%TO.N,+3.3VA*%
X168606689Y-71792142D03*
X148082000Y-69596000D03*
X143182137Y-71484107D03*
%TO.N,GNDA*%
X174244000Y-64262000D03*
X144780000Y-68771000D03*
X145470589Y-71554830D03*
X135382000Y-72136000D03*
X141732000Y-70371000D03*
X135382000Y-68834000D03*
X171450000Y-73468500D03*
X148945542Y-71790458D03*
X141211000Y-73927000D03*
%TO.N,/Phases/A_VOLTAGE_SENSE*%
X175530356Y-75026180D03*
X174062570Y-66980796D03*
%TO.N,/Phases/B_VOLTAGE_SENSE*%
X175144413Y-66888196D03*
X176022000Y-75946000D03*
%TO.N,/Phases/C_VOLTAGE_SENSE*%
X179832000Y-66294000D03*
X179905680Y-78224354D03*
%TO.N,Net-(C16-Pad1)*%
X182387000Y-56881000D03*
%TO.N,+12V*%
X165341000Y-51816000D03*
X165341000Y-57912000D03*
X165341000Y-68841255D03*
X165341000Y-64008000D03*
X165341000Y-39624000D03*
X165354000Y-45720000D03*
%TO.N,/~{MCLR}*%
X173927930Y-72576211D03*
%TO.N,/Phases/A_HIN*%
X160336500Y-56388000D03*
X160336500Y-50292000D03*
X160837245Y-69540755D03*
X160782000Y-38354000D03*
%TO.N,/Phases/~{A_LIN}*%
X160782000Y-70612000D03*
X160274000Y-39624000D03*
X159766000Y-52578000D03*
X159766000Y-58420000D03*
X174244000Y-71628000D03*
%TO.N,/Phases/B_HIN*%
X160528000Y-61694980D03*
X161075399Y-57652614D03*
X161728500Y-45720000D03*
X161029000Y-51562000D03*
X169164000Y-61722000D03*
%TO.N,/Phases/~{B_LIN}*%
X160590415Y-62692531D03*
X161735500Y-46736000D03*
X161728500Y-56896000D03*
X169761249Y-65188751D03*
X161728500Y-50800000D03*
%TO.N,/Phases/C_HIN*%
X161781953Y-70658975D03*
X175298803Y-68287197D03*
X161036000Y-40894000D03*
X175006000Y-44958000D03*
X161735500Y-64407867D03*
X161036000Y-44958000D03*
%TO.N,/Phases/~{C_LIN}*%
X161544000Y-68834000D03*
X161544000Y-62992000D03*
X175764525Y-44199475D03*
X176784000Y-68072000D03*
X161768330Y-44185921D03*
X161819132Y-37781500D03*
%TO.N,/HOME{slash}HALL_C{slash}GPIO2*%
X182880000Y-66294000D03*
X182880000Y-76200000D03*
%TD*%
D17*
%TO.N,/Phases/B_VOLTAGE_SENSE*%
X174331395Y-67701214D02*
X174331395Y-68356401D01*
X175144413Y-66888196D02*
X174331395Y-67701214D01*
X174331395Y-68356401D02*
X176229857Y-70254863D01*
X176229857Y-70254863D02*
X176229857Y-75738143D01*
X176229857Y-75738143D02*
X176022000Y-75946000D01*
%TO.N,/Phases/A_VOLTAGE_SENSE*%
X173931876Y-68521876D02*
X173931876Y-67111490D01*
X175530356Y-75026180D02*
X175530356Y-70120356D01*
X175530356Y-70120356D02*
X173931876Y-68521876D01*
X173931876Y-67111490D02*
X174062570Y-66980796D01*
%TO.N,/Phases/C_HIN*%
X175006000Y-44958000D02*
X176276000Y-46228000D01*
X176276000Y-46228000D02*
X176276000Y-67310000D01*
X176276000Y-67310000D02*
X175298803Y-68287197D01*
%TO.N,/Phases/C_VOLTAGE_SENSE*%
X179832000Y-66294000D02*
X179832000Y-78150674D01*
X179832000Y-78150674D02*
X179905680Y-78224354D01*
D18*
%TO.N,Net-(D4-Pad2)*%
X115107440Y-65965088D02*
X115944352Y-66802000D01*
X115944352Y-66802000D02*
X145796000Y-66802000D01*
D17*
%TO.N,/Phases/PHASE_A*%
X111760000Y-36830000D02*
X167894000Y-36830000D01*
X169418000Y-50608500D02*
X169226500Y-50800000D01*
D19*
X152654000Y-38608000D02*
X151892000Y-37846000D01*
D20*
X126953068Y-53121489D02*
X144550046Y-53121489D01*
D19*
X152654000Y-66710500D02*
X152654000Y-54518500D01*
D17*
X167894000Y-36830000D02*
X169418000Y-38354000D01*
X108712000Y-33782000D02*
X111760000Y-36830000D01*
D20*
X145276557Y-53848000D02*
X146304000Y-53848000D01*
X144550046Y-53121489D02*
X145276557Y-53848000D01*
X114554000Y-53848000D02*
X126226557Y-53848000D01*
D19*
X152654000Y-54518500D02*
X152654000Y-48422500D01*
X151892000Y-37846000D02*
X149098000Y-37846000D01*
D17*
X169418000Y-39624000D02*
X169418000Y-50608500D01*
X169418000Y-38354000D02*
X169418000Y-39624000D01*
D19*
X152654000Y-50708500D02*
X152654000Y-38608000D01*
D20*
X126226557Y-53848000D02*
X126953068Y-53121489D01*
D18*
%TO.N,Net-(D5-Pad2)*%
X146816299Y-67018500D02*
X146270799Y-67564000D01*
X146270799Y-67564000D02*
X105918000Y-67564000D01*
X105918000Y-67564000D02*
X104394000Y-66040000D01*
%TO.N,/Phases/Phase A/BRIDGE_LOW*%
X108466614Y-69088000D02*
X128524000Y-69088000D01*
X107000609Y-70849859D02*
X107000609Y-70554005D01*
X107000609Y-70554005D02*
X108466614Y-69088000D01*
X128524000Y-69088000D02*
X129540000Y-70104000D01*
%TO.N,Net-(D7-Pad2)*%
X146304000Y-55118000D02*
X144780000Y-56642000D01*
X116810528Y-56642000D02*
X115107440Y-58345088D01*
X144780000Y-56642000D02*
X116810528Y-56642000D01*
%TO.N,Net-(D8-Pad2)*%
X145796000Y-60198000D02*
X147066000Y-60198000D01*
X140462000Y-59182000D02*
X144780000Y-59182000D01*
X105156000Y-59182000D02*
X140462000Y-59182000D01*
X144780000Y-59182000D02*
X145796000Y-60198000D01*
X104394000Y-58420000D02*
X105156000Y-59182000D01*
X147066000Y-60198000D02*
X147324299Y-59939701D01*
%TO.N,Net-(D10-Pad2)*%
X115107440Y-50725088D02*
X116452352Y-52070000D01*
X145241897Y-52286511D02*
X146087489Y-52286511D01*
X116452352Y-52070000D02*
X145025386Y-52070000D01*
X146087489Y-52286511D02*
X146812000Y-51562000D01*
X145025386Y-52070000D02*
X145241897Y-52286511D01*
%TO.N,Net-(D11-Pad2)*%
X117660480Y-52519520D02*
X144839188Y-52519520D01*
X144839188Y-52519520D02*
X145055699Y-52736031D01*
X145192031Y-52736031D02*
X145542000Y-53086000D01*
X117348000Y-52832000D02*
X117660480Y-52519520D01*
X145055699Y-52736031D02*
X145192031Y-52736031D01*
X104394000Y-50800000D02*
X106426000Y-52832000D01*
X106426000Y-52832000D02*
X117348000Y-52832000D01*
%TO.N,Net-(D13-Pad2)*%
X144547143Y-42396857D02*
X115845143Y-42396857D01*
X146812000Y-40132000D02*
X144547143Y-42396857D01*
X115845143Y-42396857D02*
X115062000Y-43180000D01*
%TO.N,Net-(D14-Pad2)*%
X145791701Y-40127701D02*
X144517402Y-41402000D01*
X106172000Y-41402000D02*
X104394000Y-43180000D01*
X144517402Y-41402000D02*
X106172000Y-41402000D01*
%TO.N,Net-(D16-Pad2)*%
X130048000Y-51562000D02*
X145542000Y-51562000D01*
X129286000Y-50800000D02*
X130048000Y-51562000D01*
D17*
%TO.N,/Phases/PHASE_B*%
X126492000Y-36322000D02*
X168148000Y-36322000D01*
X169926000Y-38100000D02*
X169926000Y-55118000D01*
D19*
X150798250Y-54102000D02*
X150798250Y-60198000D01*
D20*
X129286000Y-61468000D02*
X130012511Y-60741489D01*
D17*
X123952000Y-33782000D02*
X126492000Y-36322000D01*
D19*
X150832042Y-42501632D02*
X150832042Y-54068208D01*
D17*
X168148000Y-36322000D02*
X169926000Y-38100000D01*
D20*
X150254761Y-60741489D02*
X150798250Y-60198000D01*
D19*
X150832042Y-54068208D02*
X150798250Y-54102000D01*
D20*
X130012511Y-60741489D02*
X150254761Y-60741489D01*
D17*
X169926000Y-55118000D02*
X169672000Y-55372000D01*
D18*
%TO.N,Net-(D17-Pad2)*%
X145542000Y-49530000D02*
X145537701Y-49525701D01*
X145537701Y-49525701D02*
X120654299Y-49525701D01*
X120654299Y-49525701D02*
X119380000Y-50800000D01*
D20*
%TO.N,/Phases/Phase B/BRIDGE_LOW*%
X120136286Y-70860286D02*
X120136286Y-70617714D01*
X128758713Y-72370713D02*
X129614595Y-72370713D01*
X125476000Y-70104000D02*
X126492000Y-70104000D01*
X120136286Y-70617714D02*
X120650000Y-70104000D01*
X120650000Y-70104000D02*
X125476000Y-70104000D01*
X126492000Y-70104000D02*
X128524000Y-72136000D01*
X128524000Y-72136000D02*
X128758713Y-72370713D01*
D18*
%TO.N,Net-(D19-Pad2)*%
X129810524Y-58361368D02*
X130513892Y-57658000D01*
X130513892Y-57658000D02*
X146304000Y-57658000D01*
%TO.N,Net-(D20-Pad2)*%
X120396000Y-57150000D02*
X145288000Y-57150000D01*
X145542000Y-57150000D02*
X146304000Y-56388000D01*
X119126000Y-58420000D02*
X120396000Y-57150000D01*
X145288000Y-57150000D02*
X145542000Y-57150000D01*
%TO.N,Net-(D22-Pad2)*%
X130513892Y-65278000D02*
X144780000Y-65278000D01*
X129810524Y-65981368D02*
X130513892Y-65278000D01*
X144780000Y-65278000D02*
X146050000Y-64008000D01*
%TO.N,Net-(D23-Pad2)*%
X144018000Y-64770000D02*
X145542000Y-63246000D01*
X119109476Y-65981368D02*
X120320844Y-64770000D01*
X146558000Y-63246000D02*
X147320000Y-64008000D01*
X120320844Y-64770000D02*
X144018000Y-64770000D01*
X145542000Y-63246000D02*
X146558000Y-63246000D01*
%TO.N,Net-(D25-Pad2)*%
X130535024Y-43845868D02*
X145542000Y-43845868D01*
X129810524Y-43121368D02*
X130535024Y-43845868D01*
%TO.N,Net-(D26-Pad2)*%
X120791371Y-44845371D02*
X145542000Y-44845371D01*
X119126000Y-43180000D02*
X120791371Y-44845371D01*
D19*
%TO.N,/Phases/PHASE_C*%
X150772746Y-72306500D02*
X151651750Y-71427496D01*
D17*
X168402000Y-35814000D02*
X170434000Y-37846000D01*
X139192000Y-33782000D02*
X141224000Y-35814000D01*
D19*
X151708812Y-48097500D02*
X151708812Y-42255688D01*
X151651750Y-71427496D02*
X151651750Y-66385500D01*
D17*
X170434000Y-37846000D02*
X170434000Y-59944000D01*
D19*
X151651750Y-66385500D02*
X151651750Y-48154562D01*
X151651750Y-48154562D02*
X151708812Y-48097500D01*
D17*
X141224000Y-35814000D02*
X168402000Y-35814000D01*
D20*
X147750250Y-62484000D02*
X144018000Y-62484000D01*
X151651750Y-66385500D02*
X147750250Y-62484000D01*
D19*
X151708812Y-42255688D02*
X151800500Y-42164000D01*
D18*
%TO.N,Net-(D29-Pad2)*%
X148590000Y-65786000D02*
X148703622Y-65672378D01*
X133858000Y-66040000D02*
X134112000Y-65786000D01*
X134112000Y-65786000D02*
X148590000Y-65786000D01*
%TO.N,GNDPWR*%
X127762000Y-69596000D02*
X129540000Y-71374000D01*
D21*
X123106489Y-75354489D02*
X122682000Y-74930000D01*
X141478000Y-75376020D02*
X141456469Y-75354489D01*
D18*
X107996424Y-70574190D02*
X108974614Y-69596000D01*
X108974614Y-69596000D02*
X127762000Y-69596000D01*
D20*
X121158000Y-70866000D02*
X121374500Y-70649500D01*
X121374500Y-70649500D02*
X126275500Y-70649500D01*
D18*
X107996424Y-70935636D02*
X107996424Y-70574190D01*
D21*
X141456469Y-75354489D02*
X123106489Y-75354489D01*
D20*
X126275500Y-70649500D02*
X129794000Y-74168000D01*
D18*
%TO.N,Net-(D32-Pad2)*%
X146304000Y-59182000D02*
X145542000Y-58420000D01*
X145542000Y-58420000D02*
X133858000Y-58420000D01*
%TO.N,Net-(D35-Pad2)*%
X146558000Y-49538614D02*
X145296614Y-50800000D01*
X146558000Y-48006000D02*
X146558000Y-49538614D01*
X145296614Y-50800000D02*
X134112000Y-50800000D01*
%TO.N,Net-(D38-Pad2)*%
X145346632Y-43121368D02*
X133841476Y-43121368D01*
X146812000Y-41656000D02*
X145346632Y-43121368D01*
D19*
%TO.N,+3.3VA*%
X145070244Y-69596000D02*
X148082000Y-69596000D01*
X143182137Y-71484107D02*
X145070244Y-69596000D01*
D17*
%TO.N,GNDA*%
X141211000Y-73927000D02*
X143098419Y-73927000D01*
X143098419Y-73927000D02*
X145470589Y-71554830D01*
D19*
%TO.N,+12V*%
X165341000Y-51816000D02*
X165341000Y-45733000D01*
X165341000Y-64008000D02*
X165341000Y-57912000D01*
X165341000Y-68841255D02*
X165341000Y-64008000D01*
X165341000Y-45733000D02*
X165354000Y-45720000D01*
X165354000Y-39637000D02*
X165341000Y-39624000D01*
X165354000Y-45720000D02*
X165354000Y-39637000D01*
X165341000Y-57912000D02*
X165341000Y-51816000D01*
D17*
%TO.N,/Phases/A_HIN*%
X160973511Y-39940489D02*
X160336500Y-40577500D01*
X160973511Y-38545511D02*
X160973511Y-39940489D01*
X160336500Y-58001241D02*
X160528000Y-58192741D01*
X160528000Y-58192741D02*
X160528000Y-60452000D01*
X160528000Y-69231510D02*
X160837245Y-69540755D01*
X160329489Y-50299011D02*
X160329489Y-52152230D01*
X159828489Y-66610489D02*
X160528000Y-67310000D01*
X160465511Y-56258989D02*
X160336500Y-56388000D01*
X160782000Y-38354000D02*
X160973511Y-38545511D01*
X160528000Y-60452000D02*
X159828489Y-61151511D01*
X160329489Y-52152230D02*
X160465511Y-52288252D01*
X159828489Y-61151511D02*
X159828489Y-66610489D01*
X160528000Y-67310000D02*
X160528000Y-69231510D01*
X160336500Y-40577500D02*
X160336500Y-50292000D01*
X160336500Y-50292000D02*
X160329489Y-50299011D01*
X160336500Y-56388000D02*
X160336500Y-58001241D01*
X160465511Y-52288252D02*
X160465511Y-56258989D01*
%TO.N,/Phases/~{A_LIN}*%
X159428969Y-66775975D02*
X159428969Y-58757031D01*
X159766000Y-58420000D02*
X159636989Y-58290989D01*
X159766000Y-52578000D02*
X159636989Y-52448989D01*
X160105883Y-69935883D02*
X160105883Y-67452889D01*
X160105883Y-67452889D02*
X159428969Y-66775975D01*
X159636989Y-52448989D02*
X159636989Y-40261011D01*
X159428969Y-58757031D02*
X159766000Y-58420000D01*
X160782000Y-70612000D02*
X160105883Y-69935883D01*
X159636989Y-52707011D02*
X159766000Y-52578000D01*
X159636989Y-40261011D02*
X160274000Y-39624000D01*
X159636989Y-58290989D02*
X159636989Y-52707011D01*
%TO.N,/Phases/B_HIN*%
X161290000Y-60932980D02*
X161290000Y-57867215D01*
X161028989Y-57606204D02*
X161028989Y-56606252D01*
X161036000Y-46016759D02*
X161036000Y-50503241D01*
X161028989Y-56606252D02*
X161036000Y-56599241D01*
X161290000Y-57867215D02*
X161075399Y-57652614D01*
X161332759Y-45720000D02*
X161036000Y-46016759D01*
X161036000Y-51555000D02*
X161029000Y-51562000D01*
X161028989Y-51089748D02*
X161036000Y-51096759D01*
X161036000Y-56599241D02*
X161036000Y-51569000D01*
X161028989Y-50510252D02*
X161028989Y-51089748D01*
X161036000Y-51096759D02*
X161036000Y-51555000D01*
X161075399Y-57652614D02*
X161028989Y-57606204D01*
X160528000Y-61694980D02*
X161290000Y-60932980D01*
X161036000Y-50503241D02*
X161028989Y-50510252D01*
X161036000Y-51569000D02*
X161029000Y-51562000D01*
X161728500Y-45720000D02*
X161332759Y-45720000D01*
%TO.N,/Phases/~{B_LIN}*%
X161728500Y-56896000D02*
X161728500Y-50800000D01*
X160854210Y-62692531D02*
X161798000Y-61748741D01*
X161798000Y-50730500D02*
X161728500Y-50800000D01*
X161798000Y-56965500D02*
X161728500Y-56896000D01*
X161798000Y-61748741D02*
X161798000Y-56965500D01*
X161735500Y-46736000D02*
X161798000Y-46798500D01*
X161798000Y-46798500D02*
X161798000Y-50730500D01*
X160590415Y-62692531D02*
X160854210Y-62692531D01*
%TO.N,/Phases/C_HIN*%
X162243511Y-70197417D02*
X161781953Y-70658975D01*
X161036000Y-40894000D02*
X161036000Y-44958000D01*
X162243511Y-64915878D02*
X162243511Y-70197417D01*
X161735500Y-64407867D02*
X162243511Y-64915878D01*
%TO.N,/Phases/~{C_LIN}*%
X161036000Y-68326000D02*
X161036000Y-63500000D01*
X161819132Y-44135119D02*
X161768330Y-44185921D01*
X176784000Y-45218950D02*
X175764525Y-44199475D01*
X176784000Y-68072000D02*
X176784000Y-45218950D01*
X161819132Y-37781500D02*
X161819132Y-44135119D01*
X161544000Y-68834000D02*
X161036000Y-68326000D01*
X161036000Y-63500000D02*
X161544000Y-62992000D01*
%TO.N,/HOME{slash}HALL_C{slash}GPIO2*%
X182880000Y-76200000D02*
X182880000Y-66294000D01*
%TD*%
%TA.AperFunction,Conductor*%
%TO.N,GND*%
G36*
X197616122Y-30989270D02*
G01*
X197778794Y-30999932D01*
X197779542Y-30999983D01*
X197873831Y-31006727D01*
X197889423Y-31008827D01*
X197979770Y-31026798D01*
X198033498Y-31037485D01*
X198035608Y-31037925D01*
X198088171Y-31049359D01*
X198146443Y-31062036D01*
X198160160Y-31065843D01*
X198295672Y-31111843D01*
X198299203Y-31113100D01*
X198355848Y-31134227D01*
X198408874Y-31154005D01*
X198420551Y-31159047D01*
X198547573Y-31221687D01*
X198552183Y-31224081D01*
X198597781Y-31248979D01*
X198656173Y-31280864D01*
X198665789Y-31286686D01*
X198782924Y-31364953D01*
X198788431Y-31368850D01*
X198883734Y-31440193D01*
X198891303Y-31446329D01*
X198997022Y-31539042D01*
X199003039Y-31544679D01*
X199087321Y-31628961D01*
X199092958Y-31634978D01*
X199185671Y-31740697D01*
X199191807Y-31748266D01*
X199263150Y-31843569D01*
X199267047Y-31849076D01*
X199345314Y-31966211D01*
X199351136Y-31975827D01*
X199407911Y-32079801D01*
X199410313Y-32084427D01*
X199472953Y-32211449D01*
X199477995Y-32223126D01*
X199497773Y-32276152D01*
X199518900Y-32332797D01*
X199520157Y-32336328D01*
X199566157Y-32471840D01*
X199569964Y-32485557D01*
X199582626Y-32543761D01*
X199594075Y-32596392D01*
X199594522Y-32598537D01*
X199623173Y-32742577D01*
X199625273Y-32758169D01*
X199632017Y-32852458D01*
X199632068Y-32853206D01*
X199642730Y-33015878D01*
X199643000Y-33024119D01*
X199643000Y-77211881D01*
X199642730Y-77220122D01*
X199632068Y-77382794D01*
X199632017Y-77383542D01*
X199625273Y-77477831D01*
X199623173Y-77493423D01*
X199594522Y-77637463D01*
X199594075Y-77639608D01*
X199593519Y-77642165D01*
X199569964Y-77750443D01*
X199566157Y-77764160D01*
X199520157Y-77899672D01*
X199518900Y-77903203D01*
X199509225Y-77929143D01*
X199477995Y-78012874D01*
X199472953Y-78024551D01*
X199410313Y-78151573D01*
X199407911Y-78156199D01*
X199351136Y-78260173D01*
X199345314Y-78269789D01*
X199267047Y-78386924D01*
X199263150Y-78392431D01*
X199191807Y-78487734D01*
X199185673Y-78495301D01*
X199164394Y-78519565D01*
X199092958Y-78601022D01*
X199087321Y-78607039D01*
X199003039Y-78691321D01*
X198997023Y-78696957D01*
X198934202Y-78752050D01*
X198891303Y-78789671D01*
X198883734Y-78795807D01*
X198788431Y-78867150D01*
X198782930Y-78871043D01*
X198720795Y-78912560D01*
X198665789Y-78949314D01*
X198656173Y-78955136D01*
X198597781Y-78987021D01*
X198552183Y-79011919D01*
X198547573Y-79014313D01*
X198420551Y-79076953D01*
X198408874Y-79081995D01*
X198355848Y-79101773D01*
X198299203Y-79122900D01*
X198295672Y-79124157D01*
X198160160Y-79170157D01*
X198146443Y-79173964D01*
X198088171Y-79186641D01*
X198035608Y-79198075D01*
X198033498Y-79198515D01*
X197979770Y-79209202D01*
X197889423Y-79227173D01*
X197873831Y-79229273D01*
X197779542Y-79236017D01*
X197778794Y-79236068D01*
X197616122Y-79246730D01*
X197607881Y-79247000D01*
X173232119Y-79247000D01*
X173223878Y-79246730D01*
X173061206Y-79236068D01*
X173060458Y-79236017D01*
X172966169Y-79229273D01*
X172950577Y-79227173D01*
X172860230Y-79209202D01*
X172806502Y-79198515D01*
X172804392Y-79198075D01*
X172751829Y-79186641D01*
X172693557Y-79173964D01*
X172679840Y-79170157D01*
X172544328Y-79124157D01*
X172540797Y-79122900D01*
X172484152Y-79101773D01*
X172431126Y-79081995D01*
X172419449Y-79076953D01*
X172292427Y-79014313D01*
X172287817Y-79011919D01*
X172242219Y-78987021D01*
X172183827Y-78955136D01*
X172174211Y-78949314D01*
X172119205Y-78912560D01*
X172057070Y-78871043D01*
X172051569Y-78867150D01*
X171956266Y-78795807D01*
X171948697Y-78789671D01*
X171905799Y-78752050D01*
X171842977Y-78696957D01*
X171836961Y-78691321D01*
X171752679Y-78607039D01*
X171747042Y-78601022D01*
X171675606Y-78519565D01*
X171654327Y-78495301D01*
X171648193Y-78487734D01*
X171576850Y-78392431D01*
X171572953Y-78386924D01*
X171494686Y-78269789D01*
X171488864Y-78260173D01*
X171432089Y-78156199D01*
X171429687Y-78151573D01*
X171367047Y-78024551D01*
X171362005Y-78012874D01*
X171330775Y-77929143D01*
X171321100Y-77903203D01*
X171319843Y-77899672D01*
X171273843Y-77764160D01*
X171270036Y-77750443D01*
X171246481Y-77642165D01*
X171245925Y-77639608D01*
X171245478Y-77637463D01*
X171216827Y-77493423D01*
X171214727Y-77477831D01*
X171207983Y-77383542D01*
X171207932Y-77382794D01*
X171198148Y-77233517D01*
X171199165Y-77216000D01*
X171201362Y-77216000D01*
X171188538Y-77020341D01*
X171184202Y-76954186D01*
X171184201Y-76954182D01*
X171183932Y-76950071D01*
X171171726Y-76888707D01*
X171132747Y-76692742D01*
X171132745Y-76692736D01*
X171131941Y-76688692D01*
X171129583Y-76681744D01*
X171078792Y-76532122D01*
X171046277Y-76436335D01*
X170928407Y-76197319D01*
X170926112Y-76193884D01*
X170782641Y-75979164D01*
X170782637Y-75979159D01*
X170780348Y-75975733D01*
X170777634Y-75972639D01*
X170777630Y-75972633D01*
X170607341Y-75778457D01*
X170604632Y-75775368D01*
X170535767Y-75714975D01*
X170407367Y-75602370D01*
X170407361Y-75602366D01*
X170404267Y-75599652D01*
X170400841Y-75597363D01*
X170400836Y-75597359D01*
X170186116Y-75453888D01*
X170186114Y-75453887D01*
X170182681Y-75451593D01*
X169957939Y-75340762D01*
X169947358Y-75335544D01*
X169947356Y-75335543D01*
X169943665Y-75333723D01*
X169831303Y-75295581D01*
X169695218Y-75249386D01*
X169695214Y-75249385D01*
X169691308Y-75248059D01*
X169687264Y-75247255D01*
X169687258Y-75247253D01*
X169433972Y-75196872D01*
X169433969Y-75196872D01*
X169429929Y-75196068D01*
X169425818Y-75195799D01*
X169425814Y-75195798D01*
X169229666Y-75182942D01*
X169164000Y-75178638D01*
X169164000Y-75181890D01*
X169153955Y-75183000D01*
X168528000Y-75183000D01*
X168459879Y-75162998D01*
X168413386Y-75109342D01*
X168402000Y-75057000D01*
X168402000Y-73468500D01*
X170844318Y-73468500D01*
X170864956Y-73625262D01*
X170925464Y-73771341D01*
X171021718Y-73896782D01*
X171147159Y-73993036D01*
X171293238Y-74053544D01*
X171301426Y-74054622D01*
X171324472Y-74057656D01*
X171450000Y-74074182D01*
X171458188Y-74073104D01*
X171598574Y-74054622D01*
X171606762Y-74053544D01*
X171752841Y-73993036D01*
X171878282Y-73896782D01*
X171974536Y-73771341D01*
X172035044Y-73625262D01*
X172055682Y-73468500D01*
X172035044Y-73311738D01*
X171974536Y-73165659D01*
X171906059Y-73076418D01*
X171883305Y-73046764D01*
X171878282Y-73040218D01*
X171752841Y-72943964D01*
X171606762Y-72883456D01*
X171450000Y-72862818D01*
X171293238Y-72883456D01*
X171147159Y-72943964D01*
X171021718Y-73040218D01*
X171016695Y-73046764D01*
X170993941Y-73076418D01*
X170925464Y-73165659D01*
X170864956Y-73311738D01*
X170844318Y-73468500D01*
X168402000Y-73468500D01*
X168402000Y-72576211D01*
X173322248Y-72576211D01*
X173342886Y-72732973D01*
X173403394Y-72879052D01*
X173499648Y-73004493D01*
X173506194Y-73009516D01*
X173513295Y-73014965D01*
X173625089Y-73100747D01*
X173697045Y-73130552D01*
X173722708Y-73141182D01*
X173777989Y-73185730D01*
X173800410Y-73253094D01*
X173792117Y-73299065D01*
X173792485Y-73299164D01*
X173791306Y-73303566D01*
X173790902Y-73305803D01*
X173787187Y-73314772D01*
X173766549Y-73471534D01*
X173787187Y-73628296D01*
X173847695Y-73774375D01*
X173943949Y-73899816D01*
X174069390Y-73996070D01*
X174215469Y-74056578D01*
X174372231Y-74077216D01*
X174380419Y-74076138D01*
X174395277Y-74074182D01*
X174528993Y-74056578D01*
X174675072Y-73996070D01*
X174800513Y-73899816D01*
X174896767Y-73774375D01*
X174957275Y-73628296D01*
X174977913Y-73471534D01*
X174957275Y-73314772D01*
X174896767Y-73168693D01*
X174800513Y-73043252D01*
X174675072Y-72946998D01*
X174577453Y-72906563D01*
X174522172Y-72862015D01*
X174499751Y-72794651D01*
X174508044Y-72748680D01*
X174507676Y-72748581D01*
X174508855Y-72744179D01*
X174509259Y-72741942D01*
X174509814Y-72740602D01*
X174512974Y-72732973D01*
X174533612Y-72576211D01*
X174512974Y-72419449D01*
X174504893Y-72399938D01*
X174471784Y-72320007D01*
X174464195Y-72249417D01*
X174495974Y-72185930D01*
X174532493Y-72160575D01*
X174532060Y-72159825D01*
X174539211Y-72155697D01*
X174546841Y-72152536D01*
X174672282Y-72056282D01*
X174768536Y-71930841D01*
X174829044Y-71784762D01*
X174830437Y-71774185D01*
X174848604Y-71636188D01*
X174849682Y-71628000D01*
X174829044Y-71471238D01*
X174768536Y-71325159D01*
X174672282Y-71199718D01*
X174665683Y-71194654D01*
X174620699Y-71160137D01*
X174546841Y-71103464D01*
X174400762Y-71042956D01*
X174244000Y-71022318D01*
X174087238Y-71042956D01*
X173941159Y-71103464D01*
X173867301Y-71160137D01*
X173822318Y-71194654D01*
X173815718Y-71199718D01*
X173719464Y-71325159D01*
X173658956Y-71471238D01*
X173638318Y-71628000D01*
X173639396Y-71636188D01*
X173657564Y-71774185D01*
X173658956Y-71784762D01*
X173662115Y-71792389D01*
X173662116Y-71792392D01*
X173700146Y-71884204D01*
X173707735Y-71954794D01*
X173675956Y-72018281D01*
X173639437Y-72043636D01*
X173639870Y-72044386D01*
X173632719Y-72048514D01*
X173625089Y-72051675D01*
X173499648Y-72147929D01*
X173403394Y-72273370D01*
X173342886Y-72419449D01*
X173322248Y-72576211D01*
X168402000Y-72576211D01*
X168402000Y-72514552D01*
X168422002Y-72446431D01*
X168475658Y-72399938D01*
X168544445Y-72389630D01*
X168598499Y-72396746D01*
X168598501Y-72396746D01*
X168606689Y-72397824D01*
X168614877Y-72396746D01*
X168755263Y-72378264D01*
X168763451Y-72377186D01*
X168909530Y-72316678D01*
X169034971Y-72220424D01*
X169131225Y-72094983D01*
X169191733Y-71948904D01*
X169212371Y-71792142D01*
X169191733Y-71635380D01*
X169131225Y-71489301D01*
X169034971Y-71363860D01*
X168909530Y-71267606D01*
X168763451Y-71207098D01*
X168606689Y-71186460D01*
X168598501Y-71187538D01*
X168598499Y-71187538D01*
X168544445Y-71194654D01*
X168474297Y-71183714D01*
X168421198Y-71136586D01*
X168402000Y-71069732D01*
X168402000Y-69896588D01*
X168417933Y-69837127D01*
X168418536Y-69836341D01*
X168479044Y-69690262D01*
X168499682Y-69533500D01*
X168489363Y-69455119D01*
X168480122Y-69384926D01*
X168479044Y-69376738D01*
X168436452Y-69273911D01*
X168421696Y-69238287D01*
X168421695Y-69238285D01*
X168418536Y-69230659D01*
X168417933Y-69229873D01*
X168402000Y-69170412D01*
X168402000Y-66980796D01*
X173456888Y-66980796D01*
X173477526Y-67137558D01*
X173538034Y-67283637D01*
X173543061Y-67290188D01*
X173605339Y-67371351D01*
X173630939Y-67437572D01*
X173631376Y-67448055D01*
X173631376Y-68469510D01*
X173631180Y-68472183D01*
X173629451Y-68477218D01*
X173629887Y-68488840D01*
X173629887Y-68488842D01*
X173631287Y-68526131D01*
X173631376Y-68530857D01*
X173631376Y-68549824D01*
X173632258Y-68554559D01*
X173632486Y-68558085D01*
X173633650Y-68589084D01*
X173638240Y-68599769D01*
X173639277Y-68604369D01*
X173642838Y-68616090D01*
X173644537Y-68620493D01*
X173646667Y-68631929D01*
X173652771Y-68641831D01*
X173659603Y-68652915D01*
X173668107Y-68669287D01*
X173674327Y-68683764D01*
X173674329Y-68683768D01*
X173677840Y-68691939D01*
X173681854Y-68696825D01*
X173684039Y-68699010D01*
X173686091Y-68701273D01*
X173685931Y-68701418D01*
X173693051Y-68710425D01*
X173699303Y-68717320D01*
X173705408Y-68727224D01*
X173727196Y-68743792D01*
X173740015Y-68754986D01*
X174068977Y-69083948D01*
X174103003Y-69146260D01*
X174097938Y-69217075D01*
X174055391Y-69273911D01*
X174028101Y-69289451D01*
X173941159Y-69325464D01*
X173815718Y-69421718D01*
X173719464Y-69547159D01*
X173658956Y-69693238D01*
X173638318Y-69850000D01*
X173658956Y-70006762D01*
X173719464Y-70152841D01*
X173746178Y-70187655D01*
X173809543Y-70270234D01*
X173815718Y-70278282D01*
X173941159Y-70374536D01*
X174087238Y-70435044D01*
X174244000Y-70455682D01*
X174252188Y-70454604D01*
X174392574Y-70436122D01*
X174400762Y-70435044D01*
X174546841Y-70374536D01*
X174672282Y-70278282D01*
X174678458Y-70270234D01*
X174741822Y-70187655D01*
X174768536Y-70152841D01*
X174804548Y-70065899D01*
X174849096Y-70010619D01*
X174916460Y-69988198D01*
X174985251Y-70005756D01*
X175010052Y-70025023D01*
X175192951Y-70207922D01*
X175226977Y-70270234D01*
X175229856Y-70297017D01*
X175229856Y-74437711D01*
X175209854Y-74505832D01*
X175180561Y-74537673D01*
X175102074Y-74597898D01*
X175005820Y-74723339D01*
X175002660Y-74730968D01*
X175002657Y-74730973D01*
X174992969Y-74754362D01*
X174948421Y-74809643D01*
X174881057Y-74832063D01*
X174812266Y-74814504D01*
X174776597Y-74782845D01*
X174760806Y-74762265D01*
X174760805Y-74762264D01*
X174755782Y-74755718D01*
X174630341Y-74659464D01*
X174484262Y-74598956D01*
X174327500Y-74578318D01*
X174170738Y-74598956D01*
X174024659Y-74659464D01*
X173899218Y-74755718D01*
X173802964Y-74881159D01*
X173742456Y-75027238D01*
X173721818Y-75184000D01*
X173742456Y-75340762D01*
X173802964Y-75486841D01*
X173842173Y-75537939D01*
X173890352Y-75600727D01*
X173899218Y-75612282D01*
X174024659Y-75708536D01*
X174170738Y-75769044D01*
X174327500Y-75789682D01*
X174335688Y-75788604D01*
X174476074Y-75770122D01*
X174484262Y-75769044D01*
X174630341Y-75708536D01*
X174755782Y-75612282D01*
X174764649Y-75600727D01*
X174812827Y-75537939D01*
X174852036Y-75486841D01*
X174855196Y-75479212D01*
X174855199Y-75479207D01*
X174864887Y-75455818D01*
X174909435Y-75400537D01*
X174976799Y-75378117D01*
X175045590Y-75395676D01*
X175081258Y-75427334D01*
X175102074Y-75454462D01*
X175227515Y-75550716D01*
X175340121Y-75597359D01*
X175373594Y-75611224D01*
X175372275Y-75614409D01*
X175419276Y-75643074D01*
X175450282Y-75706942D01*
X175442428Y-75776027D01*
X175436956Y-75789238D01*
X175416318Y-75946000D01*
X175417396Y-75954188D01*
X175435564Y-76092185D01*
X175436956Y-76102762D01*
X175497464Y-76248841D01*
X175593718Y-76374282D01*
X175719159Y-76470536D01*
X175865238Y-76531044D01*
X176022000Y-76551682D01*
X176030188Y-76550604D01*
X176170574Y-76532122D01*
X176178762Y-76531044D01*
X176324841Y-76470536D01*
X176450282Y-76374282D01*
X176546536Y-76248841D01*
X176607044Y-76102762D01*
X176608437Y-76092185D01*
X176626604Y-75954188D01*
X176627682Y-75946000D01*
X176607044Y-75789238D01*
X176546536Y-75643159D01*
X176546226Y-75642755D01*
X176530357Y-75583530D01*
X176530357Y-70307233D01*
X176530553Y-70304558D01*
X176532283Y-70299521D01*
X176530446Y-70250592D01*
X176530357Y-70245866D01*
X176530357Y-70226915D01*
X176529475Y-70222182D01*
X176529247Y-70218655D01*
X176528520Y-70199283D01*
X176528519Y-70199281D01*
X176528083Y-70187655D01*
X176523489Y-70176963D01*
X176522452Y-70172360D01*
X176518895Y-70160649D01*
X176517196Y-70156246D01*
X176515066Y-70144810D01*
X176502129Y-70123822D01*
X176493626Y-70107452D01*
X176487405Y-70092972D01*
X176487402Y-70092967D01*
X176483893Y-70084800D01*
X176479880Y-70079914D01*
X176477697Y-70077731D01*
X176475633Y-70075455D01*
X176475794Y-70075309D01*
X176468692Y-70066324D01*
X176462429Y-70059417D01*
X176456325Y-70049515D01*
X176434550Y-70032957D01*
X176421730Y-70021764D01*
X175459250Y-69059284D01*
X175425226Y-68996974D01*
X175430290Y-68926159D01*
X175472837Y-68869323D01*
X175500126Y-68853783D01*
X175601644Y-68811733D01*
X175727085Y-68715479D01*
X175823339Y-68590038D01*
X175883847Y-68443959D01*
X175904485Y-68287197D01*
X175891572Y-68189113D01*
X175902511Y-68118966D01*
X175927399Y-68083573D01*
X175969806Y-68041166D01*
X176032118Y-68007140D01*
X176102933Y-68012205D01*
X176159769Y-68054752D01*
X176183823Y-68113815D01*
X176198956Y-68228762D01*
X176259464Y-68374841D01*
X176355718Y-68500282D01*
X176481159Y-68596536D01*
X176627238Y-68657044D01*
X176784000Y-68677682D01*
X176792188Y-68676604D01*
X176932574Y-68658122D01*
X176940762Y-68657044D01*
X177086841Y-68596536D01*
X177212282Y-68500282D01*
X177308536Y-68374841D01*
X177369044Y-68228762D01*
X177389682Y-68072000D01*
X177369044Y-67915238D01*
X177308536Y-67769159D01*
X177212282Y-67643718D01*
X177133796Y-67583493D01*
X177091929Y-67526156D01*
X177084500Y-67483531D01*
X177084500Y-66739500D01*
X177956318Y-66739500D01*
X177976956Y-66896262D01*
X178037464Y-67042341D01*
X178133718Y-67167782D01*
X178259159Y-67264036D01*
X178405238Y-67324544D01*
X178562000Y-67345182D01*
X178570188Y-67344104D01*
X178710574Y-67325622D01*
X178718762Y-67324544D01*
X178864841Y-67264036D01*
X178990282Y-67167782D01*
X179086536Y-67042341D01*
X179147044Y-66896262D01*
X179154775Y-66837540D01*
X179164479Y-66763832D01*
X179193202Y-66698905D01*
X179252467Y-66659814D01*
X179323459Y-66658969D01*
X179383637Y-66696640D01*
X179389357Y-66703566D01*
X179403718Y-66722282D01*
X179464221Y-66768707D01*
X179482204Y-66782506D01*
X179524071Y-66839844D01*
X179531500Y-66882469D01*
X179531500Y-77692422D01*
X179511498Y-77760543D01*
X179489277Y-77784696D01*
X179489788Y-77785207D01*
X179483951Y-77791044D01*
X179477398Y-77796072D01*
X179472372Y-77802622D01*
X179472368Y-77802626D01*
X179453286Y-77827495D01*
X179395949Y-77869363D01*
X179325078Y-77873585D01*
X179276619Y-77850755D01*
X179220908Y-77808007D01*
X179214357Y-77802980D01*
X179068278Y-77742472D01*
X178911516Y-77721834D01*
X178754754Y-77742472D01*
X178608675Y-77802980D01*
X178483234Y-77899234D01*
X178478211Y-77905780D01*
X178466139Y-77921513D01*
X178386980Y-78024675D01*
X178326472Y-78170754D01*
X178305834Y-78327516D01*
X178326472Y-78484278D01*
X178386980Y-78630357D01*
X178483234Y-78755798D01*
X178608675Y-78852052D01*
X178754754Y-78912560D01*
X178911516Y-78933198D01*
X178919704Y-78932120D01*
X179060090Y-78913638D01*
X179068278Y-78912560D01*
X179214357Y-78852052D01*
X179339798Y-78755798D01*
X179344821Y-78749252D01*
X179344824Y-78749249D01*
X179363910Y-78724375D01*
X179421247Y-78682507D01*
X179492118Y-78678285D01*
X179540578Y-78701115D01*
X179602839Y-78748890D01*
X179748918Y-78809398D01*
X179905680Y-78830036D01*
X179913868Y-78828958D01*
X180054254Y-78810476D01*
X180062442Y-78809398D01*
X180208521Y-78748890D01*
X180333962Y-78652636D01*
X180346031Y-78636908D01*
X180425189Y-78533746D01*
X180430216Y-78527195D01*
X180490724Y-78381116D01*
X180511362Y-78224354D01*
X180490724Y-78067592D01*
X180430216Y-77921513D01*
X180358074Y-77827495D01*
X180338985Y-77802618D01*
X180333962Y-77796072D01*
X180319137Y-77784696D01*
X180287868Y-77760703D01*
X180208521Y-77699818D01*
X180200892Y-77696658D01*
X180195502Y-77693546D01*
X180146508Y-77642165D01*
X180132500Y-77584426D01*
X180132500Y-76200000D01*
X182274318Y-76200000D01*
X182294956Y-76356762D01*
X182355464Y-76502841D01*
X182451718Y-76628282D01*
X182577159Y-76724536D01*
X182723238Y-76785044D01*
X182731426Y-76786122D01*
X182777662Y-76792209D01*
X182880000Y-76805682D01*
X182888188Y-76804604D01*
X182982338Y-76792209D01*
X183655283Y-76792209D01*
X183675921Y-76948971D01*
X183736429Y-77095050D01*
X183832683Y-77220491D01*
X183958124Y-77316745D01*
X183965754Y-77319906D01*
X183972905Y-77324034D01*
X183972161Y-77325323D01*
X184020382Y-77364184D01*
X184042803Y-77431547D01*
X184025245Y-77500338D01*
X183993588Y-77536006D01*
X183975718Y-77549718D01*
X183970695Y-77556264D01*
X183957983Y-77572831D01*
X183879464Y-77675159D01*
X183818956Y-77821238D01*
X183798318Y-77978000D01*
X183818956Y-78134762D01*
X183879464Y-78280841D01*
X183884491Y-78287392D01*
X183956408Y-78381116D01*
X183975718Y-78406282D01*
X184101159Y-78502536D01*
X184247238Y-78563044D01*
X184404000Y-78583682D01*
X184412188Y-78582604D01*
X184552574Y-78564122D01*
X184560762Y-78563044D01*
X184706841Y-78502536D01*
X184832282Y-78406282D01*
X184851593Y-78381116D01*
X184923509Y-78287392D01*
X184928536Y-78280841D01*
X184989044Y-78134762D01*
X185009682Y-77978000D01*
X184989044Y-77821238D01*
X184928536Y-77675159D01*
X184850017Y-77572831D01*
X184837305Y-77556264D01*
X184832282Y-77549718D01*
X184706841Y-77453464D01*
X184699211Y-77450303D01*
X184692060Y-77446175D01*
X184692804Y-77444886D01*
X184644583Y-77406025D01*
X184622162Y-77338662D01*
X184625969Y-77323748D01*
X185893500Y-77323748D01*
X185894707Y-77329816D01*
X185898331Y-77348033D01*
X185905133Y-77382231D01*
X185949448Y-77448552D01*
X186015769Y-77492867D01*
X186027938Y-77495288D01*
X186027939Y-77495288D01*
X186053328Y-77500338D01*
X186074252Y-77504500D01*
X187813748Y-77504500D01*
X187834672Y-77500338D01*
X187860061Y-77495288D01*
X187860062Y-77495288D01*
X187872231Y-77492867D01*
X187938552Y-77448552D01*
X187982867Y-77382231D01*
X187989670Y-77348033D01*
X187993293Y-77329816D01*
X187994500Y-77323748D01*
X187994500Y-76439262D01*
X188428520Y-76439262D01*
X188429036Y-76445406D01*
X188444393Y-76628282D01*
X188445759Y-76644553D01*
X188447458Y-76650478D01*
X188493395Y-76810678D01*
X188502544Y-76842586D01*
X188505359Y-76848063D01*
X188505360Y-76848066D01*
X188593897Y-77020341D01*
X188596712Y-77025818D01*
X188724677Y-77187270D01*
X188729370Y-77191264D01*
X188729371Y-77191265D01*
X188803541Y-77254388D01*
X188881564Y-77320791D01*
X188886942Y-77323797D01*
X188886944Y-77323798D01*
X188913540Y-77338662D01*
X189061398Y-77421297D01*
X189145280Y-77448552D01*
X189251471Y-77483056D01*
X189251475Y-77483057D01*
X189257329Y-77484959D01*
X189461894Y-77509351D01*
X189468029Y-77508879D01*
X189468031Y-77508879D01*
X189540625Y-77503293D01*
X189667300Y-77493546D01*
X189673230Y-77491890D01*
X189673232Y-77491890D01*
X189828451Y-77448552D01*
X189865725Y-77438145D01*
X189871214Y-77435372D01*
X189871220Y-77435370D01*
X190044116Y-77348033D01*
X190049610Y-77345258D01*
X190065345Y-77332965D01*
X190202876Y-77225514D01*
X190211951Y-77218424D01*
X190225665Y-77202537D01*
X190342540Y-77067134D01*
X190342540Y-77067133D01*
X190346564Y-77062472D01*
X190367387Y-77025818D01*
X190385056Y-76994714D01*
X190448323Y-76883344D01*
X190513351Y-76687863D01*
X190539171Y-76483474D01*
X190539583Y-76454000D01*
X190538138Y-76439262D01*
X190968520Y-76439262D01*
X190969036Y-76445406D01*
X190984393Y-76628282D01*
X190985759Y-76644553D01*
X190987458Y-76650478D01*
X191033395Y-76810678D01*
X191042544Y-76842586D01*
X191045359Y-76848063D01*
X191045360Y-76848066D01*
X191133897Y-77020341D01*
X191136712Y-77025818D01*
X191264677Y-77187270D01*
X191269370Y-77191264D01*
X191269371Y-77191265D01*
X191343541Y-77254388D01*
X191421564Y-77320791D01*
X191426942Y-77323797D01*
X191426944Y-77323798D01*
X191453540Y-77338662D01*
X191601398Y-77421297D01*
X191685280Y-77448552D01*
X191791471Y-77483056D01*
X191791475Y-77483057D01*
X191797329Y-77484959D01*
X192001894Y-77509351D01*
X192008029Y-77508879D01*
X192008031Y-77508879D01*
X192080625Y-77503293D01*
X192207300Y-77493546D01*
X192213230Y-77491890D01*
X192213232Y-77491890D01*
X192368451Y-77448552D01*
X192405725Y-77438145D01*
X192411214Y-77435372D01*
X192411220Y-77435370D01*
X192584116Y-77348033D01*
X192589610Y-77345258D01*
X192605345Y-77332965D01*
X192742876Y-77225514D01*
X192751951Y-77218424D01*
X192765665Y-77202537D01*
X192882540Y-77067134D01*
X192882540Y-77067133D01*
X192886564Y-77062472D01*
X192907387Y-77025818D01*
X192925056Y-76994714D01*
X192988323Y-76883344D01*
X193053351Y-76687863D01*
X193079171Y-76483474D01*
X193079583Y-76454000D01*
X193078138Y-76439262D01*
X193508520Y-76439262D01*
X193509036Y-76445406D01*
X193524393Y-76628282D01*
X193525759Y-76644553D01*
X193527458Y-76650478D01*
X193573395Y-76810678D01*
X193582544Y-76842586D01*
X193585359Y-76848063D01*
X193585360Y-76848066D01*
X193673897Y-77020341D01*
X193676712Y-77025818D01*
X193804677Y-77187270D01*
X193809370Y-77191264D01*
X193809371Y-77191265D01*
X193883541Y-77254388D01*
X193961564Y-77320791D01*
X193966942Y-77323797D01*
X193966944Y-77323798D01*
X193993540Y-77338662D01*
X194141398Y-77421297D01*
X194225280Y-77448552D01*
X194331471Y-77483056D01*
X194331475Y-77483057D01*
X194337329Y-77484959D01*
X194541894Y-77509351D01*
X194548029Y-77508879D01*
X194548031Y-77508879D01*
X194620625Y-77503293D01*
X194747300Y-77493546D01*
X194753230Y-77491890D01*
X194753232Y-77491890D01*
X194908451Y-77448552D01*
X194945725Y-77438145D01*
X194951214Y-77435372D01*
X194951220Y-77435370D01*
X195124116Y-77348033D01*
X195129610Y-77345258D01*
X195145345Y-77332965D01*
X195282876Y-77225514D01*
X195291951Y-77218424D01*
X195305665Y-77202537D01*
X195422540Y-77067134D01*
X195422540Y-77067133D01*
X195426564Y-77062472D01*
X195447387Y-77025818D01*
X195465056Y-76994714D01*
X195528323Y-76883344D01*
X195537271Y-76856444D01*
X195552496Y-76810678D01*
X195592978Y-76752354D01*
X195658566Y-76725175D01*
X195728437Y-76737770D01*
X195780406Y-76786141D01*
X195794971Y-76822751D01*
X195802564Y-76856444D01*
X195805645Y-76866275D01*
X195885770Y-77063603D01*
X195890413Y-77072794D01*
X196001694Y-77254388D01*
X196007777Y-77262699D01*
X196147213Y-77423667D01*
X196154580Y-77430883D01*
X196318434Y-77566916D01*
X196326881Y-77572831D01*
X196510756Y-77680279D01*
X196520042Y-77684729D01*
X196719001Y-77760703D01*
X196728899Y-77763579D01*
X196832250Y-77784606D01*
X196846299Y-77783410D01*
X196850000Y-77773065D01*
X196850000Y-77772517D01*
X197358000Y-77772517D01*
X197362064Y-77786359D01*
X197375478Y-77788393D01*
X197382184Y-77787534D01*
X197392262Y-77785392D01*
X197596255Y-77724191D01*
X197605842Y-77720433D01*
X197797095Y-77626739D01*
X197805945Y-77621464D01*
X197979328Y-77497792D01*
X197987200Y-77491139D01*
X198138052Y-77340812D01*
X198144730Y-77332965D01*
X198269003Y-77160020D01*
X198274313Y-77151183D01*
X198368670Y-76960267D01*
X198372469Y-76950672D01*
X198434377Y-76746910D01*
X198436555Y-76736837D01*
X198437986Y-76725962D01*
X198435775Y-76711778D01*
X198422617Y-76708000D01*
X197376115Y-76708000D01*
X197360876Y-76712475D01*
X197359671Y-76713865D01*
X197358000Y-76721548D01*
X197358000Y-77772517D01*
X196850000Y-77772517D01*
X196850000Y-76181885D01*
X197358000Y-76181885D01*
X197362475Y-76197124D01*
X197363865Y-76198329D01*
X197371548Y-76200000D01*
X198422344Y-76200000D01*
X198435875Y-76196027D01*
X198437180Y-76186947D01*
X198395214Y-76019875D01*
X198391894Y-76010124D01*
X198306972Y-75814814D01*
X198302105Y-75805739D01*
X198186426Y-75626926D01*
X198180136Y-75618757D01*
X198036806Y-75461240D01*
X198029273Y-75454215D01*
X197862139Y-75322222D01*
X197853552Y-75316517D01*
X197667117Y-75213599D01*
X197657705Y-75209369D01*
X197456959Y-75138280D01*
X197446988Y-75135646D01*
X197375837Y-75122972D01*
X197362540Y-75124432D01*
X197358000Y-75138989D01*
X197358000Y-76181885D01*
X196850000Y-76181885D01*
X196850000Y-75137102D01*
X196846082Y-75123758D01*
X196831806Y-75121771D01*
X196793324Y-75127660D01*
X196783288Y-75130051D01*
X196580868Y-75196212D01*
X196571359Y-75200209D01*
X196382463Y-75298542D01*
X196373738Y-75304036D01*
X196203433Y-75431905D01*
X196195726Y-75438748D01*
X196048590Y-75592717D01*
X196042104Y-75600727D01*
X195922098Y-75776649D01*
X195917000Y-75785623D01*
X195827338Y-75978783D01*
X195823775Y-75988470D01*
X195795012Y-76092185D01*
X195757533Y-76152483D01*
X195693405Y-76182946D01*
X195622986Y-76173903D01*
X195568636Y-76128224D01*
X195552973Y-76094933D01*
X195552143Y-76092185D01*
X195539935Y-76051749D01*
X195443218Y-75869849D01*
X195366161Y-75775368D01*
X195316906Y-75714975D01*
X195316903Y-75714972D01*
X195313011Y-75710200D01*
X195276085Y-75679652D01*
X195159025Y-75582811D01*
X195159021Y-75582809D01*
X195154275Y-75578882D01*
X194973055Y-75480897D01*
X194776254Y-75419977D01*
X194770129Y-75419333D01*
X194770128Y-75419333D01*
X194577498Y-75399087D01*
X194577496Y-75399087D01*
X194571369Y-75398443D01*
X194484529Y-75406346D01*
X194372342Y-75416555D01*
X194372339Y-75416556D01*
X194366203Y-75417114D01*
X194168572Y-75475280D01*
X193986002Y-75570726D01*
X193981201Y-75574586D01*
X193981198Y-75574588D01*
X193850525Y-75679652D01*
X193825447Y-75699815D01*
X193693024Y-75857630D01*
X193690056Y-75863028D01*
X193690053Y-75863033D01*
X193626420Y-75978783D01*
X193593776Y-76038162D01*
X193531484Y-76234532D01*
X193530798Y-76240649D01*
X193530797Y-76240653D01*
X193515245Y-76379305D01*
X193508520Y-76439262D01*
X193078138Y-76439262D01*
X193059480Y-76248970D01*
X192999935Y-76051749D01*
X192903218Y-75869849D01*
X192826161Y-75775368D01*
X192776906Y-75714975D01*
X192776903Y-75714972D01*
X192773011Y-75710200D01*
X192736085Y-75679652D01*
X192619025Y-75582811D01*
X192619021Y-75582809D01*
X192614275Y-75578882D01*
X192433055Y-75480897D01*
X192236254Y-75419977D01*
X192230129Y-75419333D01*
X192230128Y-75419333D01*
X192037498Y-75399087D01*
X192037496Y-75399087D01*
X192031369Y-75398443D01*
X191944529Y-75406346D01*
X191832342Y-75416555D01*
X191832339Y-75416556D01*
X191826203Y-75417114D01*
X191628572Y-75475280D01*
X191446002Y-75570726D01*
X191441201Y-75574586D01*
X191441198Y-75574588D01*
X191310525Y-75679652D01*
X191285447Y-75699815D01*
X191153024Y-75857630D01*
X191150056Y-75863028D01*
X191150053Y-75863033D01*
X191086420Y-75978783D01*
X191053776Y-76038162D01*
X190991484Y-76234532D01*
X190990798Y-76240649D01*
X190990797Y-76240653D01*
X190975245Y-76379305D01*
X190968520Y-76439262D01*
X190538138Y-76439262D01*
X190519480Y-76248970D01*
X190459935Y-76051749D01*
X190363218Y-75869849D01*
X190286161Y-75775368D01*
X190236906Y-75714975D01*
X190236903Y-75714972D01*
X190233011Y-75710200D01*
X190196085Y-75679652D01*
X190079025Y-75582811D01*
X190079021Y-75582809D01*
X190074275Y-75578882D01*
X189893055Y-75480897D01*
X189696254Y-75419977D01*
X189690129Y-75419333D01*
X189690128Y-75419333D01*
X189497498Y-75399087D01*
X189497496Y-75399087D01*
X189491369Y-75398443D01*
X189404529Y-75406346D01*
X189292342Y-75416555D01*
X189292339Y-75416556D01*
X189286203Y-75417114D01*
X189088572Y-75475280D01*
X188906002Y-75570726D01*
X188901201Y-75574586D01*
X188901198Y-75574588D01*
X188770525Y-75679652D01*
X188745447Y-75699815D01*
X188613024Y-75857630D01*
X188610056Y-75863028D01*
X188610053Y-75863033D01*
X188546420Y-75978783D01*
X188513776Y-76038162D01*
X188451484Y-76234532D01*
X188450798Y-76240649D01*
X188450797Y-76240653D01*
X188435245Y-76379305D01*
X188428520Y-76439262D01*
X187994500Y-76439262D01*
X187994500Y-75584252D01*
X187987829Y-75550716D01*
X187985288Y-75537939D01*
X187985288Y-75537938D01*
X187982867Y-75525769D01*
X187938552Y-75459448D01*
X187872231Y-75415133D01*
X187860062Y-75412712D01*
X187860061Y-75412712D01*
X187819816Y-75404707D01*
X187813748Y-75403500D01*
X186074252Y-75403500D01*
X186068184Y-75404707D01*
X186027939Y-75412712D01*
X186027938Y-75412712D01*
X186015769Y-75415133D01*
X185949448Y-75459448D01*
X185905133Y-75525769D01*
X185902712Y-75537938D01*
X185902712Y-75537939D01*
X185900171Y-75550716D01*
X185893500Y-75584252D01*
X185893500Y-77323748D01*
X184625969Y-77323748D01*
X184639720Y-77269871D01*
X184671377Y-77234203D01*
X184689247Y-77220491D01*
X184785501Y-77095050D01*
X184846009Y-76948971D01*
X184866647Y-76792209D01*
X184846009Y-76635447D01*
X184785501Y-76489368D01*
X184689247Y-76363927D01*
X184563806Y-76267673D01*
X184417727Y-76207165D01*
X184260965Y-76186527D01*
X184104203Y-76207165D01*
X183958124Y-76267673D01*
X183832683Y-76363927D01*
X183736429Y-76489368D01*
X183675921Y-76635447D01*
X183655283Y-76792209D01*
X182982338Y-76792209D01*
X183028574Y-76786122D01*
X183036762Y-76785044D01*
X183182841Y-76724536D01*
X183308282Y-76628282D01*
X183404536Y-76502841D01*
X183465044Y-76356762D01*
X183485682Y-76200000D01*
X183466941Y-76057645D01*
X183466122Y-76051426D01*
X183465044Y-76043238D01*
X183404536Y-75897159D01*
X183308282Y-75771718D01*
X183229796Y-75711493D01*
X183187929Y-75654156D01*
X183180500Y-75611531D01*
X183180500Y-73323157D01*
X183200502Y-73255036D01*
X183254158Y-73208543D01*
X183324432Y-73198439D01*
X183389012Y-73227933D01*
X183406462Y-73246453D01*
X183462691Y-73319732D01*
X183462695Y-73319736D01*
X183467718Y-73326282D01*
X183593159Y-73422536D01*
X183739238Y-73483044D01*
X183896000Y-73503682D01*
X183904188Y-73502604D01*
X184044574Y-73484122D01*
X184052762Y-73483044D01*
X184198841Y-73422536D01*
X184324282Y-73326282D01*
X184420536Y-73200841D01*
X184481044Y-73054762D01*
X184487497Y-73005748D01*
X185893500Y-73005748D01*
X185894707Y-73011816D01*
X185901659Y-73046764D01*
X185905133Y-73064231D01*
X185949448Y-73130552D01*
X185959761Y-73137443D01*
X185995398Y-73161255D01*
X186015769Y-73174867D01*
X186027938Y-73177288D01*
X186027939Y-73177288D01*
X186068184Y-73185293D01*
X186074252Y-73186500D01*
X187813748Y-73186500D01*
X187819816Y-73185293D01*
X187860061Y-73177288D01*
X187860062Y-73177288D01*
X187872231Y-73174867D01*
X187892603Y-73161255D01*
X187928239Y-73137443D01*
X187938552Y-73130552D01*
X187982867Y-73064231D01*
X187986342Y-73046764D01*
X187993293Y-73011816D01*
X187994500Y-73005748D01*
X187994500Y-72121262D01*
X188428520Y-72121262D01*
X188429036Y-72127406D01*
X188444883Y-72316116D01*
X188445759Y-72326553D01*
X188447458Y-72332478D01*
X188499667Y-72514552D01*
X188502544Y-72524586D01*
X188505359Y-72530063D01*
X188505360Y-72530066D01*
X188593897Y-72702341D01*
X188596712Y-72707818D01*
X188724677Y-72869270D01*
X188729370Y-72873264D01*
X188729371Y-72873265D01*
X188803541Y-72936388D01*
X188881564Y-73002791D01*
X188886942Y-73005797D01*
X188886944Y-73005798D01*
X188917387Y-73022812D01*
X189061398Y-73103297D01*
X189145280Y-73130552D01*
X189251471Y-73165056D01*
X189251475Y-73165057D01*
X189257329Y-73166959D01*
X189461894Y-73191351D01*
X189468029Y-73190879D01*
X189468031Y-73190879D01*
X189524939Y-73186500D01*
X189667300Y-73175546D01*
X189673230Y-73173890D01*
X189673232Y-73173890D01*
X189859797Y-73121800D01*
X189859796Y-73121800D01*
X189865725Y-73120145D01*
X189871214Y-73117372D01*
X189871220Y-73117370D01*
X190017947Y-73043252D01*
X190049610Y-73027258D01*
X190065345Y-73014965D01*
X190207101Y-72904213D01*
X190211951Y-72900424D01*
X190223979Y-72886490D01*
X190342540Y-72749134D01*
X190342540Y-72749133D01*
X190346564Y-72744472D01*
X190353097Y-72732973D01*
X190385056Y-72676714D01*
X190448323Y-72565344D01*
X190457271Y-72538444D01*
X190472496Y-72492678D01*
X190512978Y-72434354D01*
X190578566Y-72407175D01*
X190648437Y-72419770D01*
X190700406Y-72468141D01*
X190714971Y-72504751D01*
X190722564Y-72538444D01*
X190725645Y-72548275D01*
X190805770Y-72745603D01*
X190810413Y-72754794D01*
X190921694Y-72936388D01*
X190927777Y-72944699D01*
X191067213Y-73105667D01*
X191074580Y-73112883D01*
X191238434Y-73248916D01*
X191246881Y-73254831D01*
X191430756Y-73362279D01*
X191440042Y-73366729D01*
X191639001Y-73442703D01*
X191648899Y-73445579D01*
X191752250Y-73466606D01*
X191766299Y-73465410D01*
X191770000Y-73455065D01*
X191770000Y-73454517D01*
X192278000Y-73454517D01*
X192282064Y-73468359D01*
X192295478Y-73470393D01*
X192302184Y-73469534D01*
X192312262Y-73467392D01*
X192516255Y-73406191D01*
X192525842Y-73402433D01*
X192717095Y-73308739D01*
X192725945Y-73303464D01*
X192899328Y-73179792D01*
X192907200Y-73173139D01*
X193058052Y-73022812D01*
X193064730Y-73014965D01*
X193189003Y-72842020D01*
X193194313Y-72833183D01*
X193288670Y-72642267D01*
X193292469Y-72632672D01*
X193333593Y-72497319D01*
X193372534Y-72437955D01*
X193437388Y-72409068D01*
X193507564Y-72419830D01*
X193560782Y-72466823D01*
X193575270Y-72499217D01*
X193582544Y-72524586D01*
X193585359Y-72530063D01*
X193585360Y-72530066D01*
X193673897Y-72702341D01*
X193676712Y-72707818D01*
X193804677Y-72869270D01*
X193809370Y-72873264D01*
X193809371Y-72873265D01*
X193883541Y-72936388D01*
X193961564Y-73002791D01*
X193966942Y-73005797D01*
X193966944Y-73005798D01*
X193997387Y-73022812D01*
X194141398Y-73103297D01*
X194225280Y-73130552D01*
X194331471Y-73165056D01*
X194331475Y-73165057D01*
X194337329Y-73166959D01*
X194541894Y-73191351D01*
X194548029Y-73190879D01*
X194548031Y-73190879D01*
X194604939Y-73186500D01*
X194747300Y-73175546D01*
X194753230Y-73173890D01*
X194753232Y-73173890D01*
X194939797Y-73121800D01*
X194939796Y-73121800D01*
X194945725Y-73120145D01*
X194951214Y-73117372D01*
X194951220Y-73117370D01*
X195097947Y-73043252D01*
X195129610Y-73027258D01*
X195145345Y-73014965D01*
X195287101Y-72904213D01*
X195291951Y-72900424D01*
X195303979Y-72886490D01*
X195422540Y-72749134D01*
X195422540Y-72749133D01*
X195426564Y-72744472D01*
X195433097Y-72732973D01*
X195465056Y-72676714D01*
X195528323Y-72565344D01*
X195593351Y-72369863D01*
X195619171Y-72165474D01*
X195619422Y-72147509D01*
X195619534Y-72139522D01*
X195619534Y-72139518D01*
X195619583Y-72136000D01*
X195618138Y-72121262D01*
X196048520Y-72121262D01*
X196049036Y-72127406D01*
X196064883Y-72316116D01*
X196065759Y-72326553D01*
X196067458Y-72332478D01*
X196119667Y-72514552D01*
X196122544Y-72524586D01*
X196125359Y-72530063D01*
X196125360Y-72530066D01*
X196213897Y-72702341D01*
X196216712Y-72707818D01*
X196344677Y-72869270D01*
X196349370Y-72873264D01*
X196349371Y-72873265D01*
X196423541Y-72936388D01*
X196501564Y-73002791D01*
X196506942Y-73005797D01*
X196506944Y-73005798D01*
X196537387Y-73022812D01*
X196681398Y-73103297D01*
X196765280Y-73130552D01*
X196871471Y-73165056D01*
X196871475Y-73165057D01*
X196877329Y-73166959D01*
X197081894Y-73191351D01*
X197088029Y-73190879D01*
X197088031Y-73190879D01*
X197144939Y-73186500D01*
X197287300Y-73175546D01*
X197293230Y-73173890D01*
X197293232Y-73173890D01*
X197479797Y-73121800D01*
X197479796Y-73121800D01*
X197485725Y-73120145D01*
X197491214Y-73117372D01*
X197491220Y-73117370D01*
X197637947Y-73043252D01*
X197669610Y-73027258D01*
X197685345Y-73014965D01*
X197827101Y-72904213D01*
X197831951Y-72900424D01*
X197843979Y-72886490D01*
X197962540Y-72749134D01*
X197962540Y-72749133D01*
X197966564Y-72744472D01*
X197973097Y-72732973D01*
X198005056Y-72676714D01*
X198068323Y-72565344D01*
X198133351Y-72369863D01*
X198159171Y-72165474D01*
X198159422Y-72147509D01*
X198159534Y-72139522D01*
X198159534Y-72139518D01*
X198159583Y-72136000D01*
X198139480Y-71930970D01*
X198079935Y-71733749D01*
X197983218Y-71551849D01*
X197907206Y-71458649D01*
X197856906Y-71396975D01*
X197856903Y-71396972D01*
X197853011Y-71392200D01*
X197818754Y-71363860D01*
X197699025Y-71264811D01*
X197699021Y-71264809D01*
X197694275Y-71260882D01*
X197513055Y-71162897D01*
X197316254Y-71101977D01*
X197310129Y-71101333D01*
X197310128Y-71101333D01*
X197117498Y-71081087D01*
X197117496Y-71081087D01*
X197111369Y-71080443D01*
X197024529Y-71088346D01*
X196912342Y-71098555D01*
X196912339Y-71098556D01*
X196906203Y-71099114D01*
X196708572Y-71157280D01*
X196526002Y-71252726D01*
X196521201Y-71256586D01*
X196521198Y-71256588D01*
X196379637Y-71370406D01*
X196365447Y-71381815D01*
X196233024Y-71539630D01*
X196230056Y-71545028D01*
X196230053Y-71545033D01*
X196166420Y-71660783D01*
X196133776Y-71720162D01*
X196071484Y-71916532D01*
X196070798Y-71922649D01*
X196070797Y-71922653D01*
X196055245Y-72061305D01*
X196048520Y-72121262D01*
X195618138Y-72121262D01*
X195599480Y-71930970D01*
X195539935Y-71733749D01*
X195443218Y-71551849D01*
X195367206Y-71458649D01*
X195316906Y-71396975D01*
X195316903Y-71396972D01*
X195313011Y-71392200D01*
X195278754Y-71363860D01*
X195159025Y-71264811D01*
X195159021Y-71264809D01*
X195154275Y-71260882D01*
X194973055Y-71162897D01*
X194776254Y-71101977D01*
X194770129Y-71101333D01*
X194770128Y-71101333D01*
X194577498Y-71081087D01*
X194577496Y-71081087D01*
X194571369Y-71080443D01*
X194484529Y-71088346D01*
X194372342Y-71098555D01*
X194372339Y-71098556D01*
X194366203Y-71099114D01*
X194168572Y-71157280D01*
X193986002Y-71252726D01*
X193981201Y-71256586D01*
X193981198Y-71256588D01*
X193839637Y-71370406D01*
X193825447Y-71381815D01*
X193693024Y-71539630D01*
X193690056Y-71545028D01*
X193690053Y-71545033D01*
X193626420Y-71660783D01*
X193593776Y-71720162D01*
X193591914Y-71726032D01*
X193575068Y-71779138D01*
X193535405Y-71838022D01*
X193470202Y-71866114D01*
X193400163Y-71854497D01*
X193347523Y-71806857D01*
X193332762Y-71771735D01*
X193315214Y-71701875D01*
X193311894Y-71692124D01*
X193226972Y-71496814D01*
X193222105Y-71487739D01*
X193106426Y-71308926D01*
X193100136Y-71300757D01*
X192956806Y-71143240D01*
X192949273Y-71136215D01*
X192782139Y-71004222D01*
X192773552Y-70998517D01*
X192587117Y-70895599D01*
X192577705Y-70891369D01*
X192376959Y-70820280D01*
X192366988Y-70817646D01*
X192295837Y-70804972D01*
X192282540Y-70806432D01*
X192278000Y-70820989D01*
X192278000Y-73454517D01*
X191770000Y-73454517D01*
X191770000Y-70819102D01*
X191766082Y-70805758D01*
X191751806Y-70803771D01*
X191713324Y-70809660D01*
X191703288Y-70812051D01*
X191500868Y-70878212D01*
X191491359Y-70882209D01*
X191302463Y-70980542D01*
X191293738Y-70986036D01*
X191123433Y-71113905D01*
X191115726Y-71120748D01*
X190968590Y-71274717D01*
X190962104Y-71282727D01*
X190842098Y-71458649D01*
X190837000Y-71467623D01*
X190747338Y-71660783D01*
X190743775Y-71670470D01*
X190715012Y-71774185D01*
X190677533Y-71834483D01*
X190613405Y-71864946D01*
X190542986Y-71855903D01*
X190488636Y-71810224D01*
X190472973Y-71776933D01*
X190472143Y-71774185D01*
X190459935Y-71733749D01*
X190363218Y-71551849D01*
X190287206Y-71458649D01*
X190236906Y-71396975D01*
X190236903Y-71396972D01*
X190233011Y-71392200D01*
X190198754Y-71363860D01*
X190079025Y-71264811D01*
X190079021Y-71264809D01*
X190074275Y-71260882D01*
X189893055Y-71162897D01*
X189696254Y-71101977D01*
X189690129Y-71101333D01*
X189690128Y-71101333D01*
X189497498Y-71081087D01*
X189497496Y-71081087D01*
X189491369Y-71080443D01*
X189404529Y-71088346D01*
X189292342Y-71098555D01*
X189292339Y-71098556D01*
X189286203Y-71099114D01*
X189088572Y-71157280D01*
X188906002Y-71252726D01*
X188901201Y-71256586D01*
X188901198Y-71256588D01*
X188759637Y-71370406D01*
X188745447Y-71381815D01*
X188613024Y-71539630D01*
X188610056Y-71545028D01*
X188610053Y-71545033D01*
X188546420Y-71660783D01*
X188513776Y-71720162D01*
X188451484Y-71916532D01*
X188450798Y-71922649D01*
X188450797Y-71922653D01*
X188435245Y-72061305D01*
X188428520Y-72121262D01*
X187994500Y-72121262D01*
X187994500Y-71266252D01*
X187982867Y-71207769D01*
X187938552Y-71141448D01*
X187872231Y-71097133D01*
X187860062Y-71094712D01*
X187860061Y-71094712D01*
X187819816Y-71086707D01*
X187813748Y-71085500D01*
X186074252Y-71085500D01*
X186068184Y-71086707D01*
X186027939Y-71094712D01*
X186027938Y-71094712D01*
X186015769Y-71097133D01*
X185949448Y-71141448D01*
X185905133Y-71207769D01*
X185893500Y-71266252D01*
X185893500Y-73005748D01*
X184487497Y-73005748D01*
X184501682Y-72898000D01*
X184481044Y-72741238D01*
X184420536Y-72595159D01*
X184346918Y-72499218D01*
X184329305Y-72476264D01*
X184324282Y-72469718D01*
X184198841Y-72373464D01*
X184052762Y-72312956D01*
X184042850Y-72311651D01*
X183904188Y-72293396D01*
X183896000Y-72292318D01*
X183887812Y-72293396D01*
X183749151Y-72311651D01*
X183739238Y-72312956D01*
X183593159Y-72373464D01*
X183467718Y-72469718D01*
X183462695Y-72476264D01*
X183462691Y-72476268D01*
X183406462Y-72549547D01*
X183349124Y-72591414D01*
X183278254Y-72595636D01*
X183216351Y-72560872D01*
X183183069Y-72498159D01*
X183180500Y-72472843D01*
X183180500Y-68687748D01*
X185903500Y-68687748D01*
X185904707Y-68693816D01*
X185908331Y-68712033D01*
X185915133Y-68746231D01*
X185959448Y-68812552D01*
X186025769Y-68856867D01*
X186037938Y-68859288D01*
X186037939Y-68859288D01*
X186078184Y-68867293D01*
X186084252Y-68868500D01*
X187823748Y-68868500D01*
X187829816Y-68867293D01*
X187870061Y-68859288D01*
X187870062Y-68859288D01*
X187882231Y-68856867D01*
X187948552Y-68812552D01*
X187992867Y-68746231D01*
X187999670Y-68712033D01*
X188003293Y-68693816D01*
X188004500Y-68687748D01*
X188004500Y-67803262D01*
X188438520Y-67803262D01*
X188439036Y-67809406D01*
X188448611Y-67923426D01*
X188455759Y-68008553D01*
X188457458Y-68014478D01*
X188503395Y-68174678D01*
X188512544Y-68206586D01*
X188515359Y-68212063D01*
X188515360Y-68212066D01*
X188603897Y-68384341D01*
X188606712Y-68389818D01*
X188734677Y-68551270D01*
X188739370Y-68555264D01*
X188739371Y-68555265D01*
X188813541Y-68618388D01*
X188891564Y-68684791D01*
X188896942Y-68687797D01*
X188896944Y-68687798D01*
X188955461Y-68720502D01*
X189071398Y-68785297D01*
X189155280Y-68812552D01*
X189261471Y-68847056D01*
X189261475Y-68847057D01*
X189267329Y-68848959D01*
X189471894Y-68873351D01*
X189478029Y-68872879D01*
X189478031Y-68872879D01*
X189550625Y-68867293D01*
X189677300Y-68857546D01*
X189683230Y-68855890D01*
X189683232Y-68855890D01*
X189813770Y-68819443D01*
X189875725Y-68802145D01*
X189881214Y-68799372D01*
X189881220Y-68799370D01*
X190024043Y-68727224D01*
X190059610Y-68709258D01*
X190069831Y-68701273D01*
X190186935Y-68609781D01*
X190221951Y-68582424D01*
X190250091Y-68549824D01*
X190352540Y-68431134D01*
X190352540Y-68431133D01*
X190356564Y-68426472D01*
X190377387Y-68389818D01*
X190395056Y-68358714D01*
X190458323Y-68247344D01*
X190523351Y-68051863D01*
X190549171Y-67847474D01*
X190549583Y-67818000D01*
X190548138Y-67803262D01*
X190978520Y-67803262D01*
X190979036Y-67809406D01*
X190988611Y-67923426D01*
X190995759Y-68008553D01*
X190997458Y-68014478D01*
X191043395Y-68174678D01*
X191052544Y-68206586D01*
X191055359Y-68212063D01*
X191055360Y-68212066D01*
X191143897Y-68384341D01*
X191146712Y-68389818D01*
X191274677Y-68551270D01*
X191279370Y-68555264D01*
X191279371Y-68555265D01*
X191353541Y-68618388D01*
X191431564Y-68684791D01*
X191436942Y-68687797D01*
X191436944Y-68687798D01*
X191495461Y-68720502D01*
X191611398Y-68785297D01*
X191695280Y-68812552D01*
X191801471Y-68847056D01*
X191801475Y-68847057D01*
X191807329Y-68848959D01*
X192011894Y-68873351D01*
X192018029Y-68872879D01*
X192018031Y-68872879D01*
X192090625Y-68867293D01*
X192217300Y-68857546D01*
X192223230Y-68855890D01*
X192223232Y-68855890D01*
X192353770Y-68819443D01*
X192415725Y-68802145D01*
X192421214Y-68799372D01*
X192421220Y-68799370D01*
X192564043Y-68727224D01*
X192599610Y-68709258D01*
X192609831Y-68701273D01*
X192726935Y-68609781D01*
X192761951Y-68582424D01*
X192790091Y-68549824D01*
X192892540Y-68431134D01*
X192892540Y-68431133D01*
X192896564Y-68426472D01*
X192917387Y-68389818D01*
X192935056Y-68358714D01*
X192998323Y-68247344D01*
X193007271Y-68220444D01*
X193022496Y-68174678D01*
X193062978Y-68116354D01*
X193128566Y-68089175D01*
X193198437Y-68101770D01*
X193250406Y-68150141D01*
X193264971Y-68186751D01*
X193272564Y-68220444D01*
X193275645Y-68230275D01*
X193355770Y-68427603D01*
X193360413Y-68436794D01*
X193471694Y-68618388D01*
X193477777Y-68626699D01*
X193617213Y-68787667D01*
X193624580Y-68794883D01*
X193788434Y-68930916D01*
X193796881Y-68936831D01*
X193980756Y-69044279D01*
X193990042Y-69048729D01*
X194189001Y-69124703D01*
X194198899Y-69127579D01*
X194302250Y-69148606D01*
X194316299Y-69147410D01*
X194320000Y-69137065D01*
X194320000Y-69136517D01*
X194828000Y-69136517D01*
X194832064Y-69150359D01*
X194845478Y-69152393D01*
X194852184Y-69151534D01*
X194862262Y-69149392D01*
X195066255Y-69088191D01*
X195075842Y-69084433D01*
X195267095Y-68990739D01*
X195275945Y-68985464D01*
X195449328Y-68861792D01*
X195457200Y-68855139D01*
X195608052Y-68704812D01*
X195614730Y-68696965D01*
X195739003Y-68524020D01*
X195744313Y-68515183D01*
X195838670Y-68324267D01*
X195842469Y-68314672D01*
X195904377Y-68110910D01*
X195906555Y-68100837D01*
X195907986Y-68089962D01*
X195905775Y-68075778D01*
X195892617Y-68072000D01*
X194846115Y-68072000D01*
X194830876Y-68076475D01*
X194829671Y-68077865D01*
X194828000Y-68085548D01*
X194828000Y-69136517D01*
X194320000Y-69136517D01*
X194320000Y-67545885D01*
X194828000Y-67545885D01*
X194832475Y-67561124D01*
X194833865Y-67562329D01*
X194841548Y-67564000D01*
X195892344Y-67564000D01*
X195905875Y-67560027D01*
X195907180Y-67550947D01*
X195865214Y-67383875D01*
X195861894Y-67374124D01*
X195776972Y-67178814D01*
X195772105Y-67169739D01*
X195656426Y-66990926D01*
X195650136Y-66982757D01*
X195506806Y-66825240D01*
X195499273Y-66818215D01*
X195332139Y-66686222D01*
X195323552Y-66680517D01*
X195137117Y-66577599D01*
X195127705Y-66573369D01*
X194926959Y-66502280D01*
X194916988Y-66499646D01*
X194845837Y-66486972D01*
X194832540Y-66488432D01*
X194828000Y-66502989D01*
X194828000Y-67545885D01*
X194320000Y-67545885D01*
X194320000Y-66501102D01*
X194316082Y-66487758D01*
X194301806Y-66485771D01*
X194263324Y-66491660D01*
X194253288Y-66494051D01*
X194050868Y-66560212D01*
X194041359Y-66564209D01*
X193852463Y-66662542D01*
X193843738Y-66668036D01*
X193673433Y-66795905D01*
X193665726Y-66802748D01*
X193518590Y-66956717D01*
X193512104Y-66964727D01*
X193392098Y-67140649D01*
X193387000Y-67149623D01*
X193297338Y-67342783D01*
X193293775Y-67352470D01*
X193265012Y-67456185D01*
X193227533Y-67516483D01*
X193163405Y-67546946D01*
X193092986Y-67537903D01*
X193038636Y-67492224D01*
X193022973Y-67458933D01*
X193020749Y-67451566D01*
X193009935Y-67415749D01*
X192913218Y-67233849D01*
X192787426Y-67079613D01*
X192786906Y-67078975D01*
X192786903Y-67078972D01*
X192783011Y-67074200D01*
X192747664Y-67044958D01*
X192629025Y-66946811D01*
X192629021Y-66946809D01*
X192624275Y-66942882D01*
X192443055Y-66844897D01*
X192246254Y-66783977D01*
X192240129Y-66783333D01*
X192240128Y-66783333D01*
X192047498Y-66763087D01*
X192047496Y-66763087D01*
X192041369Y-66762443D01*
X191954529Y-66770346D01*
X191842342Y-66780555D01*
X191842339Y-66780556D01*
X191836203Y-66781114D01*
X191638572Y-66839280D01*
X191456002Y-66934726D01*
X191451201Y-66938586D01*
X191451198Y-66938588D01*
X191300254Y-67059950D01*
X191295447Y-67063815D01*
X191163024Y-67221630D01*
X191160056Y-67227028D01*
X191160053Y-67227033D01*
X191095101Y-67345182D01*
X191063776Y-67402162D01*
X191001484Y-67598532D01*
X191000798Y-67604649D01*
X191000797Y-67604653D01*
X190989917Y-67701656D01*
X190978520Y-67803262D01*
X190548138Y-67803262D01*
X190529480Y-67612970D01*
X190469935Y-67415749D01*
X190373218Y-67233849D01*
X190247426Y-67079613D01*
X190246906Y-67078975D01*
X190246903Y-67078972D01*
X190243011Y-67074200D01*
X190207664Y-67044958D01*
X190089025Y-66946811D01*
X190089021Y-66946809D01*
X190084275Y-66942882D01*
X189903055Y-66844897D01*
X189706254Y-66783977D01*
X189700129Y-66783333D01*
X189700128Y-66783333D01*
X189507498Y-66763087D01*
X189507496Y-66763087D01*
X189501369Y-66762443D01*
X189414529Y-66770346D01*
X189302342Y-66780555D01*
X189302339Y-66780556D01*
X189296203Y-66781114D01*
X189098572Y-66839280D01*
X188916002Y-66934726D01*
X188911201Y-66938586D01*
X188911198Y-66938588D01*
X188760254Y-67059950D01*
X188755447Y-67063815D01*
X188623024Y-67221630D01*
X188620056Y-67227028D01*
X188620053Y-67227033D01*
X188555101Y-67345182D01*
X188523776Y-67402162D01*
X188461484Y-67598532D01*
X188460798Y-67604649D01*
X188460797Y-67604653D01*
X188449917Y-67701656D01*
X188438520Y-67803262D01*
X188004500Y-67803262D01*
X188004500Y-66948252D01*
X187992867Y-66889769D01*
X187948552Y-66823448D01*
X187882231Y-66779133D01*
X187870062Y-66776712D01*
X187870061Y-66776712D01*
X187829816Y-66768707D01*
X187823748Y-66767500D01*
X186084252Y-66767500D01*
X186078184Y-66768707D01*
X186037939Y-66776712D01*
X186037938Y-66776712D01*
X186025769Y-66779133D01*
X185959448Y-66823448D01*
X185915133Y-66889769D01*
X185903500Y-66948252D01*
X185903500Y-68687748D01*
X183180500Y-68687748D01*
X183180500Y-66882469D01*
X183200502Y-66814348D01*
X183229796Y-66782506D01*
X183247780Y-66768707D01*
X183308282Y-66722282D01*
X183404536Y-66596841D01*
X183465044Y-66450762D01*
X183485682Y-66294000D01*
X183465044Y-66137238D01*
X183404536Y-65991159D01*
X183308282Y-65865718D01*
X183182841Y-65769464D01*
X183036762Y-65708956D01*
X182880000Y-65688318D01*
X182723238Y-65708956D01*
X182577159Y-65769464D01*
X182451718Y-65865718D01*
X182355464Y-65991159D01*
X182294956Y-66137238D01*
X182274318Y-66294000D01*
X182294956Y-66450762D01*
X182355464Y-66596841D01*
X182451718Y-66722282D01*
X182512221Y-66768707D01*
X182530204Y-66782506D01*
X182572071Y-66839844D01*
X182579500Y-66882469D01*
X182579500Y-75611531D01*
X182559498Y-75679652D01*
X182530205Y-75711493D01*
X182451718Y-75771718D01*
X182355464Y-75897159D01*
X182294956Y-76043238D01*
X182293878Y-76051426D01*
X182293059Y-76057645D01*
X182274318Y-76200000D01*
X180132500Y-76200000D01*
X180132500Y-66882469D01*
X180152502Y-66814348D01*
X180181796Y-66782506D01*
X180199780Y-66768707D01*
X180260282Y-66722282D01*
X180356536Y-66596841D01*
X180417044Y-66450762D01*
X180437682Y-66294000D01*
X180417044Y-66137238D01*
X180356536Y-65991159D01*
X180260282Y-65865718D01*
X180134841Y-65769464D01*
X179988762Y-65708956D01*
X179832000Y-65688318D01*
X179675238Y-65708956D01*
X179529159Y-65769464D01*
X179403718Y-65865718D01*
X179307464Y-65991159D01*
X179246956Y-66137238D01*
X179245878Y-66145426D01*
X179229521Y-66269668D01*
X179200798Y-66334595D01*
X179141533Y-66373686D01*
X179070541Y-66374531D01*
X179010363Y-66336860D01*
X179004643Y-66329934D01*
X178990282Y-66311218D01*
X178864841Y-66214964D01*
X178718762Y-66154456D01*
X178562000Y-66133818D01*
X178405238Y-66154456D01*
X178259159Y-66214964D01*
X178133718Y-66311218D01*
X178037464Y-66436659D01*
X177976956Y-66582738D01*
X177956318Y-66739500D01*
X177084500Y-66739500D01*
X177084500Y-63824647D01*
X195555520Y-63824647D01*
X195572759Y-64029938D01*
X195629544Y-64227971D01*
X195632359Y-64233448D01*
X195632360Y-64233451D01*
X195651240Y-64270188D01*
X195723712Y-64411203D01*
X195851677Y-64572655D01*
X195856370Y-64576649D01*
X195856371Y-64576650D01*
X195995791Y-64695305D01*
X196008564Y-64706176D01*
X196188398Y-64806682D01*
X196283238Y-64837498D01*
X196378471Y-64868441D01*
X196378475Y-64868442D01*
X196384329Y-64870344D01*
X196588894Y-64894736D01*
X196595029Y-64894264D01*
X196595031Y-64894264D01*
X196651039Y-64889954D01*
X196794300Y-64878931D01*
X196800230Y-64877275D01*
X196800232Y-64877275D01*
X196986797Y-64825185D01*
X196986796Y-64825185D01*
X196992725Y-64823530D01*
X196998214Y-64820757D01*
X196998220Y-64820755D01*
X197171116Y-64733418D01*
X197176610Y-64730643D01*
X197338951Y-64603809D01*
X197366933Y-64571392D01*
X197469540Y-64452519D01*
X197469540Y-64452518D01*
X197473564Y-64447857D01*
X197485759Y-64426391D01*
X197572276Y-64274092D01*
X197575323Y-64268729D01*
X197640351Y-64073248D01*
X197666171Y-63868859D01*
X197666583Y-63839385D01*
X197646480Y-63634355D01*
X197586935Y-63437134D01*
X197490218Y-63255234D01*
X197393717Y-63136912D01*
X197363906Y-63100360D01*
X197363903Y-63100357D01*
X197360011Y-63095585D01*
X197214810Y-62975464D01*
X197206025Y-62968196D01*
X197206021Y-62968194D01*
X197201275Y-62964267D01*
X197020055Y-62866282D01*
X196823254Y-62805362D01*
X196817129Y-62804718D01*
X196817128Y-62804718D01*
X196624498Y-62784472D01*
X196624496Y-62784472D01*
X196618369Y-62783828D01*
X196531529Y-62791731D01*
X196419342Y-62801940D01*
X196419339Y-62801941D01*
X196413203Y-62802499D01*
X196215572Y-62860665D01*
X196033002Y-62956111D01*
X196028201Y-62959971D01*
X196028198Y-62959973D01*
X195889215Y-63071718D01*
X195872447Y-63085200D01*
X195740024Y-63243015D01*
X195737056Y-63248413D01*
X195737053Y-63248418D01*
X195643743Y-63418150D01*
X195640776Y-63423547D01*
X195578484Y-63619917D01*
X195577798Y-63626034D01*
X195577797Y-63626038D01*
X195558275Y-63800088D01*
X195555520Y-63824647D01*
X177084500Y-63824647D01*
X177084500Y-61284647D01*
X195555520Y-61284647D01*
X195556036Y-61290791D01*
X195571452Y-61474368D01*
X195572759Y-61489938D01*
X195629544Y-61687971D01*
X195632359Y-61693448D01*
X195632360Y-61693451D01*
X195651240Y-61730188D01*
X195723712Y-61871203D01*
X195851677Y-62032655D01*
X195856370Y-62036649D01*
X195856371Y-62036650D01*
X195995791Y-62155305D01*
X196008564Y-62166176D01*
X196188398Y-62266682D01*
X196283238Y-62297498D01*
X196378471Y-62328441D01*
X196378475Y-62328442D01*
X196384329Y-62330344D01*
X196588894Y-62354736D01*
X196595029Y-62354264D01*
X196595031Y-62354264D01*
X196651039Y-62349954D01*
X196794300Y-62338931D01*
X196800230Y-62337275D01*
X196800232Y-62337275D01*
X196986797Y-62285185D01*
X196986796Y-62285185D01*
X196992725Y-62283530D01*
X196998214Y-62280757D01*
X196998220Y-62280755D01*
X197171116Y-62193418D01*
X197176610Y-62190643D01*
X197338951Y-62063809D01*
X197366933Y-62031392D01*
X197469540Y-61912519D01*
X197469540Y-61912518D01*
X197473564Y-61907857D01*
X197485759Y-61886391D01*
X197572276Y-61734092D01*
X197575323Y-61728729D01*
X197640351Y-61533248D01*
X197666171Y-61328859D01*
X197666583Y-61299385D01*
X197646480Y-61094355D01*
X197586935Y-60897134D01*
X197490218Y-60715234D01*
X197396703Y-60600574D01*
X197363906Y-60560360D01*
X197363903Y-60560357D01*
X197360011Y-60555585D01*
X197352876Y-60549682D01*
X197206025Y-60428196D01*
X197206021Y-60428194D01*
X197201275Y-60424267D01*
X197020055Y-60326282D01*
X196823254Y-60265362D01*
X196817129Y-60264718D01*
X196817128Y-60264718D01*
X196624498Y-60244472D01*
X196624496Y-60244472D01*
X196618369Y-60243828D01*
X196531529Y-60251731D01*
X196419342Y-60261940D01*
X196419339Y-60261941D01*
X196413203Y-60262499D01*
X196215572Y-60320665D01*
X196033002Y-60416111D01*
X196028201Y-60419971D01*
X196028198Y-60419973D01*
X195967798Y-60468536D01*
X195872447Y-60545200D01*
X195740024Y-60703015D01*
X195737056Y-60708413D01*
X195737053Y-60708418D01*
X195707931Y-60761392D01*
X195640776Y-60883547D01*
X195578484Y-61079917D01*
X195577798Y-61086034D01*
X195577797Y-61086038D01*
X195565299Y-61197464D01*
X195555520Y-61284647D01*
X177084500Y-61284647D01*
X177084500Y-60452000D01*
X186338318Y-60452000D01*
X186358956Y-60608762D01*
X186419464Y-60754841D01*
X186515718Y-60880282D01*
X186641159Y-60976536D01*
X186787238Y-61037044D01*
X186944000Y-61057682D01*
X186952188Y-61056604D01*
X187092574Y-61038122D01*
X187100762Y-61037044D01*
X187246841Y-60976536D01*
X187372282Y-60880282D01*
X187468536Y-60754841D01*
X187529044Y-60608762D01*
X187549682Y-60452000D01*
X187529044Y-60295238D01*
X187468536Y-60149159D01*
X187372282Y-60023718D01*
X187246841Y-59927464D01*
X187100762Y-59866956D01*
X186944000Y-59846318D01*
X186787238Y-59866956D01*
X186641159Y-59927464D01*
X186515718Y-60023718D01*
X186419464Y-60149159D01*
X186358956Y-60295238D01*
X186338318Y-60452000D01*
X177084500Y-60452000D01*
X177084500Y-59629133D01*
X195560500Y-59629133D01*
X195572133Y-59687616D01*
X195616448Y-59753937D01*
X195682769Y-59798252D01*
X195694938Y-59800673D01*
X195694939Y-59800673D01*
X195735184Y-59808678D01*
X195741252Y-59809885D01*
X197480748Y-59809885D01*
X197486816Y-59808678D01*
X197527061Y-59800673D01*
X197527062Y-59800673D01*
X197539231Y-59798252D01*
X197605552Y-59753937D01*
X197649867Y-59687616D01*
X197661500Y-59629133D01*
X197661500Y-57889637D01*
X197649867Y-57831154D01*
X197605552Y-57764833D01*
X197539231Y-57720518D01*
X197527062Y-57718097D01*
X197527061Y-57718097D01*
X197486816Y-57710092D01*
X197480748Y-57708885D01*
X195741252Y-57708885D01*
X195735184Y-57710092D01*
X195694939Y-57718097D01*
X195694938Y-57718097D01*
X195682769Y-57720518D01*
X195616448Y-57764833D01*
X195572133Y-57831154D01*
X195560500Y-57889637D01*
X195560500Y-59629133D01*
X177084500Y-59629133D01*
X177084500Y-56881000D01*
X181781318Y-56881000D01*
X181801956Y-57037762D01*
X181862464Y-57183841D01*
X181958718Y-57309282D01*
X182084159Y-57405536D01*
X182230238Y-57466044D01*
X182387000Y-57486682D01*
X182395188Y-57485604D01*
X182535574Y-57467122D01*
X182543762Y-57466044D01*
X182689841Y-57405536D01*
X182815282Y-57309282D01*
X182911536Y-57183841D01*
X182972044Y-57037762D01*
X182992682Y-56881000D01*
X182972044Y-56724238D01*
X182968193Y-56714941D01*
X183545851Y-56714941D01*
X183566489Y-56871703D01*
X183626997Y-57017782D01*
X183723251Y-57143223D01*
X183848692Y-57239477D01*
X183994771Y-57299985D01*
X184151533Y-57320623D01*
X184159721Y-57319545D01*
X184160147Y-57319489D01*
X184308295Y-57299985D01*
X184454374Y-57239477D01*
X184579815Y-57143223D01*
X184676069Y-57017782D01*
X184736577Y-56871703D01*
X184757215Y-56714941D01*
X184757208Y-56714885D01*
X188116318Y-56714885D01*
X188136956Y-56871647D01*
X188197464Y-57017726D01*
X188293718Y-57143167D01*
X188419159Y-57239421D01*
X188565238Y-57299929D01*
X188573426Y-57301007D01*
X188586559Y-57302736D01*
X188722000Y-57320567D01*
X188730188Y-57319489D01*
X188870574Y-57301007D01*
X188878762Y-57299929D01*
X189024841Y-57239421D01*
X189150282Y-57143167D01*
X189246536Y-57017726D01*
X189307044Y-56871647D01*
X189327682Y-56714885D01*
X189307044Y-56558123D01*
X189246536Y-56412044D01*
X189150282Y-56286603D01*
X189024841Y-56190349D01*
X188878762Y-56129841D01*
X188722000Y-56109203D01*
X188565238Y-56129841D01*
X188419159Y-56190349D01*
X188293718Y-56286603D01*
X188197464Y-56412044D01*
X188136956Y-56558123D01*
X188116318Y-56714885D01*
X184757208Y-56714885D01*
X184736577Y-56558179D01*
X184676069Y-56412100D01*
X184579815Y-56286659D01*
X184454374Y-56190405D01*
X184308295Y-56129897D01*
X184299682Y-56128763D01*
X184159721Y-56110337D01*
X184151533Y-56109259D01*
X184143345Y-56110337D01*
X184003385Y-56128763D01*
X183994771Y-56129897D01*
X183848692Y-56190405D01*
X183723251Y-56286659D01*
X183626997Y-56412100D01*
X183566489Y-56558179D01*
X183545851Y-56714941D01*
X182968193Y-56714941D01*
X182911536Y-56578159D01*
X182815282Y-56452718D01*
X182689841Y-56356464D01*
X182543762Y-56295956D01*
X182387000Y-56275318D01*
X182230238Y-56295956D01*
X182084159Y-56356464D01*
X181958718Y-56452718D01*
X181862464Y-56578159D01*
X181801956Y-56724238D01*
X181781318Y-56881000D01*
X177084500Y-56881000D01*
X177084500Y-55150784D01*
X180370500Y-55150784D01*
X180382133Y-55209267D01*
X180426448Y-55275588D01*
X180492769Y-55319903D01*
X180504938Y-55322324D01*
X180504939Y-55322324D01*
X180545184Y-55330329D01*
X180551252Y-55331536D01*
X182190748Y-55331536D01*
X182196816Y-55330329D01*
X182237061Y-55322324D01*
X182237062Y-55322324D01*
X182249231Y-55319903D01*
X182315552Y-55275588D01*
X182359867Y-55209267D01*
X182371500Y-55150784D01*
X182371500Y-55049810D01*
X190838500Y-55049810D01*
X190850133Y-55108293D01*
X190894448Y-55174614D01*
X190960769Y-55218929D01*
X190972938Y-55221350D01*
X190972939Y-55221350D01*
X191013184Y-55229355D01*
X191019252Y-55230562D01*
X193058748Y-55230562D01*
X193064816Y-55229355D01*
X193105061Y-55221350D01*
X193105062Y-55221350D01*
X193117231Y-55218929D01*
X193183552Y-55174614D01*
X193227867Y-55108293D01*
X193239500Y-55049810D01*
X193239500Y-53010314D01*
X193227867Y-52951831D01*
X193183552Y-52885510D01*
X193117231Y-52841195D01*
X193105062Y-52838774D01*
X193105061Y-52838774D01*
X193064816Y-52830769D01*
X193058748Y-52829562D01*
X191019252Y-52829562D01*
X191013184Y-52830769D01*
X190972939Y-52838774D01*
X190972938Y-52838774D01*
X190960769Y-52841195D01*
X190894448Y-52885510D01*
X190850133Y-52951831D01*
X190838500Y-53010314D01*
X190838500Y-55049810D01*
X182371500Y-55049810D01*
X182371500Y-53511288D01*
X182359867Y-53452805D01*
X182315552Y-53386484D01*
X182249231Y-53342169D01*
X182237062Y-53339748D01*
X182237061Y-53339748D01*
X182196816Y-53331743D01*
X182190748Y-53330536D01*
X180551252Y-53330536D01*
X180545184Y-53331743D01*
X180504939Y-53339748D01*
X180504938Y-53339748D01*
X180492769Y-53342169D01*
X180426448Y-53386484D01*
X180382133Y-53452805D01*
X180370500Y-53511288D01*
X180370500Y-55150784D01*
X177084500Y-55150784D01*
X177084500Y-51917098D01*
X180649493Y-51917098D01*
X180658789Y-51929113D01*
X180709994Y-51964967D01*
X180719489Y-51970450D01*
X180916947Y-52062526D01*
X180927239Y-52066272D01*
X181137688Y-52122661D01*
X181148481Y-52124564D01*
X181365525Y-52143553D01*
X181376475Y-52143553D01*
X181593519Y-52124564D01*
X181604312Y-52122661D01*
X181814761Y-52066272D01*
X181825053Y-52062526D01*
X182022511Y-51970450D01*
X182032006Y-51964967D01*
X182084048Y-51928527D01*
X182092424Y-51918048D01*
X182085356Y-51904602D01*
X181383812Y-51203058D01*
X181369868Y-51195444D01*
X181368035Y-51195575D01*
X181361420Y-51199826D01*
X180655923Y-51905323D01*
X180649493Y-51917098D01*
X177084500Y-51917098D01*
X177084500Y-50836511D01*
X180058483Y-50836511D01*
X180077472Y-51053555D01*
X180079375Y-51064348D01*
X180135764Y-51274797D01*
X180139510Y-51285089D01*
X180231586Y-51482547D01*
X180237069Y-51492042D01*
X180273509Y-51544084D01*
X180283988Y-51552460D01*
X180297434Y-51545392D01*
X180998978Y-50843848D01*
X181005356Y-50832168D01*
X181735408Y-50832168D01*
X181735539Y-50834001D01*
X181739790Y-50840616D01*
X182445287Y-51546113D01*
X182457062Y-51552543D01*
X182469077Y-51543247D01*
X182504931Y-51492042D01*
X182510414Y-51482547D01*
X182602490Y-51285089D01*
X182606236Y-51274797D01*
X182662625Y-51064348D01*
X182664528Y-51053555D01*
X182683517Y-50836511D01*
X182683517Y-50825561D01*
X182664528Y-50608517D01*
X182662625Y-50597724D01*
X182606236Y-50387275D01*
X182602490Y-50376983D01*
X182549214Y-50262732D01*
X191171160Y-50262732D01*
X191176887Y-50270382D01*
X191348042Y-50375267D01*
X191356837Y-50379749D01*
X191566988Y-50466796D01*
X191576373Y-50469845D01*
X191797554Y-50522947D01*
X191807301Y-50524490D01*
X192034070Y-50542337D01*
X192043930Y-50542337D01*
X192270699Y-50524490D01*
X192280446Y-50522947D01*
X192501627Y-50469845D01*
X192511012Y-50466796D01*
X192721163Y-50379749D01*
X192729958Y-50375267D01*
X192897445Y-50272630D01*
X192906907Y-50262172D01*
X192903124Y-50253396D01*
X192051812Y-49402084D01*
X192037868Y-49394470D01*
X192036035Y-49394601D01*
X192029420Y-49398852D01*
X191177920Y-50250352D01*
X191171160Y-50262732D01*
X182549214Y-50262732D01*
X182510414Y-50179525D01*
X182504931Y-50170030D01*
X182468491Y-50117988D01*
X182458012Y-50109612D01*
X182444566Y-50116680D01*
X181743022Y-50818224D01*
X181735408Y-50832168D01*
X181005356Y-50832168D01*
X181006592Y-50829904D01*
X181006461Y-50828071D01*
X181002210Y-50821456D01*
X180296713Y-50115959D01*
X180284938Y-50109529D01*
X180272923Y-50118825D01*
X180237069Y-50170030D01*
X180231586Y-50179525D01*
X180139510Y-50376983D01*
X180135764Y-50387275D01*
X180079375Y-50597724D01*
X180077472Y-50608517D01*
X180058483Y-50825561D01*
X180058483Y-50836511D01*
X177084500Y-50836511D01*
X177084500Y-49744024D01*
X180649576Y-49744024D01*
X180656644Y-49757470D01*
X181358188Y-50459014D01*
X181372132Y-50466628D01*
X181373965Y-50466497D01*
X181380580Y-50462246D01*
X182086077Y-49756749D01*
X182092507Y-49744974D01*
X182083211Y-49732959D01*
X182032006Y-49697105D01*
X182022511Y-49691622D01*
X181825053Y-49599546D01*
X181814761Y-49595800D01*
X181604312Y-49539411D01*
X181593519Y-49537508D01*
X181376475Y-49518519D01*
X181365525Y-49518519D01*
X181148481Y-49537508D01*
X181137688Y-49539411D01*
X180927239Y-49595800D01*
X180916947Y-49599546D01*
X180719489Y-49691622D01*
X180709994Y-49697105D01*
X180657952Y-49733545D01*
X180649576Y-49744024D01*
X177084500Y-49744024D01*
X177084500Y-49034992D01*
X190526725Y-49034992D01*
X190544572Y-49261761D01*
X190546115Y-49271508D01*
X190599217Y-49492689D01*
X190602266Y-49502074D01*
X190689313Y-49712225D01*
X190693795Y-49721020D01*
X190796432Y-49888507D01*
X190806890Y-49897969D01*
X190815666Y-49894186D01*
X191666978Y-49042874D01*
X191673356Y-49031194D01*
X192403408Y-49031194D01*
X192403539Y-49033027D01*
X192407790Y-49039642D01*
X193259290Y-49891142D01*
X193271670Y-49897902D01*
X193279320Y-49892175D01*
X193384205Y-49721020D01*
X193388687Y-49712225D01*
X193475734Y-49502074D01*
X193478783Y-49492689D01*
X193531885Y-49271508D01*
X193533428Y-49261761D01*
X193551275Y-49034992D01*
X193551275Y-49025132D01*
X193533428Y-48798363D01*
X193531885Y-48788616D01*
X193478783Y-48567435D01*
X193475734Y-48558050D01*
X193388687Y-48347899D01*
X193384205Y-48339104D01*
X193281568Y-48171617D01*
X193271110Y-48162155D01*
X193262334Y-48165938D01*
X192411022Y-49017250D01*
X192403408Y-49031194D01*
X191673356Y-49031194D01*
X191674592Y-49028930D01*
X191674461Y-49027097D01*
X191670210Y-49020482D01*
X190818710Y-48168982D01*
X190806330Y-48162222D01*
X190798680Y-48167949D01*
X190693795Y-48339104D01*
X190689313Y-48347899D01*
X190602266Y-48558050D01*
X190599217Y-48567435D01*
X190546115Y-48788616D01*
X190544572Y-48798363D01*
X190526725Y-49025132D01*
X190526725Y-49034992D01*
X177084500Y-49034992D01*
X177084500Y-47797952D01*
X191171093Y-47797952D01*
X191174876Y-47806728D01*
X192026188Y-48658040D01*
X192040132Y-48665654D01*
X192041965Y-48665523D01*
X192048580Y-48661272D01*
X192900080Y-47809772D01*
X192906840Y-47797392D01*
X192901113Y-47789742D01*
X192729958Y-47684857D01*
X192721163Y-47680375D01*
X192511012Y-47593328D01*
X192501627Y-47590279D01*
X192280446Y-47537177D01*
X192270699Y-47535634D01*
X192043930Y-47517787D01*
X192034070Y-47517787D01*
X191807301Y-47535634D01*
X191797554Y-47537177D01*
X191576373Y-47590279D01*
X191566988Y-47593328D01*
X191356837Y-47680375D01*
X191348042Y-47684857D01*
X191180555Y-47787494D01*
X191171093Y-47797952D01*
X177084500Y-47797952D01*
X177084500Y-47097748D01*
X177780500Y-47097748D01*
X177781707Y-47103816D01*
X177785331Y-47122033D01*
X177792133Y-47156231D01*
X177836448Y-47222552D01*
X177902769Y-47266867D01*
X177914938Y-47269288D01*
X177914939Y-47269288D01*
X177955184Y-47277293D01*
X177961252Y-47278500D01*
X179700748Y-47278500D01*
X179706816Y-47277293D01*
X179747061Y-47269288D01*
X179747062Y-47269288D01*
X179759231Y-47266867D01*
X179825552Y-47222552D01*
X179869867Y-47156231D01*
X179876670Y-47122033D01*
X179880293Y-47103816D01*
X179881500Y-47097748D01*
X179881500Y-46213262D01*
X180315520Y-46213262D01*
X180316036Y-46219406D01*
X180331593Y-46404663D01*
X180332759Y-46418553D01*
X180389544Y-46616586D01*
X180392359Y-46622063D01*
X180392360Y-46622066D01*
X180413247Y-46662707D01*
X180483712Y-46799818D01*
X180611677Y-46961270D01*
X180768564Y-47094791D01*
X180948398Y-47195297D01*
X181032280Y-47222552D01*
X181138471Y-47257056D01*
X181138475Y-47257057D01*
X181144329Y-47258959D01*
X181348894Y-47283351D01*
X181355029Y-47282879D01*
X181355031Y-47282879D01*
X181427625Y-47277293D01*
X181554300Y-47267546D01*
X181560230Y-47265890D01*
X181560232Y-47265890D01*
X181746797Y-47213800D01*
X181746796Y-47213800D01*
X181752725Y-47212145D01*
X181758214Y-47209372D01*
X181758220Y-47209370D01*
X181931116Y-47122033D01*
X181936610Y-47119258D01*
X182098951Y-46992424D01*
X182233564Y-46836472D01*
X182254387Y-46799818D01*
X182332276Y-46662707D01*
X182335323Y-46657344D01*
X182400351Y-46461863D01*
X182426171Y-46257474D01*
X182426583Y-46228000D01*
X182425138Y-46213262D01*
X182855520Y-46213262D01*
X182856036Y-46219406D01*
X182871593Y-46404663D01*
X182872759Y-46418553D01*
X182929544Y-46616586D01*
X182932359Y-46622063D01*
X182932360Y-46622066D01*
X182953247Y-46662707D01*
X183023712Y-46799818D01*
X183151677Y-46961270D01*
X183308564Y-47094791D01*
X183488398Y-47195297D01*
X183572280Y-47222552D01*
X183678471Y-47257056D01*
X183678475Y-47257057D01*
X183684329Y-47258959D01*
X183888894Y-47283351D01*
X183895029Y-47282879D01*
X183895031Y-47282879D01*
X183967625Y-47277293D01*
X184094300Y-47267546D01*
X184100230Y-47265890D01*
X184100232Y-47265890D01*
X184286797Y-47213800D01*
X184286796Y-47213800D01*
X184292725Y-47212145D01*
X184298214Y-47209372D01*
X184298220Y-47209370D01*
X184471116Y-47122033D01*
X184476610Y-47119258D01*
X184638951Y-46992424D01*
X184773564Y-46836472D01*
X184794387Y-46799818D01*
X184872276Y-46662707D01*
X184875323Y-46657344D01*
X184940351Y-46461863D01*
X184966171Y-46257474D01*
X184966583Y-46228000D01*
X184946480Y-46022970D01*
X184886935Y-45825749D01*
X184790218Y-45643849D01*
X184705426Y-45539884D01*
X184663906Y-45488975D01*
X184663903Y-45488972D01*
X184660011Y-45484200D01*
X184552928Y-45395613D01*
X184506025Y-45356811D01*
X184506021Y-45356809D01*
X184501275Y-45352882D01*
X184320055Y-45254897D01*
X184123254Y-45193977D01*
X184117129Y-45193333D01*
X184117128Y-45193333D01*
X183924498Y-45173087D01*
X183924496Y-45173087D01*
X183918369Y-45172443D01*
X183831529Y-45180346D01*
X183719342Y-45190555D01*
X183719339Y-45190556D01*
X183713203Y-45191114D01*
X183515572Y-45249280D01*
X183510107Y-45252137D01*
X183508313Y-45253075D01*
X183333002Y-45344726D01*
X183328201Y-45348586D01*
X183328198Y-45348588D01*
X183275069Y-45391305D01*
X183172447Y-45473815D01*
X183040024Y-45631630D01*
X183037056Y-45637028D01*
X183037053Y-45637033D01*
X182961503Y-45774460D01*
X182940776Y-45812162D01*
X182878484Y-46008532D01*
X182877798Y-46014649D01*
X182877797Y-46014653D01*
X182856207Y-46207137D01*
X182855520Y-46213262D01*
X182425138Y-46213262D01*
X182406480Y-46022970D01*
X182346935Y-45825749D01*
X182250218Y-45643849D01*
X182165426Y-45539884D01*
X182123906Y-45488975D01*
X182123903Y-45488972D01*
X182120011Y-45484200D01*
X182012928Y-45395613D01*
X181966025Y-45356811D01*
X181966021Y-45356809D01*
X181961275Y-45352882D01*
X181780055Y-45254897D01*
X181583254Y-45193977D01*
X181577129Y-45193333D01*
X181577128Y-45193333D01*
X181384498Y-45173087D01*
X181384496Y-45173087D01*
X181378369Y-45172443D01*
X181291529Y-45180346D01*
X181179342Y-45190555D01*
X181179339Y-45190556D01*
X181173203Y-45191114D01*
X180975572Y-45249280D01*
X180970107Y-45252137D01*
X180968313Y-45253075D01*
X180793002Y-45344726D01*
X180788201Y-45348586D01*
X180788198Y-45348588D01*
X180735069Y-45391305D01*
X180632447Y-45473815D01*
X180500024Y-45631630D01*
X180497056Y-45637028D01*
X180497053Y-45637033D01*
X180421503Y-45774460D01*
X180400776Y-45812162D01*
X180338484Y-46008532D01*
X180337798Y-46014649D01*
X180337797Y-46014653D01*
X180316207Y-46207137D01*
X180315520Y-46213262D01*
X179881500Y-46213262D01*
X179881500Y-45358252D01*
X179869867Y-45299769D01*
X179825552Y-45233448D01*
X179759231Y-45189133D01*
X179747062Y-45186712D01*
X179747061Y-45186712D01*
X179706816Y-45178707D01*
X179700748Y-45177500D01*
X177961252Y-45177500D01*
X177955184Y-45178707D01*
X177914939Y-45186712D01*
X177914938Y-45186712D01*
X177902769Y-45189133D01*
X177836448Y-45233448D01*
X177792133Y-45299769D01*
X177780500Y-45358252D01*
X177780500Y-47097748D01*
X177084500Y-47097748D01*
X177084500Y-45271316D01*
X177084696Y-45268643D01*
X177086425Y-45263608D01*
X177084589Y-45214694D01*
X177084500Y-45209968D01*
X177084500Y-45191002D01*
X177083619Y-45186267D01*
X177083390Y-45182740D01*
X177082662Y-45163365D01*
X177082226Y-45151741D01*
X177077634Y-45141054D01*
X177076595Y-45136442D01*
X177073043Y-45124750D01*
X177071339Y-45120333D01*
X177069209Y-45108897D01*
X177056272Y-45087909D01*
X177047769Y-45071539D01*
X177041549Y-45057062D01*
X177041547Y-45057058D01*
X177038036Y-45048887D01*
X177034022Y-45044001D01*
X177031837Y-45041816D01*
X177029785Y-45039553D01*
X177029945Y-45039408D01*
X177022825Y-45030401D01*
X177016573Y-45023506D01*
X177010468Y-45013602D01*
X176988680Y-44997034D01*
X176975861Y-44985840D01*
X176525446Y-44535425D01*
X192870500Y-44535425D01*
X192882133Y-44593908D01*
X192926448Y-44660229D01*
X192992769Y-44704544D01*
X193004938Y-44706965D01*
X193004939Y-44706965D01*
X193045184Y-44714970D01*
X193051252Y-44716177D01*
X195090748Y-44716177D01*
X195096816Y-44714970D01*
X195137061Y-44706965D01*
X195137062Y-44706965D01*
X195149231Y-44704544D01*
X195215552Y-44660229D01*
X195259867Y-44593908D01*
X195271500Y-44535425D01*
X195271500Y-42495929D01*
X195259867Y-42437446D01*
X195215552Y-42371125D01*
X195149231Y-42326810D01*
X195137062Y-42324389D01*
X195137061Y-42324389D01*
X195096816Y-42316384D01*
X195090748Y-42315177D01*
X193051252Y-42315177D01*
X193045184Y-42316384D01*
X193004939Y-42324389D01*
X193004938Y-42324389D01*
X192992769Y-42326810D01*
X192926448Y-42371125D01*
X192882133Y-42437446D01*
X192870500Y-42495929D01*
X192870500Y-44535425D01*
X176525446Y-44535425D01*
X176393121Y-44403100D01*
X176359095Y-44340788D01*
X176357294Y-44297559D01*
X176369129Y-44207663D01*
X176369129Y-44207660D01*
X176370207Y-44199475D01*
X176349569Y-44042713D01*
X176289061Y-43896634D01*
X176192807Y-43771193D01*
X176067366Y-43674939D01*
X175921287Y-43614431D01*
X175764525Y-43593793D01*
X175607763Y-43614431D01*
X175461684Y-43674939D01*
X175336243Y-43771193D01*
X175239989Y-43896634D01*
X175179481Y-44042713D01*
X175158843Y-44199475D01*
X175159921Y-44207660D01*
X175160583Y-44212688D01*
X175149645Y-44282837D01*
X175102517Y-44335936D01*
X175034164Y-44355127D01*
X175019221Y-44354059D01*
X175006000Y-44352318D01*
X174849238Y-44372956D01*
X174703159Y-44433464D01*
X174577718Y-44529718D01*
X174481464Y-44655159D01*
X174420956Y-44801238D01*
X174400318Y-44958000D01*
X174420956Y-45114762D01*
X174481464Y-45260841D01*
X174577718Y-45386282D01*
X174703159Y-45482536D01*
X174849238Y-45543044D01*
X174857426Y-45544122D01*
X174927619Y-45553363D01*
X175006000Y-45563682D01*
X175104084Y-45550769D01*
X175174231Y-45561708D01*
X175209625Y-45586596D01*
X175938596Y-46315568D01*
X175972621Y-46377880D01*
X175975500Y-46404663D01*
X175975500Y-66696779D01*
X175955498Y-66764900D01*
X175901842Y-66811393D01*
X175831568Y-66821497D01*
X175766988Y-66792003D01*
X175729559Y-66732211D01*
X175729457Y-66731434D01*
X175725667Y-66722282D01*
X175676420Y-66603392D01*
X175668949Y-66585355D01*
X175598889Y-66494051D01*
X175577718Y-66466460D01*
X175572695Y-66459914D01*
X175447254Y-66363660D01*
X175301175Y-66303152D01*
X175144413Y-66282514D01*
X174987651Y-66303152D01*
X174841572Y-66363660D01*
X174716131Y-66459914D01*
X174711108Y-66466460D01*
X174711105Y-66466463D01*
X174664627Y-66527035D01*
X174607289Y-66568903D01*
X174536418Y-66573125D01*
X174487960Y-66550295D01*
X174457647Y-66527035D01*
X174365411Y-66456260D01*
X174219332Y-66395752D01*
X174062570Y-66375114D01*
X173905808Y-66395752D01*
X173759729Y-66456260D01*
X173634288Y-66552514D01*
X173538034Y-66677955D01*
X173477526Y-66824034D01*
X173456888Y-66980796D01*
X168402000Y-66980796D01*
X168402000Y-65188751D01*
X169155567Y-65188751D01*
X169176205Y-65345513D01*
X169236713Y-65491592D01*
X169332967Y-65617033D01*
X169458408Y-65713287D01*
X169604487Y-65773795D01*
X169761249Y-65794433D01*
X169769437Y-65793355D01*
X169909823Y-65774873D01*
X169918011Y-65773795D01*
X170064090Y-65713287D01*
X170189531Y-65617033D01*
X170285785Y-65491592D01*
X170346293Y-65345513D01*
X170366931Y-65188751D01*
X170346293Y-65031989D01*
X170285785Y-64885910D01*
X170189531Y-64760469D01*
X170064090Y-64664215D01*
X169918011Y-64603707D01*
X169761249Y-64583069D01*
X169604487Y-64603707D01*
X169458408Y-64664215D01*
X169332967Y-64760469D01*
X169236713Y-64885910D01*
X169176205Y-65031989D01*
X169155567Y-65188751D01*
X168402000Y-65188751D01*
X168402000Y-64262000D01*
X173638318Y-64262000D01*
X173658956Y-64418762D01*
X173719464Y-64564841D01*
X173815718Y-64690282D01*
X173822264Y-64695305D01*
X173840350Y-64709183D01*
X173941159Y-64786536D01*
X174087238Y-64847044D01*
X174244000Y-64867682D01*
X174252188Y-64866604D01*
X174392574Y-64848122D01*
X174400762Y-64847044D01*
X174546841Y-64786536D01*
X174647650Y-64709183D01*
X174665736Y-64695305D01*
X174672282Y-64690282D01*
X174768536Y-64564841D01*
X174829044Y-64418762D01*
X174849682Y-64262000D01*
X174829044Y-64105238D01*
X174768536Y-63959159D01*
X174672282Y-63833718D01*
X174660461Y-63824647D01*
X174553392Y-63742491D01*
X174546841Y-63737464D01*
X174400762Y-63676956D01*
X174244000Y-63656318D01*
X174087238Y-63676956D01*
X173941159Y-63737464D01*
X173934608Y-63742491D01*
X173827540Y-63824647D01*
X173815718Y-63833718D01*
X173719464Y-63959159D01*
X173658956Y-64105238D01*
X173638318Y-64262000D01*
X168402000Y-64262000D01*
X168402000Y-63863088D01*
X168417933Y-63803627D01*
X168418536Y-63802841D01*
X168469371Y-63680116D01*
X168475884Y-63664391D01*
X168479044Y-63656762D01*
X168499682Y-63500000D01*
X168479044Y-63343238D01*
X168444845Y-63260675D01*
X168421696Y-63204787D01*
X168421695Y-63204785D01*
X168418536Y-63197159D01*
X168417933Y-63196373D01*
X168402000Y-63136912D01*
X168402000Y-62081624D01*
X168422002Y-62013503D01*
X168475658Y-61967010D01*
X168545932Y-61956906D01*
X168610512Y-61986400D01*
X168636658Y-62018066D01*
X168639464Y-62024841D01*
X168735718Y-62150282D01*
X168742264Y-62155305D01*
X168760350Y-62169183D01*
X168861159Y-62246536D01*
X169007238Y-62307044D01*
X169164000Y-62327682D01*
X169172188Y-62326604D01*
X169312574Y-62308122D01*
X169320762Y-62307044D01*
X169466841Y-62246536D01*
X169567650Y-62169183D01*
X169585736Y-62155305D01*
X169592282Y-62150282D01*
X169688536Y-62024841D01*
X169749044Y-61878762D01*
X169769682Y-61722000D01*
X169749044Y-61565238D01*
X169688536Y-61419159D01*
X169592282Y-61293718D01*
X169580461Y-61284647D01*
X169473392Y-61202491D01*
X169466841Y-61197464D01*
X169320762Y-61136956D01*
X169164000Y-61116318D01*
X169007238Y-61136956D01*
X168861159Y-61197464D01*
X168854608Y-61202491D01*
X168747540Y-61284647D01*
X168735718Y-61293718D01*
X168639464Y-61419159D01*
X168636739Y-61425737D01*
X168585738Y-61474368D01*
X168516025Y-61487806D01*
X168450113Y-61461420D01*
X168408931Y-61403588D01*
X168402000Y-61362376D01*
X168402000Y-57767088D01*
X168417933Y-57707627D01*
X168418536Y-57706841D01*
X168479044Y-57560762D01*
X168499682Y-57404000D01*
X168479044Y-57247238D01*
X168435960Y-57143223D01*
X168421696Y-57108787D01*
X168421695Y-57108785D01*
X168418536Y-57101159D01*
X168417933Y-57100373D01*
X168402000Y-57040912D01*
X168402000Y-51671088D01*
X168417933Y-51611627D01*
X168418536Y-51610841D01*
X168446535Y-51543247D01*
X168475884Y-51472391D01*
X168479044Y-51464762D01*
X168499682Y-51308000D01*
X168486563Y-51208351D01*
X168497502Y-51138203D01*
X168544630Y-51085104D01*
X168612984Y-51065914D01*
X168680862Y-51086725D01*
X168711448Y-51115201D01*
X168773121Y-51195575D01*
X168798218Y-51228282D01*
X168923659Y-51324536D01*
X169069738Y-51385044D01*
X169226500Y-51405682D01*
X169234688Y-51404604D01*
X169375074Y-51386122D01*
X169383262Y-51385044D01*
X169451282Y-51356869D01*
X169521871Y-51349280D01*
X169585358Y-51381059D01*
X169621586Y-51442117D01*
X169625500Y-51473278D01*
X169625500Y-54661941D01*
X169605498Y-54730062D01*
X169551842Y-54776555D01*
X169531074Y-54782516D01*
X169531402Y-54783741D01*
X169523426Y-54785878D01*
X169515238Y-54786956D01*
X169369159Y-54847464D01*
X169243718Y-54943718D01*
X169147464Y-55069159D01*
X169086956Y-55215238D01*
X169066318Y-55372000D01*
X169086956Y-55528762D01*
X169147464Y-55674841D01*
X169243718Y-55800282D01*
X169369159Y-55896536D01*
X169515238Y-55957044D01*
X169672000Y-55977682D01*
X169680188Y-55976604D01*
X169820574Y-55958122D01*
X169828762Y-55957044D01*
X169836389Y-55953885D01*
X169836392Y-55953884D01*
X169959282Y-55902981D01*
X170029872Y-55895392D01*
X170093359Y-55927171D01*
X170129586Y-55988230D01*
X170133500Y-56019390D01*
X170133500Y-59355531D01*
X170113498Y-59423652D01*
X170084205Y-59455493D01*
X170005718Y-59515718D01*
X169909464Y-59641159D01*
X169848956Y-59787238D01*
X169828318Y-59944000D01*
X169848956Y-60100762D01*
X169909464Y-60246841D01*
X170005718Y-60372282D01*
X170131159Y-60468536D01*
X170277238Y-60529044D01*
X170434000Y-60549682D01*
X170442188Y-60548604D01*
X170582574Y-60530122D01*
X170590762Y-60529044D01*
X170736841Y-60468536D01*
X170862282Y-60372282D01*
X170958536Y-60246841D01*
X171019044Y-60100762D01*
X171039682Y-59944000D01*
X171019044Y-59787238D01*
X170958536Y-59641159D01*
X170862282Y-59515718D01*
X170783796Y-59455493D01*
X170741929Y-59398156D01*
X170734500Y-59355531D01*
X170734500Y-43380520D01*
X185629798Y-43380520D01*
X185650436Y-43537282D01*
X185710944Y-43683361D01*
X185807198Y-43808802D01*
X185932639Y-43905056D01*
X186078718Y-43965564D01*
X186235480Y-43986202D01*
X186243668Y-43985124D01*
X186384054Y-43966642D01*
X186392242Y-43965564D01*
X186538321Y-43905056D01*
X186663762Y-43808802D01*
X186760016Y-43683361D01*
X186820524Y-43537282D01*
X186841162Y-43380520D01*
X186820524Y-43223758D01*
X186760016Y-43077679D01*
X186663762Y-42952238D01*
X186538321Y-42855984D01*
X186392242Y-42795476D01*
X186235480Y-42774838D01*
X186078718Y-42795476D01*
X185932639Y-42855984D01*
X185807198Y-42952238D01*
X185710944Y-43077679D01*
X185650436Y-43223758D01*
X185629798Y-43380520D01*
X170734500Y-43380520D01*
X170734500Y-39748347D01*
X193203160Y-39748347D01*
X193208887Y-39755997D01*
X193380042Y-39860882D01*
X193388837Y-39865364D01*
X193598988Y-39952411D01*
X193608373Y-39955460D01*
X193829554Y-40008562D01*
X193839301Y-40010105D01*
X194066070Y-40027952D01*
X194075930Y-40027952D01*
X194302699Y-40010105D01*
X194312446Y-40008562D01*
X194533627Y-39955460D01*
X194543012Y-39952411D01*
X194753163Y-39865364D01*
X194761958Y-39860882D01*
X194929445Y-39758245D01*
X194938907Y-39747787D01*
X194935124Y-39739011D01*
X194083812Y-38887699D01*
X194069868Y-38880085D01*
X194068035Y-38880216D01*
X194061420Y-38884467D01*
X193209920Y-39735967D01*
X193203160Y-39748347D01*
X170734500Y-39748347D01*
X170734500Y-38520607D01*
X192558725Y-38520607D01*
X192576572Y-38747376D01*
X192578115Y-38757123D01*
X192631217Y-38978304D01*
X192634266Y-38987689D01*
X192721313Y-39197840D01*
X192725795Y-39206635D01*
X192828432Y-39374122D01*
X192838890Y-39383584D01*
X192847666Y-39379801D01*
X193698978Y-38528489D01*
X193705356Y-38516809D01*
X194435408Y-38516809D01*
X194435539Y-38518642D01*
X194439790Y-38525257D01*
X195291290Y-39376757D01*
X195303670Y-39383517D01*
X195311320Y-39377790D01*
X195416205Y-39206635D01*
X195420687Y-39197840D01*
X195507734Y-38987689D01*
X195510783Y-38978304D01*
X195563885Y-38757123D01*
X195565428Y-38747376D01*
X195583275Y-38520607D01*
X195583275Y-38510747D01*
X195565428Y-38283978D01*
X195563885Y-38274231D01*
X195510783Y-38053050D01*
X195507734Y-38043665D01*
X195420687Y-37833514D01*
X195416205Y-37824719D01*
X195313568Y-37657232D01*
X195303110Y-37647770D01*
X195294334Y-37651553D01*
X194443022Y-38502865D01*
X194435408Y-38516809D01*
X193705356Y-38516809D01*
X193706592Y-38514545D01*
X193706461Y-38512712D01*
X193702210Y-38506097D01*
X192850710Y-37654597D01*
X192838330Y-37647837D01*
X192830680Y-37653564D01*
X192725795Y-37824719D01*
X192721313Y-37833514D01*
X192634266Y-38043665D01*
X192631217Y-38053050D01*
X192578115Y-38274231D01*
X192576572Y-38283978D01*
X192558725Y-38510747D01*
X192558725Y-38520607D01*
X170734500Y-38520607D01*
X170734500Y-37898366D01*
X170734696Y-37895693D01*
X170736425Y-37890658D01*
X170734589Y-37841745D01*
X170734500Y-37837019D01*
X170734500Y-37818052D01*
X170733618Y-37813317D01*
X170733390Y-37809791D01*
X170732662Y-37790415D01*
X170732226Y-37778792D01*
X170727636Y-37768107D01*
X170726599Y-37763507D01*
X170723038Y-37751786D01*
X170721339Y-37747383D01*
X170719209Y-37735947D01*
X170706272Y-37714959D01*
X170697769Y-37698589D01*
X170691549Y-37684112D01*
X170691547Y-37684108D01*
X170688519Y-37677062D01*
X184528842Y-37677062D01*
X184538138Y-37689077D01*
X184589343Y-37724931D01*
X184598838Y-37730414D01*
X184796296Y-37822490D01*
X184806588Y-37826236D01*
X185017037Y-37882625D01*
X185027830Y-37884528D01*
X185244874Y-37903517D01*
X185255824Y-37903517D01*
X185472868Y-37884528D01*
X185483661Y-37882625D01*
X185694110Y-37826236D01*
X185704402Y-37822490D01*
X185901860Y-37730414D01*
X185911355Y-37724931D01*
X185963397Y-37688491D01*
X185971773Y-37678012D01*
X185964705Y-37664566D01*
X185263161Y-36963022D01*
X185249217Y-36955408D01*
X185247384Y-36955539D01*
X185240769Y-36959790D01*
X184535272Y-37665287D01*
X184528842Y-37677062D01*
X170688519Y-37677062D01*
X170688036Y-37675937D01*
X170684022Y-37671051D01*
X170681837Y-37668866D01*
X170679785Y-37666603D01*
X170679945Y-37666458D01*
X170672825Y-37657451D01*
X170666573Y-37650556D01*
X170660468Y-37640652D01*
X170638680Y-37624084D01*
X170625861Y-37612890D01*
X170423719Y-37410748D01*
X180749849Y-37410748D01*
X180761482Y-37469231D01*
X180805797Y-37535552D01*
X180872118Y-37579867D01*
X180884287Y-37582288D01*
X180884288Y-37582288D01*
X180924533Y-37590293D01*
X180930601Y-37591500D01*
X182570097Y-37591500D01*
X182576165Y-37590293D01*
X182616410Y-37582288D01*
X182616411Y-37582288D01*
X182628580Y-37579867D01*
X182694901Y-37535552D01*
X182739216Y-37469231D01*
X182750849Y-37410748D01*
X182750849Y-36596475D01*
X183937832Y-36596475D01*
X183956821Y-36813519D01*
X183958724Y-36824312D01*
X184015113Y-37034761D01*
X184018859Y-37045053D01*
X184110935Y-37242511D01*
X184116418Y-37252006D01*
X184152858Y-37304048D01*
X184163337Y-37312424D01*
X184176783Y-37305356D01*
X184878327Y-36603812D01*
X184884705Y-36592132D01*
X185614757Y-36592132D01*
X185614888Y-36593965D01*
X185619139Y-36600580D01*
X186324636Y-37306077D01*
X186336411Y-37312507D01*
X186348426Y-37303211D01*
X186362181Y-37283567D01*
X193203093Y-37283567D01*
X193206876Y-37292343D01*
X194058188Y-38143655D01*
X194072132Y-38151269D01*
X194073965Y-38151138D01*
X194080580Y-38146887D01*
X194932080Y-37295387D01*
X194938840Y-37283007D01*
X194933113Y-37275357D01*
X194761958Y-37170472D01*
X194753163Y-37165990D01*
X194543012Y-37078943D01*
X194533627Y-37075894D01*
X194312446Y-37022792D01*
X194302699Y-37021249D01*
X194075930Y-37003402D01*
X194066070Y-37003402D01*
X193839301Y-37021249D01*
X193829554Y-37022792D01*
X193608373Y-37075894D01*
X193598988Y-37078943D01*
X193388837Y-37165990D01*
X193380042Y-37170472D01*
X193212555Y-37273109D01*
X193203093Y-37283567D01*
X186362181Y-37283567D01*
X186384280Y-37252006D01*
X186389763Y-37242511D01*
X186481839Y-37045053D01*
X186485585Y-37034761D01*
X186541974Y-36824312D01*
X186543877Y-36813519D01*
X186562866Y-36596475D01*
X186562866Y-36585525D01*
X186543877Y-36368481D01*
X186541974Y-36357688D01*
X186485585Y-36147239D01*
X186481839Y-36136947D01*
X186389763Y-35939489D01*
X186384280Y-35929994D01*
X186347840Y-35877952D01*
X186337361Y-35869576D01*
X186323915Y-35876644D01*
X185622371Y-36578188D01*
X185614757Y-36592132D01*
X184884705Y-36592132D01*
X184885941Y-36589868D01*
X184885810Y-36588035D01*
X184881559Y-36581420D01*
X184176062Y-35875923D01*
X184164287Y-35869493D01*
X184152272Y-35878789D01*
X184116418Y-35929994D01*
X184110935Y-35939489D01*
X184018859Y-36136947D01*
X184015113Y-36147239D01*
X183958724Y-36357688D01*
X183956821Y-36368481D01*
X183937832Y-36585525D01*
X183937832Y-36596475D01*
X182750849Y-36596475D01*
X182750849Y-35771252D01*
X182739216Y-35712769D01*
X182731529Y-35701264D01*
X182701792Y-35656761D01*
X182694901Y-35646448D01*
X182628580Y-35602133D01*
X182616411Y-35599712D01*
X182616410Y-35599712D01*
X182576165Y-35591707D01*
X182570097Y-35590500D01*
X180930601Y-35590500D01*
X180924533Y-35591707D01*
X180884288Y-35599712D01*
X180884287Y-35599712D01*
X180872118Y-35602133D01*
X180805797Y-35646448D01*
X180798906Y-35656761D01*
X180769170Y-35701264D01*
X180761482Y-35712769D01*
X180749849Y-35771252D01*
X180749849Y-37410748D01*
X170423719Y-37410748D01*
X169135971Y-36123000D01*
X174669318Y-36123000D01*
X174689956Y-36279762D01*
X174750464Y-36425841D01*
X174846718Y-36551282D01*
X174972159Y-36647536D01*
X175118238Y-36708044D01*
X175275000Y-36728682D01*
X175283188Y-36727604D01*
X175423574Y-36709122D01*
X175431762Y-36708044D01*
X175577841Y-36647536D01*
X175703282Y-36551282D01*
X175799536Y-36425841D01*
X175860044Y-36279762D01*
X175880682Y-36123000D01*
X175860044Y-35966238D01*
X175799536Y-35820159D01*
X175703282Y-35694718D01*
X175577841Y-35598464D01*
X175431762Y-35537956D01*
X175275000Y-35517318D01*
X175118238Y-35537956D01*
X174972159Y-35598464D01*
X174846718Y-35694718D01*
X174750464Y-35820159D01*
X174689956Y-35966238D01*
X174669318Y-36123000D01*
X169135971Y-36123000D01*
X168651519Y-35638548D01*
X168649763Y-35636514D01*
X168647425Y-35631731D01*
X168611523Y-35598427D01*
X168608118Y-35595147D01*
X168594723Y-35581752D01*
X168590753Y-35579028D01*
X168588105Y-35576703D01*
X168573881Y-35563508D01*
X168573878Y-35563506D01*
X168565354Y-35555599D01*
X168554550Y-35551289D01*
X168550561Y-35548767D01*
X168539773Y-35543006D01*
X168535448Y-35541089D01*
X168525854Y-35534508D01*
X168514535Y-35531822D01*
X168514533Y-35531821D01*
X168501873Y-35528817D01*
X168484286Y-35523256D01*
X168481320Y-35522073D01*
X168458262Y-35503988D01*
X184528925Y-35503988D01*
X184535993Y-35517434D01*
X185237537Y-36218978D01*
X185251481Y-36226592D01*
X185253314Y-36226461D01*
X185259929Y-36222210D01*
X185965426Y-35516713D01*
X185971856Y-35504938D01*
X185962560Y-35492923D01*
X185911355Y-35457069D01*
X185901860Y-35451586D01*
X185704402Y-35359510D01*
X185694110Y-35355764D01*
X185483661Y-35299375D01*
X185472868Y-35297472D01*
X185255824Y-35278483D01*
X185244874Y-35278483D01*
X185027830Y-35297472D01*
X185017037Y-35299375D01*
X184806588Y-35355764D01*
X184796296Y-35359510D01*
X184598838Y-35451586D01*
X184589343Y-35457069D01*
X184537301Y-35493509D01*
X184528925Y-35503988D01*
X168458262Y-35503988D01*
X168425457Y-35478258D01*
X168402000Y-35405039D01*
X168402000Y-35179000D01*
X168422002Y-35110879D01*
X168475658Y-35064386D01*
X168528000Y-35053000D01*
X169149939Y-35053000D01*
X169164000Y-35054279D01*
X169164000Y-35057362D01*
X169320688Y-35047092D01*
X169425814Y-35040202D01*
X169425818Y-35040201D01*
X169429929Y-35039932D01*
X169433969Y-35039128D01*
X169433972Y-35039128D01*
X169687258Y-34988747D01*
X169687264Y-34988745D01*
X169691308Y-34987941D01*
X169695214Y-34986615D01*
X169695218Y-34986614D01*
X169831303Y-34940419D01*
X169943665Y-34902277D01*
X169955585Y-34896399D01*
X170178978Y-34786233D01*
X170182681Y-34784407D01*
X170190926Y-34778898D01*
X170400836Y-34638641D01*
X170400841Y-34638637D01*
X170404267Y-34636348D01*
X170407361Y-34633634D01*
X170407367Y-34633630D01*
X170601543Y-34463341D01*
X170604632Y-34460632D01*
X170644239Y-34415469D01*
X170659780Y-34397748D01*
X188448500Y-34397748D01*
X188449707Y-34403816D01*
X188453331Y-34422033D01*
X188460133Y-34456231D01*
X188504448Y-34522552D01*
X188570769Y-34566867D01*
X188582938Y-34569288D01*
X188582939Y-34569288D01*
X188623184Y-34577293D01*
X188629252Y-34578500D01*
X190368748Y-34578500D01*
X190374816Y-34577293D01*
X190415061Y-34569288D01*
X190415062Y-34569288D01*
X190427231Y-34566867D01*
X190493552Y-34522552D01*
X190537867Y-34456231D01*
X190544670Y-34422033D01*
X190548293Y-34403816D01*
X190549500Y-34397748D01*
X190549500Y-33513262D01*
X190983520Y-33513262D01*
X191000759Y-33718553D01*
X191057544Y-33916586D01*
X191060359Y-33922063D01*
X191060360Y-33922066D01*
X191081247Y-33962707D01*
X191151712Y-34099818D01*
X191279677Y-34261270D01*
X191436564Y-34394791D01*
X191616398Y-34495297D01*
X191700280Y-34522552D01*
X191806471Y-34557056D01*
X191806475Y-34557057D01*
X191812329Y-34558959D01*
X192016894Y-34583351D01*
X192023029Y-34582879D01*
X192023031Y-34582879D01*
X192095625Y-34577293D01*
X192222300Y-34567546D01*
X192228230Y-34565890D01*
X192228232Y-34565890D01*
X192414797Y-34513800D01*
X192414796Y-34513800D01*
X192420725Y-34512145D01*
X192426214Y-34509372D01*
X192426220Y-34509370D01*
X192599116Y-34422033D01*
X192604610Y-34419258D01*
X192766951Y-34292424D01*
X192797670Y-34256836D01*
X192897540Y-34141134D01*
X192897540Y-34141133D01*
X192901564Y-34136472D01*
X192922387Y-34099818D01*
X193000276Y-33962707D01*
X193003323Y-33957344D01*
X193068351Y-33761863D01*
X193094171Y-33557474D01*
X193094583Y-33528000D01*
X193093138Y-33513262D01*
X193523520Y-33513262D01*
X193540759Y-33718553D01*
X193597544Y-33916586D01*
X193600359Y-33922063D01*
X193600360Y-33922066D01*
X193621247Y-33962707D01*
X193691712Y-34099818D01*
X193819677Y-34261270D01*
X193976564Y-34394791D01*
X194156398Y-34495297D01*
X194240280Y-34522552D01*
X194346471Y-34557056D01*
X194346475Y-34557057D01*
X194352329Y-34558959D01*
X194556894Y-34583351D01*
X194563029Y-34582879D01*
X194563031Y-34582879D01*
X194635625Y-34577293D01*
X194762300Y-34567546D01*
X194768230Y-34565890D01*
X194768232Y-34565890D01*
X194954797Y-34513800D01*
X194954796Y-34513800D01*
X194960725Y-34512145D01*
X194966214Y-34509372D01*
X194966220Y-34509370D01*
X195139116Y-34422033D01*
X195144610Y-34419258D01*
X195306951Y-34292424D01*
X195337670Y-34256836D01*
X195437540Y-34141134D01*
X195437540Y-34141133D01*
X195441564Y-34136472D01*
X195462387Y-34099818D01*
X195540276Y-33962707D01*
X195543323Y-33957344D01*
X195608351Y-33761863D01*
X195634171Y-33557474D01*
X195634583Y-33528000D01*
X195614480Y-33322970D01*
X195554935Y-33125749D01*
X195458218Y-32943849D01*
X195383681Y-32852458D01*
X195331906Y-32788975D01*
X195331903Y-32788972D01*
X195328011Y-32784200D01*
X195292595Y-32754901D01*
X195174025Y-32656811D01*
X195174021Y-32656809D01*
X195169275Y-32652882D01*
X194988055Y-32554897D01*
X194791254Y-32493977D01*
X194785129Y-32493333D01*
X194785128Y-32493333D01*
X194592498Y-32473087D01*
X194592496Y-32473087D01*
X194586369Y-32472443D01*
X194499529Y-32480346D01*
X194387342Y-32490555D01*
X194387339Y-32490556D01*
X194381203Y-32491114D01*
X194183572Y-32549280D01*
X194001002Y-32644726D01*
X193996201Y-32648586D01*
X193996198Y-32648588D01*
X193879299Y-32742577D01*
X193840447Y-32773815D01*
X193708024Y-32931630D01*
X193705056Y-32937028D01*
X193705053Y-32937033D01*
X193698315Y-32949290D01*
X193608776Y-33112162D01*
X193546484Y-33308532D01*
X193545798Y-33314649D01*
X193545797Y-33314653D01*
X193524207Y-33507137D01*
X193523520Y-33513262D01*
X193093138Y-33513262D01*
X193074480Y-33322970D01*
X193014935Y-33125749D01*
X192918218Y-32943849D01*
X192843681Y-32852458D01*
X192791906Y-32788975D01*
X192791903Y-32788972D01*
X192788011Y-32784200D01*
X192752595Y-32754901D01*
X192634025Y-32656811D01*
X192634021Y-32656809D01*
X192629275Y-32652882D01*
X192448055Y-32554897D01*
X192251254Y-32493977D01*
X192245129Y-32493333D01*
X192245128Y-32493333D01*
X192052498Y-32473087D01*
X192052496Y-32473087D01*
X192046369Y-32472443D01*
X191959529Y-32480346D01*
X191847342Y-32490555D01*
X191847339Y-32490556D01*
X191841203Y-32491114D01*
X191643572Y-32549280D01*
X191461002Y-32644726D01*
X191456201Y-32648586D01*
X191456198Y-32648588D01*
X191339299Y-32742577D01*
X191300447Y-32773815D01*
X191168024Y-32931630D01*
X191165056Y-32937028D01*
X191165053Y-32937033D01*
X191158315Y-32949290D01*
X191068776Y-33112162D01*
X191006484Y-33308532D01*
X191005798Y-33314649D01*
X191005797Y-33314653D01*
X190984207Y-33507137D01*
X190983520Y-33513262D01*
X190549500Y-33513262D01*
X190549500Y-32658252D01*
X190537867Y-32599769D01*
X190493552Y-32533448D01*
X190427231Y-32489133D01*
X190415062Y-32486712D01*
X190415061Y-32486712D01*
X190374816Y-32478707D01*
X190368748Y-32477500D01*
X188629252Y-32477500D01*
X188623184Y-32478707D01*
X188582939Y-32486712D01*
X188582938Y-32486712D01*
X188570769Y-32489133D01*
X188504448Y-32533448D01*
X188460133Y-32599769D01*
X188448500Y-32658252D01*
X188448500Y-34397748D01*
X170659780Y-34397748D01*
X170777630Y-34263367D01*
X170777634Y-34263361D01*
X170780348Y-34260267D01*
X170866646Y-34131114D01*
X170926112Y-34042116D01*
X170926113Y-34042114D01*
X170928407Y-34038681D01*
X171046277Y-33799665D01*
X171131941Y-33547308D01*
X171139932Y-33507137D01*
X171183128Y-33289972D01*
X171183128Y-33289969D01*
X171183932Y-33285929D01*
X171201362Y-33020000D01*
X171199156Y-33020000D01*
X171197988Y-33004923D01*
X171207932Y-32853206D01*
X171207983Y-32852458D01*
X171214727Y-32758169D01*
X171216827Y-32742577D01*
X171245478Y-32598537D01*
X171245925Y-32596392D01*
X171257374Y-32543761D01*
X171270036Y-32485557D01*
X171273843Y-32471840D01*
X171319843Y-32336328D01*
X171321100Y-32332797D01*
X171342227Y-32276152D01*
X171362005Y-32223126D01*
X171367047Y-32211449D01*
X171429687Y-32084427D01*
X171432089Y-32079801D01*
X171488864Y-31975827D01*
X171494686Y-31966211D01*
X171572953Y-31849076D01*
X171576850Y-31843569D01*
X171648193Y-31748266D01*
X171654329Y-31740697D01*
X171747042Y-31634978D01*
X171752679Y-31628961D01*
X171836961Y-31544679D01*
X171842978Y-31539042D01*
X171948697Y-31446329D01*
X171956266Y-31440193D01*
X172051569Y-31368850D01*
X172057076Y-31364953D01*
X172174211Y-31286686D01*
X172183827Y-31280864D01*
X172242219Y-31248979D01*
X172287817Y-31224081D01*
X172292427Y-31221687D01*
X172419449Y-31159047D01*
X172431126Y-31154005D01*
X172484152Y-31134227D01*
X172540797Y-31113100D01*
X172544328Y-31111843D01*
X172679840Y-31065843D01*
X172693557Y-31062036D01*
X172751829Y-31049359D01*
X172804392Y-31037925D01*
X172806502Y-31037485D01*
X172860230Y-31026798D01*
X172950577Y-31008827D01*
X172966169Y-31006727D01*
X173060458Y-30999983D01*
X173061206Y-30999932D01*
X173223878Y-30989270D01*
X173232119Y-30989000D01*
X197607881Y-30989000D01*
X197616122Y-30989270D01*
G37*
%TD.AperFunction*%
%TD*%
%TA.AperFunction,Conductor*%
%TO.N,GNDPWR*%
G36*
X161379022Y-37150502D02*
G01*
X161425515Y-37204158D01*
X161435619Y-37274432D01*
X161406125Y-37339012D01*
X161399996Y-37345595D01*
X161397396Y-37348195D01*
X161390850Y-37353218D01*
X161294596Y-37478659D01*
X161234088Y-37624738D01*
X161224519Y-37697426D01*
X161222245Y-37714698D01*
X161193523Y-37779625D01*
X161134258Y-37818717D01*
X161063266Y-37819562D01*
X161049105Y-37814661D01*
X160946392Y-37772116D01*
X160946389Y-37772115D01*
X160938762Y-37768956D01*
X160782000Y-37748318D01*
X160625238Y-37768956D01*
X160479159Y-37829464D01*
X160353718Y-37925718D01*
X160257464Y-38051159D01*
X160196956Y-38197238D01*
X160176318Y-38354000D01*
X160196956Y-38510762D01*
X160257464Y-38656841D01*
X160353718Y-38782282D01*
X160360264Y-38787305D01*
X160360265Y-38787306D01*
X160368479Y-38793609D01*
X160410346Y-38850948D01*
X160414567Y-38921819D01*
X160379802Y-38983721D01*
X160317089Y-39017002D01*
X160290446Y-39017952D01*
X160290446Y-39019396D01*
X160282188Y-39019396D01*
X160274000Y-39018318D01*
X160117238Y-39038956D01*
X159971159Y-39099464D01*
X159964608Y-39104491D01*
X159874989Y-39173258D01*
X159845718Y-39195718D01*
X159749464Y-39321159D01*
X159688956Y-39467238D01*
X159668318Y-39624000D01*
X159678560Y-39701792D01*
X159681231Y-39722084D01*
X159670292Y-39792232D01*
X159645404Y-39827625D01*
X159461537Y-40011492D01*
X159459503Y-40013248D01*
X159454720Y-40015586D01*
X159446808Y-40024115D01*
X159446807Y-40024116D01*
X159421416Y-40051488D01*
X159418136Y-40054893D01*
X159404741Y-40068288D01*
X159402017Y-40072258D01*
X159399692Y-40074906D01*
X159386497Y-40089130D01*
X159386495Y-40089133D01*
X159378588Y-40097657D01*
X159374278Y-40108461D01*
X159371756Y-40112450D01*
X159365995Y-40123238D01*
X159364078Y-40127563D01*
X159357497Y-40137157D01*
X159354811Y-40148476D01*
X159354810Y-40148478D01*
X159351806Y-40161138D01*
X159346241Y-40178735D01*
X159337106Y-40201633D01*
X159336489Y-40207926D01*
X159336489Y-40211005D01*
X159336339Y-40214078D01*
X159336123Y-40214067D01*
X159334791Y-40225442D01*
X159334335Y-40234757D01*
X159331649Y-40246077D01*
X159333218Y-40257606D01*
X159333218Y-40257607D01*
X159335338Y-40273184D01*
X159336489Y-40290175D01*
X159336489Y-52108548D01*
X159316487Y-52176669D01*
X159310452Y-52185252D01*
X159241464Y-52275159D01*
X159180956Y-52421238D01*
X159160318Y-52578000D01*
X159180956Y-52734762D01*
X159241464Y-52880841D01*
X159278600Y-52929238D01*
X159310452Y-52970748D01*
X159336052Y-53036968D01*
X159336489Y-53047452D01*
X159336489Y-57950548D01*
X159316487Y-58018669D01*
X159310452Y-58027252D01*
X159241464Y-58117159D01*
X159180956Y-58263238D01*
X159179878Y-58271426D01*
X159171060Y-58338403D01*
X159160318Y-58420000D01*
X159161396Y-58428188D01*
X159175761Y-58537304D01*
X159167898Y-58600368D01*
X159167444Y-58601508D01*
X159157987Y-58619230D01*
X159156057Y-58623584D01*
X159149477Y-58633177D01*
X159146791Y-58644496D01*
X159146790Y-58644498D01*
X159143786Y-58657158D01*
X159138221Y-58674755D01*
X159129086Y-58697653D01*
X159128469Y-58703946D01*
X159128469Y-58707025D01*
X159128319Y-58710098D01*
X159128103Y-58710087D01*
X159126771Y-58721462D01*
X159126315Y-58730777D01*
X159123629Y-58742097D01*
X159125198Y-58753626D01*
X159125198Y-58753627D01*
X159127318Y-58769204D01*
X159128469Y-58786195D01*
X159128469Y-66723609D01*
X159128273Y-66726282D01*
X159126544Y-66731317D01*
X159126980Y-66742939D01*
X159126980Y-66742941D01*
X159128380Y-66780230D01*
X159128469Y-66784956D01*
X159128469Y-66803923D01*
X159129351Y-66808658D01*
X159129579Y-66812184D01*
X159130743Y-66843183D01*
X159135333Y-66853868D01*
X159136370Y-66858468D01*
X159139931Y-66870189D01*
X159141630Y-66874592D01*
X159143760Y-66886028D01*
X159149864Y-66895930D01*
X159156696Y-66907014D01*
X159165200Y-66923386D01*
X159171420Y-66937863D01*
X159171422Y-66937867D01*
X159174933Y-66946038D01*
X159178947Y-66950924D01*
X159181132Y-66953109D01*
X159183184Y-66955372D01*
X159183024Y-66955517D01*
X159190144Y-66964524D01*
X159196396Y-66971419D01*
X159202501Y-66981323D01*
X159224289Y-66997891D01*
X159237108Y-67009085D01*
X159768478Y-67540455D01*
X159802504Y-67602767D01*
X159805383Y-67629550D01*
X159805383Y-69883517D01*
X159805187Y-69886190D01*
X159803458Y-69891225D01*
X159803894Y-69902847D01*
X159803894Y-69902849D01*
X159805294Y-69940138D01*
X159805383Y-69944864D01*
X159805383Y-69963831D01*
X159806265Y-69968566D01*
X159806493Y-69972092D01*
X159807657Y-70003091D01*
X159812247Y-70013776D01*
X159813284Y-70018376D01*
X159816845Y-70030097D01*
X159818544Y-70034500D01*
X159820674Y-70045936D01*
X159833610Y-70066922D01*
X159842114Y-70083294D01*
X159848334Y-70097771D01*
X159848336Y-70097775D01*
X159851847Y-70105946D01*
X159855861Y-70110832D01*
X159858046Y-70113017D01*
X159860098Y-70115280D01*
X159859938Y-70115425D01*
X159867058Y-70124432D01*
X159873310Y-70131327D01*
X159879415Y-70141231D01*
X159901203Y-70157799D01*
X159914022Y-70168993D01*
X160153404Y-70408375D01*
X160187430Y-70470687D01*
X160189231Y-70513916D01*
X160176318Y-70612000D01*
X160196956Y-70768762D01*
X160257464Y-70914841D01*
X160353718Y-71040282D01*
X160479159Y-71136536D01*
X160625238Y-71197044D01*
X160782000Y-71217682D01*
X160790188Y-71216604D01*
X160930574Y-71198122D01*
X160938762Y-71197044D01*
X161084841Y-71136536D01*
X161091394Y-71131508D01*
X161091397Y-71131506D01*
X161178033Y-71065028D01*
X161244253Y-71039427D01*
X161313802Y-71053692D01*
X161343832Y-71075895D01*
X161348648Y-71080711D01*
X161353671Y-71087257D01*
X161479112Y-71183511D01*
X161625191Y-71244019D01*
X161781953Y-71264657D01*
X161790141Y-71263579D01*
X161930527Y-71245097D01*
X161938715Y-71244019D01*
X162084794Y-71183511D01*
X162210235Y-71087257D01*
X162306489Y-70961816D01*
X162366997Y-70815737D01*
X162387635Y-70658975D01*
X162374722Y-70560891D01*
X162385661Y-70490743D01*
X162410549Y-70455350D01*
X162418963Y-70446936D01*
X162420997Y-70445180D01*
X162425780Y-70442842D01*
X162459084Y-70406940D01*
X162462364Y-70403535D01*
X162475759Y-70390140D01*
X162478483Y-70386170D01*
X162480808Y-70383522D01*
X162494001Y-70369299D01*
X162501912Y-70360771D01*
X162506224Y-70349964D01*
X162508743Y-70345979D01*
X162514515Y-70335170D01*
X162516422Y-70330865D01*
X162523004Y-70321271D01*
X162528697Y-70297281D01*
X162534262Y-70279685D01*
X162540097Y-70265059D01*
X162543394Y-70256795D01*
X162544011Y-70250502D01*
X162544011Y-70247420D01*
X162544161Y-70244350D01*
X162544377Y-70244361D01*
X162545709Y-70232986D01*
X162546164Y-70223672D01*
X162548851Y-70212351D01*
X162545162Y-70185244D01*
X162544011Y-70168253D01*
X162544011Y-68841255D01*
X164735318Y-68841255D01*
X164755956Y-68998017D01*
X164759116Y-69005646D01*
X164763532Y-69016308D01*
X164816464Y-69144096D01*
X164912718Y-69269537D01*
X165038159Y-69365791D01*
X165184238Y-69426299D01*
X165341000Y-69446937D01*
X165349188Y-69445859D01*
X165489574Y-69427377D01*
X165497762Y-69426299D01*
X165643841Y-69365791D01*
X165769282Y-69269537D01*
X165865536Y-69144096D01*
X165918468Y-69016308D01*
X165922884Y-69005646D01*
X165926044Y-68998017D01*
X165946682Y-68841255D01*
X165926044Y-68684493D01*
X165865536Y-68538414D01*
X165821537Y-68481073D01*
X165795937Y-68414852D01*
X165795500Y-68404369D01*
X165795500Y-64444886D01*
X165815502Y-64376765D01*
X165821537Y-64368182D01*
X165860509Y-64317392D01*
X165865536Y-64310841D01*
X165926044Y-64164762D01*
X165946682Y-64008000D01*
X165926044Y-63851238D01*
X165865536Y-63705159D01*
X165821537Y-63647818D01*
X165795937Y-63581597D01*
X165795500Y-63571114D01*
X165795500Y-58348886D01*
X165815502Y-58280765D01*
X165821537Y-58272182D01*
X165860509Y-58221392D01*
X165865536Y-58214841D01*
X165926044Y-58068762D01*
X165946682Y-57912000D01*
X165926044Y-57755238D01*
X165865536Y-57609159D01*
X165821537Y-57551818D01*
X165795937Y-57485597D01*
X165795500Y-57475114D01*
X165795500Y-52252886D01*
X165815502Y-52184765D01*
X165821537Y-52176182D01*
X165860509Y-52125392D01*
X165865536Y-52118841D01*
X165926044Y-51972762D01*
X165946682Y-51816000D01*
X165926044Y-51659238D01*
X165865536Y-51513159D01*
X165821537Y-51455818D01*
X165795937Y-51389597D01*
X165795500Y-51379114D01*
X165795500Y-46173828D01*
X165815502Y-46105707D01*
X165821537Y-46097124D01*
X165873509Y-46029392D01*
X165878536Y-46022841D01*
X165939044Y-45876762D01*
X165959682Y-45720000D01*
X165939044Y-45563238D01*
X165878536Y-45417159D01*
X165834537Y-45359818D01*
X165808937Y-45293597D01*
X165808500Y-45283114D01*
X165808500Y-40043944D01*
X165828502Y-39975823D01*
X165834537Y-39967240D01*
X165843859Y-39955091D01*
X165865536Y-39926841D01*
X165926044Y-39780762D01*
X165946682Y-39624000D01*
X165926044Y-39467238D01*
X165865536Y-39321159D01*
X165769282Y-39195718D01*
X165740012Y-39173258D01*
X165650392Y-39104491D01*
X165643841Y-39099464D01*
X165497762Y-39038956D01*
X165341000Y-39018318D01*
X165184238Y-39038956D01*
X165038159Y-39099464D01*
X165031608Y-39104491D01*
X164941989Y-39173258D01*
X164912718Y-39195718D01*
X164816464Y-39321159D01*
X164755956Y-39467238D01*
X164735318Y-39624000D01*
X164755956Y-39780762D01*
X164816464Y-39926841D01*
X164838396Y-39955423D01*
X164873463Y-40001124D01*
X164899063Y-40067345D01*
X164899500Y-40077828D01*
X164899500Y-45283114D01*
X164879498Y-45351235D01*
X164873463Y-45359818D01*
X164829464Y-45417159D01*
X164768956Y-45563238D01*
X164748318Y-45720000D01*
X164768956Y-45876762D01*
X164829464Y-46022841D01*
X164834491Y-46029392D01*
X164860463Y-46063240D01*
X164886063Y-46129461D01*
X164886500Y-46139944D01*
X164886500Y-51379114D01*
X164866498Y-51447235D01*
X164860463Y-51455818D01*
X164816464Y-51513159D01*
X164755956Y-51659238D01*
X164735318Y-51816000D01*
X164755956Y-51972762D01*
X164816464Y-52118841D01*
X164821491Y-52125392D01*
X164860463Y-52176182D01*
X164886063Y-52242403D01*
X164886500Y-52252886D01*
X164886500Y-57475114D01*
X164866498Y-57543235D01*
X164860463Y-57551818D01*
X164816464Y-57609159D01*
X164755956Y-57755238D01*
X164735318Y-57912000D01*
X164755956Y-58068762D01*
X164816464Y-58214841D01*
X164821491Y-58221392D01*
X164860463Y-58272182D01*
X164886063Y-58338403D01*
X164886500Y-58348886D01*
X164886500Y-63571114D01*
X164866498Y-63639235D01*
X164860463Y-63647818D01*
X164816464Y-63705159D01*
X164755956Y-63851238D01*
X164735318Y-64008000D01*
X164755956Y-64164762D01*
X164816464Y-64310841D01*
X164821491Y-64317392D01*
X164860463Y-64368182D01*
X164886063Y-64434403D01*
X164886500Y-64444886D01*
X164886500Y-68404369D01*
X164866498Y-68472490D01*
X164860463Y-68481073D01*
X164816464Y-68538414D01*
X164755956Y-68684493D01*
X164735318Y-68841255D01*
X162544011Y-68841255D01*
X162544011Y-64968244D01*
X162544207Y-64965571D01*
X162545936Y-64960536D01*
X162544100Y-64911623D01*
X162544011Y-64906897D01*
X162544011Y-64887930D01*
X162543129Y-64883195D01*
X162542901Y-64879669D01*
X162542173Y-64860293D01*
X162541737Y-64848670D01*
X162537147Y-64837985D01*
X162536110Y-64833385D01*
X162532549Y-64821664D01*
X162530850Y-64817261D01*
X162528720Y-64805825D01*
X162515783Y-64784837D01*
X162507280Y-64768467D01*
X162501060Y-64753990D01*
X162501058Y-64753986D01*
X162497547Y-64745815D01*
X162493533Y-64740929D01*
X162491348Y-64738744D01*
X162489296Y-64736481D01*
X162489456Y-64736336D01*
X162482336Y-64727329D01*
X162476084Y-64720434D01*
X162469979Y-64710530D01*
X162448191Y-64693962D01*
X162435372Y-64682768D01*
X162364096Y-64611492D01*
X162330070Y-64549180D01*
X162328269Y-64505951D01*
X162340104Y-64416055D01*
X162341182Y-64407867D01*
X162320544Y-64251105D01*
X162260036Y-64105026D01*
X162163782Y-63979585D01*
X162038341Y-63883331D01*
X161892262Y-63822823D01*
X161884074Y-63821745D01*
X161762908Y-63805793D01*
X161697981Y-63777070D01*
X161658890Y-63717805D01*
X161658045Y-63646814D01*
X161695716Y-63586635D01*
X161731136Y-63564463D01*
X161846841Y-63516536D01*
X161972282Y-63420282D01*
X162068536Y-63294841D01*
X162129044Y-63148762D01*
X162149682Y-62992000D01*
X162129044Y-62835238D01*
X162068536Y-62689159D01*
X161972282Y-62563718D01*
X161846841Y-62467464D01*
X161778809Y-62439284D01*
X161723528Y-62394735D01*
X161701107Y-62327372D01*
X161718665Y-62258581D01*
X161737932Y-62233780D01*
X161973452Y-61998260D01*
X161975486Y-61996504D01*
X161980269Y-61994166D01*
X162013573Y-61958264D01*
X162016853Y-61954859D01*
X162030248Y-61941464D01*
X162032972Y-61937494D01*
X162035297Y-61934846D01*
X162048490Y-61920623D01*
X162056401Y-61912095D01*
X162060713Y-61901288D01*
X162063232Y-61897303D01*
X162069004Y-61886494D01*
X162070911Y-61882189D01*
X162077493Y-61872595D01*
X162083186Y-61848605D01*
X162088751Y-61831009D01*
X162094586Y-61816383D01*
X162097883Y-61808119D01*
X162098500Y-61801826D01*
X162098500Y-61798744D01*
X162098650Y-61795674D01*
X162098866Y-61795685D01*
X162100198Y-61784310D01*
X162100653Y-61774996D01*
X162103340Y-61763675D01*
X162099651Y-61736568D01*
X162098500Y-61719577D01*
X162098500Y-57431140D01*
X162118502Y-57363019D01*
X162147797Y-57331176D01*
X162150238Y-57329303D01*
X162156782Y-57324282D01*
X162253036Y-57198841D01*
X162313544Y-57052762D01*
X162334182Y-56896000D01*
X162313544Y-56739238D01*
X162253036Y-56593159D01*
X162156782Y-56467718D01*
X162078296Y-56407493D01*
X162036429Y-56350156D01*
X162029000Y-56307531D01*
X162029000Y-51388469D01*
X162049002Y-51320348D01*
X162078296Y-51288506D01*
X162106599Y-51266789D01*
X162156782Y-51228282D01*
X162253036Y-51102841D01*
X162313544Y-50956762D01*
X162334182Y-50800000D01*
X162313544Y-50643238D01*
X162253036Y-50497159D01*
X162156782Y-50371718D01*
X162147796Y-50364823D01*
X162146260Y-50362719D01*
X162144391Y-50360850D01*
X162144682Y-50360559D01*
X162105929Y-50307486D01*
X162098500Y-50264860D01*
X162098500Y-47276511D01*
X162118502Y-47208390D01*
X162147794Y-47176550D01*
X162163782Y-47164282D01*
X162260036Y-47038841D01*
X162320544Y-46892762D01*
X162341182Y-46736000D01*
X162320544Y-46579238D01*
X162260036Y-46433159D01*
X162163782Y-46307718D01*
X162164568Y-46307115D01*
X162134046Y-46251219D01*
X162139111Y-46180404D01*
X162157204Y-46147732D01*
X162248009Y-46029392D01*
X162253036Y-46022841D01*
X162313544Y-45876762D01*
X162334182Y-45720000D01*
X162313544Y-45563238D01*
X162253036Y-45417159D01*
X162156782Y-45291718D01*
X162031341Y-45195464D01*
X161885262Y-45134956D01*
X161841959Y-45129255D01*
X161747854Y-45116866D01*
X161682927Y-45088144D01*
X161643835Y-45028879D01*
X161639378Y-44975498D01*
X161641682Y-44958000D01*
X161638387Y-44932971D01*
X161649327Y-44862822D01*
X161696455Y-44809724D01*
X161762313Y-44790811D01*
X161768330Y-44791603D01*
X161776518Y-44790525D01*
X161916904Y-44772043D01*
X161925092Y-44770965D01*
X162071171Y-44710457D01*
X162196612Y-44614203D01*
X162292866Y-44488762D01*
X162353374Y-44342683D01*
X162374012Y-44185921D01*
X162353374Y-44029159D01*
X162292866Y-43883080D01*
X162244739Y-43820360D01*
X162201639Y-43764190D01*
X162201638Y-43764189D01*
X162196612Y-43757639D01*
X162168926Y-43736395D01*
X162127060Y-43679058D01*
X162119632Y-43636434D01*
X162119632Y-38369969D01*
X162139634Y-38301848D01*
X162168928Y-38270006D01*
X162171887Y-38267736D01*
X162247414Y-38209782D01*
X162343668Y-38084341D01*
X162404176Y-37938262D01*
X162424814Y-37781500D01*
X162404176Y-37624738D01*
X162343668Y-37478659D01*
X162247414Y-37353218D01*
X162240868Y-37348195D01*
X162238268Y-37345595D01*
X162204242Y-37283283D01*
X162209307Y-37212468D01*
X162251854Y-37155632D01*
X162318374Y-37130821D01*
X162327363Y-37130500D01*
X167717339Y-37130500D01*
X167785460Y-37150502D01*
X167806434Y-37167405D01*
X168111095Y-37472066D01*
X168145121Y-37534378D01*
X168148000Y-37561161D01*
X168148000Y-71360715D01*
X168127998Y-71428836D01*
X168121963Y-71437418D01*
X168087182Y-71482746D01*
X168087180Y-71482750D01*
X168082153Y-71489301D01*
X168021645Y-71635380D01*
X168001007Y-71792142D01*
X168021645Y-71948904D01*
X168082153Y-72094983D01*
X168087180Y-72101534D01*
X168087182Y-72101538D01*
X168121963Y-72146866D01*
X168147563Y-72213086D01*
X168148000Y-72223569D01*
X168148000Y-75057000D01*
X168127998Y-75125121D01*
X168074342Y-75171614D01*
X168022000Y-75183000D01*
X149986000Y-75183000D01*
X149917879Y-75162998D01*
X149871386Y-75109342D01*
X149860000Y-75057000D01*
X149860000Y-67310000D01*
X147527280Y-67310000D01*
X147459159Y-67289998D01*
X147412666Y-67236342D01*
X147402358Y-67167554D01*
X147420903Y-67026688D01*
X147421981Y-67018500D01*
X147401343Y-66861738D01*
X147340835Y-66715659D01*
X147244581Y-66590218D01*
X147119140Y-66493964D01*
X146973061Y-66433456D01*
X146816299Y-66412818D01*
X146659537Y-66433456D01*
X146513458Y-66493964D01*
X146506907Y-66498991D01*
X146489485Y-66512359D01*
X146423264Y-66537959D01*
X146353715Y-66523694D01*
X146312819Y-66489100D01*
X146229309Y-66380268D01*
X146229305Y-66380264D01*
X146224282Y-66373718D01*
X146217736Y-66368695D01*
X146217733Y-66368692D01*
X146177034Y-66337463D01*
X146135166Y-66280125D01*
X146130944Y-66209254D01*
X146165708Y-66147351D01*
X146228420Y-66114070D01*
X146253737Y-66111500D01*
X148246695Y-66111500D01*
X148314816Y-66131502D01*
X148323399Y-66137537D01*
X148400781Y-66196914D01*
X148546860Y-66257422D01*
X148703622Y-66278060D01*
X148711810Y-66276982D01*
X148852196Y-66258500D01*
X148860384Y-66257422D01*
X149006463Y-66196914D01*
X149131904Y-66100660D01*
X149228158Y-65975219D01*
X149288666Y-65829140D01*
X149309304Y-65672378D01*
X149288666Y-65515616D01*
X149228158Y-65369537D01*
X149143247Y-65258879D01*
X149136927Y-65250642D01*
X149131904Y-65244096D01*
X149006463Y-65147842D01*
X148860384Y-65087334D01*
X148703622Y-65066696D01*
X148546860Y-65087334D01*
X148400781Y-65147842D01*
X148275340Y-65244096D01*
X148270317Y-65250642D01*
X148263997Y-65258879D01*
X148179086Y-65369537D01*
X148175927Y-65377165D01*
X148175924Y-65377169D01*
X148173625Y-65382720D01*
X148129076Y-65438000D01*
X148057217Y-65460500D01*
X145414000Y-65460500D01*
X145345879Y-65440498D01*
X145299386Y-65386842D01*
X145288000Y-65334500D01*
X145288000Y-65282517D01*
X145308002Y-65214396D01*
X145324905Y-65193421D01*
X145493521Y-65024806D01*
X145877619Y-64640708D01*
X145939931Y-64606683D01*
X145983158Y-64604882D01*
X146050000Y-64613682D01*
X146058188Y-64612604D01*
X146198574Y-64594122D01*
X146206762Y-64593044D01*
X146352841Y-64532536D01*
X146478282Y-64436282D01*
X146574536Y-64310841D01*
X146576728Y-64305550D01*
X146627262Y-64257364D01*
X146696975Y-64243926D01*
X146762886Y-64270312D01*
X146793137Y-64305224D01*
X146795464Y-64310841D01*
X146891718Y-64436282D01*
X147017159Y-64532536D01*
X147163238Y-64593044D01*
X147320000Y-64613682D01*
X147328188Y-64612604D01*
X147468574Y-64594122D01*
X147476762Y-64593044D01*
X147622841Y-64532536D01*
X147748282Y-64436282D01*
X147844536Y-64310841D01*
X147905044Y-64164762D01*
X147925682Y-64008000D01*
X147905044Y-63851238D01*
X147844536Y-63705159D01*
X147748282Y-63579718D01*
X147622841Y-63483464D01*
X147476762Y-63422956D01*
X147320000Y-63402318D01*
X147253157Y-63411118D01*
X147183010Y-63400179D01*
X147147617Y-63375291D01*
X146802111Y-63029785D01*
X146794688Y-63021686D01*
X146792011Y-63018496D01*
X146763543Y-62953457D01*
X146774758Y-62883352D01*
X146822093Y-62830438D01*
X146888529Y-62811500D01*
X147562406Y-62811500D01*
X147630527Y-62831502D01*
X147651501Y-62848405D01*
X151018712Y-66215617D01*
X151052738Y-66277929D01*
X151054539Y-66321157D01*
X151046068Y-66385500D01*
X151056387Y-66463881D01*
X151060012Y-66491412D01*
X151066706Y-66542262D01*
X151069866Y-66549891D01*
X151074282Y-66560553D01*
X151127214Y-66688341D01*
X151132241Y-66694892D01*
X151171213Y-66745682D01*
X151196813Y-66811903D01*
X151197250Y-66822386D01*
X151197250Y-71187046D01*
X151177248Y-71255167D01*
X151160345Y-71276141D01*
X150760291Y-71676195D01*
X150697979Y-71710221D01*
X150687646Y-71712021D01*
X150615984Y-71721456D01*
X150469905Y-71781964D01*
X150344464Y-71878218D01*
X150248210Y-72003659D01*
X150187702Y-72149738D01*
X150167064Y-72306500D01*
X150187702Y-72463262D01*
X150248210Y-72609341D01*
X150344464Y-72734782D01*
X150469905Y-72831036D01*
X150615984Y-72891544D01*
X150772746Y-72912182D01*
X150780934Y-72911104D01*
X150921320Y-72892622D01*
X150929508Y-72891544D01*
X151075587Y-72831036D01*
X151201028Y-72734782D01*
X151297282Y-72609341D01*
X151357790Y-72463262D01*
X151367224Y-72391603D01*
X151395946Y-72326677D01*
X151403051Y-72318955D01*
X151948761Y-71773245D01*
X151959850Y-71763390D01*
X151961194Y-71762331D01*
X151986809Y-71742137D01*
X151992163Y-71734390D01*
X151992167Y-71734386D01*
X152020478Y-71693424D01*
X152022779Y-71690204D01*
X152052360Y-71650154D01*
X152052361Y-71650152D01*
X152057959Y-71642573D01*
X152060373Y-71635698D01*
X152064514Y-71629707D01*
X152082386Y-71573195D01*
X152083616Y-71569511D01*
X152100121Y-71522512D01*
X152100122Y-71522508D01*
X152103242Y-71513623D01*
X152103525Y-71506423D01*
X152103559Y-71506247D01*
X152105725Y-71499399D01*
X152106250Y-71492728D01*
X152106250Y-71439548D01*
X152106347Y-71434601D01*
X152108238Y-71386471D01*
X152108608Y-71377059D01*
X152106711Y-71369904D01*
X152106250Y-71361529D01*
X152106250Y-67302614D01*
X152126252Y-67234493D01*
X152179908Y-67188000D01*
X152250182Y-67177896D01*
X152308954Y-67202651D01*
X152351159Y-67235036D01*
X152497238Y-67295544D01*
X152654000Y-67316182D01*
X152662188Y-67315104D01*
X152802574Y-67296622D01*
X152810762Y-67295544D01*
X152956841Y-67235036D01*
X153082282Y-67138782D01*
X153178536Y-67013341D01*
X153239044Y-66867262D01*
X153259682Y-66710500D01*
X153239044Y-66553738D01*
X153234291Y-66542262D01*
X153221904Y-66512359D01*
X153178536Y-66407659D01*
X153134537Y-66350318D01*
X153108937Y-66284097D01*
X153108500Y-66273614D01*
X153108500Y-54955386D01*
X153128502Y-54887265D01*
X153134537Y-54878682D01*
X153173509Y-54827892D01*
X153178536Y-54821341D01*
X153239044Y-54675262D01*
X153259682Y-54518500D01*
X153239044Y-54361738D01*
X153178536Y-54215659D01*
X153134537Y-54158318D01*
X153108937Y-54092097D01*
X153108500Y-54081614D01*
X153108500Y-48859386D01*
X153128502Y-48791265D01*
X153134537Y-48782682D01*
X153173509Y-48731892D01*
X153178536Y-48725341D01*
X153239044Y-48579262D01*
X153259682Y-48422500D01*
X153239044Y-48265738D01*
X153178536Y-48119659D01*
X153134537Y-48062318D01*
X153108937Y-47996097D01*
X153108500Y-47985614D01*
X153108500Y-38642456D01*
X153109373Y-38627647D01*
X153112300Y-38602915D01*
X153113407Y-38593562D01*
X153111715Y-38584295D01*
X153102771Y-38535320D01*
X153102122Y-38531418D01*
X153094716Y-38482164D01*
X153094715Y-38482161D01*
X153093315Y-38472849D01*
X153090162Y-38466282D01*
X153088853Y-38459117D01*
X153061538Y-38406533D01*
X153059788Y-38403030D01*
X153044185Y-38370536D01*
X153034154Y-38349647D01*
X153029259Y-38344352D01*
X153029166Y-38344213D01*
X153025852Y-38337834D01*
X153021506Y-38332746D01*
X152983924Y-38295164D01*
X152980494Y-38291598D01*
X152964487Y-38274282D01*
X152941383Y-38249288D01*
X152934983Y-38245570D01*
X152928723Y-38239963D01*
X152237749Y-37548989D01*
X152227894Y-37537900D01*
X152225117Y-37534378D01*
X152206641Y-37510941D01*
X152181762Y-37493746D01*
X152157906Y-37477258D01*
X152154713Y-37474976D01*
X152107076Y-37439791D01*
X152100203Y-37437377D01*
X152094211Y-37433236D01*
X152037722Y-37415371D01*
X152034001Y-37414129D01*
X151978126Y-37394507D01*
X151970922Y-37394224D01*
X151970751Y-37394191D01*
X151963903Y-37392025D01*
X151957232Y-37391500D01*
X151904062Y-37391500D01*
X151899116Y-37391403D01*
X151898224Y-37391368D01*
X151841563Y-37389142D01*
X151834408Y-37391039D01*
X151826033Y-37391500D01*
X149534886Y-37391500D01*
X149466765Y-37371498D01*
X149458182Y-37365462D01*
X149446453Y-37356462D01*
X149404586Y-37299124D01*
X149400364Y-37228253D01*
X149435128Y-37166351D01*
X149497841Y-37133069D01*
X149523157Y-37130500D01*
X161310901Y-37130500D01*
X161379022Y-37150502D01*
G37*
%TD.AperFunction*%
%TD*%
M02*
