%TF.GenerationSoftware,KiCad,Pcbnew,6.0.4-1.fc35*%
%TF.CreationDate,2022-04-18T17:29:02+01:00*%
%TF.ProjectId,esc,6573632e-6b69-4636-9164-5f7063625858,rev?*%
%TF.SameCoordinates,Original*%
%TF.FileFunction,Copper,L3,Inr*%
%TF.FilePolarity,Positive*%
%FSLAX46Y46*%
G04 Gerber Fmt 4.6, Leading zero omitted, Abs format (unit mm)*
G04 Created by KiCad (PCBNEW 6.0.4-1.fc35) date 2022-04-18 17:29:02*
%MOMM*%
%LPD*%
G01*
G04 APERTURE LIST*
%TA.AperFunction,ComponentPad*%
%ADD10O,1.700000X1.700000*%
%TD*%
%TA.AperFunction,ComponentPad*%
%ADD11R,1.700000X1.700000*%
%TD*%
%TA.AperFunction,ComponentPad*%
%ADD12R,1.600000X1.600000*%
%TD*%
%TA.AperFunction,ComponentPad*%
%ADD13C,1.600000*%
%TD*%
%TA.AperFunction,ComponentPad*%
%ADD14R,2.000000X2.000000*%
%TD*%
%TA.AperFunction,ComponentPad*%
%ADD15C,2.000000*%
%TD*%
%TA.AperFunction,ViaPad*%
%ADD16C,0.800000*%
%TD*%
%TA.AperFunction,Conductor*%
%ADD17C,0.508000*%
%TD*%
%TA.AperFunction,Conductor*%
%ADD18C,0.200000*%
%TD*%
%TA.AperFunction,Conductor*%
%ADD19C,1.000000*%
%TD*%
G04 APERTURE END LIST*
D10*
%TO.N,/Supplies/VIN*%
%TO.C,SW3*%
X194579000Y-33528000D03*
%TO.N,+12V*%
X192039000Y-33528000D03*
D11*
%TO.N,Net-(C22-Pad1)*%
X189499000Y-33528000D03*
%TD*%
%TO.N,/LV_SUPPLY*%
%TO.C,SW1*%
X196611000Y-58759385D03*
D10*
%TO.N,/Supplies/VIN*%
X196611000Y-61299385D03*
%TO.N,VDD*%
X196611000Y-63839385D03*
%TD*%
D12*
%TO.N,Net-(C22-Pad1)*%
%TO.C,C22*%
X181750349Y-36591000D03*
D13*
%TO.N,GND*%
X185250349Y-36591000D03*
%TD*%
D11*
%TO.N,/SPI_CLK*%
%TO.C,J4*%
X186944000Y-76454000D03*
D10*
%TO.N,/SPI_MISO*%
X189484000Y-76454000D03*
%TO.N,/SPI_MOSI*%
X192024000Y-76454000D03*
%TO.N,/SPI_SS*%
X194564000Y-76454000D03*
%TO.N,GND*%
X197104000Y-76454000D03*
%TD*%
D11*
%TO.N,/~{MCLR}*%
%TO.C,J3*%
X186944000Y-72136000D03*
D10*
%TO.N,+3V3*%
X189484000Y-72136000D03*
%TO.N,GND*%
X192024000Y-72136000D03*
%TO.N,/PGD1*%
X194564000Y-72136000D03*
%TO.N,/PGC1*%
X197104000Y-72136000D03*
%TD*%
D14*
%TO.N,+5V*%
%TO.C,C17*%
X194071000Y-43515677D03*
D15*
%TO.N,GND*%
X194071000Y-38515677D03*
%TD*%
D12*
%TO.N,Net-(C16-Pad1)*%
%TO.C,C16*%
X181371000Y-54331036D03*
D13*
%TO.N,GND*%
X181371000Y-50831036D03*
%TD*%
D11*
%TO.N,Net-(C16-Pad1)*%
%TO.C,SW2*%
X178831000Y-46228000D03*
D10*
%TO.N,+5V*%
X181371000Y-46228000D03*
%TO.N,/Supplies/VIN*%
X183911000Y-46228000D03*
%TD*%
D11*
%TO.N,/QEI_A{slash}HALL_A{slash}GPIO0*%
%TO.C,J5*%
X186954000Y-67818000D03*
D10*
%TO.N,/QEI_B{slash}HALL_B{slash}GPIO1*%
X189494000Y-67818000D03*
%TO.N,/HOME{slash}HALL_C{slash}GPIO2*%
X192034000Y-67818000D03*
%TO.N,GND*%
X194574000Y-67818000D03*
%TD*%
D14*
%TO.N,/Supplies/VIN*%
%TO.C,C14*%
X192039000Y-54030062D03*
D15*
%TO.N,GND*%
X192039000Y-49030062D03*
%TD*%
D16*
%TO.N,GND*%
X170180000Y-73406000D03*
%TO.N,/Phases/A_HIN*%
X174244000Y-69850000D03*
%TO.N,Net-(D4-Pad2)*%
X115107440Y-65965088D03*
X145796000Y-66802000D03*
%TO.N,VDD*%
X137414000Y-78486000D03*
X135382000Y-77470000D03*
X184404000Y-77978000D03*
X133350000Y-77470000D03*
X135382000Y-76454000D03*
X134366000Y-78486000D03*
X125222000Y-77470000D03*
X132334000Y-77470000D03*
X126238000Y-77470000D03*
X136398000Y-78486000D03*
X138430000Y-78486000D03*
X127254000Y-77470000D03*
X126238000Y-76454000D03*
X128270000Y-78486000D03*
X135382000Y-78486000D03*
X133350000Y-78486000D03*
X138430000Y-76454000D03*
X130302000Y-76454000D03*
X136398000Y-77470000D03*
X137414000Y-76454000D03*
X125222000Y-76454000D03*
X130302000Y-78486000D03*
X139446000Y-77470000D03*
X126238000Y-78486000D03*
X130302000Y-77470000D03*
X134366000Y-77470000D03*
X139446000Y-76454000D03*
X129286000Y-76454000D03*
X128270000Y-76454000D03*
X127254000Y-76454000D03*
X132334000Y-76454000D03*
X131318000Y-76454000D03*
X131318000Y-77470000D03*
X129286000Y-78486000D03*
X131318000Y-78486000D03*
X134366000Y-76454000D03*
X128270000Y-77470000D03*
X133350000Y-76454000D03*
X136398000Y-76454000D03*
X138430000Y-77470000D03*
X139446000Y-78486000D03*
X125222000Y-78486000D03*
X137414000Y-77470000D03*
X132334000Y-78486000D03*
X127254000Y-78486000D03*
X129286000Y-77470000D03*
%TO.N,/Phases/PHASE_A*%
X114554000Y-54864000D03*
X103632000Y-31750000D03*
X102616000Y-33782000D03*
X114554000Y-55880000D03*
X114554000Y-47244000D03*
X106680000Y-32766000D03*
X146304000Y-53848000D03*
X103632000Y-32766000D03*
X113538000Y-38608000D03*
X112522000Y-55880000D03*
X107696000Y-32766000D03*
X104648000Y-32766000D03*
X112522000Y-53848000D03*
X106680000Y-31750000D03*
X114554000Y-62484000D03*
X105664000Y-33782000D03*
X105664000Y-32766000D03*
X106680000Y-33782000D03*
X114554000Y-40640000D03*
X113538000Y-39624000D03*
X112522000Y-54864000D03*
X114554000Y-46228000D03*
X113538000Y-53848000D03*
X103632000Y-33782000D03*
X114554000Y-38608000D03*
X112522000Y-61468000D03*
X152654000Y-48422500D03*
X108712000Y-31750000D03*
X113538000Y-40640000D03*
X152654000Y-54518500D03*
X114554000Y-48260000D03*
X114554000Y-53848000D03*
X104648000Y-33782000D03*
X112522000Y-62484000D03*
X149098000Y-37846000D03*
X113538000Y-63500000D03*
X113538000Y-62484000D03*
X114554000Y-63500000D03*
X113538000Y-47244000D03*
X113538000Y-54864000D03*
X112522000Y-47244000D03*
X113538000Y-61468000D03*
X114554000Y-61468000D03*
X112522000Y-63500000D03*
X112522000Y-46228000D03*
X102616000Y-31750000D03*
X107696000Y-31750000D03*
X169226500Y-50800000D03*
X108712000Y-33782000D03*
X107696000Y-33782000D03*
X113538000Y-55880000D03*
X112522000Y-38608000D03*
X108712000Y-32766000D03*
X102616000Y-32766000D03*
X113538000Y-46228000D03*
X112522000Y-39624000D03*
X114554000Y-39624000D03*
X112522000Y-40640000D03*
X152654000Y-66710500D03*
X104648000Y-31750000D03*
X105664000Y-31750000D03*
X113538000Y-48260000D03*
X112522000Y-48260000D03*
%TO.N,Net-(D5-Pad2)*%
X146816299Y-67018500D03*
X104394000Y-66040000D03*
%TO.N,/Phases/Phase A/BRIDGE_LOW*%
X129540000Y-70104000D03*
X107000609Y-70849859D03*
%TO.N,Net-(D7-Pad2)*%
X146304000Y-55118000D03*
X115107440Y-58345088D03*
%TO.N,Net-(D8-Pad2)*%
X147324299Y-59939701D03*
X104394000Y-58420000D03*
%TO.N,Net-(D10-Pad2)*%
X146812000Y-51562000D03*
X115107440Y-50725088D03*
%TO.N,Net-(D11-Pad2)*%
X104394000Y-50800000D03*
X145542000Y-53086000D03*
%TO.N,Net-(D13-Pad2)*%
X146812000Y-40132000D03*
X115062000Y-43180000D03*
%TO.N,Net-(D14-Pad2)*%
X104394000Y-43180000D03*
X145791701Y-40127701D03*
%TO.N,Net-(D16-Pad2)*%
X129286000Y-50800000D03*
X145542000Y-51562000D03*
%TO.N,/Phases/PHASE_B*%
X121920000Y-33782000D03*
X127254000Y-40640000D03*
X129286000Y-40640000D03*
X129286000Y-48260000D03*
X128270000Y-40640000D03*
X129286000Y-62484000D03*
X129286000Y-46228000D03*
X127254000Y-61468000D03*
X123952000Y-31750000D03*
X127254000Y-62484000D03*
X117856000Y-32766000D03*
X128270000Y-55880000D03*
X150832042Y-42501632D03*
X128270000Y-39624000D03*
X129286000Y-38608000D03*
X120904000Y-32766000D03*
X127254000Y-39624000D03*
X169672000Y-55372000D03*
X119888000Y-32766000D03*
X118872000Y-31750000D03*
X128270000Y-48260000D03*
X127254000Y-53848000D03*
X128270000Y-61468000D03*
X123952000Y-33782000D03*
X128270000Y-62484000D03*
X118872000Y-32766000D03*
X128270000Y-63500000D03*
X120904000Y-31750000D03*
X129286000Y-61468000D03*
X119888000Y-31750000D03*
X129286000Y-39624000D03*
X117856000Y-33782000D03*
X120904000Y-33782000D03*
X121920000Y-32766000D03*
X119888000Y-33782000D03*
X150798250Y-60198000D03*
X150798250Y-54102000D03*
X129286000Y-55880000D03*
X123952000Y-32766000D03*
X122936000Y-31750000D03*
X128270000Y-46228000D03*
X122936000Y-33782000D03*
X128270000Y-38608000D03*
X127254000Y-38608000D03*
X128270000Y-47244000D03*
X121920000Y-31750000D03*
X127254000Y-46228000D03*
X129286000Y-47244000D03*
X127254000Y-55880000D03*
X129286000Y-63500000D03*
X129286000Y-53848000D03*
X129286000Y-54864000D03*
X118872000Y-33782000D03*
X127254000Y-54864000D03*
X127254000Y-63500000D03*
X127254000Y-47244000D03*
X122936000Y-32766000D03*
X128270000Y-53848000D03*
X127254000Y-48260000D03*
X117856000Y-31750000D03*
X128270000Y-54864000D03*
%TO.N,Net-(D17-Pad2)*%
X119380000Y-50800000D03*
X145542000Y-49530000D03*
%TO.N,/Phases/Phase B/BRIDGE_LOW*%
X129614595Y-72370713D03*
X120136286Y-70860286D03*
%TO.N,Net-(D19-Pad2)*%
X129810524Y-58361368D03*
X146304000Y-57658000D03*
%TO.N,Net-(D20-Pad2)*%
X119126000Y-58420000D03*
X146304000Y-56388000D03*
%TO.N,Net-(D22-Pad2)*%
X129810524Y-65981368D03*
X146050000Y-64008000D03*
%TO.N,Net-(D23-Pad2)*%
X119109476Y-65981368D03*
X147320000Y-64008000D03*
%TO.N,Net-(D25-Pad2)*%
X129810524Y-43121368D03*
X145542000Y-43845868D03*
%TO.N,Net-(D26-Pad2)*%
X119126000Y-43180000D03*
X145542000Y-44845371D03*
%TO.N,/Phases/PHASE_C*%
X141986000Y-40640000D03*
X143002000Y-40640000D03*
X144018000Y-53848000D03*
X141986000Y-39624000D03*
X144018000Y-62484000D03*
X144018000Y-61468000D03*
X137160000Y-33782000D03*
X141986000Y-48260000D03*
X143002000Y-61468000D03*
X133096000Y-31750000D03*
X138176000Y-33782000D03*
X141986000Y-46228000D03*
X134112000Y-33782000D03*
X141986000Y-47244000D03*
X136144000Y-33782000D03*
X143002000Y-39624000D03*
X133096000Y-33782000D03*
X139192000Y-31750000D03*
X135128000Y-32766000D03*
X143002000Y-53848000D03*
X141986000Y-55880000D03*
X137160000Y-32766000D03*
X144018000Y-46228000D03*
X141986000Y-54864000D03*
X143002000Y-55880000D03*
X144018000Y-55880000D03*
X141986000Y-38608000D03*
X144018000Y-38608000D03*
X141986000Y-62484000D03*
X144018000Y-40640000D03*
X143002000Y-48260000D03*
X141986000Y-61468000D03*
X139192000Y-32766000D03*
X144018000Y-47244000D03*
X170434000Y-59944000D03*
X143002000Y-63500000D03*
X136144000Y-31750000D03*
X136144000Y-32766000D03*
X144018000Y-39624000D03*
X151800500Y-42164000D03*
X138176000Y-31750000D03*
X134112000Y-32766000D03*
X141986000Y-53848000D03*
X139192000Y-33782000D03*
X144018000Y-54864000D03*
X137160000Y-31750000D03*
X143002000Y-54864000D03*
X143002000Y-47244000D03*
X141986000Y-63500000D03*
X135128000Y-31750000D03*
X143002000Y-38608000D03*
X144018000Y-48260000D03*
X133096000Y-32766000D03*
X135128000Y-33782000D03*
X134112000Y-31750000D03*
X143002000Y-46228000D03*
X151651750Y-66385500D03*
X143002000Y-62484000D03*
X150772746Y-72306500D03*
X144018000Y-63500000D03*
X151708812Y-48097500D03*
X138176000Y-32766000D03*
%TO.N,Net-(D29-Pad2)*%
X133858000Y-66040000D03*
X148703622Y-65672378D03*
%TO.N,GNDPWR*%
X129794000Y-74168000D03*
X106426000Y-77470000D03*
X167894000Y-69533500D03*
X116586000Y-76454000D03*
X167894000Y-51308000D03*
X114554000Y-78486000D03*
X116586000Y-77470000D03*
X113538000Y-77470000D03*
X167894000Y-45212000D03*
X114554000Y-77470000D03*
X112522000Y-77470000D03*
X106426000Y-76454000D03*
X116586000Y-78486000D03*
X110490000Y-77470000D03*
X111506000Y-76454000D03*
X108458000Y-77470000D03*
X107442000Y-77470000D03*
X167894000Y-57404000D03*
X167894000Y-38354000D03*
X102362000Y-78486000D03*
X109474000Y-78486000D03*
X107996424Y-70935636D03*
X104394000Y-78486000D03*
X110490000Y-76454000D03*
X115570000Y-76454000D03*
X108458000Y-78486000D03*
X115570000Y-77470000D03*
X112522000Y-78486000D03*
X107442000Y-76454000D03*
X108458000Y-76454000D03*
X121158000Y-70866000D03*
X113538000Y-78486000D03*
X112522000Y-76454000D03*
X105410000Y-78486000D03*
X104394000Y-77470000D03*
X102362000Y-77470000D03*
X122682000Y-74930000D03*
X115570000Y-78486000D03*
X102362000Y-76454000D03*
X110490000Y-78486000D03*
X105410000Y-77470000D03*
X103378000Y-76454000D03*
X106426000Y-78486000D03*
X148888628Y-67121389D03*
X111506000Y-77470000D03*
X141478000Y-75376020D03*
X109474000Y-76454000D03*
X167894000Y-63500000D03*
X103378000Y-77470000D03*
X113538000Y-76454000D03*
X129540000Y-71374000D03*
X111506000Y-78486000D03*
X104394000Y-76454000D03*
X109474000Y-77470000D03*
X105410000Y-76454000D03*
X114554000Y-76454000D03*
X107442000Y-78486000D03*
X103378000Y-78486000D03*
%TO.N,Net-(D32-Pad2)*%
X133858000Y-58420000D03*
X146304000Y-59182000D03*
%TO.N,Net-(D35-Pad2)*%
X134112000Y-50800000D03*
X146558000Y-48006000D03*
%TO.N,Net-(D38-Pad2)*%
X133841476Y-43121368D03*
X146812000Y-41656000D03*
%TO.N,/Phases/A_CURRENT_SENSE*%
X174372231Y-73471534D03*
%TO.N,GND*%
X184658000Y-74930000D03*
X185166000Y-76329011D03*
X184658000Y-43688000D03*
%TO.N,+3V3*%
X183896000Y-72898000D03*
X184260965Y-76792209D03*
X178562000Y-66739500D03*
X174327500Y-75184000D03*
%TO.N,/Phases/B_CURRENT_SENSE*%
X178911516Y-78327516D03*
%TO.N,Net-(D1-Pad1)*%
X186944000Y-60452000D03*
%TO.N,Net-(R25-Pad2)*%
X184151533Y-56714941D03*
X188722000Y-56714885D03*
%TO.N,Net-(D2-Pad2)*%
X175275000Y-36123000D03*
%TO.N,Net-(L2-Pad1)*%
X186235480Y-43380520D03*
%TO.N,+3.3VA*%
X168606689Y-71792142D03*
X148082000Y-69596000D03*
X143182137Y-71484107D03*
%TO.N,GNDA*%
X174244000Y-64262000D03*
X144780000Y-68771000D03*
X145470589Y-71554830D03*
X135382000Y-72136000D03*
X141732000Y-70371000D03*
X135382000Y-68834000D03*
X171450000Y-73468500D03*
X148945542Y-71790458D03*
X141211000Y-73927000D03*
%TO.N,/Phases/A_VOLTAGE_SENSE*%
X175530356Y-75026180D03*
X174062570Y-66980796D03*
%TO.N,/Phases/B_VOLTAGE_SENSE*%
X175144413Y-66888196D03*
X176022000Y-75946000D03*
%TO.N,/Phases/C_VOLTAGE_SENSE*%
X179832000Y-66294000D03*
X179905680Y-78224354D03*
%TO.N,Net-(C16-Pad1)*%
X182387000Y-56881000D03*
%TO.N,+12V*%
X165341000Y-51816000D03*
X165341000Y-57912000D03*
X165341000Y-68841255D03*
X165341000Y-64008000D03*
X165341000Y-39624000D03*
X165354000Y-45720000D03*
%TO.N,/~{MCLR}*%
X173927930Y-72576211D03*
%TO.N,/Phases/A_HIN*%
X160336500Y-56388000D03*
X160336500Y-50292000D03*
X160837245Y-69540755D03*
X160782000Y-38354000D03*
%TO.N,/Phases/~{A_LIN}*%
X160782000Y-70612000D03*
X160274000Y-39624000D03*
X159766000Y-52578000D03*
X159766000Y-58420000D03*
X174244000Y-71628000D03*
%TO.N,/Phases/B_HIN*%
X160528000Y-61694980D03*
X161075399Y-57652614D03*
X161728500Y-45720000D03*
X161029000Y-51562000D03*
X169164000Y-61722000D03*
%TO.N,/Phases/~{B_LIN}*%
X160590415Y-62692531D03*
X161735500Y-46736000D03*
X161728500Y-56896000D03*
X169761249Y-65188751D03*
X161728500Y-50800000D03*
%TO.N,/Phases/C_HIN*%
X161781953Y-70658975D03*
X175298803Y-68287197D03*
X161036000Y-40894000D03*
X175006000Y-44958000D03*
X161735500Y-64407867D03*
X161036000Y-44958000D03*
%TO.N,/Phases/~{C_LIN}*%
X161544000Y-68834000D03*
X161544000Y-62992000D03*
X175764525Y-44199475D03*
X176784000Y-68072000D03*
X161768330Y-44185921D03*
X161819132Y-37781500D03*
%TO.N,/HOME{slash}HALL_C{slash}GPIO2*%
X182880000Y-66294000D03*
X182880000Y-76200000D03*
%TD*%
D17*
%TO.N,GNDA*%
X171450000Y-73468500D02*
X171450000Y-73914000D01*
X171450000Y-73914000D02*
X170942000Y-74422000D01*
X170942000Y-74422000D02*
X148336000Y-74422000D01*
D18*
%TO.N,/Phases/C_HIN*%
X169049713Y-70658975D02*
X169256738Y-70866000D01*
X174244000Y-70866000D02*
X175298803Y-69811197D01*
%TO.N,/Phases/~{A_LIN}*%
X168918386Y-71092641D02*
X169199745Y-71374000D01*
D19*
%TO.N,VDD*%
X171709964Y-72173520D02*
X169780240Y-72173520D01*
D18*
%TO.N,/Phases/~{A_LIN}*%
X169199745Y-71374000D02*
X173990000Y-71374000D01*
X173990000Y-71374000D02*
X174244000Y-71628000D01*
%TO.N,/Phases/C_HIN*%
X161781953Y-70658975D02*
X169049713Y-70658975D01*
D19*
%TO.N,VDD*%
X174327501Y-77045501D02*
X173228000Y-75946000D01*
X139446000Y-74137056D02*
X139446000Y-76454000D01*
D18*
%TO.N,/Phases/~{A_LIN}*%
X161507719Y-71374000D02*
X168035586Y-71374000D01*
X160782000Y-70648281D02*
X161507719Y-71374000D01*
D19*
%TO.N,VDD*%
X181214270Y-77978000D02*
X180281771Y-77045501D01*
D18*
%TO.N,/Phases/~{A_LIN}*%
X168035586Y-71374000D02*
X168316945Y-71092641D01*
X160782000Y-70612000D02*
X160782000Y-70648281D01*
%TO.N,/Phases/C_HIN*%
X175298803Y-69811197D02*
X175298803Y-68287197D01*
%TO.N,/Phases/~{A_LIN}*%
X168316945Y-71092641D02*
X168918386Y-71092641D01*
%TO.N,/Phases/C_HIN*%
X169256738Y-70866000D02*
X174244000Y-70866000D01*
D19*
%TO.N,VDD*%
X184404000Y-77978000D02*
X181214270Y-77978000D01*
X180281771Y-77045501D02*
X174327501Y-77045501D01*
X173228000Y-75946000D02*
X173228000Y-73691556D01*
X173228000Y-73691556D02*
X171709964Y-72173520D01*
X169780240Y-72173520D02*
X168485280Y-73468480D01*
X168485280Y-73468480D02*
X146366480Y-73468480D01*
X146366480Y-73468480D02*
X145725489Y-72827489D01*
X145725489Y-72827489D02*
X140755567Y-72827489D01*
X140755567Y-72827489D02*
X139446000Y-74137056D01*
D18*
%TO.N,/Phases/A_HIN*%
X174244000Y-69850000D02*
X173860989Y-70233011D01*
X173860989Y-70233011D02*
X167604252Y-70233011D01*
X167604252Y-70233011D02*
X166911996Y-69540755D01*
X166911996Y-69540755D02*
X160837245Y-69540755D01*
%TO.N,/Phases/~{C_LIN}*%
X175009059Y-67587696D02*
X174587266Y-68009489D01*
X175588547Y-67587696D02*
X175009059Y-67587696D01*
X176784000Y-68072000D02*
X176338499Y-67626499D01*
X176338499Y-67626499D02*
X175627350Y-67626499D01*
X162368511Y-68009489D02*
X161544000Y-68834000D01*
X174587266Y-68009489D02*
X162368511Y-68009489D01*
X175627350Y-67626499D02*
X175588547Y-67587696D01*
%TO.N,/Phases/B_HIN*%
X160528000Y-61694980D02*
X169136980Y-61694980D01*
X169136980Y-61694980D02*
X169164000Y-61722000D01*
%TO.N,/Phases/~{B_LIN}*%
X169761249Y-64097249D02*
X167894000Y-62230000D01*
X161052946Y-62230000D02*
X160590415Y-62692531D01*
X167894000Y-62230000D02*
X161052946Y-62230000D01*
X169761249Y-65188751D02*
X169761249Y-64097249D01*
%TO.N,/Phases/C_HIN*%
X163005511Y-44512489D02*
X162560000Y-44958000D01*
X174560489Y-44512489D02*
X163005511Y-44512489D01*
X175006000Y-44958000D02*
X174560489Y-44512489D01*
X162560000Y-44958000D02*
X161036000Y-44958000D01*
%TO.N,/Phases/~{C_LIN}*%
X162012251Y-43942000D02*
X161768330Y-44185921D01*
X175507050Y-43942000D02*
X162012251Y-43942000D01*
X175764525Y-44199475D02*
X175507050Y-43942000D01*
%TD*%
%TA.AperFunction,Conductor*%
%TO.N,GND*%
G36*
X197616122Y-30989270D02*
G01*
X197778794Y-30999932D01*
X197779542Y-30999983D01*
X197873831Y-31006727D01*
X197889423Y-31008827D01*
X197979770Y-31026798D01*
X198033498Y-31037485D01*
X198035608Y-31037925D01*
X198088171Y-31049359D01*
X198146443Y-31062036D01*
X198160160Y-31065843D01*
X198295672Y-31111843D01*
X198299203Y-31113100D01*
X198355848Y-31134227D01*
X198408874Y-31154005D01*
X198420551Y-31159047D01*
X198547573Y-31221687D01*
X198552183Y-31224081D01*
X198597781Y-31248979D01*
X198656173Y-31280864D01*
X198665789Y-31286686D01*
X198782924Y-31364953D01*
X198788431Y-31368850D01*
X198883734Y-31440193D01*
X198891303Y-31446329D01*
X198997022Y-31539042D01*
X199003039Y-31544679D01*
X199087321Y-31628961D01*
X199092958Y-31634978D01*
X199185671Y-31740697D01*
X199191807Y-31748266D01*
X199263150Y-31843569D01*
X199267047Y-31849076D01*
X199345314Y-31966211D01*
X199351136Y-31975827D01*
X199407911Y-32079801D01*
X199410313Y-32084427D01*
X199472953Y-32211449D01*
X199477995Y-32223126D01*
X199497773Y-32276152D01*
X199518900Y-32332797D01*
X199520157Y-32336328D01*
X199566157Y-32471840D01*
X199569964Y-32485557D01*
X199582626Y-32543761D01*
X199594075Y-32596392D01*
X199594522Y-32598537D01*
X199623173Y-32742577D01*
X199625273Y-32758169D01*
X199632017Y-32852458D01*
X199632068Y-32853206D01*
X199642730Y-33015878D01*
X199643000Y-33024119D01*
X199643000Y-77211881D01*
X199642730Y-77220122D01*
X199632068Y-77382794D01*
X199632017Y-77383542D01*
X199625273Y-77477831D01*
X199623173Y-77493423D01*
X199594522Y-77637463D01*
X199594075Y-77639608D01*
X199585228Y-77680279D01*
X199569964Y-77750443D01*
X199566157Y-77764160D01*
X199520157Y-77899672D01*
X199518900Y-77903203D01*
X199501929Y-77948705D01*
X199477995Y-78012874D01*
X199472953Y-78024551D01*
X199410313Y-78151573D01*
X199407911Y-78156199D01*
X199351136Y-78260173D01*
X199345314Y-78269789D01*
X199270697Y-78381462D01*
X199267047Y-78386924D01*
X199263150Y-78392431D01*
X199191807Y-78487734D01*
X199185673Y-78495301D01*
X199175621Y-78506763D01*
X199092958Y-78601022D01*
X199087321Y-78607039D01*
X199003039Y-78691321D01*
X198997023Y-78696957D01*
X198934202Y-78752050D01*
X198891303Y-78789671D01*
X198883734Y-78795807D01*
X198788431Y-78867150D01*
X198782930Y-78871043D01*
X198720795Y-78912560D01*
X198665789Y-78949314D01*
X198656173Y-78955136D01*
X198597781Y-78987021D01*
X198552183Y-79011919D01*
X198547573Y-79014313D01*
X198420551Y-79076953D01*
X198408874Y-79081995D01*
X198355848Y-79101773D01*
X198299203Y-79122900D01*
X198295672Y-79124157D01*
X198160160Y-79170157D01*
X198146443Y-79173964D01*
X198088171Y-79186641D01*
X198035608Y-79198075D01*
X198033498Y-79198515D01*
X197979770Y-79209202D01*
X197889423Y-79227173D01*
X197873831Y-79229273D01*
X197779542Y-79236017D01*
X197778794Y-79236068D01*
X197616122Y-79246730D01*
X197607881Y-79247000D01*
X173232119Y-79247000D01*
X173223878Y-79246730D01*
X173061206Y-79236068D01*
X173060458Y-79236017D01*
X172966169Y-79229273D01*
X172950577Y-79227173D01*
X172860230Y-79209202D01*
X172806502Y-79198515D01*
X172804392Y-79198075D01*
X172751829Y-79186641D01*
X172693557Y-79173964D01*
X172679840Y-79170157D01*
X172544328Y-79124157D01*
X172540797Y-79122900D01*
X172484152Y-79101773D01*
X172431126Y-79081995D01*
X172419449Y-79076953D01*
X172292427Y-79014313D01*
X172287817Y-79011919D01*
X172242219Y-78987021D01*
X172183827Y-78955136D01*
X172174211Y-78949314D01*
X172119205Y-78912560D01*
X172057070Y-78871043D01*
X172051569Y-78867150D01*
X171956266Y-78795807D01*
X171948697Y-78789671D01*
X171905799Y-78752050D01*
X171842977Y-78696957D01*
X171836961Y-78691321D01*
X171752679Y-78607039D01*
X171747042Y-78601022D01*
X171664379Y-78506763D01*
X171654327Y-78495301D01*
X171648193Y-78487734D01*
X171576850Y-78392431D01*
X171572953Y-78386924D01*
X171569304Y-78381462D01*
X171494686Y-78269789D01*
X171488864Y-78260173D01*
X171432089Y-78156199D01*
X171429687Y-78151573D01*
X171367047Y-78024551D01*
X171362005Y-78012874D01*
X171338071Y-77948705D01*
X171321100Y-77903203D01*
X171319843Y-77899672D01*
X171273843Y-77764160D01*
X171270036Y-77750443D01*
X171254772Y-77680279D01*
X171245925Y-77639608D01*
X171245478Y-77637463D01*
X171216827Y-77493423D01*
X171214727Y-77477831D01*
X171207983Y-77383542D01*
X171207932Y-77382794D01*
X171198148Y-77233517D01*
X171199165Y-77216000D01*
X171201362Y-77216000D01*
X171188538Y-77020341D01*
X171184202Y-76954186D01*
X171184201Y-76954182D01*
X171183932Y-76950071D01*
X171171726Y-76888707D01*
X171132747Y-76692742D01*
X171132745Y-76692736D01*
X171131941Y-76688692D01*
X171129583Y-76681744D01*
X171062735Y-76484818D01*
X171046277Y-76436335D01*
X171016165Y-76375273D01*
X170962187Y-76265818D01*
X170928407Y-76197319D01*
X170926112Y-76193884D01*
X170782641Y-75979164D01*
X170782637Y-75979159D01*
X170780348Y-75975733D01*
X170777634Y-75972639D01*
X170777630Y-75972633D01*
X170607341Y-75778457D01*
X170604632Y-75775368D01*
X170535767Y-75714975D01*
X170407367Y-75602370D01*
X170407361Y-75602366D01*
X170404267Y-75599652D01*
X170400841Y-75597363D01*
X170400836Y-75597359D01*
X170186116Y-75453888D01*
X170186114Y-75453887D01*
X170182681Y-75451593D01*
X169998888Y-75360956D01*
X169947358Y-75335544D01*
X169947356Y-75335543D01*
X169943665Y-75333723D01*
X169741916Y-75265238D01*
X169695218Y-75249386D01*
X169695214Y-75249385D01*
X169691308Y-75248059D01*
X169687264Y-75247255D01*
X169687258Y-75247253D01*
X169433972Y-75196872D01*
X169433969Y-75196872D01*
X169429929Y-75196068D01*
X169425818Y-75195799D01*
X169425814Y-75195798D01*
X169229666Y-75182942D01*
X169164000Y-75178638D01*
X169164000Y-75181890D01*
X169153955Y-75183000D01*
X168528000Y-75183000D01*
X168459879Y-75162998D01*
X168413386Y-75109342D01*
X168402000Y-75057000D01*
X168402000Y-75002500D01*
X168422002Y-74934379D01*
X168475658Y-74887886D01*
X168528000Y-74876500D01*
X170907544Y-74876500D01*
X170922354Y-74877373D01*
X170956438Y-74881407D01*
X170965702Y-74879715D01*
X170965705Y-74879715D01*
X171014680Y-74870771D01*
X171018582Y-74870122D01*
X171067836Y-74862716D01*
X171067839Y-74862715D01*
X171077151Y-74861315D01*
X171083718Y-74858162D01*
X171090883Y-74856853D01*
X171143467Y-74829538D01*
X171146957Y-74827795D01*
X171200353Y-74802154D01*
X171205648Y-74797259D01*
X171205787Y-74797166D01*
X171212166Y-74793852D01*
X171217254Y-74789506D01*
X171254836Y-74751924D01*
X171258402Y-74748494D01*
X171277360Y-74730969D01*
X171300712Y-74709383D01*
X171304430Y-74702983D01*
X171310037Y-74696723D01*
X171747011Y-74259749D01*
X171758100Y-74249894D01*
X171777662Y-74234472D01*
X171785059Y-74228641D01*
X171818753Y-74179890D01*
X171821026Y-74176710D01*
X171826736Y-74168980D01*
X171856208Y-74129077D01*
X171858621Y-74122205D01*
X171862764Y-74116211D01*
X171880635Y-74059703D01*
X171881886Y-74055954D01*
X171897438Y-74011670D01*
X171901492Y-74000127D01*
X171901775Y-73992924D01*
X171901808Y-73992755D01*
X171903975Y-73985903D01*
X171904500Y-73979232D01*
X171904500Y-73926052D01*
X171904597Y-73921104D01*
X171905453Y-73899321D01*
X171931392Y-73827567D01*
X171974536Y-73771341D01*
X171977696Y-73763712D01*
X171977699Y-73763707D01*
X172002717Y-73703309D01*
X172047265Y-73648028D01*
X172114629Y-73625608D01*
X172183420Y-73643167D01*
X172208220Y-73662433D01*
X172490595Y-73944808D01*
X172524621Y-74007120D01*
X172527500Y-74033903D01*
X172527500Y-75917359D01*
X172527208Y-75925929D01*
X172525840Y-75946000D01*
X172523322Y-75982930D01*
X172524627Y-75990406D01*
X172524627Y-75990409D01*
X172534178Y-76045132D01*
X172535141Y-76051658D01*
X172542724Y-76114320D01*
X172545409Y-76121427D01*
X172546218Y-76124720D01*
X172550177Y-76139191D01*
X172551166Y-76142467D01*
X172552473Y-76149954D01*
X172555528Y-76156913D01*
X172555528Y-76156914D01*
X172577847Y-76207760D01*
X172580339Y-76213866D01*
X172602655Y-76272923D01*
X172606954Y-76279178D01*
X172608535Y-76282203D01*
X172615825Y-76295299D01*
X172617566Y-76298243D01*
X172620621Y-76305202D01*
X172625246Y-76311230D01*
X172625247Y-76311231D01*
X172659042Y-76355273D01*
X172662919Y-76360609D01*
X172694381Y-76406386D01*
X172694386Y-76406392D01*
X172698688Y-76412651D01*
X172729649Y-76440236D01*
X172744657Y-76453608D01*
X172749933Y-76458589D01*
X173811912Y-77520568D01*
X173817765Y-77526833D01*
X173855332Y-77569897D01*
X173861543Y-77574262D01*
X173861546Y-77574265D01*
X173906994Y-77606206D01*
X173912289Y-77610139D01*
X173961958Y-77649084D01*
X173968885Y-77652212D01*
X173971816Y-77653987D01*
X173984819Y-77661404D01*
X173987833Y-77663020D01*
X173994048Y-77667388D01*
X174001124Y-77670147D01*
X174001128Y-77670149D01*
X174052865Y-77690320D01*
X174058946Y-77692876D01*
X174116485Y-77718856D01*
X174123951Y-77720240D01*
X174127200Y-77721258D01*
X174141665Y-77725378D01*
X174144938Y-77726218D01*
X174152014Y-77728977D01*
X174196684Y-77734857D01*
X174214607Y-77737217D01*
X174221124Y-77738249D01*
X174248420Y-77743308D01*
X174283193Y-77749753D01*
X174290773Y-77749316D01*
X174290774Y-77749316D01*
X174344645Y-77746210D01*
X174351897Y-77746001D01*
X178345311Y-77746001D01*
X178413432Y-77766003D01*
X178459925Y-77819659D01*
X178470029Y-77889933D01*
X178445273Y-77948705D01*
X178392010Y-78018119D01*
X178392008Y-78018122D01*
X178386980Y-78024675D01*
X178326472Y-78170754D01*
X178305834Y-78327516D01*
X178326472Y-78484278D01*
X178386980Y-78630357D01*
X178483234Y-78755798D01*
X178608675Y-78852052D01*
X178754754Y-78912560D01*
X178911516Y-78933198D01*
X178919704Y-78932120D01*
X179060090Y-78913638D01*
X179068278Y-78912560D01*
X179214357Y-78852052D01*
X179339798Y-78755798D01*
X179344821Y-78749252D01*
X179344824Y-78749249D01*
X179363910Y-78724375D01*
X179421247Y-78682507D01*
X179492118Y-78678285D01*
X179540578Y-78701115D01*
X179602839Y-78748890D01*
X179748918Y-78809398D01*
X179905680Y-78830036D01*
X179913868Y-78828958D01*
X180054254Y-78810476D01*
X180062442Y-78809398D01*
X180208521Y-78748890D01*
X180321150Y-78662467D01*
X180327416Y-78657659D01*
X180333962Y-78652636D01*
X180346031Y-78636908D01*
X180375084Y-78599044D01*
X180430216Y-78527195D01*
X180433376Y-78519566D01*
X180433379Y-78519561D01*
X180458397Y-78459163D01*
X180502945Y-78403882D01*
X180570309Y-78381462D01*
X180639100Y-78399021D01*
X180663900Y-78418287D01*
X180698687Y-78453074D01*
X180704540Y-78459339D01*
X180742101Y-78502396D01*
X180793743Y-78538690D01*
X180799028Y-78542616D01*
X180842746Y-78576895D01*
X180842750Y-78576897D01*
X180848727Y-78581584D01*
X180855650Y-78584710D01*
X180858598Y-78586495D01*
X180871558Y-78593887D01*
X180874604Y-78595520D01*
X180880817Y-78599887D01*
X180939397Y-78622727D01*
X180939636Y-78622820D01*
X180945715Y-78625375D01*
X181003254Y-78651355D01*
X181010725Y-78652740D01*
X181013993Y-78653764D01*
X181028434Y-78657877D01*
X181031707Y-78658717D01*
X181038783Y-78661476D01*
X181083453Y-78667356D01*
X181101376Y-78669716D01*
X181107893Y-78670748D01*
X181147258Y-78678044D01*
X181169962Y-78682252D01*
X181177542Y-78681815D01*
X181177543Y-78681815D01*
X181231414Y-78678709D01*
X181238666Y-78678500D01*
X184446516Y-78678500D01*
X184572320Y-78663276D01*
X184730923Y-78603345D01*
X184819284Y-78542616D01*
X184864392Y-78511614D01*
X184864393Y-78511613D01*
X184870651Y-78507312D01*
X184881351Y-78495303D01*
X184978388Y-78386392D01*
X184978390Y-78386388D01*
X184983440Y-78380721D01*
X185062776Y-78230881D01*
X185104081Y-78066441D01*
X185104969Y-77896895D01*
X185082422Y-77802980D01*
X185067161Y-77739417D01*
X185065388Y-77732032D01*
X185060333Y-77722237D01*
X184991108Y-77588117D01*
X184991108Y-77588116D01*
X184987625Y-77581369D01*
X184977618Y-77569897D01*
X184904407Y-77485974D01*
X184876169Y-77453604D01*
X184869956Y-77449237D01*
X184869951Y-77449233D01*
X184746028Y-77362139D01*
X184715450Y-77323748D01*
X185893500Y-77323748D01*
X185894707Y-77329816D01*
X185898331Y-77348033D01*
X185905133Y-77382231D01*
X185949448Y-77448552D01*
X186015769Y-77492867D01*
X186027938Y-77495288D01*
X186027939Y-77495288D01*
X186068184Y-77503293D01*
X186074252Y-77504500D01*
X187813748Y-77504500D01*
X187819816Y-77503293D01*
X187860061Y-77495288D01*
X187860062Y-77495288D01*
X187872231Y-77492867D01*
X187938552Y-77448552D01*
X187982867Y-77382231D01*
X187989670Y-77348033D01*
X187993293Y-77329816D01*
X187994500Y-77323748D01*
X187994500Y-76439262D01*
X188428520Y-76439262D01*
X188432527Y-76486978D01*
X188444393Y-76628282D01*
X188445759Y-76644553D01*
X188447458Y-76650478D01*
X188493395Y-76810678D01*
X188502544Y-76842586D01*
X188505359Y-76848063D01*
X188505360Y-76848066D01*
X188593897Y-77020341D01*
X188596712Y-77025818D01*
X188724677Y-77187270D01*
X188729370Y-77191264D01*
X188729371Y-77191265D01*
X188803541Y-77254388D01*
X188881564Y-77320791D01*
X188886942Y-77323797D01*
X188886944Y-77323798D01*
X188917387Y-77340812D01*
X189061398Y-77421297D01*
X189145280Y-77448552D01*
X189251471Y-77483056D01*
X189251475Y-77483057D01*
X189257329Y-77484959D01*
X189461894Y-77509351D01*
X189468029Y-77508879D01*
X189468031Y-77508879D01*
X189540625Y-77503293D01*
X189667300Y-77493546D01*
X189673230Y-77491890D01*
X189673232Y-77491890D01*
X189859797Y-77439800D01*
X189859796Y-77439800D01*
X189865725Y-77438145D01*
X189871214Y-77435372D01*
X189871220Y-77435370D01*
X190016191Y-77362139D01*
X190049610Y-77345258D01*
X190065345Y-77332965D01*
X190207101Y-77222213D01*
X190211951Y-77218424D01*
X190225665Y-77202537D01*
X190342540Y-77067134D01*
X190342540Y-77067133D01*
X190346564Y-77062472D01*
X190367387Y-77025818D01*
X190385056Y-76994714D01*
X190448323Y-76883344D01*
X190513351Y-76687863D01*
X190539171Y-76483474D01*
X190539583Y-76454000D01*
X190538138Y-76439262D01*
X190968520Y-76439262D01*
X190972527Y-76486978D01*
X190984393Y-76628282D01*
X190985759Y-76644553D01*
X190987458Y-76650478D01*
X191033395Y-76810678D01*
X191042544Y-76842586D01*
X191045359Y-76848063D01*
X191045360Y-76848066D01*
X191133897Y-77020341D01*
X191136712Y-77025818D01*
X191264677Y-77187270D01*
X191269370Y-77191264D01*
X191269371Y-77191265D01*
X191343541Y-77254388D01*
X191421564Y-77320791D01*
X191426942Y-77323797D01*
X191426944Y-77323798D01*
X191457387Y-77340812D01*
X191601398Y-77421297D01*
X191685280Y-77448552D01*
X191791471Y-77483056D01*
X191791475Y-77483057D01*
X191797329Y-77484959D01*
X192001894Y-77509351D01*
X192008029Y-77508879D01*
X192008031Y-77508879D01*
X192080625Y-77503293D01*
X192207300Y-77493546D01*
X192213230Y-77491890D01*
X192213232Y-77491890D01*
X192399797Y-77439800D01*
X192399796Y-77439800D01*
X192405725Y-77438145D01*
X192411214Y-77435372D01*
X192411220Y-77435370D01*
X192556191Y-77362139D01*
X192589610Y-77345258D01*
X192605345Y-77332965D01*
X192747101Y-77222213D01*
X192751951Y-77218424D01*
X192765665Y-77202537D01*
X192882540Y-77067134D01*
X192882540Y-77067133D01*
X192886564Y-77062472D01*
X192907387Y-77025818D01*
X192925056Y-76994714D01*
X192988323Y-76883344D01*
X193053351Y-76687863D01*
X193079171Y-76483474D01*
X193079583Y-76454000D01*
X193078138Y-76439262D01*
X193508520Y-76439262D01*
X193512527Y-76486978D01*
X193524393Y-76628282D01*
X193525759Y-76644553D01*
X193527458Y-76650478D01*
X193573395Y-76810678D01*
X193582544Y-76842586D01*
X193585359Y-76848063D01*
X193585360Y-76848066D01*
X193673897Y-77020341D01*
X193676712Y-77025818D01*
X193804677Y-77187270D01*
X193809370Y-77191264D01*
X193809371Y-77191265D01*
X193883541Y-77254388D01*
X193961564Y-77320791D01*
X193966942Y-77323797D01*
X193966944Y-77323798D01*
X193997387Y-77340812D01*
X194141398Y-77421297D01*
X194225280Y-77448552D01*
X194331471Y-77483056D01*
X194331475Y-77483057D01*
X194337329Y-77484959D01*
X194541894Y-77509351D01*
X194548029Y-77508879D01*
X194548031Y-77508879D01*
X194620625Y-77503293D01*
X194747300Y-77493546D01*
X194753230Y-77491890D01*
X194753232Y-77491890D01*
X194939797Y-77439800D01*
X194939796Y-77439800D01*
X194945725Y-77438145D01*
X194951214Y-77435372D01*
X194951220Y-77435370D01*
X195096191Y-77362139D01*
X195129610Y-77345258D01*
X195145345Y-77332965D01*
X195287101Y-77222213D01*
X195291951Y-77218424D01*
X195305665Y-77202537D01*
X195422540Y-77067134D01*
X195422540Y-77067133D01*
X195426564Y-77062472D01*
X195447387Y-77025818D01*
X195465056Y-76994714D01*
X195528323Y-76883344D01*
X195537271Y-76856444D01*
X195552496Y-76810678D01*
X195592978Y-76752354D01*
X195658566Y-76725175D01*
X195728437Y-76737770D01*
X195780406Y-76786141D01*
X195794971Y-76822751D01*
X195802564Y-76856444D01*
X195805645Y-76866275D01*
X195885770Y-77063603D01*
X195890413Y-77072794D01*
X196001694Y-77254388D01*
X196007777Y-77262699D01*
X196147213Y-77423667D01*
X196154580Y-77430883D01*
X196318434Y-77566916D01*
X196326881Y-77572831D01*
X196510756Y-77680279D01*
X196520042Y-77684729D01*
X196719001Y-77760703D01*
X196728899Y-77763579D01*
X196832250Y-77784606D01*
X196846299Y-77783410D01*
X196850000Y-77773065D01*
X196850000Y-77772517D01*
X197358000Y-77772517D01*
X197362064Y-77786359D01*
X197375478Y-77788393D01*
X197382184Y-77787534D01*
X197392262Y-77785392D01*
X197596255Y-77724191D01*
X197605842Y-77720433D01*
X197797095Y-77626739D01*
X197805945Y-77621464D01*
X197979328Y-77497792D01*
X197987200Y-77491139D01*
X198138052Y-77340812D01*
X198144730Y-77332965D01*
X198269003Y-77160020D01*
X198274313Y-77151183D01*
X198368670Y-76960267D01*
X198372469Y-76950672D01*
X198434377Y-76746910D01*
X198436555Y-76736837D01*
X198437986Y-76725962D01*
X198435775Y-76711778D01*
X198422617Y-76708000D01*
X197376115Y-76708000D01*
X197360876Y-76712475D01*
X197359671Y-76713865D01*
X197358000Y-76721548D01*
X197358000Y-77772517D01*
X196850000Y-77772517D01*
X196850000Y-76181885D01*
X197358000Y-76181885D01*
X197362475Y-76197124D01*
X197363865Y-76198329D01*
X197371548Y-76200000D01*
X198422344Y-76200000D01*
X198435875Y-76196027D01*
X198437180Y-76186947D01*
X198395214Y-76019875D01*
X198391894Y-76010124D01*
X198306972Y-75814814D01*
X198302105Y-75805739D01*
X198186426Y-75626926D01*
X198180136Y-75618757D01*
X198036806Y-75461240D01*
X198029273Y-75454215D01*
X197862139Y-75322222D01*
X197853552Y-75316517D01*
X197667117Y-75213599D01*
X197657705Y-75209369D01*
X197456959Y-75138280D01*
X197446988Y-75135646D01*
X197375837Y-75122972D01*
X197362540Y-75124432D01*
X197358000Y-75138989D01*
X197358000Y-76181885D01*
X196850000Y-76181885D01*
X196850000Y-75137102D01*
X196846082Y-75123758D01*
X196831806Y-75121771D01*
X196793324Y-75127660D01*
X196783288Y-75130051D01*
X196580868Y-75196212D01*
X196571359Y-75200209D01*
X196382463Y-75298542D01*
X196373738Y-75304036D01*
X196203433Y-75431905D01*
X196195726Y-75438748D01*
X196048590Y-75592717D01*
X196042104Y-75600727D01*
X195922098Y-75776649D01*
X195917000Y-75785623D01*
X195827338Y-75978783D01*
X195823775Y-75988470D01*
X195795012Y-76092185D01*
X195757533Y-76152483D01*
X195693405Y-76182946D01*
X195622986Y-76173903D01*
X195568636Y-76128224D01*
X195552973Y-76094933D01*
X195552143Y-76092185D01*
X195539935Y-76051749D01*
X195443218Y-75869849D01*
X195366161Y-75775368D01*
X195316906Y-75714975D01*
X195316903Y-75714972D01*
X195313011Y-75710200D01*
X195277099Y-75680491D01*
X195159025Y-75582811D01*
X195159021Y-75582809D01*
X195154275Y-75578882D01*
X194973055Y-75480897D01*
X194776254Y-75419977D01*
X194770129Y-75419333D01*
X194770128Y-75419333D01*
X194577498Y-75399087D01*
X194577496Y-75399087D01*
X194571369Y-75398443D01*
X194484529Y-75406346D01*
X194372342Y-75416555D01*
X194372339Y-75416556D01*
X194366203Y-75417114D01*
X194168572Y-75475280D01*
X193986002Y-75570726D01*
X193981201Y-75574586D01*
X193981198Y-75574588D01*
X193849481Y-75680491D01*
X193825447Y-75699815D01*
X193693024Y-75857630D01*
X193690056Y-75863028D01*
X193690053Y-75863033D01*
X193609190Y-76010124D01*
X193593776Y-76038162D01*
X193591913Y-76044035D01*
X193539020Y-76210777D01*
X193531484Y-76234532D01*
X193530798Y-76240649D01*
X193530797Y-76240653D01*
X193512208Y-76406386D01*
X193508520Y-76439262D01*
X193078138Y-76439262D01*
X193059480Y-76248970D01*
X192999935Y-76051749D01*
X192903218Y-75869849D01*
X192826161Y-75775368D01*
X192776906Y-75714975D01*
X192776903Y-75714972D01*
X192773011Y-75710200D01*
X192737099Y-75680491D01*
X192619025Y-75582811D01*
X192619021Y-75582809D01*
X192614275Y-75578882D01*
X192433055Y-75480897D01*
X192236254Y-75419977D01*
X192230129Y-75419333D01*
X192230128Y-75419333D01*
X192037498Y-75399087D01*
X192037496Y-75399087D01*
X192031369Y-75398443D01*
X191944529Y-75406346D01*
X191832342Y-75416555D01*
X191832339Y-75416556D01*
X191826203Y-75417114D01*
X191628572Y-75475280D01*
X191446002Y-75570726D01*
X191441201Y-75574586D01*
X191441198Y-75574588D01*
X191309481Y-75680491D01*
X191285447Y-75699815D01*
X191153024Y-75857630D01*
X191150056Y-75863028D01*
X191150053Y-75863033D01*
X191069190Y-76010124D01*
X191053776Y-76038162D01*
X191051913Y-76044035D01*
X190999020Y-76210777D01*
X190991484Y-76234532D01*
X190990798Y-76240649D01*
X190990797Y-76240653D01*
X190972208Y-76406386D01*
X190968520Y-76439262D01*
X190538138Y-76439262D01*
X190519480Y-76248970D01*
X190459935Y-76051749D01*
X190363218Y-75869849D01*
X190286161Y-75775368D01*
X190236906Y-75714975D01*
X190236903Y-75714972D01*
X190233011Y-75710200D01*
X190197099Y-75680491D01*
X190079025Y-75582811D01*
X190079021Y-75582809D01*
X190074275Y-75578882D01*
X189893055Y-75480897D01*
X189696254Y-75419977D01*
X189690129Y-75419333D01*
X189690128Y-75419333D01*
X189497498Y-75399087D01*
X189497496Y-75399087D01*
X189491369Y-75398443D01*
X189404529Y-75406346D01*
X189292342Y-75416555D01*
X189292339Y-75416556D01*
X189286203Y-75417114D01*
X189088572Y-75475280D01*
X188906002Y-75570726D01*
X188901201Y-75574586D01*
X188901198Y-75574588D01*
X188769481Y-75680491D01*
X188745447Y-75699815D01*
X188613024Y-75857630D01*
X188610056Y-75863028D01*
X188610053Y-75863033D01*
X188529190Y-76010124D01*
X188513776Y-76038162D01*
X188511913Y-76044035D01*
X188459020Y-76210777D01*
X188451484Y-76234532D01*
X188450798Y-76240649D01*
X188450797Y-76240653D01*
X188432208Y-76406386D01*
X188428520Y-76439262D01*
X187994500Y-76439262D01*
X187994500Y-75584252D01*
X187987829Y-75550716D01*
X187985288Y-75537939D01*
X187985288Y-75537938D01*
X187982867Y-75525769D01*
X187938552Y-75459448D01*
X187872231Y-75415133D01*
X187860062Y-75412712D01*
X187860061Y-75412712D01*
X187819816Y-75404707D01*
X187813748Y-75403500D01*
X186074252Y-75403500D01*
X186068184Y-75404707D01*
X186027939Y-75412712D01*
X186027938Y-75412712D01*
X186015769Y-75415133D01*
X185949448Y-75459448D01*
X185905133Y-75525769D01*
X185902712Y-75537938D01*
X185902712Y-75537939D01*
X185900171Y-75550716D01*
X185893500Y-75584252D01*
X185893500Y-77323748D01*
X184715450Y-77323748D01*
X184701796Y-77306605D01*
X184694610Y-77235973D01*
X184718515Y-77182348D01*
X184780474Y-77101601D01*
X184785501Y-77095050D01*
X184846009Y-76948971D01*
X184866647Y-76792209D01*
X184846009Y-76635447D01*
X184785501Y-76489368D01*
X184689247Y-76363927D01*
X184563806Y-76267673D01*
X184417727Y-76207165D01*
X184260965Y-76186527D01*
X184104203Y-76207165D01*
X183958124Y-76267673D01*
X183832683Y-76363927D01*
X183736429Y-76489368D01*
X183675921Y-76635447D01*
X183655283Y-76792209D01*
X183675921Y-76948971D01*
X183734139Y-77089522D01*
X183734140Y-77089525D01*
X183736429Y-77095050D01*
X183735567Y-77095407D01*
X183750630Y-77157492D01*
X183727411Y-77224585D01*
X183671605Y-77268473D01*
X183624773Y-77277500D01*
X181556617Y-77277500D01*
X181488496Y-77257498D01*
X181467521Y-77240595D01*
X180797347Y-76570420D01*
X180791494Y-76564154D01*
X180758936Y-76526832D01*
X180753940Y-76521105D01*
X180702298Y-76484811D01*
X180697013Y-76480885D01*
X180653295Y-76446606D01*
X180653291Y-76446604D01*
X180647314Y-76441917D01*
X180640391Y-76438791D01*
X180637443Y-76437006D01*
X180624483Y-76429614D01*
X180621437Y-76427981D01*
X180615224Y-76423614D01*
X180556404Y-76400681D01*
X180550325Y-76398125D01*
X180492787Y-76372146D01*
X180485316Y-76370761D01*
X180482048Y-76369737D01*
X180467607Y-76365624D01*
X180464334Y-76364784D01*
X180457258Y-76362025D01*
X180412588Y-76356145D01*
X180394665Y-76353785D01*
X180388148Y-76352753D01*
X180333546Y-76342633D01*
X180326079Y-76341249D01*
X180318499Y-76341686D01*
X180318498Y-76341686D01*
X180264627Y-76344792D01*
X180257375Y-76345001D01*
X176695278Y-76345001D01*
X176627157Y-76324999D01*
X176580664Y-76271343D01*
X176570560Y-76201069D01*
X176570853Y-76200000D01*
X182274318Y-76200000D01*
X182294956Y-76356762D01*
X182355464Y-76502841D01*
X182451718Y-76628282D01*
X182577159Y-76724536D01*
X182723238Y-76785044D01*
X182731426Y-76786122D01*
X182777662Y-76792209D01*
X182880000Y-76805682D01*
X182888188Y-76804604D01*
X183028574Y-76786122D01*
X183036762Y-76785044D01*
X183182841Y-76724536D01*
X183308282Y-76628282D01*
X183404536Y-76502841D01*
X183465044Y-76356762D01*
X183485682Y-76200000D01*
X183466941Y-76057645D01*
X183466122Y-76051426D01*
X183465044Y-76043238D01*
X183404536Y-75897159D01*
X183308282Y-75771718D01*
X183182841Y-75675464D01*
X183036762Y-75614956D01*
X183008415Y-75611224D01*
X182888188Y-75595396D01*
X182880000Y-75594318D01*
X182871812Y-75595396D01*
X182751586Y-75611224D01*
X182723238Y-75614956D01*
X182577159Y-75675464D01*
X182451718Y-75771718D01*
X182355464Y-75897159D01*
X182294956Y-76043238D01*
X182293878Y-76051426D01*
X182293059Y-76057645D01*
X182274318Y-76200000D01*
X176570853Y-76200000D01*
X176578869Y-76170783D01*
X176603884Y-76110392D01*
X176603885Y-76110389D01*
X176607044Y-76102762D01*
X176608437Y-76092185D01*
X176626604Y-75954188D01*
X176627682Y-75946000D01*
X176607044Y-75789238D01*
X176546536Y-75643159D01*
X176450282Y-75517718D01*
X176324841Y-75421464D01*
X176178762Y-75360956D01*
X176180081Y-75357771D01*
X176133080Y-75329106D01*
X176102074Y-75265238D01*
X176109928Y-75196152D01*
X176112240Y-75190572D01*
X176112241Y-75190569D01*
X176115400Y-75182942D01*
X176121187Y-75138989D01*
X176134960Y-75034368D01*
X176136038Y-75026180D01*
X176115400Y-74869418D01*
X176054892Y-74723339D01*
X175958638Y-74597898D01*
X175833197Y-74501644D01*
X175687118Y-74441136D01*
X175530356Y-74420498D01*
X175373594Y-74441136D01*
X175227515Y-74501644D01*
X175102074Y-74597898D01*
X175005820Y-74723339D01*
X175002660Y-74730968D01*
X175002657Y-74730973D01*
X174992969Y-74754362D01*
X174948421Y-74809643D01*
X174881057Y-74832063D01*
X174812266Y-74814504D01*
X174776597Y-74782845D01*
X174760806Y-74762265D01*
X174760805Y-74762264D01*
X174755782Y-74755718D01*
X174746368Y-74748494D01*
X174636892Y-74664491D01*
X174630341Y-74659464D01*
X174484262Y-74598956D01*
X174327500Y-74578318D01*
X174170738Y-74598956D01*
X174163109Y-74602116D01*
X174102718Y-74627131D01*
X174032129Y-74634720D01*
X173968642Y-74602941D01*
X173932414Y-74541883D01*
X173928500Y-74510722D01*
X173928500Y-74126284D01*
X173948502Y-74058163D01*
X174002158Y-74011670D01*
X174072432Y-74001566D01*
X174102718Y-74009875D01*
X174215469Y-74056578D01*
X174223657Y-74057656D01*
X174293850Y-74066897D01*
X174372231Y-74077216D01*
X174380419Y-74076138D01*
X174520805Y-74057656D01*
X174528993Y-74056578D01*
X174675072Y-73996070D01*
X174800513Y-73899816D01*
X174896767Y-73774375D01*
X174957275Y-73628296D01*
X174977913Y-73471534D01*
X174957275Y-73314772D01*
X174896767Y-73168693D01*
X174800513Y-73043252D01*
X174675072Y-72946998D01*
X174577453Y-72906563D01*
X174566827Y-72898000D01*
X183290318Y-72898000D01*
X183310956Y-73054762D01*
X183371464Y-73200841D01*
X183467718Y-73326282D01*
X183593159Y-73422536D01*
X183739238Y-73483044D01*
X183896000Y-73503682D01*
X183904188Y-73502604D01*
X184044574Y-73484122D01*
X184052762Y-73483044D01*
X184198841Y-73422536D01*
X184324282Y-73326282D01*
X184420536Y-73200841D01*
X184481044Y-73054762D01*
X184487497Y-73005748D01*
X185893500Y-73005748D01*
X185894707Y-73011816D01*
X185900357Y-73040218D01*
X185905133Y-73064231D01*
X185949448Y-73130552D01*
X185959761Y-73137443D01*
X185995398Y-73161255D01*
X186015769Y-73174867D01*
X186027938Y-73177288D01*
X186027939Y-73177288D01*
X186049301Y-73181537D01*
X186074252Y-73186500D01*
X187813748Y-73186500D01*
X187838699Y-73181537D01*
X187860061Y-73177288D01*
X187860062Y-73177288D01*
X187872231Y-73174867D01*
X187892603Y-73161255D01*
X187928239Y-73137443D01*
X187938552Y-73130552D01*
X187982867Y-73064231D01*
X187987644Y-73040218D01*
X187993293Y-73011816D01*
X187994500Y-73005748D01*
X187994500Y-72121262D01*
X188428520Y-72121262D01*
X188429036Y-72127406D01*
X188444883Y-72316116D01*
X188445759Y-72326553D01*
X188447458Y-72332478D01*
X188500186Y-72516361D01*
X188502544Y-72524586D01*
X188505359Y-72530063D01*
X188505360Y-72530066D01*
X188593897Y-72702341D01*
X188596712Y-72707818D01*
X188724677Y-72869270D01*
X188729370Y-72873264D01*
X188729371Y-72873265D01*
X188803541Y-72936388D01*
X188881564Y-73002791D01*
X188886942Y-73005797D01*
X188886944Y-73005798D01*
X188908691Y-73017952D01*
X189061398Y-73103297D01*
X189145280Y-73130552D01*
X189251471Y-73165056D01*
X189251475Y-73165057D01*
X189257329Y-73166959D01*
X189461894Y-73191351D01*
X189468029Y-73190879D01*
X189468031Y-73190879D01*
X189540625Y-73185293D01*
X189667300Y-73175546D01*
X189673230Y-73173890D01*
X189673232Y-73173890D01*
X189859797Y-73121800D01*
X189859796Y-73121800D01*
X189865725Y-73120145D01*
X189871214Y-73117372D01*
X189871220Y-73117370D01*
X190017947Y-73043252D01*
X190049610Y-73027258D01*
X190065345Y-73014965D01*
X190165919Y-72936388D01*
X190211951Y-72900424D01*
X190223979Y-72886490D01*
X190342540Y-72749134D01*
X190342540Y-72749133D01*
X190346564Y-72744472D01*
X190353097Y-72732973D01*
X190385056Y-72676714D01*
X190448323Y-72565344D01*
X190457271Y-72538444D01*
X190472496Y-72492678D01*
X190512978Y-72434354D01*
X190578566Y-72407175D01*
X190648437Y-72419770D01*
X190700406Y-72468141D01*
X190714971Y-72504751D01*
X190722564Y-72538444D01*
X190725645Y-72548275D01*
X190805770Y-72745603D01*
X190810413Y-72754794D01*
X190921694Y-72936388D01*
X190927777Y-72944699D01*
X191067213Y-73105667D01*
X191074580Y-73112883D01*
X191238434Y-73248916D01*
X191246881Y-73254831D01*
X191430756Y-73362279D01*
X191440042Y-73366729D01*
X191639001Y-73442703D01*
X191648899Y-73445579D01*
X191752250Y-73466606D01*
X191766299Y-73465410D01*
X191770000Y-73455065D01*
X191770000Y-73454517D01*
X192278000Y-73454517D01*
X192282064Y-73468359D01*
X192295478Y-73470393D01*
X192302184Y-73469534D01*
X192312262Y-73467392D01*
X192516255Y-73406191D01*
X192525842Y-73402433D01*
X192717095Y-73308739D01*
X192725945Y-73303464D01*
X192899328Y-73179792D01*
X192907200Y-73173139D01*
X193058052Y-73022812D01*
X193064730Y-73014965D01*
X193189003Y-72842020D01*
X193194313Y-72833183D01*
X193288670Y-72642267D01*
X193292469Y-72632672D01*
X193333593Y-72497319D01*
X193372534Y-72437955D01*
X193437388Y-72409068D01*
X193507564Y-72419830D01*
X193560782Y-72466823D01*
X193575270Y-72499218D01*
X193580186Y-72516361D01*
X193582544Y-72524586D01*
X193585359Y-72530063D01*
X193585360Y-72530066D01*
X193673897Y-72702341D01*
X193676712Y-72707818D01*
X193804677Y-72869270D01*
X193809370Y-72873264D01*
X193809371Y-72873265D01*
X193883541Y-72936388D01*
X193961564Y-73002791D01*
X193966942Y-73005797D01*
X193966944Y-73005798D01*
X193988691Y-73017952D01*
X194141398Y-73103297D01*
X194225280Y-73130552D01*
X194331471Y-73165056D01*
X194331475Y-73165057D01*
X194337329Y-73166959D01*
X194541894Y-73191351D01*
X194548029Y-73190879D01*
X194548031Y-73190879D01*
X194620625Y-73185293D01*
X194747300Y-73175546D01*
X194753230Y-73173890D01*
X194753232Y-73173890D01*
X194939797Y-73121800D01*
X194939796Y-73121800D01*
X194945725Y-73120145D01*
X194951214Y-73117372D01*
X194951220Y-73117370D01*
X195097947Y-73043252D01*
X195129610Y-73027258D01*
X195145345Y-73014965D01*
X195245919Y-72936388D01*
X195291951Y-72900424D01*
X195303979Y-72886490D01*
X195422540Y-72749134D01*
X195422540Y-72749133D01*
X195426564Y-72744472D01*
X195433097Y-72732973D01*
X195465056Y-72676714D01*
X195528323Y-72565344D01*
X195593351Y-72369863D01*
X195619171Y-72165474D01*
X195619422Y-72147509D01*
X195619534Y-72139522D01*
X195619534Y-72139518D01*
X195619583Y-72136000D01*
X195618138Y-72121262D01*
X196048520Y-72121262D01*
X196049036Y-72127406D01*
X196064883Y-72316116D01*
X196065759Y-72326553D01*
X196067458Y-72332478D01*
X196120186Y-72516361D01*
X196122544Y-72524586D01*
X196125359Y-72530063D01*
X196125360Y-72530066D01*
X196213897Y-72702341D01*
X196216712Y-72707818D01*
X196344677Y-72869270D01*
X196349370Y-72873264D01*
X196349371Y-72873265D01*
X196423541Y-72936388D01*
X196501564Y-73002791D01*
X196506942Y-73005797D01*
X196506944Y-73005798D01*
X196528691Y-73017952D01*
X196681398Y-73103297D01*
X196765280Y-73130552D01*
X196871471Y-73165056D01*
X196871475Y-73165057D01*
X196877329Y-73166959D01*
X197081894Y-73191351D01*
X197088029Y-73190879D01*
X197088031Y-73190879D01*
X197160625Y-73185293D01*
X197287300Y-73175546D01*
X197293230Y-73173890D01*
X197293232Y-73173890D01*
X197479797Y-73121800D01*
X197479796Y-73121800D01*
X197485725Y-73120145D01*
X197491214Y-73117372D01*
X197491220Y-73117370D01*
X197637947Y-73043252D01*
X197669610Y-73027258D01*
X197685345Y-73014965D01*
X197785919Y-72936388D01*
X197831951Y-72900424D01*
X197843979Y-72886490D01*
X197962540Y-72749134D01*
X197962540Y-72749133D01*
X197966564Y-72744472D01*
X197973097Y-72732973D01*
X198005056Y-72676714D01*
X198068323Y-72565344D01*
X198133351Y-72369863D01*
X198159171Y-72165474D01*
X198159422Y-72147509D01*
X198159534Y-72139522D01*
X198159534Y-72139518D01*
X198159583Y-72136000D01*
X198139480Y-71930970D01*
X198079935Y-71733749D01*
X197983218Y-71551849D01*
X197904797Y-71455696D01*
X197856906Y-71396975D01*
X197856903Y-71396972D01*
X197853011Y-71392200D01*
X197835786Y-71377950D01*
X197699025Y-71264811D01*
X197699021Y-71264809D01*
X197694275Y-71260882D01*
X197513055Y-71162897D01*
X197316254Y-71101977D01*
X197310129Y-71101333D01*
X197310128Y-71101333D01*
X197117498Y-71081087D01*
X197117496Y-71081087D01*
X197111369Y-71080443D01*
X197024529Y-71088346D01*
X196912342Y-71098555D01*
X196912339Y-71098556D01*
X196906203Y-71099114D01*
X196708572Y-71157280D01*
X196526002Y-71252726D01*
X196521201Y-71256586D01*
X196521198Y-71256588D01*
X196370254Y-71377950D01*
X196365447Y-71381815D01*
X196233024Y-71539630D01*
X196230056Y-71545028D01*
X196230053Y-71545033D01*
X196145062Y-71699632D01*
X196133776Y-71720162D01*
X196071484Y-71916532D01*
X196070798Y-71922649D01*
X196070797Y-71922653D01*
X196055245Y-72061305D01*
X196048520Y-72121262D01*
X195618138Y-72121262D01*
X195599480Y-71930970D01*
X195539935Y-71733749D01*
X195443218Y-71551849D01*
X195364797Y-71455696D01*
X195316906Y-71396975D01*
X195316903Y-71396972D01*
X195313011Y-71392200D01*
X195295786Y-71377950D01*
X195159025Y-71264811D01*
X195159021Y-71264809D01*
X195154275Y-71260882D01*
X194973055Y-71162897D01*
X194776254Y-71101977D01*
X194770129Y-71101333D01*
X194770128Y-71101333D01*
X194577498Y-71081087D01*
X194577496Y-71081087D01*
X194571369Y-71080443D01*
X194484529Y-71088346D01*
X194372342Y-71098555D01*
X194372339Y-71098556D01*
X194366203Y-71099114D01*
X194168572Y-71157280D01*
X193986002Y-71252726D01*
X193981201Y-71256586D01*
X193981198Y-71256588D01*
X193830254Y-71377950D01*
X193825447Y-71381815D01*
X193693024Y-71539630D01*
X193690056Y-71545028D01*
X193690053Y-71545033D01*
X193605062Y-71699632D01*
X193593776Y-71720162D01*
X193591914Y-71726032D01*
X193575068Y-71779138D01*
X193535405Y-71838022D01*
X193470202Y-71866114D01*
X193400163Y-71854497D01*
X193347523Y-71806857D01*
X193332762Y-71771735D01*
X193315214Y-71701875D01*
X193311894Y-71692124D01*
X193226972Y-71496814D01*
X193222105Y-71487739D01*
X193106426Y-71308926D01*
X193100136Y-71300757D01*
X192956806Y-71143240D01*
X192949273Y-71136215D01*
X192782139Y-71004222D01*
X192773552Y-70998517D01*
X192587117Y-70895599D01*
X192577705Y-70891369D01*
X192376959Y-70820280D01*
X192366988Y-70817646D01*
X192295837Y-70804972D01*
X192282540Y-70806432D01*
X192278000Y-70820989D01*
X192278000Y-73454517D01*
X191770000Y-73454517D01*
X191770000Y-70819102D01*
X191766082Y-70805758D01*
X191751806Y-70803771D01*
X191713324Y-70809660D01*
X191703288Y-70812051D01*
X191500868Y-70878212D01*
X191491359Y-70882209D01*
X191302463Y-70980542D01*
X191293738Y-70986036D01*
X191123433Y-71113905D01*
X191115726Y-71120748D01*
X190968590Y-71274717D01*
X190962104Y-71282727D01*
X190842098Y-71458649D01*
X190837000Y-71467623D01*
X190747338Y-71660783D01*
X190743775Y-71670470D01*
X190715012Y-71774185D01*
X190677533Y-71834483D01*
X190613405Y-71864946D01*
X190542986Y-71855903D01*
X190488636Y-71810224D01*
X190472973Y-71776933D01*
X190472143Y-71774185D01*
X190459935Y-71733749D01*
X190363218Y-71551849D01*
X190284797Y-71455696D01*
X190236906Y-71396975D01*
X190236903Y-71396972D01*
X190233011Y-71392200D01*
X190215786Y-71377950D01*
X190079025Y-71264811D01*
X190079021Y-71264809D01*
X190074275Y-71260882D01*
X189893055Y-71162897D01*
X189696254Y-71101977D01*
X189690129Y-71101333D01*
X189690128Y-71101333D01*
X189497498Y-71081087D01*
X189497496Y-71081087D01*
X189491369Y-71080443D01*
X189404529Y-71088346D01*
X189292342Y-71098555D01*
X189292339Y-71098556D01*
X189286203Y-71099114D01*
X189088572Y-71157280D01*
X188906002Y-71252726D01*
X188901201Y-71256586D01*
X188901198Y-71256588D01*
X188750254Y-71377950D01*
X188745447Y-71381815D01*
X188613024Y-71539630D01*
X188610056Y-71545028D01*
X188610053Y-71545033D01*
X188525062Y-71699632D01*
X188513776Y-71720162D01*
X188451484Y-71916532D01*
X188450798Y-71922649D01*
X188450797Y-71922653D01*
X188435245Y-72061305D01*
X188428520Y-72121262D01*
X187994500Y-72121262D01*
X187994500Y-71266252D01*
X187982867Y-71207769D01*
X187938552Y-71141448D01*
X187872231Y-71097133D01*
X187860062Y-71094712D01*
X187860061Y-71094712D01*
X187819816Y-71086707D01*
X187813748Y-71085500D01*
X186074252Y-71085500D01*
X186068184Y-71086707D01*
X186027939Y-71094712D01*
X186027938Y-71094712D01*
X186015769Y-71097133D01*
X185949448Y-71141448D01*
X185905133Y-71207769D01*
X185893500Y-71266252D01*
X185893500Y-73005748D01*
X184487497Y-73005748D01*
X184501682Y-72898000D01*
X184481044Y-72741238D01*
X184420536Y-72595159D01*
X184324282Y-72469718D01*
X184198841Y-72373464D01*
X184052762Y-72312956D01*
X183896000Y-72292318D01*
X183739238Y-72312956D01*
X183593159Y-72373464D01*
X183467718Y-72469718D01*
X183371464Y-72595159D01*
X183310956Y-72741238D01*
X183290318Y-72898000D01*
X174566827Y-72898000D01*
X174522172Y-72862015D01*
X174499751Y-72794651D01*
X174508044Y-72748680D01*
X174507676Y-72748581D01*
X174508855Y-72744179D01*
X174509259Y-72741942D01*
X174509814Y-72740602D01*
X174512974Y-72732973D01*
X174533612Y-72576211D01*
X174512974Y-72419449D01*
X174502022Y-72393007D01*
X174471784Y-72320007D01*
X174464195Y-72249417D01*
X174495974Y-72185930D01*
X174532493Y-72160575D01*
X174532060Y-72159825D01*
X174539211Y-72155697D01*
X174546841Y-72152536D01*
X174672282Y-72056282D01*
X174768536Y-71930841D01*
X174829044Y-71784762D01*
X174830437Y-71774185D01*
X174848604Y-71636188D01*
X174849682Y-71628000D01*
X174829044Y-71471238D01*
X174768536Y-71325159D01*
X174672282Y-71199718D01*
X174595566Y-71140852D01*
X174553700Y-71083515D01*
X174549478Y-71012644D01*
X174583176Y-70951795D01*
X175474255Y-70060716D01*
X175476289Y-70058960D01*
X175481072Y-70056622D01*
X175514376Y-70020720D01*
X175517656Y-70017315D01*
X175531051Y-70003920D01*
X175533775Y-69999950D01*
X175536100Y-69997302D01*
X175549293Y-69983079D01*
X175557204Y-69974551D01*
X175561516Y-69963744D01*
X175564035Y-69959759D01*
X175569807Y-69948950D01*
X175571714Y-69944645D01*
X175578296Y-69935051D01*
X175583989Y-69911061D01*
X175589554Y-69893465D01*
X175595389Y-69878839D01*
X175598686Y-69870575D01*
X175599303Y-69864282D01*
X175599303Y-69861200D01*
X175599453Y-69858130D01*
X175599669Y-69858141D01*
X175601001Y-69846766D01*
X175601456Y-69837452D01*
X175604143Y-69826131D01*
X175600454Y-69799024D01*
X175599303Y-69782033D01*
X175599303Y-68875666D01*
X175619305Y-68807545D01*
X175648599Y-68775703D01*
X175720539Y-68720502D01*
X175727085Y-68715479D01*
X175748364Y-68687748D01*
X185903500Y-68687748D01*
X185904707Y-68693816D01*
X185908331Y-68712033D01*
X185915133Y-68746231D01*
X185959448Y-68812552D01*
X186025769Y-68856867D01*
X186037938Y-68859288D01*
X186037939Y-68859288D01*
X186078184Y-68867293D01*
X186084252Y-68868500D01*
X187823748Y-68868500D01*
X187829816Y-68867293D01*
X187870061Y-68859288D01*
X187870062Y-68859288D01*
X187882231Y-68856867D01*
X187948552Y-68812552D01*
X187992867Y-68746231D01*
X187999670Y-68712033D01*
X188003293Y-68693816D01*
X188004500Y-68687748D01*
X188004500Y-67803262D01*
X188438520Y-67803262D01*
X188439036Y-67809406D01*
X188453333Y-67979657D01*
X188455759Y-68008553D01*
X188457458Y-68014478D01*
X188503395Y-68174678D01*
X188512544Y-68206586D01*
X188515359Y-68212063D01*
X188515360Y-68212066D01*
X188603897Y-68384341D01*
X188606712Y-68389818D01*
X188734677Y-68551270D01*
X188739370Y-68555264D01*
X188739371Y-68555265D01*
X188813541Y-68618388D01*
X188891564Y-68684791D01*
X188896942Y-68687797D01*
X188896944Y-68687798D01*
X188955461Y-68720502D01*
X189071398Y-68785297D01*
X189155280Y-68812552D01*
X189261471Y-68847056D01*
X189261475Y-68847057D01*
X189267329Y-68848959D01*
X189471894Y-68873351D01*
X189478029Y-68872879D01*
X189478031Y-68872879D01*
X189550625Y-68867293D01*
X189677300Y-68857546D01*
X189683230Y-68855890D01*
X189683232Y-68855890D01*
X189869797Y-68803800D01*
X189869796Y-68803800D01*
X189875725Y-68802145D01*
X189881214Y-68799372D01*
X189881220Y-68799370D01*
X190013952Y-68732322D01*
X190059610Y-68709258D01*
X190075345Y-68696965D01*
X190199844Y-68599696D01*
X190221951Y-68582424D01*
X190279992Y-68515183D01*
X190352540Y-68431134D01*
X190352540Y-68431133D01*
X190356564Y-68426472D01*
X190377387Y-68389818D01*
X190412556Y-68327908D01*
X190458323Y-68247344D01*
X190523351Y-68051863D01*
X190549171Y-67847474D01*
X190549583Y-67818000D01*
X190548138Y-67803262D01*
X190978520Y-67803262D01*
X190979036Y-67809406D01*
X190993333Y-67979657D01*
X190995759Y-68008553D01*
X190997458Y-68014478D01*
X191043395Y-68174678D01*
X191052544Y-68206586D01*
X191055359Y-68212063D01*
X191055360Y-68212066D01*
X191143897Y-68384341D01*
X191146712Y-68389818D01*
X191274677Y-68551270D01*
X191279370Y-68555264D01*
X191279371Y-68555265D01*
X191353541Y-68618388D01*
X191431564Y-68684791D01*
X191436942Y-68687797D01*
X191436944Y-68687798D01*
X191495461Y-68720502D01*
X191611398Y-68785297D01*
X191695280Y-68812552D01*
X191801471Y-68847056D01*
X191801475Y-68847057D01*
X191807329Y-68848959D01*
X192011894Y-68873351D01*
X192018029Y-68872879D01*
X192018031Y-68872879D01*
X192090625Y-68867293D01*
X192217300Y-68857546D01*
X192223230Y-68855890D01*
X192223232Y-68855890D01*
X192409797Y-68803800D01*
X192409796Y-68803800D01*
X192415725Y-68802145D01*
X192421214Y-68799372D01*
X192421220Y-68799370D01*
X192553952Y-68732322D01*
X192599610Y-68709258D01*
X192615345Y-68696965D01*
X192739844Y-68599696D01*
X192761951Y-68582424D01*
X192819992Y-68515183D01*
X192892540Y-68431134D01*
X192892540Y-68431133D01*
X192896564Y-68426472D01*
X192917387Y-68389818D01*
X192952556Y-68327908D01*
X192998323Y-68247344D01*
X193007271Y-68220444D01*
X193022496Y-68174678D01*
X193062978Y-68116354D01*
X193128566Y-68089175D01*
X193198437Y-68101770D01*
X193250406Y-68150141D01*
X193264971Y-68186751D01*
X193272564Y-68220444D01*
X193275645Y-68230275D01*
X193355770Y-68427603D01*
X193360413Y-68436794D01*
X193471694Y-68618388D01*
X193477777Y-68626699D01*
X193617213Y-68787667D01*
X193624580Y-68794883D01*
X193788434Y-68930916D01*
X193796881Y-68936831D01*
X193980756Y-69044279D01*
X193990042Y-69048729D01*
X194189001Y-69124703D01*
X194198899Y-69127579D01*
X194302250Y-69148606D01*
X194316299Y-69147410D01*
X194320000Y-69137065D01*
X194320000Y-69136517D01*
X194828000Y-69136517D01*
X194832064Y-69150359D01*
X194845478Y-69152393D01*
X194852184Y-69151534D01*
X194862262Y-69149392D01*
X195066255Y-69088191D01*
X195075842Y-69084433D01*
X195267095Y-68990739D01*
X195275945Y-68985464D01*
X195449328Y-68861792D01*
X195457200Y-68855139D01*
X195608052Y-68704812D01*
X195614730Y-68696965D01*
X195739003Y-68524020D01*
X195744313Y-68515183D01*
X195838670Y-68324267D01*
X195842469Y-68314672D01*
X195904377Y-68110910D01*
X195906555Y-68100837D01*
X195907986Y-68089962D01*
X195905775Y-68075778D01*
X195892617Y-68072000D01*
X194846115Y-68072000D01*
X194830876Y-68076475D01*
X194829671Y-68077865D01*
X194828000Y-68085548D01*
X194828000Y-69136517D01*
X194320000Y-69136517D01*
X194320000Y-67545885D01*
X194828000Y-67545885D01*
X194832475Y-67561124D01*
X194833865Y-67562329D01*
X194841548Y-67564000D01*
X195892344Y-67564000D01*
X195905875Y-67560027D01*
X195907180Y-67550947D01*
X195865214Y-67383875D01*
X195861894Y-67374124D01*
X195776972Y-67178814D01*
X195772105Y-67169739D01*
X195656426Y-66990926D01*
X195650136Y-66982757D01*
X195506806Y-66825240D01*
X195499273Y-66818215D01*
X195332139Y-66686222D01*
X195323552Y-66680517D01*
X195137117Y-66577599D01*
X195127705Y-66573369D01*
X194926959Y-66502280D01*
X194916988Y-66499646D01*
X194845837Y-66486972D01*
X194832540Y-66488432D01*
X194828000Y-66502989D01*
X194828000Y-67545885D01*
X194320000Y-67545885D01*
X194320000Y-66501102D01*
X194316082Y-66487758D01*
X194301806Y-66485771D01*
X194263324Y-66491660D01*
X194253288Y-66494051D01*
X194050868Y-66560212D01*
X194041359Y-66564209D01*
X193852463Y-66662542D01*
X193843738Y-66668036D01*
X193673433Y-66795905D01*
X193665726Y-66802748D01*
X193518590Y-66956717D01*
X193512104Y-66964727D01*
X193392098Y-67140649D01*
X193387000Y-67149623D01*
X193297338Y-67342783D01*
X193293775Y-67352470D01*
X193265012Y-67456185D01*
X193227533Y-67516483D01*
X193163405Y-67546946D01*
X193092986Y-67537903D01*
X193038636Y-67492224D01*
X193022973Y-67458933D01*
X193020142Y-67449557D01*
X193009935Y-67415749D01*
X192913218Y-67233849D01*
X192828007Y-67129370D01*
X192786906Y-67078975D01*
X192786903Y-67078972D01*
X192783011Y-67074200D01*
X192747664Y-67044958D01*
X192629025Y-66946811D01*
X192629021Y-66946809D01*
X192624275Y-66942882D01*
X192443055Y-66844897D01*
X192246254Y-66783977D01*
X192240129Y-66783333D01*
X192240128Y-66783333D01*
X192047498Y-66763087D01*
X192047496Y-66763087D01*
X192041369Y-66762443D01*
X191954529Y-66770346D01*
X191842342Y-66780555D01*
X191842339Y-66780556D01*
X191836203Y-66781114D01*
X191638572Y-66839280D01*
X191456002Y-66934726D01*
X191451201Y-66938586D01*
X191451198Y-66938588D01*
X191300254Y-67059950D01*
X191295447Y-67063815D01*
X191163024Y-67221630D01*
X191160056Y-67227028D01*
X191160053Y-67227033D01*
X191091094Y-67352470D01*
X191063776Y-67402162D01*
X191061913Y-67408035D01*
X191006415Y-67582989D01*
X191001484Y-67598532D01*
X191000798Y-67604649D01*
X191000797Y-67604653D01*
X190989094Y-67708989D01*
X190978520Y-67803262D01*
X190548138Y-67803262D01*
X190529480Y-67612970D01*
X190469935Y-67415749D01*
X190373218Y-67233849D01*
X190288007Y-67129370D01*
X190246906Y-67078975D01*
X190246903Y-67078972D01*
X190243011Y-67074200D01*
X190207664Y-67044958D01*
X190089025Y-66946811D01*
X190089021Y-66946809D01*
X190084275Y-66942882D01*
X189903055Y-66844897D01*
X189706254Y-66783977D01*
X189700129Y-66783333D01*
X189700128Y-66783333D01*
X189507498Y-66763087D01*
X189507496Y-66763087D01*
X189501369Y-66762443D01*
X189414529Y-66770346D01*
X189302342Y-66780555D01*
X189302339Y-66780556D01*
X189296203Y-66781114D01*
X189098572Y-66839280D01*
X188916002Y-66934726D01*
X188911201Y-66938586D01*
X188911198Y-66938588D01*
X188760254Y-67059950D01*
X188755447Y-67063815D01*
X188623024Y-67221630D01*
X188620056Y-67227028D01*
X188620053Y-67227033D01*
X188551094Y-67352470D01*
X188523776Y-67402162D01*
X188521913Y-67408035D01*
X188466415Y-67582989D01*
X188461484Y-67598532D01*
X188460798Y-67604649D01*
X188460797Y-67604653D01*
X188449094Y-67708989D01*
X188438520Y-67803262D01*
X188004500Y-67803262D01*
X188004500Y-66948252D01*
X187992867Y-66889769D01*
X187948552Y-66823448D01*
X187882231Y-66779133D01*
X187870062Y-66776712D01*
X187870061Y-66776712D01*
X187829816Y-66768707D01*
X187823748Y-66767500D01*
X186084252Y-66767500D01*
X186078184Y-66768707D01*
X186037939Y-66776712D01*
X186037938Y-66776712D01*
X186025769Y-66779133D01*
X185959448Y-66823448D01*
X185915133Y-66889769D01*
X185903500Y-66948252D01*
X185903500Y-68687748D01*
X175748364Y-68687748D01*
X175823339Y-68590038D01*
X175883847Y-68443959D01*
X175904485Y-68287197D01*
X175883847Y-68130435D01*
X175878015Y-68116354D01*
X175875420Y-68110090D01*
X175871745Y-68101218D01*
X175864155Y-68030629D01*
X175895933Y-67967142D01*
X175956991Y-67930913D01*
X175988153Y-67926999D01*
X176053732Y-67926999D01*
X176121853Y-67947001D01*
X176168346Y-68000657D01*
X176176575Y-68055553D01*
X176179396Y-68055553D01*
X176179396Y-68063812D01*
X176178318Y-68072000D01*
X176198956Y-68228762D01*
X176259464Y-68374841D01*
X176355718Y-68500282D01*
X176481159Y-68596536D01*
X176627238Y-68657044D01*
X176784000Y-68677682D01*
X176792188Y-68676604D01*
X176932574Y-68658122D01*
X176940762Y-68657044D01*
X177086841Y-68596536D01*
X177212282Y-68500282D01*
X177308536Y-68374841D01*
X177369044Y-68228762D01*
X177389682Y-68072000D01*
X177369044Y-67915238D01*
X177308536Y-67769159D01*
X177212282Y-67643718D01*
X177086841Y-67547464D01*
X176940762Y-67486956D01*
X176784000Y-67466318D01*
X176775812Y-67467396D01*
X176687707Y-67478995D01*
X176617558Y-67468056D01*
X176585884Y-67442117D01*
X176583924Y-67444230D01*
X176548022Y-67410926D01*
X176544617Y-67407646D01*
X176531222Y-67394251D01*
X176527252Y-67391527D01*
X176524604Y-67389202D01*
X176510380Y-67376007D01*
X176510377Y-67376005D01*
X176501853Y-67368098D01*
X176491049Y-67363788D01*
X176487060Y-67361266D01*
X176476272Y-67355505D01*
X176471947Y-67353588D01*
X176462353Y-67347007D01*
X176451034Y-67344321D01*
X176451032Y-67344320D01*
X176438372Y-67341316D01*
X176420775Y-67335751D01*
X176406137Y-67329911D01*
X176406134Y-67329910D01*
X176397877Y-67326616D01*
X176391584Y-67325999D01*
X176388505Y-67325999D01*
X176385432Y-67325849D01*
X176385443Y-67325633D01*
X176374068Y-67324301D01*
X176364753Y-67323845D01*
X176353433Y-67321159D01*
X176341904Y-67322728D01*
X176341903Y-67322728D01*
X176326326Y-67324848D01*
X176309335Y-67325999D01*
X175801618Y-67325999D01*
X175733497Y-67305997D01*
X175687004Y-67252341D01*
X175676900Y-67182067D01*
X175685207Y-67151786D01*
X175729457Y-67044958D01*
X175750095Y-66888196D01*
X175730519Y-66739500D01*
X177956318Y-66739500D01*
X177976956Y-66896262D01*
X178037464Y-67042341D01*
X178133718Y-67167782D01*
X178259159Y-67264036D01*
X178405238Y-67324544D01*
X178413426Y-67325622D01*
X178483619Y-67334863D01*
X178562000Y-67345182D01*
X178570188Y-67344104D01*
X178607598Y-67339179D01*
X178640381Y-67334863D01*
X178710574Y-67325622D01*
X178718762Y-67324544D01*
X178864841Y-67264036D01*
X178990282Y-67167782D01*
X179086536Y-67042341D01*
X179147044Y-66896262D01*
X179154775Y-66837540D01*
X179164479Y-66763832D01*
X179193202Y-66698905D01*
X179252467Y-66659814D01*
X179323459Y-66658969D01*
X179383637Y-66696640D01*
X179389357Y-66703566D01*
X179403718Y-66722282D01*
X179529159Y-66818536D01*
X179675238Y-66879044D01*
X179832000Y-66899682D01*
X179840188Y-66898604D01*
X179857978Y-66896262D01*
X179988762Y-66879044D01*
X180134841Y-66818536D01*
X180260282Y-66722282D01*
X180356536Y-66596841D01*
X180417044Y-66450762D01*
X180437682Y-66294000D01*
X182274318Y-66294000D01*
X182294956Y-66450762D01*
X182355464Y-66596841D01*
X182451718Y-66722282D01*
X182577159Y-66818536D01*
X182723238Y-66879044D01*
X182880000Y-66899682D01*
X182888188Y-66898604D01*
X182905978Y-66896262D01*
X183036762Y-66879044D01*
X183182841Y-66818536D01*
X183308282Y-66722282D01*
X183404536Y-66596841D01*
X183465044Y-66450762D01*
X183485682Y-66294000D01*
X183465044Y-66137238D01*
X183404536Y-65991159D01*
X183308282Y-65865718D01*
X183182841Y-65769464D01*
X183036762Y-65708956D01*
X182880000Y-65688318D01*
X182723238Y-65708956D01*
X182577159Y-65769464D01*
X182451718Y-65865718D01*
X182355464Y-65991159D01*
X182294956Y-66137238D01*
X182274318Y-66294000D01*
X180437682Y-66294000D01*
X180417044Y-66137238D01*
X180356536Y-65991159D01*
X180260282Y-65865718D01*
X180134841Y-65769464D01*
X179988762Y-65708956D01*
X179832000Y-65688318D01*
X179675238Y-65708956D01*
X179529159Y-65769464D01*
X179403718Y-65865718D01*
X179307464Y-65991159D01*
X179246956Y-66137238D01*
X179245878Y-66145426D01*
X179229521Y-66269668D01*
X179200798Y-66334595D01*
X179141533Y-66373686D01*
X179070541Y-66374531D01*
X179010363Y-66336860D01*
X179004643Y-66329934D01*
X178990282Y-66311218D01*
X178864841Y-66214964D01*
X178718762Y-66154456D01*
X178562000Y-66133818D01*
X178405238Y-66154456D01*
X178259159Y-66214964D01*
X178133718Y-66311218D01*
X178037464Y-66436659D01*
X177976956Y-66582738D01*
X177956318Y-66739500D01*
X175730519Y-66739500D01*
X175729457Y-66731434D01*
X175722956Y-66715738D01*
X175715045Y-66696640D01*
X175668949Y-66585355D01*
X175598889Y-66494051D01*
X175577718Y-66466460D01*
X175572695Y-66459914D01*
X175447254Y-66363660D01*
X175301175Y-66303152D01*
X175144413Y-66282514D01*
X174987651Y-66303152D01*
X174841572Y-66363660D01*
X174716131Y-66459914D01*
X174711108Y-66466460D01*
X174711105Y-66466463D01*
X174664627Y-66527035D01*
X174607289Y-66568903D01*
X174536418Y-66573125D01*
X174487960Y-66550295D01*
X174457647Y-66527035D01*
X174365411Y-66456260D01*
X174219332Y-66395752D01*
X174062570Y-66375114D01*
X173905808Y-66395752D01*
X173759729Y-66456260D01*
X173634288Y-66552514D01*
X173538034Y-66677955D01*
X173477526Y-66824034D01*
X173456888Y-66980796D01*
X173477526Y-67137558D01*
X173538034Y-67283637D01*
X173634288Y-67409078D01*
X173640834Y-67414101D01*
X173730659Y-67483026D01*
X173772526Y-67540364D01*
X173776748Y-67611235D01*
X173741984Y-67673138D01*
X173679271Y-67706419D01*
X173653955Y-67708989D01*
X168528000Y-67708989D01*
X168459879Y-67688987D01*
X168413386Y-67635331D01*
X168402000Y-67582989D01*
X168402000Y-63863088D01*
X168417933Y-63803627D01*
X168418536Y-63802841D01*
X168469371Y-63680116D01*
X168475884Y-63664391D01*
X168479044Y-63656762D01*
X168494177Y-63541814D01*
X168522899Y-63476887D01*
X168582164Y-63437795D01*
X168653156Y-63436950D01*
X168708194Y-63469165D01*
X169423844Y-64184815D01*
X169457870Y-64247127D01*
X169460749Y-64273910D01*
X169460749Y-64600282D01*
X169440747Y-64668403D01*
X169411454Y-64700244D01*
X169332967Y-64760469D01*
X169236713Y-64885910D01*
X169176205Y-65031989D01*
X169155567Y-65188751D01*
X169176205Y-65345513D01*
X169236713Y-65491592D01*
X169332967Y-65617033D01*
X169458408Y-65713287D01*
X169604487Y-65773795D01*
X169761249Y-65794433D01*
X169769437Y-65793355D01*
X169909823Y-65774873D01*
X169918011Y-65773795D01*
X170064090Y-65713287D01*
X170189531Y-65617033D01*
X170285785Y-65491592D01*
X170346293Y-65345513D01*
X170366931Y-65188751D01*
X170346293Y-65031989D01*
X170285785Y-64885910D01*
X170189531Y-64760469D01*
X170111045Y-64700244D01*
X170069178Y-64642907D01*
X170061749Y-64600282D01*
X170061749Y-64262000D01*
X173638318Y-64262000D01*
X173658956Y-64418762D01*
X173719464Y-64564841D01*
X173815718Y-64690282D01*
X173822264Y-64695305D01*
X173840350Y-64709183D01*
X173941159Y-64786536D01*
X174087238Y-64847044D01*
X174244000Y-64867682D01*
X174252188Y-64866604D01*
X174392574Y-64848122D01*
X174400762Y-64847044D01*
X174546841Y-64786536D01*
X174647650Y-64709183D01*
X174665736Y-64695305D01*
X174672282Y-64690282D01*
X174768536Y-64564841D01*
X174829044Y-64418762D01*
X174849682Y-64262000D01*
X174829044Y-64105238D01*
X174768536Y-63959159D01*
X174672282Y-63833718D01*
X174660461Y-63824647D01*
X195555520Y-63824647D01*
X195556036Y-63830791D01*
X195571030Y-64009344D01*
X195572759Y-64029938D01*
X195574458Y-64035863D01*
X195627752Y-64221720D01*
X195629544Y-64227971D01*
X195632359Y-64233448D01*
X195632360Y-64233451D01*
X195651240Y-64270188D01*
X195723712Y-64411203D01*
X195851677Y-64572655D01*
X195856370Y-64576649D01*
X195856371Y-64576650D01*
X195995791Y-64695305D01*
X196008564Y-64706176D01*
X196188398Y-64806682D01*
X196283238Y-64837498D01*
X196378471Y-64868441D01*
X196378475Y-64868442D01*
X196384329Y-64870344D01*
X196588894Y-64894736D01*
X196595029Y-64894264D01*
X196595031Y-64894264D01*
X196651039Y-64889954D01*
X196794300Y-64878931D01*
X196800230Y-64877275D01*
X196800232Y-64877275D01*
X196986797Y-64825185D01*
X196986796Y-64825185D01*
X196992725Y-64823530D01*
X196998214Y-64820757D01*
X196998220Y-64820755D01*
X197171116Y-64733418D01*
X197176610Y-64730643D01*
X197338951Y-64603809D01*
X197366933Y-64571392D01*
X197469540Y-64452519D01*
X197469540Y-64452518D01*
X197473564Y-64447857D01*
X197485759Y-64426391D01*
X197572276Y-64274092D01*
X197575323Y-64268729D01*
X197640351Y-64073248D01*
X197666171Y-63868859D01*
X197666583Y-63839385D01*
X197646480Y-63634355D01*
X197586935Y-63437134D01*
X197490218Y-63255234D01*
X197380979Y-63121294D01*
X197363906Y-63100360D01*
X197363903Y-63100357D01*
X197360011Y-63095585D01*
X197331161Y-63071718D01*
X197206025Y-62968196D01*
X197206021Y-62968194D01*
X197201275Y-62964267D01*
X197020055Y-62866282D01*
X196823254Y-62805362D01*
X196817129Y-62804718D01*
X196817128Y-62804718D01*
X196624498Y-62784472D01*
X196624496Y-62784472D01*
X196618369Y-62783828D01*
X196531529Y-62791731D01*
X196419342Y-62801940D01*
X196419339Y-62801941D01*
X196413203Y-62802499D01*
X196215572Y-62860665D01*
X196033002Y-62956111D01*
X196028201Y-62959971D01*
X196028198Y-62959973D01*
X195936529Y-63033677D01*
X195872447Y-63085200D01*
X195740024Y-63243015D01*
X195737056Y-63248413D01*
X195737053Y-63248418D01*
X195730315Y-63260675D01*
X195640776Y-63423547D01*
X195578484Y-63619917D01*
X195577798Y-63626034D01*
X195577797Y-63626038D01*
X195558275Y-63800088D01*
X195555520Y-63824647D01*
X174660461Y-63824647D01*
X174553392Y-63742491D01*
X174546841Y-63737464D01*
X174400762Y-63676956D01*
X174244000Y-63656318D01*
X174087238Y-63676956D01*
X173941159Y-63737464D01*
X173934608Y-63742491D01*
X173827540Y-63824647D01*
X173815718Y-63833718D01*
X173719464Y-63959159D01*
X173658956Y-64105238D01*
X173638318Y-64262000D01*
X170061749Y-64262000D01*
X170061749Y-64149615D01*
X170061945Y-64146942D01*
X170063674Y-64141907D01*
X170061838Y-64092994D01*
X170061749Y-64088268D01*
X170061749Y-64069301D01*
X170060867Y-64064566D01*
X170060639Y-64061040D01*
X170059911Y-64041664D01*
X170059475Y-64030041D01*
X170054885Y-64019356D01*
X170053848Y-64014756D01*
X170050287Y-64003035D01*
X170048588Y-63998632D01*
X170046458Y-63987196D01*
X170033521Y-63966208D01*
X170025018Y-63949838D01*
X170018798Y-63935361D01*
X170018796Y-63935357D01*
X170015285Y-63927186D01*
X170011271Y-63922300D01*
X170009086Y-63920115D01*
X170007034Y-63917852D01*
X170007194Y-63917707D01*
X170000074Y-63908700D01*
X169993822Y-63901805D01*
X169987717Y-63891901D01*
X169965929Y-63875333D01*
X169953110Y-63864139D01*
X168438905Y-62349934D01*
X168404879Y-62287622D01*
X168402000Y-62260839D01*
X168402000Y-62121480D01*
X168422002Y-62053359D01*
X168475658Y-62006866D01*
X168528000Y-61995480D01*
X168554798Y-61995480D01*
X168622919Y-62015482D01*
X168654760Y-62044775D01*
X168735718Y-62150282D01*
X168742264Y-62155305D01*
X168760350Y-62169183D01*
X168861159Y-62246536D01*
X169007238Y-62307044D01*
X169015426Y-62308122D01*
X169085619Y-62317363D01*
X169164000Y-62327682D01*
X169172188Y-62326604D01*
X169312574Y-62308122D01*
X169320762Y-62307044D01*
X169466841Y-62246536D01*
X169567650Y-62169183D01*
X169585736Y-62155305D01*
X169592282Y-62150282D01*
X169614383Y-62121480D01*
X169673239Y-62044776D01*
X169688536Y-62024841D01*
X169749044Y-61878762D01*
X169769682Y-61722000D01*
X169749044Y-61565238D01*
X169688536Y-61419159D01*
X169592282Y-61293718D01*
X169580461Y-61284647D01*
X195555520Y-61284647D01*
X195556036Y-61290791D01*
X195560604Y-61345184D01*
X195572759Y-61489938D01*
X195574458Y-61495863D01*
X195623000Y-61665148D01*
X195629544Y-61687971D01*
X195632359Y-61693448D01*
X195632360Y-61693451D01*
X195651240Y-61730188D01*
X195723712Y-61871203D01*
X195851677Y-62032655D01*
X195856370Y-62036649D01*
X195856371Y-62036650D01*
X195995791Y-62155305D01*
X196008564Y-62166176D01*
X196188398Y-62266682D01*
X196252845Y-62287622D01*
X196378471Y-62328441D01*
X196378475Y-62328442D01*
X196384329Y-62330344D01*
X196588894Y-62354736D01*
X196595029Y-62354264D01*
X196595031Y-62354264D01*
X196651302Y-62349934D01*
X196794300Y-62338931D01*
X196800230Y-62337275D01*
X196800232Y-62337275D01*
X196986797Y-62285185D01*
X196986796Y-62285185D01*
X196992725Y-62283530D01*
X196998214Y-62280757D01*
X196998220Y-62280755D01*
X197130952Y-62213707D01*
X197176610Y-62190643D01*
X197338951Y-62063809D01*
X197366933Y-62031392D01*
X197469540Y-61912519D01*
X197469540Y-61912518D01*
X197473564Y-61907857D01*
X197485759Y-61886391D01*
X197572276Y-61734092D01*
X197575323Y-61728729D01*
X197640351Y-61533248D01*
X197666171Y-61328859D01*
X197666583Y-61299385D01*
X197646480Y-61094355D01*
X197586935Y-60897134D01*
X197490218Y-60715234D01*
X197396703Y-60600574D01*
X197363906Y-60560360D01*
X197363903Y-60560357D01*
X197360011Y-60555585D01*
X197352876Y-60549682D01*
X197206025Y-60428196D01*
X197206021Y-60428194D01*
X197201275Y-60424267D01*
X197020055Y-60326282D01*
X196823254Y-60265362D01*
X196817129Y-60264718D01*
X196817128Y-60264718D01*
X196624498Y-60244472D01*
X196624496Y-60244472D01*
X196618369Y-60243828D01*
X196531529Y-60251731D01*
X196419342Y-60261940D01*
X196419339Y-60261941D01*
X196413203Y-60262499D01*
X196215572Y-60320665D01*
X196033002Y-60416111D01*
X196028201Y-60419971D01*
X196028198Y-60419973D01*
X195967798Y-60468536D01*
X195872447Y-60545200D01*
X195740024Y-60703015D01*
X195737056Y-60708413D01*
X195737053Y-60708418D01*
X195707931Y-60761392D01*
X195640776Y-60883547D01*
X195578484Y-61079917D01*
X195577798Y-61086034D01*
X195577797Y-61086038D01*
X195565299Y-61197464D01*
X195555520Y-61284647D01*
X169580461Y-61284647D01*
X169473392Y-61202491D01*
X169466841Y-61197464D01*
X169320762Y-61136956D01*
X169164000Y-61116318D01*
X169007238Y-61136956D01*
X168861159Y-61197464D01*
X168854608Y-61202491D01*
X168747540Y-61284647D01*
X168735718Y-61293718D01*
X168730695Y-61300264D01*
X168696227Y-61345184D01*
X168638889Y-61387051D01*
X168596264Y-61394480D01*
X168528000Y-61394480D01*
X168459879Y-61374478D01*
X168413386Y-61320822D01*
X168402000Y-61268480D01*
X168402000Y-59944000D01*
X169828318Y-59944000D01*
X169848956Y-60100762D01*
X169909464Y-60246841D01*
X170005718Y-60372282D01*
X170131159Y-60468536D01*
X170277238Y-60529044D01*
X170434000Y-60549682D01*
X170442188Y-60548604D01*
X170582574Y-60530122D01*
X170590762Y-60529044D01*
X170736841Y-60468536D01*
X170758391Y-60452000D01*
X186338318Y-60452000D01*
X186358956Y-60608762D01*
X186419464Y-60754841D01*
X186515718Y-60880282D01*
X186641159Y-60976536D01*
X186787238Y-61037044D01*
X186944000Y-61057682D01*
X186952188Y-61056604D01*
X187092574Y-61038122D01*
X187100762Y-61037044D01*
X187246841Y-60976536D01*
X187372282Y-60880282D01*
X187468536Y-60754841D01*
X187529044Y-60608762D01*
X187549682Y-60452000D01*
X187529044Y-60295238D01*
X187468536Y-60149159D01*
X187372282Y-60023718D01*
X187246841Y-59927464D01*
X187100762Y-59866956D01*
X186944000Y-59846318D01*
X186787238Y-59866956D01*
X186641159Y-59927464D01*
X186515718Y-60023718D01*
X186419464Y-60149159D01*
X186358956Y-60295238D01*
X186338318Y-60452000D01*
X170758391Y-60452000D01*
X170862282Y-60372282D01*
X170958536Y-60246841D01*
X171019044Y-60100762D01*
X171039682Y-59944000D01*
X171019044Y-59787238D01*
X170958536Y-59641159D01*
X170949308Y-59629133D01*
X195560500Y-59629133D01*
X195572133Y-59687616D01*
X195616448Y-59753937D01*
X195682769Y-59798252D01*
X195694938Y-59800673D01*
X195694939Y-59800673D01*
X195735184Y-59808678D01*
X195741252Y-59809885D01*
X197480748Y-59809885D01*
X197486816Y-59808678D01*
X197527061Y-59800673D01*
X197527062Y-59800673D01*
X197539231Y-59798252D01*
X197605552Y-59753937D01*
X197649867Y-59687616D01*
X197661500Y-59629133D01*
X197661500Y-57889637D01*
X197649867Y-57831154D01*
X197605552Y-57764833D01*
X197539231Y-57720518D01*
X197527062Y-57718097D01*
X197527061Y-57718097D01*
X197486816Y-57710092D01*
X197480748Y-57708885D01*
X195741252Y-57708885D01*
X195735184Y-57710092D01*
X195694939Y-57718097D01*
X195694938Y-57718097D01*
X195682769Y-57720518D01*
X195616448Y-57764833D01*
X195572133Y-57831154D01*
X195560500Y-57889637D01*
X195560500Y-59629133D01*
X170949308Y-59629133D01*
X170862282Y-59515718D01*
X170736841Y-59419464D01*
X170590762Y-59358956D01*
X170434000Y-59338318D01*
X170277238Y-59358956D01*
X170131159Y-59419464D01*
X170005718Y-59515718D01*
X169909464Y-59641159D01*
X169848956Y-59787238D01*
X169828318Y-59944000D01*
X168402000Y-59944000D01*
X168402000Y-57767088D01*
X168417933Y-57707627D01*
X168418536Y-57706841D01*
X168479044Y-57560762D01*
X168499682Y-57404000D01*
X168479044Y-57247238D01*
X168435960Y-57143223D01*
X168421696Y-57108787D01*
X168421695Y-57108785D01*
X168418536Y-57101159D01*
X168417933Y-57100373D01*
X168402000Y-57040912D01*
X168402000Y-56881000D01*
X181781318Y-56881000D01*
X181801956Y-57037762D01*
X181862464Y-57183841D01*
X181958718Y-57309282D01*
X182084159Y-57405536D01*
X182230238Y-57466044D01*
X182387000Y-57486682D01*
X182395188Y-57485604D01*
X182535574Y-57467122D01*
X182543762Y-57466044D01*
X182689841Y-57405536D01*
X182815282Y-57309282D01*
X182911536Y-57183841D01*
X182972044Y-57037762D01*
X182992682Y-56881000D01*
X182972044Y-56724238D01*
X182968193Y-56714941D01*
X183545851Y-56714941D01*
X183566489Y-56871703D01*
X183626997Y-57017782D01*
X183723251Y-57143223D01*
X183848692Y-57239477D01*
X183994771Y-57299985D01*
X184151533Y-57320623D01*
X184159721Y-57319545D01*
X184160147Y-57319489D01*
X184308295Y-57299985D01*
X184454374Y-57239477D01*
X184579815Y-57143223D01*
X184676069Y-57017782D01*
X184736577Y-56871703D01*
X184757215Y-56714941D01*
X184757208Y-56714885D01*
X188116318Y-56714885D01*
X188136956Y-56871647D01*
X188197464Y-57017726D01*
X188293718Y-57143167D01*
X188419159Y-57239421D01*
X188565238Y-57299929D01*
X188573426Y-57301007D01*
X188586559Y-57302736D01*
X188722000Y-57320567D01*
X188730188Y-57319489D01*
X188870574Y-57301007D01*
X188878762Y-57299929D01*
X189024841Y-57239421D01*
X189150282Y-57143167D01*
X189246536Y-57017726D01*
X189307044Y-56871647D01*
X189327682Y-56714885D01*
X189307044Y-56558123D01*
X189246536Y-56412044D01*
X189150282Y-56286603D01*
X189024841Y-56190349D01*
X188878762Y-56129841D01*
X188722000Y-56109203D01*
X188565238Y-56129841D01*
X188419159Y-56190349D01*
X188293718Y-56286603D01*
X188197464Y-56412044D01*
X188136956Y-56558123D01*
X188116318Y-56714885D01*
X184757208Y-56714885D01*
X184736577Y-56558179D01*
X184676069Y-56412100D01*
X184579815Y-56286659D01*
X184454374Y-56190405D01*
X184308295Y-56129897D01*
X184299682Y-56128763D01*
X184159721Y-56110337D01*
X184151533Y-56109259D01*
X184143345Y-56110337D01*
X184003385Y-56128763D01*
X183994771Y-56129897D01*
X183848692Y-56190405D01*
X183723251Y-56286659D01*
X183626997Y-56412100D01*
X183566489Y-56558179D01*
X183545851Y-56714941D01*
X182968193Y-56714941D01*
X182911536Y-56578159D01*
X182815282Y-56452718D01*
X182689841Y-56356464D01*
X182543762Y-56295956D01*
X182387000Y-56275318D01*
X182230238Y-56295956D01*
X182084159Y-56356464D01*
X181958718Y-56452718D01*
X181862464Y-56578159D01*
X181801956Y-56724238D01*
X181781318Y-56881000D01*
X168402000Y-56881000D01*
X168402000Y-55372000D01*
X169066318Y-55372000D01*
X169086956Y-55528762D01*
X169147464Y-55674841D01*
X169243718Y-55800282D01*
X169369159Y-55896536D01*
X169515238Y-55957044D01*
X169672000Y-55977682D01*
X169680188Y-55976604D01*
X169820574Y-55958122D01*
X169828762Y-55957044D01*
X169974841Y-55896536D01*
X170100282Y-55800282D01*
X170196536Y-55674841D01*
X170257044Y-55528762D01*
X170277682Y-55372000D01*
X170257044Y-55215238D01*
X170230346Y-55150784D01*
X180370500Y-55150784D01*
X180382133Y-55209267D01*
X180426448Y-55275588D01*
X180492769Y-55319903D01*
X180504938Y-55322324D01*
X180504939Y-55322324D01*
X180545184Y-55330329D01*
X180551252Y-55331536D01*
X182190748Y-55331536D01*
X182196816Y-55330329D01*
X182237061Y-55322324D01*
X182237062Y-55322324D01*
X182249231Y-55319903D01*
X182315552Y-55275588D01*
X182359867Y-55209267D01*
X182371500Y-55150784D01*
X182371500Y-55049810D01*
X190838500Y-55049810D01*
X190850133Y-55108293D01*
X190894448Y-55174614D01*
X190960769Y-55218929D01*
X190972938Y-55221350D01*
X190972939Y-55221350D01*
X191013184Y-55229355D01*
X191019252Y-55230562D01*
X193058748Y-55230562D01*
X193064816Y-55229355D01*
X193105061Y-55221350D01*
X193105062Y-55221350D01*
X193117231Y-55218929D01*
X193183552Y-55174614D01*
X193227867Y-55108293D01*
X193239500Y-55049810D01*
X193239500Y-53010314D01*
X193227867Y-52951831D01*
X193183552Y-52885510D01*
X193117231Y-52841195D01*
X193105062Y-52838774D01*
X193105061Y-52838774D01*
X193064816Y-52830769D01*
X193058748Y-52829562D01*
X191019252Y-52829562D01*
X191013184Y-52830769D01*
X190972939Y-52838774D01*
X190972938Y-52838774D01*
X190960769Y-52841195D01*
X190894448Y-52885510D01*
X190850133Y-52951831D01*
X190838500Y-53010314D01*
X190838500Y-55049810D01*
X182371500Y-55049810D01*
X182371500Y-53511288D01*
X182359867Y-53452805D01*
X182315552Y-53386484D01*
X182249231Y-53342169D01*
X182237062Y-53339748D01*
X182237061Y-53339748D01*
X182196816Y-53331743D01*
X182190748Y-53330536D01*
X180551252Y-53330536D01*
X180545184Y-53331743D01*
X180504939Y-53339748D01*
X180504938Y-53339748D01*
X180492769Y-53342169D01*
X180426448Y-53386484D01*
X180382133Y-53452805D01*
X180370500Y-53511288D01*
X180370500Y-55150784D01*
X170230346Y-55150784D01*
X170196536Y-55069159D01*
X170100282Y-54943718D01*
X169974841Y-54847464D01*
X169828762Y-54786956D01*
X169672000Y-54766318D01*
X169515238Y-54786956D01*
X169369159Y-54847464D01*
X169243718Y-54943718D01*
X169147464Y-55069159D01*
X169086956Y-55215238D01*
X169066318Y-55372000D01*
X168402000Y-55372000D01*
X168402000Y-51917098D01*
X180649493Y-51917098D01*
X180658789Y-51929113D01*
X180709994Y-51964967D01*
X180719489Y-51970450D01*
X180916947Y-52062526D01*
X180927239Y-52066272D01*
X181137688Y-52122661D01*
X181148481Y-52124564D01*
X181365525Y-52143553D01*
X181376475Y-52143553D01*
X181593519Y-52124564D01*
X181604312Y-52122661D01*
X181814761Y-52066272D01*
X181825053Y-52062526D01*
X182022511Y-51970450D01*
X182032006Y-51964967D01*
X182084048Y-51928527D01*
X182092424Y-51918048D01*
X182085356Y-51904602D01*
X181383812Y-51203058D01*
X181369868Y-51195444D01*
X181368035Y-51195575D01*
X181361420Y-51199826D01*
X180655923Y-51905323D01*
X180649493Y-51917098D01*
X168402000Y-51917098D01*
X168402000Y-51671088D01*
X168417933Y-51611627D01*
X168418536Y-51610841D01*
X168446535Y-51543247D01*
X168475884Y-51472391D01*
X168479044Y-51464762D01*
X168499682Y-51308000D01*
X168486563Y-51208351D01*
X168497502Y-51138203D01*
X168544630Y-51085104D01*
X168612984Y-51065914D01*
X168680862Y-51086725D01*
X168711448Y-51115201D01*
X168773121Y-51195575D01*
X168798218Y-51228282D01*
X168923659Y-51324536D01*
X169069738Y-51385044D01*
X169226500Y-51405682D01*
X169234688Y-51404604D01*
X169375074Y-51386122D01*
X169383262Y-51385044D01*
X169529341Y-51324536D01*
X169654782Y-51228282D01*
X169751036Y-51102841D01*
X169811544Y-50956762D01*
X169827375Y-50836511D01*
X180058483Y-50836511D01*
X180077472Y-51053555D01*
X180079375Y-51064348D01*
X180135764Y-51274797D01*
X180139510Y-51285089D01*
X180231586Y-51482547D01*
X180237069Y-51492042D01*
X180273509Y-51544084D01*
X180283988Y-51552460D01*
X180297434Y-51545392D01*
X180998978Y-50843848D01*
X181005356Y-50832168D01*
X181735408Y-50832168D01*
X181735539Y-50834001D01*
X181739790Y-50840616D01*
X182445287Y-51546113D01*
X182457062Y-51552543D01*
X182469077Y-51543247D01*
X182504931Y-51492042D01*
X182510414Y-51482547D01*
X182602490Y-51285089D01*
X182606236Y-51274797D01*
X182662625Y-51064348D01*
X182664528Y-51053555D01*
X182683517Y-50836511D01*
X182683517Y-50825561D01*
X182664528Y-50608517D01*
X182662625Y-50597724D01*
X182606236Y-50387275D01*
X182602490Y-50376983D01*
X182549214Y-50262732D01*
X191171160Y-50262732D01*
X191176887Y-50270382D01*
X191348042Y-50375267D01*
X191356837Y-50379749D01*
X191566988Y-50466796D01*
X191576373Y-50469845D01*
X191797554Y-50522947D01*
X191807301Y-50524490D01*
X192034070Y-50542337D01*
X192043930Y-50542337D01*
X192270699Y-50524490D01*
X192280446Y-50522947D01*
X192501627Y-50469845D01*
X192511012Y-50466796D01*
X192721163Y-50379749D01*
X192729958Y-50375267D01*
X192897445Y-50272630D01*
X192906907Y-50262172D01*
X192903124Y-50253396D01*
X192051812Y-49402084D01*
X192037868Y-49394470D01*
X192036035Y-49394601D01*
X192029420Y-49398852D01*
X191177920Y-50250352D01*
X191171160Y-50262732D01*
X182549214Y-50262732D01*
X182510414Y-50179525D01*
X182504931Y-50170030D01*
X182468491Y-50117988D01*
X182458012Y-50109612D01*
X182444566Y-50116680D01*
X181743022Y-50818224D01*
X181735408Y-50832168D01*
X181005356Y-50832168D01*
X181006592Y-50829904D01*
X181006461Y-50828071D01*
X181002210Y-50821456D01*
X180296713Y-50115959D01*
X180284938Y-50109529D01*
X180272923Y-50118825D01*
X180237069Y-50170030D01*
X180231586Y-50179525D01*
X180139510Y-50376983D01*
X180135764Y-50387275D01*
X180079375Y-50597724D01*
X180077472Y-50608517D01*
X180058483Y-50825561D01*
X180058483Y-50836511D01*
X169827375Y-50836511D01*
X169832182Y-50800000D01*
X169811544Y-50643238D01*
X169751036Y-50497159D01*
X169654782Y-50371718D01*
X169529341Y-50275464D01*
X169383262Y-50214956D01*
X169226500Y-50194318D01*
X169069738Y-50214956D01*
X168923659Y-50275464D01*
X168798218Y-50371718D01*
X168701964Y-50497159D01*
X168683251Y-50542337D01*
X168644409Y-50636109D01*
X168599861Y-50691390D01*
X168532497Y-50713811D01*
X168463706Y-50696253D01*
X168415328Y-50644291D01*
X168402000Y-50587891D01*
X168402000Y-49744024D01*
X180649576Y-49744024D01*
X180656644Y-49757470D01*
X181358188Y-50459014D01*
X181372132Y-50466628D01*
X181373965Y-50466497D01*
X181380580Y-50462246D01*
X182086077Y-49756749D01*
X182092507Y-49744974D01*
X182083211Y-49732959D01*
X182032006Y-49697105D01*
X182022511Y-49691622D01*
X181825053Y-49599546D01*
X181814761Y-49595800D01*
X181604312Y-49539411D01*
X181593519Y-49537508D01*
X181376475Y-49518519D01*
X181365525Y-49518519D01*
X181148481Y-49537508D01*
X181137688Y-49539411D01*
X180927239Y-49595800D01*
X180916947Y-49599546D01*
X180719489Y-49691622D01*
X180709994Y-49697105D01*
X180657952Y-49733545D01*
X180649576Y-49744024D01*
X168402000Y-49744024D01*
X168402000Y-49034992D01*
X190526725Y-49034992D01*
X190544572Y-49261761D01*
X190546115Y-49271508D01*
X190599217Y-49492689D01*
X190602266Y-49502074D01*
X190689313Y-49712225D01*
X190693795Y-49721020D01*
X190796432Y-49888507D01*
X190806890Y-49897969D01*
X190815666Y-49894186D01*
X191666978Y-49042874D01*
X191673356Y-49031194D01*
X192403408Y-49031194D01*
X192403539Y-49033027D01*
X192407790Y-49039642D01*
X193259290Y-49891142D01*
X193271670Y-49897902D01*
X193279320Y-49892175D01*
X193384205Y-49721020D01*
X193388687Y-49712225D01*
X193475734Y-49502074D01*
X193478783Y-49492689D01*
X193531885Y-49271508D01*
X193533428Y-49261761D01*
X193551275Y-49034992D01*
X193551275Y-49025132D01*
X193533428Y-48798363D01*
X193531885Y-48788616D01*
X193478783Y-48567435D01*
X193475734Y-48558050D01*
X193388687Y-48347899D01*
X193384205Y-48339104D01*
X193281568Y-48171617D01*
X193271110Y-48162155D01*
X193262334Y-48165938D01*
X192411022Y-49017250D01*
X192403408Y-49031194D01*
X191673356Y-49031194D01*
X191674592Y-49028930D01*
X191674461Y-49027097D01*
X191670210Y-49020482D01*
X190818710Y-48168982D01*
X190806330Y-48162222D01*
X190798680Y-48167949D01*
X190693795Y-48339104D01*
X190689313Y-48347899D01*
X190602266Y-48558050D01*
X190599217Y-48567435D01*
X190546115Y-48788616D01*
X190544572Y-48798363D01*
X190526725Y-49025132D01*
X190526725Y-49034992D01*
X168402000Y-49034992D01*
X168402000Y-47797952D01*
X191171093Y-47797952D01*
X191174876Y-47806728D01*
X192026188Y-48658040D01*
X192040132Y-48665654D01*
X192041965Y-48665523D01*
X192048580Y-48661272D01*
X192900080Y-47809772D01*
X192906840Y-47797392D01*
X192901113Y-47789742D01*
X192729958Y-47684857D01*
X192721163Y-47680375D01*
X192511012Y-47593328D01*
X192501627Y-47590279D01*
X192280446Y-47537177D01*
X192270699Y-47535634D01*
X192043930Y-47517787D01*
X192034070Y-47517787D01*
X191807301Y-47535634D01*
X191797554Y-47537177D01*
X191576373Y-47590279D01*
X191566988Y-47593328D01*
X191356837Y-47680375D01*
X191348042Y-47684857D01*
X191180555Y-47787494D01*
X191171093Y-47797952D01*
X168402000Y-47797952D01*
X168402000Y-47097748D01*
X177780500Y-47097748D01*
X177781707Y-47103816D01*
X177785331Y-47122033D01*
X177792133Y-47156231D01*
X177836448Y-47222552D01*
X177902769Y-47266867D01*
X177914938Y-47269288D01*
X177914939Y-47269288D01*
X177955184Y-47277293D01*
X177961252Y-47278500D01*
X179700748Y-47278500D01*
X179706816Y-47277293D01*
X179747061Y-47269288D01*
X179747062Y-47269288D01*
X179759231Y-47266867D01*
X179825552Y-47222552D01*
X179869867Y-47156231D01*
X179876670Y-47122033D01*
X179880293Y-47103816D01*
X179881500Y-47097748D01*
X179881500Y-46213262D01*
X180315520Y-46213262D01*
X180332759Y-46418553D01*
X180389544Y-46616586D01*
X180392359Y-46622063D01*
X180392360Y-46622066D01*
X180413247Y-46662707D01*
X180483712Y-46799818D01*
X180611677Y-46961270D01*
X180768564Y-47094791D01*
X180948398Y-47195297D01*
X181032280Y-47222552D01*
X181138471Y-47257056D01*
X181138475Y-47257057D01*
X181144329Y-47258959D01*
X181348894Y-47283351D01*
X181355029Y-47282879D01*
X181355031Y-47282879D01*
X181427625Y-47277293D01*
X181554300Y-47267546D01*
X181560230Y-47265890D01*
X181560232Y-47265890D01*
X181746797Y-47213800D01*
X181746796Y-47213800D01*
X181752725Y-47212145D01*
X181758214Y-47209372D01*
X181758220Y-47209370D01*
X181931116Y-47122033D01*
X181936610Y-47119258D01*
X182098951Y-46992424D01*
X182233564Y-46836472D01*
X182254387Y-46799818D01*
X182332276Y-46662707D01*
X182335323Y-46657344D01*
X182400351Y-46461863D01*
X182426171Y-46257474D01*
X182426583Y-46228000D01*
X182425138Y-46213262D01*
X182855520Y-46213262D01*
X182872759Y-46418553D01*
X182929544Y-46616586D01*
X182932359Y-46622063D01*
X182932360Y-46622066D01*
X182953247Y-46662707D01*
X183023712Y-46799818D01*
X183151677Y-46961270D01*
X183308564Y-47094791D01*
X183488398Y-47195297D01*
X183572280Y-47222552D01*
X183678471Y-47257056D01*
X183678475Y-47257057D01*
X183684329Y-47258959D01*
X183888894Y-47283351D01*
X183895029Y-47282879D01*
X183895031Y-47282879D01*
X183967625Y-47277293D01*
X184094300Y-47267546D01*
X184100230Y-47265890D01*
X184100232Y-47265890D01*
X184286797Y-47213800D01*
X184286796Y-47213800D01*
X184292725Y-47212145D01*
X184298214Y-47209372D01*
X184298220Y-47209370D01*
X184471116Y-47122033D01*
X184476610Y-47119258D01*
X184638951Y-46992424D01*
X184773564Y-46836472D01*
X184794387Y-46799818D01*
X184872276Y-46662707D01*
X184875323Y-46657344D01*
X184940351Y-46461863D01*
X184966171Y-46257474D01*
X184966583Y-46228000D01*
X184946480Y-46022970D01*
X184886935Y-45825749D01*
X184790218Y-45643849D01*
X184705426Y-45539884D01*
X184663906Y-45488975D01*
X184663903Y-45488972D01*
X184660011Y-45484200D01*
X184642786Y-45469950D01*
X184506025Y-45356811D01*
X184506021Y-45356809D01*
X184501275Y-45352882D01*
X184320055Y-45254897D01*
X184123254Y-45193977D01*
X184117129Y-45193333D01*
X184117128Y-45193333D01*
X183924498Y-45173087D01*
X183924496Y-45173087D01*
X183918369Y-45172443D01*
X183831529Y-45180346D01*
X183719342Y-45190555D01*
X183719339Y-45190556D01*
X183713203Y-45191114D01*
X183515572Y-45249280D01*
X183333002Y-45344726D01*
X183328201Y-45348586D01*
X183328198Y-45348588D01*
X183275069Y-45391305D01*
X183172447Y-45473815D01*
X183040024Y-45631630D01*
X183037056Y-45637028D01*
X183037053Y-45637033D01*
X182949087Y-45797044D01*
X182940776Y-45812162D01*
X182878484Y-46008532D01*
X182877798Y-46014649D01*
X182877797Y-46014653D01*
X182856207Y-46207137D01*
X182855520Y-46213262D01*
X182425138Y-46213262D01*
X182406480Y-46022970D01*
X182346935Y-45825749D01*
X182250218Y-45643849D01*
X182165426Y-45539884D01*
X182123906Y-45488975D01*
X182123903Y-45488972D01*
X182120011Y-45484200D01*
X182102786Y-45469950D01*
X181966025Y-45356811D01*
X181966021Y-45356809D01*
X181961275Y-45352882D01*
X181780055Y-45254897D01*
X181583254Y-45193977D01*
X181577129Y-45193333D01*
X181577128Y-45193333D01*
X181384498Y-45173087D01*
X181384496Y-45173087D01*
X181378369Y-45172443D01*
X181291529Y-45180346D01*
X181179342Y-45190555D01*
X181179339Y-45190556D01*
X181173203Y-45191114D01*
X180975572Y-45249280D01*
X180793002Y-45344726D01*
X180788201Y-45348586D01*
X180788198Y-45348588D01*
X180735069Y-45391305D01*
X180632447Y-45473815D01*
X180500024Y-45631630D01*
X180497056Y-45637028D01*
X180497053Y-45637033D01*
X180409087Y-45797044D01*
X180400776Y-45812162D01*
X180338484Y-46008532D01*
X180337798Y-46014649D01*
X180337797Y-46014653D01*
X180316207Y-46207137D01*
X180315520Y-46213262D01*
X179881500Y-46213262D01*
X179881500Y-45358252D01*
X179869867Y-45299769D01*
X179825552Y-45233448D01*
X179759231Y-45189133D01*
X179747062Y-45186712D01*
X179747061Y-45186712D01*
X179706816Y-45178707D01*
X179700748Y-45177500D01*
X177961252Y-45177500D01*
X177955184Y-45178707D01*
X177914939Y-45186712D01*
X177914938Y-45186712D01*
X177902769Y-45189133D01*
X177836448Y-45233448D01*
X177792133Y-45299769D01*
X177780500Y-45358252D01*
X177780500Y-47097748D01*
X168402000Y-47097748D01*
X168402000Y-45575088D01*
X168417933Y-45515627D01*
X168418536Y-45514841D01*
X168430609Y-45485696D01*
X168475884Y-45376391D01*
X168479044Y-45368762D01*
X168499682Y-45212000D01*
X168479044Y-45055238D01*
X168450865Y-44987207D01*
X168443276Y-44916617D01*
X168475056Y-44853130D01*
X168536114Y-44816903D01*
X168567274Y-44812989D01*
X174275734Y-44812989D01*
X174343855Y-44832991D01*
X174390348Y-44886647D01*
X174398573Y-44941554D01*
X174401396Y-44941554D01*
X174401396Y-44949812D01*
X174400318Y-44958000D01*
X174420956Y-45114762D01*
X174481464Y-45260841D01*
X174577718Y-45386282D01*
X174703159Y-45482536D01*
X174849238Y-45543044D01*
X175006000Y-45563682D01*
X175014188Y-45562604D01*
X175154574Y-45544122D01*
X175162762Y-45543044D01*
X175308841Y-45482536D01*
X175434282Y-45386282D01*
X175530536Y-45260841D01*
X175591044Y-45114762D01*
X175611682Y-44958000D01*
X175609942Y-44944785D01*
X175620880Y-44874638D01*
X175668008Y-44821539D01*
X175736361Y-44802348D01*
X175751304Y-44803416D01*
X175764525Y-44805157D01*
X175772713Y-44804079D01*
X175777742Y-44803417D01*
X175921287Y-44784519D01*
X176067366Y-44724011D01*
X176192807Y-44627757D01*
X176263656Y-44535425D01*
X192870500Y-44535425D01*
X192882133Y-44593908D01*
X192926448Y-44660229D01*
X192992769Y-44704544D01*
X193004938Y-44706965D01*
X193004939Y-44706965D01*
X193045184Y-44714970D01*
X193051252Y-44716177D01*
X195090748Y-44716177D01*
X195096816Y-44714970D01*
X195137061Y-44706965D01*
X195137062Y-44706965D01*
X195149231Y-44704544D01*
X195215552Y-44660229D01*
X195259867Y-44593908D01*
X195271500Y-44535425D01*
X195271500Y-42495929D01*
X195259867Y-42437446D01*
X195215552Y-42371125D01*
X195149231Y-42326810D01*
X195137062Y-42324389D01*
X195137061Y-42324389D01*
X195096816Y-42316384D01*
X195090748Y-42315177D01*
X193051252Y-42315177D01*
X193045184Y-42316384D01*
X193004939Y-42324389D01*
X193004938Y-42324389D01*
X192992769Y-42326810D01*
X192926448Y-42371125D01*
X192882133Y-42437446D01*
X192870500Y-42495929D01*
X192870500Y-44535425D01*
X176263656Y-44535425D01*
X176289061Y-44502316D01*
X176349569Y-44356237D01*
X176370207Y-44199475D01*
X176349569Y-44042713D01*
X176289061Y-43896634D01*
X176192807Y-43771193D01*
X176067366Y-43674939D01*
X175921287Y-43614431D01*
X175764525Y-43593793D01*
X175607763Y-43614431D01*
X175600136Y-43617590D01*
X175600133Y-43617591D01*
X175572228Y-43629150D01*
X175524938Y-43637361D01*
X175521984Y-43636660D01*
X175510455Y-43638229D01*
X175510454Y-43638229D01*
X175494877Y-43640349D01*
X175477886Y-43641500D01*
X168528000Y-43641500D01*
X168459879Y-43621498D01*
X168413386Y-43567842D01*
X168402000Y-43515500D01*
X168402000Y-43380520D01*
X185629798Y-43380520D01*
X185650436Y-43537282D01*
X185710944Y-43683361D01*
X185807198Y-43808802D01*
X185932639Y-43905056D01*
X186078718Y-43965564D01*
X186235480Y-43986202D01*
X186243668Y-43985124D01*
X186384054Y-43966642D01*
X186392242Y-43965564D01*
X186538321Y-43905056D01*
X186663762Y-43808802D01*
X186760016Y-43683361D01*
X186820524Y-43537282D01*
X186841162Y-43380520D01*
X186820524Y-43223758D01*
X186760016Y-43077679D01*
X186663762Y-42952238D01*
X186538321Y-42855984D01*
X186392242Y-42795476D01*
X186235480Y-42774838D01*
X186078718Y-42795476D01*
X185932639Y-42855984D01*
X185807198Y-42952238D01*
X185710944Y-43077679D01*
X185650436Y-43223758D01*
X185629798Y-43380520D01*
X168402000Y-43380520D01*
X168402000Y-39748347D01*
X193203160Y-39748347D01*
X193208887Y-39755997D01*
X193380042Y-39860882D01*
X193388837Y-39865364D01*
X193598988Y-39952411D01*
X193608373Y-39955460D01*
X193829554Y-40008562D01*
X193839301Y-40010105D01*
X194066070Y-40027952D01*
X194075930Y-40027952D01*
X194302699Y-40010105D01*
X194312446Y-40008562D01*
X194533627Y-39955460D01*
X194543012Y-39952411D01*
X194753163Y-39865364D01*
X194761958Y-39860882D01*
X194929445Y-39758245D01*
X194938907Y-39747787D01*
X194935124Y-39739011D01*
X194083812Y-38887699D01*
X194069868Y-38880085D01*
X194068035Y-38880216D01*
X194061420Y-38884467D01*
X193209920Y-39735967D01*
X193203160Y-39748347D01*
X168402000Y-39748347D01*
X168402000Y-38717088D01*
X168417933Y-38657627D01*
X168418536Y-38656841D01*
X168474966Y-38520607D01*
X192558725Y-38520607D01*
X192576572Y-38747376D01*
X192578115Y-38757123D01*
X192631217Y-38978304D01*
X192634266Y-38987689D01*
X192721313Y-39197840D01*
X192725795Y-39206635D01*
X192828432Y-39374122D01*
X192838890Y-39383584D01*
X192847666Y-39379801D01*
X193698978Y-38528489D01*
X193705356Y-38516809D01*
X194435408Y-38516809D01*
X194435539Y-38518642D01*
X194439790Y-38525257D01*
X195291290Y-39376757D01*
X195303670Y-39383517D01*
X195311320Y-39377790D01*
X195416205Y-39206635D01*
X195420687Y-39197840D01*
X195507734Y-38987689D01*
X195510783Y-38978304D01*
X195563885Y-38757123D01*
X195565428Y-38747376D01*
X195583275Y-38520607D01*
X195583275Y-38510747D01*
X195565428Y-38283978D01*
X195563885Y-38274231D01*
X195510783Y-38053050D01*
X195507734Y-38043665D01*
X195420687Y-37833514D01*
X195416205Y-37824719D01*
X195313568Y-37657232D01*
X195303110Y-37647770D01*
X195294334Y-37651553D01*
X194443022Y-38502865D01*
X194435408Y-38516809D01*
X193705356Y-38516809D01*
X193706592Y-38514545D01*
X193706461Y-38512712D01*
X193702210Y-38506097D01*
X192850710Y-37654597D01*
X192838330Y-37647837D01*
X192830680Y-37653564D01*
X192725795Y-37824719D01*
X192721313Y-37833514D01*
X192634266Y-38043665D01*
X192631217Y-38053050D01*
X192578115Y-38274231D01*
X192576572Y-38283978D01*
X192558725Y-38510747D01*
X192558725Y-38520607D01*
X168474966Y-38520607D01*
X168479044Y-38510762D01*
X168499682Y-38354000D01*
X168479044Y-38197238D01*
X168418536Y-38051159D01*
X168417933Y-38050373D01*
X168402000Y-37990912D01*
X168402000Y-37677062D01*
X184528842Y-37677062D01*
X184538138Y-37689077D01*
X184589343Y-37724931D01*
X184598838Y-37730414D01*
X184796296Y-37822490D01*
X184806588Y-37826236D01*
X185017037Y-37882625D01*
X185027830Y-37884528D01*
X185244874Y-37903517D01*
X185255824Y-37903517D01*
X185472868Y-37884528D01*
X185483661Y-37882625D01*
X185694110Y-37826236D01*
X185704402Y-37822490D01*
X185901860Y-37730414D01*
X185911355Y-37724931D01*
X185963397Y-37688491D01*
X185971773Y-37678012D01*
X185964705Y-37664566D01*
X185263161Y-36963022D01*
X185249217Y-36955408D01*
X185247384Y-36955539D01*
X185240769Y-36959790D01*
X184535272Y-37665287D01*
X184528842Y-37677062D01*
X168402000Y-37677062D01*
X168402000Y-37410748D01*
X180749849Y-37410748D01*
X180761482Y-37469231D01*
X180805797Y-37535552D01*
X180872118Y-37579867D01*
X180884287Y-37582288D01*
X180884288Y-37582288D01*
X180924533Y-37590293D01*
X180930601Y-37591500D01*
X182570097Y-37591500D01*
X182576165Y-37590293D01*
X182616410Y-37582288D01*
X182616411Y-37582288D01*
X182628580Y-37579867D01*
X182694901Y-37535552D01*
X182739216Y-37469231D01*
X182750849Y-37410748D01*
X182750849Y-36596475D01*
X183937832Y-36596475D01*
X183956821Y-36813519D01*
X183958724Y-36824312D01*
X184015113Y-37034761D01*
X184018859Y-37045053D01*
X184110935Y-37242511D01*
X184116418Y-37252006D01*
X184152858Y-37304048D01*
X184163337Y-37312424D01*
X184176783Y-37305356D01*
X184878327Y-36603812D01*
X184884705Y-36592132D01*
X185614757Y-36592132D01*
X185614888Y-36593965D01*
X185619139Y-36600580D01*
X186324636Y-37306077D01*
X186336411Y-37312507D01*
X186348426Y-37303211D01*
X186362181Y-37283567D01*
X193203093Y-37283567D01*
X193206876Y-37292343D01*
X194058188Y-38143655D01*
X194072132Y-38151269D01*
X194073965Y-38151138D01*
X194080580Y-38146887D01*
X194932080Y-37295387D01*
X194938840Y-37283007D01*
X194933113Y-37275357D01*
X194761958Y-37170472D01*
X194753163Y-37165990D01*
X194543012Y-37078943D01*
X194533627Y-37075894D01*
X194312446Y-37022792D01*
X194302699Y-37021249D01*
X194075930Y-37003402D01*
X194066070Y-37003402D01*
X193839301Y-37021249D01*
X193829554Y-37022792D01*
X193608373Y-37075894D01*
X193598988Y-37078943D01*
X193388837Y-37165990D01*
X193380042Y-37170472D01*
X193212555Y-37273109D01*
X193203093Y-37283567D01*
X186362181Y-37283567D01*
X186384280Y-37252006D01*
X186389763Y-37242511D01*
X186481839Y-37045053D01*
X186485585Y-37034761D01*
X186541974Y-36824312D01*
X186543877Y-36813519D01*
X186562866Y-36596475D01*
X186562866Y-36585525D01*
X186543877Y-36368481D01*
X186541974Y-36357688D01*
X186485585Y-36147239D01*
X186481839Y-36136947D01*
X186389763Y-35939489D01*
X186384280Y-35929994D01*
X186347840Y-35877952D01*
X186337361Y-35869576D01*
X186323915Y-35876644D01*
X185622371Y-36578188D01*
X185614757Y-36592132D01*
X184884705Y-36592132D01*
X184885941Y-36589868D01*
X184885810Y-36588035D01*
X184881559Y-36581420D01*
X184176062Y-35875923D01*
X184164287Y-35869493D01*
X184152272Y-35878789D01*
X184116418Y-35929994D01*
X184110935Y-35939489D01*
X184018859Y-36136947D01*
X184015113Y-36147239D01*
X183958724Y-36357688D01*
X183956821Y-36368481D01*
X183937832Y-36585525D01*
X183937832Y-36596475D01*
X182750849Y-36596475D01*
X182750849Y-35771252D01*
X182739216Y-35712769D01*
X182731529Y-35701264D01*
X182701792Y-35656761D01*
X182694901Y-35646448D01*
X182628580Y-35602133D01*
X182616411Y-35599712D01*
X182616410Y-35599712D01*
X182576165Y-35591707D01*
X182570097Y-35590500D01*
X180930601Y-35590500D01*
X180924533Y-35591707D01*
X180884288Y-35599712D01*
X180884287Y-35599712D01*
X180872118Y-35602133D01*
X180805797Y-35646448D01*
X180798906Y-35656761D01*
X180769170Y-35701264D01*
X180761482Y-35712769D01*
X180749849Y-35771252D01*
X180749849Y-37410748D01*
X168402000Y-37410748D01*
X168402000Y-36123000D01*
X174669318Y-36123000D01*
X174689956Y-36279762D01*
X174750464Y-36425841D01*
X174846718Y-36551282D01*
X174972159Y-36647536D01*
X175118238Y-36708044D01*
X175275000Y-36728682D01*
X175283188Y-36727604D01*
X175423574Y-36709122D01*
X175431762Y-36708044D01*
X175577841Y-36647536D01*
X175703282Y-36551282D01*
X175799536Y-36425841D01*
X175860044Y-36279762D01*
X175880682Y-36123000D01*
X175860044Y-35966238D01*
X175799536Y-35820159D01*
X175703282Y-35694718D01*
X175577841Y-35598464D01*
X175431762Y-35537956D01*
X175275000Y-35517318D01*
X175118238Y-35537956D01*
X174972159Y-35598464D01*
X174846718Y-35694718D01*
X174750464Y-35820159D01*
X174689956Y-35966238D01*
X174669318Y-36123000D01*
X168402000Y-36123000D01*
X168402000Y-35503988D01*
X184528925Y-35503988D01*
X184535993Y-35517434D01*
X185237537Y-36218978D01*
X185251481Y-36226592D01*
X185253314Y-36226461D01*
X185259929Y-36222210D01*
X185965426Y-35516713D01*
X185971856Y-35504938D01*
X185962560Y-35492923D01*
X185911355Y-35457069D01*
X185901860Y-35451586D01*
X185704402Y-35359510D01*
X185694110Y-35355764D01*
X185483661Y-35299375D01*
X185472868Y-35297472D01*
X185255824Y-35278483D01*
X185244874Y-35278483D01*
X185027830Y-35297472D01*
X185017037Y-35299375D01*
X184806588Y-35355764D01*
X184796296Y-35359510D01*
X184598838Y-35451586D01*
X184589343Y-35457069D01*
X184537301Y-35493509D01*
X184528925Y-35503988D01*
X168402000Y-35503988D01*
X168402000Y-35179000D01*
X168422002Y-35110879D01*
X168475658Y-35064386D01*
X168528000Y-35053000D01*
X169149939Y-35053000D01*
X169164000Y-35054279D01*
X169164000Y-35057362D01*
X169320688Y-35047092D01*
X169425814Y-35040202D01*
X169425818Y-35040201D01*
X169429929Y-35039932D01*
X169433969Y-35039128D01*
X169433972Y-35039128D01*
X169687258Y-34988747D01*
X169687264Y-34988745D01*
X169691308Y-34987941D01*
X169695214Y-34986615D01*
X169695218Y-34986614D01*
X169831303Y-34940419D01*
X169943665Y-34902277D01*
X169955585Y-34896399D01*
X170178978Y-34786233D01*
X170182681Y-34784407D01*
X170190926Y-34778898D01*
X170400836Y-34638641D01*
X170400841Y-34638637D01*
X170404267Y-34636348D01*
X170407361Y-34633634D01*
X170407367Y-34633630D01*
X170601543Y-34463341D01*
X170604632Y-34460632D01*
X170644239Y-34415469D01*
X170659780Y-34397748D01*
X188448500Y-34397748D01*
X188449707Y-34403816D01*
X188453331Y-34422033D01*
X188460133Y-34456231D01*
X188504448Y-34522552D01*
X188570769Y-34566867D01*
X188582938Y-34569288D01*
X188582939Y-34569288D01*
X188623184Y-34577293D01*
X188629252Y-34578500D01*
X190368748Y-34578500D01*
X190374816Y-34577293D01*
X190415061Y-34569288D01*
X190415062Y-34569288D01*
X190427231Y-34566867D01*
X190493552Y-34522552D01*
X190537867Y-34456231D01*
X190544670Y-34422033D01*
X190548293Y-34403816D01*
X190549500Y-34397748D01*
X190549500Y-33513262D01*
X190983520Y-33513262D01*
X191000759Y-33718553D01*
X191057544Y-33916586D01*
X191060359Y-33922063D01*
X191060360Y-33922066D01*
X191081247Y-33962707D01*
X191151712Y-34099818D01*
X191279677Y-34261270D01*
X191436564Y-34394791D01*
X191616398Y-34495297D01*
X191700280Y-34522552D01*
X191806471Y-34557056D01*
X191806475Y-34557057D01*
X191812329Y-34558959D01*
X192016894Y-34583351D01*
X192023029Y-34582879D01*
X192023031Y-34582879D01*
X192095625Y-34577293D01*
X192222300Y-34567546D01*
X192228230Y-34565890D01*
X192228232Y-34565890D01*
X192414797Y-34513800D01*
X192414796Y-34513800D01*
X192420725Y-34512145D01*
X192426214Y-34509372D01*
X192426220Y-34509370D01*
X192599116Y-34422033D01*
X192604610Y-34419258D01*
X192766951Y-34292424D01*
X192797670Y-34256836D01*
X192897540Y-34141134D01*
X192897540Y-34141133D01*
X192901564Y-34136472D01*
X192922387Y-34099818D01*
X193000276Y-33962707D01*
X193003323Y-33957344D01*
X193068351Y-33761863D01*
X193094171Y-33557474D01*
X193094583Y-33528000D01*
X193093138Y-33513262D01*
X193523520Y-33513262D01*
X193540759Y-33718553D01*
X193597544Y-33916586D01*
X193600359Y-33922063D01*
X193600360Y-33922066D01*
X193621247Y-33962707D01*
X193691712Y-34099818D01*
X193819677Y-34261270D01*
X193976564Y-34394791D01*
X194156398Y-34495297D01*
X194240280Y-34522552D01*
X194346471Y-34557056D01*
X194346475Y-34557057D01*
X194352329Y-34558959D01*
X194556894Y-34583351D01*
X194563029Y-34582879D01*
X194563031Y-34582879D01*
X194635625Y-34577293D01*
X194762300Y-34567546D01*
X194768230Y-34565890D01*
X194768232Y-34565890D01*
X194954797Y-34513800D01*
X194954796Y-34513800D01*
X194960725Y-34512145D01*
X194966214Y-34509372D01*
X194966220Y-34509370D01*
X195139116Y-34422033D01*
X195144610Y-34419258D01*
X195306951Y-34292424D01*
X195337670Y-34256836D01*
X195437540Y-34141134D01*
X195437540Y-34141133D01*
X195441564Y-34136472D01*
X195462387Y-34099818D01*
X195540276Y-33962707D01*
X195543323Y-33957344D01*
X195608351Y-33761863D01*
X195634171Y-33557474D01*
X195634583Y-33528000D01*
X195614480Y-33322970D01*
X195554935Y-33125749D01*
X195458218Y-32943849D01*
X195383681Y-32852458D01*
X195331906Y-32788975D01*
X195331903Y-32788972D01*
X195328011Y-32784200D01*
X195292595Y-32754901D01*
X195174025Y-32656811D01*
X195174021Y-32656809D01*
X195169275Y-32652882D01*
X194988055Y-32554897D01*
X194791254Y-32493977D01*
X194785129Y-32493333D01*
X194785128Y-32493333D01*
X194592498Y-32473087D01*
X194592496Y-32473087D01*
X194586369Y-32472443D01*
X194499529Y-32480346D01*
X194387342Y-32490555D01*
X194387339Y-32490556D01*
X194381203Y-32491114D01*
X194183572Y-32549280D01*
X194001002Y-32644726D01*
X193996201Y-32648586D01*
X193996198Y-32648588D01*
X193879299Y-32742577D01*
X193840447Y-32773815D01*
X193708024Y-32931630D01*
X193705056Y-32937028D01*
X193705053Y-32937033D01*
X193698315Y-32949290D01*
X193608776Y-33112162D01*
X193546484Y-33308532D01*
X193545798Y-33314649D01*
X193545797Y-33314653D01*
X193524207Y-33507137D01*
X193523520Y-33513262D01*
X193093138Y-33513262D01*
X193074480Y-33322970D01*
X193014935Y-33125749D01*
X192918218Y-32943849D01*
X192843681Y-32852458D01*
X192791906Y-32788975D01*
X192791903Y-32788972D01*
X192788011Y-32784200D01*
X192752595Y-32754901D01*
X192634025Y-32656811D01*
X192634021Y-32656809D01*
X192629275Y-32652882D01*
X192448055Y-32554897D01*
X192251254Y-32493977D01*
X192245129Y-32493333D01*
X192245128Y-32493333D01*
X192052498Y-32473087D01*
X192052496Y-32473087D01*
X192046369Y-32472443D01*
X191959529Y-32480346D01*
X191847342Y-32490555D01*
X191847339Y-32490556D01*
X191841203Y-32491114D01*
X191643572Y-32549280D01*
X191461002Y-32644726D01*
X191456201Y-32648586D01*
X191456198Y-32648588D01*
X191339299Y-32742577D01*
X191300447Y-32773815D01*
X191168024Y-32931630D01*
X191165056Y-32937028D01*
X191165053Y-32937033D01*
X191158315Y-32949290D01*
X191068776Y-33112162D01*
X191006484Y-33308532D01*
X191005798Y-33314649D01*
X191005797Y-33314653D01*
X190984207Y-33507137D01*
X190983520Y-33513262D01*
X190549500Y-33513262D01*
X190549500Y-32658252D01*
X190537867Y-32599769D01*
X190493552Y-32533448D01*
X190427231Y-32489133D01*
X190415062Y-32486712D01*
X190415061Y-32486712D01*
X190374816Y-32478707D01*
X190368748Y-32477500D01*
X188629252Y-32477500D01*
X188623184Y-32478707D01*
X188582939Y-32486712D01*
X188582938Y-32486712D01*
X188570769Y-32489133D01*
X188504448Y-32533448D01*
X188460133Y-32599769D01*
X188448500Y-32658252D01*
X188448500Y-34397748D01*
X170659780Y-34397748D01*
X170777630Y-34263367D01*
X170777634Y-34263361D01*
X170780348Y-34260267D01*
X170866646Y-34131114D01*
X170926112Y-34042116D01*
X170926113Y-34042114D01*
X170928407Y-34038681D01*
X171046277Y-33799665D01*
X171131941Y-33547308D01*
X171139932Y-33507137D01*
X171183128Y-33289972D01*
X171183128Y-33289969D01*
X171183932Y-33285929D01*
X171201362Y-33020000D01*
X171199156Y-33020000D01*
X171197988Y-33004923D01*
X171207932Y-32853206D01*
X171207983Y-32852458D01*
X171214727Y-32758169D01*
X171216827Y-32742577D01*
X171245478Y-32598537D01*
X171245925Y-32596392D01*
X171257374Y-32543761D01*
X171270036Y-32485557D01*
X171273843Y-32471840D01*
X171319843Y-32336328D01*
X171321100Y-32332797D01*
X171342227Y-32276152D01*
X171362005Y-32223126D01*
X171367047Y-32211449D01*
X171429687Y-32084427D01*
X171432089Y-32079801D01*
X171488864Y-31975827D01*
X171494686Y-31966211D01*
X171572953Y-31849076D01*
X171576850Y-31843569D01*
X171648193Y-31748266D01*
X171654329Y-31740697D01*
X171747042Y-31634978D01*
X171752679Y-31628961D01*
X171836961Y-31544679D01*
X171842978Y-31539042D01*
X171948697Y-31446329D01*
X171956266Y-31440193D01*
X172051569Y-31368850D01*
X172057076Y-31364953D01*
X172174211Y-31286686D01*
X172183827Y-31280864D01*
X172242219Y-31248979D01*
X172287817Y-31224081D01*
X172292427Y-31221687D01*
X172419449Y-31159047D01*
X172431126Y-31154005D01*
X172484152Y-31134227D01*
X172540797Y-31113100D01*
X172544328Y-31111843D01*
X172679840Y-31065843D01*
X172693557Y-31062036D01*
X172751829Y-31049359D01*
X172804392Y-31037925D01*
X172806502Y-31037485D01*
X172860230Y-31026798D01*
X172950577Y-31008827D01*
X172966169Y-31006727D01*
X173060458Y-30999983D01*
X173061206Y-30999932D01*
X173223878Y-30989270D01*
X173232119Y-30989000D01*
X197607881Y-30989000D01*
X197616122Y-30989270D01*
G37*
%TD.AperFunction*%
%TA.AperFunction,Conductor*%
G36*
X170961864Y-72894022D02*
G01*
X171008357Y-72947678D01*
X171018461Y-73017952D01*
X170993706Y-73076724D01*
X170925464Y-73165659D01*
X170864956Y-73311738D01*
X170844318Y-73468500D01*
X170864956Y-73625262D01*
X170868116Y-73632891D01*
X170900403Y-73710838D01*
X170907992Y-73781427D01*
X170873089Y-73848151D01*
X170790645Y-73930595D01*
X170728333Y-73964621D01*
X170701550Y-73967500D01*
X169281106Y-73967500D01*
X169212985Y-73947498D01*
X169166492Y-73893842D01*
X169156388Y-73823568D01*
X169185882Y-73758988D01*
X169191995Y-73752421D01*
X170033494Y-72910923D01*
X170095804Y-72876899D01*
X170122587Y-72874020D01*
X170893743Y-72874020D01*
X170961864Y-72894022D01*
G37*
%TD.AperFunction*%
%TD*%
%TA.AperFunction,Conductor*%
%TO.N,GNDPWR*%
G36*
X168090121Y-35073002D02*
G01*
X168136614Y-35126658D01*
X168148000Y-35179000D01*
X168148000Y-43515500D01*
X168127998Y-43583621D01*
X168074342Y-43630114D01*
X168022000Y-43641500D01*
X162064618Y-43641500D01*
X162061944Y-43641304D01*
X162056909Y-43639575D01*
X162045285Y-43640011D01*
X162033778Y-43638312D01*
X162033953Y-43637124D01*
X161996276Y-43630362D01*
X161925092Y-43600877D01*
X161768330Y-43580239D01*
X161611568Y-43600877D01*
X161465489Y-43661385D01*
X161340048Y-43757639D01*
X161243794Y-43883080D01*
X161183286Y-44029159D01*
X161162648Y-44185921D01*
X161163726Y-44194109D01*
X161163726Y-44194110D01*
X161165943Y-44210950D01*
X161155003Y-44281099D01*
X161107875Y-44334197D01*
X161042017Y-44353110D01*
X161036000Y-44352318D01*
X160879238Y-44372956D01*
X160733159Y-44433464D01*
X160607718Y-44529718D01*
X160511464Y-44655159D01*
X160450956Y-44801238D01*
X160430318Y-44958000D01*
X160450956Y-45114762D01*
X160511464Y-45260841D01*
X160607718Y-45386282D01*
X160733159Y-45482536D01*
X160879238Y-45543044D01*
X160887426Y-45544122D01*
X161016646Y-45561134D01*
X161081573Y-45589856D01*
X161120665Y-45649121D01*
X161125122Y-45702502D01*
X161122818Y-45720000D01*
X161143456Y-45876762D01*
X161203964Y-46022841D01*
X161299796Y-46147732D01*
X161300218Y-46148282D01*
X161299432Y-46148885D01*
X161329954Y-46204781D01*
X161324889Y-46275596D01*
X161306796Y-46308268D01*
X161210964Y-46433159D01*
X161150456Y-46579238D01*
X161129818Y-46736000D01*
X161150456Y-46892762D01*
X161210964Y-47038841D01*
X161307218Y-47164282D01*
X161432659Y-47260536D01*
X161578738Y-47321044D01*
X161735500Y-47341682D01*
X161743688Y-47340604D01*
X161884074Y-47322122D01*
X161892262Y-47321044D01*
X162038341Y-47260536D01*
X162163782Y-47164282D01*
X162260036Y-47038841D01*
X162320544Y-46892762D01*
X162341182Y-46736000D01*
X162320544Y-46579238D01*
X162260036Y-46433159D01*
X162163782Y-46307718D01*
X162164568Y-46307115D01*
X162134046Y-46251219D01*
X162139111Y-46180404D01*
X162157204Y-46147732D01*
X162248009Y-46029392D01*
X162253036Y-46022841D01*
X162313544Y-45876762D01*
X162334182Y-45720000D01*
X164748318Y-45720000D01*
X164768956Y-45876762D01*
X164829464Y-46022841D01*
X164925718Y-46148282D01*
X165051159Y-46244536D01*
X165197238Y-46305044D01*
X165205426Y-46306122D01*
X165267271Y-46314264D01*
X165354000Y-46325682D01*
X165362188Y-46324604D01*
X165502574Y-46306122D01*
X165510762Y-46305044D01*
X165656841Y-46244536D01*
X165782282Y-46148282D01*
X165878536Y-46022841D01*
X165939044Y-45876762D01*
X165959682Y-45720000D01*
X165939044Y-45563238D01*
X165878536Y-45417159D01*
X165782282Y-45291718D01*
X165656841Y-45195464D01*
X165510762Y-45134956D01*
X165354000Y-45114318D01*
X165197238Y-45134956D01*
X165051159Y-45195464D01*
X164925718Y-45291718D01*
X164829464Y-45417159D01*
X164768956Y-45563238D01*
X164748318Y-45720000D01*
X162334182Y-45720000D01*
X162313544Y-45563238D01*
X162305180Y-45543044D01*
X162259481Y-45432718D01*
X162251892Y-45362128D01*
X162283671Y-45298641D01*
X162344730Y-45262414D01*
X162375890Y-45258500D01*
X162507634Y-45258500D01*
X162510307Y-45258696D01*
X162515342Y-45260425D01*
X162526964Y-45259989D01*
X162526966Y-45259989D01*
X162564255Y-45258589D01*
X162568981Y-45258500D01*
X162587948Y-45258500D01*
X162592683Y-45257618D01*
X162596209Y-45257390D01*
X162599949Y-45257249D01*
X162627208Y-45256226D01*
X162637893Y-45251636D01*
X162642493Y-45250599D01*
X162654214Y-45247038D01*
X162658617Y-45245339D01*
X162670053Y-45243209D01*
X162691041Y-45230272D01*
X162707411Y-45221769D01*
X162721888Y-45215549D01*
X162721892Y-45215547D01*
X162730063Y-45212036D01*
X162734949Y-45208022D01*
X162737134Y-45205837D01*
X162739397Y-45203785D01*
X162739542Y-45203945D01*
X162748549Y-45196825D01*
X162755444Y-45190573D01*
X162765348Y-45184468D01*
X162781916Y-45162680D01*
X162793110Y-45149861D01*
X163093077Y-44849894D01*
X163155389Y-44815868D01*
X163182172Y-44812989D01*
X168022000Y-44812989D01*
X168090121Y-44832991D01*
X168136614Y-44886647D01*
X168148000Y-44938989D01*
X168148000Y-61268480D01*
X168127998Y-61336601D01*
X168074342Y-61383094D01*
X168022000Y-61394480D01*
X161116469Y-61394480D01*
X161048348Y-61374478D01*
X161016506Y-61345184D01*
X160961305Y-61273244D01*
X160956282Y-61266698D01*
X160830841Y-61170444D01*
X160684762Y-61109936D01*
X160528000Y-61089298D01*
X160371238Y-61109936D01*
X160225159Y-61170444D01*
X160099718Y-61266698D01*
X160003464Y-61392139D01*
X159942956Y-61538218D01*
X159922318Y-61694980D01*
X159942956Y-61851742D01*
X160003464Y-61997821D01*
X160099718Y-62123262D01*
X160106264Y-62128285D01*
X160106265Y-62128286D01*
X160107129Y-62128949D01*
X160107673Y-62129694D01*
X160112109Y-62134130D01*
X160111417Y-62134822D01*
X160148998Y-62186286D01*
X160153221Y-62257157D01*
X160130390Y-62305617D01*
X160065879Y-62389690D01*
X160005371Y-62535769D01*
X159984733Y-62692531D01*
X160005371Y-62849293D01*
X160065879Y-62995372D01*
X160162133Y-63120813D01*
X160287574Y-63217067D01*
X160433653Y-63277575D01*
X160590415Y-63298213D01*
X160598603Y-63297135D01*
X160738989Y-63278653D01*
X160747177Y-63277575D01*
X160754804Y-63274416D01*
X160754807Y-63274415D01*
X160857787Y-63231759D01*
X160928377Y-63224170D01*
X160991864Y-63255949D01*
X161015126Y-63285171D01*
X161016303Y-63287210D01*
X161019464Y-63294841D01*
X161115718Y-63420282D01*
X161241159Y-63516536D01*
X161387238Y-63577044D01*
X161395426Y-63578122D01*
X161516592Y-63594074D01*
X161581519Y-63622797D01*
X161620610Y-63682062D01*
X161621455Y-63753053D01*
X161583784Y-63813232D01*
X161548364Y-63835404D01*
X161432659Y-63883331D01*
X161307218Y-63979585D01*
X161210964Y-64105026D01*
X161150456Y-64251105D01*
X161129818Y-64407867D01*
X161150456Y-64564629D01*
X161210964Y-64710708D01*
X161307218Y-64836149D01*
X161432659Y-64932403D01*
X161578738Y-64992911D01*
X161735500Y-65013549D01*
X161743688Y-65012471D01*
X161884074Y-64993989D01*
X161892262Y-64992911D01*
X162038341Y-64932403D01*
X162163782Y-64836149D01*
X162260036Y-64710708D01*
X162320544Y-64564629D01*
X162341182Y-64407867D01*
X162320544Y-64251105D01*
X162260036Y-64105026D01*
X162185586Y-64008000D01*
X164735318Y-64008000D01*
X164755956Y-64164762D01*
X164816464Y-64310841D01*
X164912718Y-64436282D01*
X165038159Y-64532536D01*
X165184238Y-64593044D01*
X165341000Y-64613682D01*
X165349188Y-64612604D01*
X165489574Y-64594122D01*
X165497762Y-64593044D01*
X165643841Y-64532536D01*
X165769282Y-64436282D01*
X165865536Y-64310841D01*
X165926044Y-64164762D01*
X165946682Y-64008000D01*
X165926044Y-63851238D01*
X165865536Y-63705159D01*
X165769282Y-63579718D01*
X165643841Y-63483464D01*
X165497762Y-63422956D01*
X165341000Y-63402318D01*
X165184238Y-63422956D01*
X165038159Y-63483464D01*
X164912718Y-63579718D01*
X164816464Y-63705159D01*
X164755956Y-63851238D01*
X164735318Y-64008000D01*
X162185586Y-64008000D01*
X162163782Y-63979585D01*
X162038341Y-63883331D01*
X161892262Y-63822823D01*
X161884074Y-63821745D01*
X161762908Y-63805793D01*
X161697981Y-63777070D01*
X161658890Y-63717805D01*
X161658045Y-63646814D01*
X161695716Y-63586635D01*
X161731136Y-63564463D01*
X161846841Y-63516536D01*
X161972282Y-63420282D01*
X162068536Y-63294841D01*
X162129044Y-63148762D01*
X162149682Y-62992000D01*
X162129044Y-62835238D01*
X162074981Y-62704718D01*
X162067392Y-62634128D01*
X162099171Y-62570641D01*
X162160230Y-62534414D01*
X162191390Y-62530500D01*
X167717339Y-62530500D01*
X167785460Y-62550502D01*
X167806434Y-62567405D01*
X168111095Y-62872066D01*
X168145121Y-62934378D01*
X168148000Y-62961161D01*
X168148000Y-67582989D01*
X168127998Y-67651110D01*
X168074342Y-67697603D01*
X168022000Y-67708989D01*
X162420883Y-67708989D01*
X162418206Y-67708792D01*
X162413169Y-67707063D01*
X162401548Y-67707499D01*
X162401546Y-67707499D01*
X162364241Y-67708900D01*
X162359514Y-67708989D01*
X162340563Y-67708989D01*
X162335830Y-67709871D01*
X162332303Y-67710099D01*
X162312931Y-67710826D01*
X162312929Y-67710827D01*
X162301303Y-67711263D01*
X162290611Y-67715857D01*
X162286008Y-67716894D01*
X162274298Y-67720451D01*
X162269895Y-67722150D01*
X162258458Y-67724280D01*
X162248557Y-67730383D01*
X162248554Y-67730384D01*
X162237467Y-67737218D01*
X162221096Y-67745722D01*
X162206617Y-67751943D01*
X162206614Y-67751945D01*
X162198449Y-67755453D01*
X162193562Y-67759466D01*
X162191367Y-67761661D01*
X162189097Y-67763719D01*
X162188950Y-67763557D01*
X162179971Y-67770655D01*
X162173064Y-67776918D01*
X162163163Y-67783021D01*
X162156124Y-67792278D01*
X162156122Y-67792280D01*
X162146604Y-67804798D01*
X162135401Y-67817628D01*
X161747625Y-68205404D01*
X161685313Y-68239430D01*
X161642084Y-68241231D01*
X161552188Y-68229396D01*
X161544000Y-68228318D01*
X161535812Y-68229396D01*
X161445916Y-68241231D01*
X161387238Y-68248956D01*
X161241159Y-68309464D01*
X161115718Y-68405718D01*
X161019464Y-68531159D01*
X160958956Y-68677238D01*
X160957878Y-68685427D01*
X160939179Y-68827458D01*
X160910456Y-68892386D01*
X160851191Y-68931477D01*
X160830703Y-68935934D01*
X160726505Y-68949652D01*
X160680483Y-68955711D01*
X160534404Y-69016219D01*
X160408963Y-69112473D01*
X160312709Y-69237914D01*
X160252201Y-69383993D01*
X160231563Y-69540755D01*
X160252201Y-69697517D01*
X160312709Y-69843596D01*
X160406737Y-69966136D01*
X160408963Y-69969037D01*
X160408511Y-69969384D01*
X160439743Y-70026580D01*
X160434678Y-70097395D01*
X160393325Y-70153326D01*
X160360267Y-70178692D01*
X160360264Y-70178695D01*
X160353718Y-70183718D01*
X160257464Y-70309159D01*
X160196956Y-70455238D01*
X160176318Y-70612000D01*
X160196956Y-70768762D01*
X160257464Y-70914841D01*
X160353718Y-71040282D01*
X160479159Y-71136536D01*
X160625238Y-71197044D01*
X160633426Y-71198122D01*
X160703619Y-71207363D01*
X160782000Y-71217682D01*
X160790188Y-71216604D01*
X160848024Y-71208990D01*
X160918173Y-71219930D01*
X160953565Y-71244817D01*
X161258200Y-71549452D01*
X161259956Y-71551486D01*
X161262294Y-71556269D01*
X161270823Y-71564181D01*
X161270824Y-71564182D01*
X161298196Y-71589573D01*
X161301601Y-71592853D01*
X161314996Y-71606248D01*
X161318966Y-71608972D01*
X161321614Y-71611297D01*
X161344365Y-71632401D01*
X161355172Y-71636713D01*
X161359157Y-71639232D01*
X161369966Y-71645004D01*
X161374271Y-71646911D01*
X161383865Y-71653493D01*
X161407818Y-71659177D01*
X161407855Y-71659186D01*
X161425451Y-71664751D01*
X161448341Y-71673883D01*
X161454634Y-71674500D01*
X161457716Y-71674500D01*
X161460786Y-71674650D01*
X161460775Y-71674866D01*
X161472150Y-71676198D01*
X161481464Y-71676653D01*
X161492785Y-71679340D01*
X161504314Y-71677771D01*
X161504315Y-71677771D01*
X161519892Y-71675651D01*
X161536883Y-71674500D01*
X167876085Y-71674500D01*
X167944206Y-71694502D01*
X167990699Y-71748158D01*
X168000287Y-71792237D01*
X168001007Y-71792142D01*
X168017168Y-71914894D01*
X168021645Y-71948904D01*
X168082153Y-72094983D01*
X168087180Y-72101534D01*
X168087182Y-72101538D01*
X168121963Y-72146866D01*
X168147563Y-72213086D01*
X168148000Y-72223569D01*
X168148000Y-72641980D01*
X168127998Y-72710101D01*
X168074342Y-72756594D01*
X168022000Y-72767980D01*
X151420144Y-72767980D01*
X151352023Y-72747978D01*
X151305530Y-72694322D01*
X151295426Y-72624048D01*
X151303735Y-72593762D01*
X151354630Y-72470891D01*
X151357790Y-72463262D01*
X151378428Y-72306500D01*
X151357790Y-72149738D01*
X151297282Y-72003659D01*
X151201028Y-71878218D01*
X151075587Y-71781964D01*
X150929508Y-71721456D01*
X150772746Y-71700818D01*
X150615984Y-71721456D01*
X150469905Y-71781964D01*
X150344464Y-71878218D01*
X150248210Y-72003659D01*
X150187702Y-72149738D01*
X150167064Y-72306500D01*
X150187702Y-72463262D01*
X150190862Y-72470891D01*
X150241757Y-72593762D01*
X150249346Y-72664352D01*
X150217567Y-72727839D01*
X150156509Y-72764066D01*
X150125348Y-72767980D01*
X149986000Y-72767980D01*
X149917879Y-72747978D01*
X149871386Y-72694322D01*
X149860000Y-72641980D01*
X149860000Y-67310000D01*
X147527280Y-67310000D01*
X147459159Y-67289998D01*
X147412666Y-67236342D01*
X147402358Y-67167554D01*
X147420903Y-67026688D01*
X147421981Y-67018500D01*
X147401343Y-66861738D01*
X147340835Y-66715659D01*
X147244581Y-66590218D01*
X147119140Y-66493964D01*
X146973061Y-66433456D01*
X146816299Y-66412818D01*
X146659537Y-66433456D01*
X146513458Y-66493964D01*
X146506907Y-66498991D01*
X146489485Y-66512359D01*
X146423264Y-66537959D01*
X146353715Y-66523694D01*
X146312819Y-66489100D01*
X146233324Y-66385500D01*
X151046068Y-66385500D01*
X151066706Y-66542262D01*
X151069866Y-66549891D01*
X151074282Y-66560553D01*
X151127214Y-66688341D01*
X151223468Y-66813782D01*
X151230014Y-66818805D01*
X151259668Y-66841559D01*
X151348909Y-66910036D01*
X151494988Y-66970544D01*
X151651750Y-66991182D01*
X151659938Y-66990104D01*
X151800324Y-66971622D01*
X151808512Y-66970544D01*
X151816139Y-66967385D01*
X151816142Y-66967384D01*
X151950922Y-66911556D01*
X152021512Y-66903967D01*
X152084999Y-66935746D01*
X152115549Y-66979747D01*
X152129464Y-67013341D01*
X152225718Y-67138782D01*
X152351159Y-67235036D01*
X152497238Y-67295544D01*
X152654000Y-67316182D01*
X152662188Y-67315104D01*
X152802574Y-67296622D01*
X152810762Y-67295544D01*
X152956841Y-67235036D01*
X153082282Y-67138782D01*
X153178536Y-67013341D01*
X153239044Y-66867262D01*
X153259682Y-66710500D01*
X153239044Y-66553738D01*
X153234291Y-66542262D01*
X153221904Y-66512359D01*
X153178536Y-66407659D01*
X153099723Y-66304948D01*
X153087305Y-66288764D01*
X153082282Y-66282218D01*
X153065828Y-66269592D01*
X153001349Y-66220116D01*
X152956841Y-66185964D01*
X152810762Y-66125456D01*
X152654000Y-66104818D01*
X152497238Y-66125456D01*
X152489611Y-66128615D01*
X152489608Y-66128616D01*
X152354828Y-66184444D01*
X152284238Y-66192033D01*
X152220751Y-66160254D01*
X152190201Y-66116253D01*
X152185823Y-66105683D01*
X152176286Y-66082659D01*
X152080032Y-65957218D01*
X151954591Y-65860964D01*
X151808512Y-65800456D01*
X151651750Y-65779818D01*
X151494988Y-65800456D01*
X151348909Y-65860964D01*
X151223468Y-65957218D01*
X151127214Y-66082659D01*
X151066706Y-66228738D01*
X151065628Y-66236926D01*
X151059086Y-66286621D01*
X151046068Y-66385500D01*
X146233324Y-66385500D01*
X146229309Y-66380268D01*
X146229305Y-66380264D01*
X146224282Y-66373718D01*
X146098841Y-66277464D01*
X145952762Y-66216956D01*
X145796000Y-66196318D01*
X145639238Y-66216956D01*
X145493159Y-66277464D01*
X145486607Y-66282491D01*
X145479454Y-66286621D01*
X145478073Y-66284229D01*
X145424490Y-66304948D01*
X145354941Y-66290687D01*
X145304142Y-66241088D01*
X145288000Y-66179385D01*
X145288000Y-65672378D01*
X148097940Y-65672378D01*
X148118578Y-65829140D01*
X148179086Y-65975219D01*
X148275340Y-66100660D01*
X148400781Y-66196914D01*
X148546860Y-66257422D01*
X148703622Y-66278060D01*
X148711810Y-66276982D01*
X148852196Y-66258500D01*
X148860384Y-66257422D01*
X149006463Y-66196914D01*
X149131904Y-66100660D01*
X149228158Y-65975219D01*
X149288666Y-65829140D01*
X149309304Y-65672378D01*
X149288666Y-65515616D01*
X149228158Y-65369537D01*
X149131904Y-65244096D01*
X149006463Y-65147842D01*
X148860384Y-65087334D01*
X148703622Y-65066696D01*
X148546860Y-65087334D01*
X148400781Y-65147842D01*
X148275340Y-65244096D01*
X148179086Y-65369537D01*
X148118578Y-65515616D01*
X148097940Y-65672378D01*
X145288000Y-65672378D01*
X145288000Y-64367624D01*
X145308002Y-64299503D01*
X145361658Y-64253010D01*
X145431932Y-64242906D01*
X145496512Y-64272400D01*
X145522658Y-64304066D01*
X145525464Y-64310841D01*
X145621718Y-64436282D01*
X145747159Y-64532536D01*
X145893238Y-64593044D01*
X146050000Y-64613682D01*
X146058188Y-64612604D01*
X146198574Y-64594122D01*
X146206762Y-64593044D01*
X146352841Y-64532536D01*
X146478282Y-64436282D01*
X146574536Y-64310841D01*
X146576728Y-64305550D01*
X146627262Y-64257364D01*
X146696975Y-64243926D01*
X146762886Y-64270312D01*
X146793137Y-64305224D01*
X146795464Y-64310841D01*
X146891718Y-64436282D01*
X147017159Y-64532536D01*
X147163238Y-64593044D01*
X147320000Y-64613682D01*
X147328188Y-64612604D01*
X147468574Y-64594122D01*
X147476762Y-64593044D01*
X147622841Y-64532536D01*
X147748282Y-64436282D01*
X147844536Y-64310841D01*
X147905044Y-64164762D01*
X147925682Y-64008000D01*
X147905044Y-63851238D01*
X147844536Y-63705159D01*
X147748282Y-63579718D01*
X147622841Y-63483464D01*
X147476762Y-63422956D01*
X147320000Y-63402318D01*
X147163238Y-63422956D01*
X147017159Y-63483464D01*
X146891718Y-63579718D01*
X146795464Y-63705159D01*
X146793272Y-63710450D01*
X146742738Y-63758636D01*
X146673025Y-63772074D01*
X146607114Y-63745688D01*
X146576863Y-63710776D01*
X146574536Y-63705159D01*
X146478282Y-63579718D01*
X146352841Y-63483464D01*
X146206762Y-63422956D01*
X146050000Y-63402318D01*
X145893238Y-63422956D01*
X145747159Y-63483464D01*
X145621718Y-63579718D01*
X145525464Y-63705159D01*
X145522739Y-63711737D01*
X145471738Y-63760368D01*
X145402025Y-63773806D01*
X145336113Y-63747420D01*
X145294931Y-63689588D01*
X145288000Y-63648376D01*
X145288000Y-59182000D01*
X145698318Y-59182000D01*
X145718956Y-59338762D01*
X145779464Y-59484841D01*
X145875718Y-59610282D01*
X146001159Y-59706536D01*
X146147238Y-59767044D01*
X146304000Y-59787682D01*
X146312188Y-59786604D01*
X146452574Y-59768122D01*
X146460762Y-59767044D01*
X146555907Y-59727634D01*
X146626494Y-59720045D01*
X146689981Y-59751824D01*
X146726209Y-59812882D01*
X146729045Y-59860489D01*
X146719695Y-59931512D01*
X146718617Y-59939701D01*
X146739255Y-60096463D01*
X146799763Y-60242542D01*
X146896017Y-60367983D01*
X147021458Y-60464237D01*
X147167537Y-60524745D01*
X147324299Y-60545383D01*
X147332487Y-60544305D01*
X147472873Y-60525823D01*
X147481061Y-60524745D01*
X147627140Y-60464237D01*
X147752581Y-60367983D01*
X147848835Y-60242542D01*
X147867285Y-60198000D01*
X150192568Y-60198000D01*
X150213206Y-60354762D01*
X150273714Y-60500841D01*
X150369968Y-60626282D01*
X150495409Y-60722536D01*
X150641488Y-60783044D01*
X150798250Y-60803682D01*
X150806438Y-60802604D01*
X150946824Y-60784122D01*
X150955012Y-60783044D01*
X151101091Y-60722536D01*
X151226532Y-60626282D01*
X151322786Y-60500841D01*
X151383294Y-60354762D01*
X151403932Y-60198000D01*
X151383294Y-60041238D01*
X151322786Y-59895159D01*
X151226532Y-59769718D01*
X151101091Y-59673464D01*
X150955012Y-59612956D01*
X150798250Y-59592318D01*
X150641488Y-59612956D01*
X150495409Y-59673464D01*
X150369968Y-59769718D01*
X150273714Y-59895159D01*
X150213206Y-60041238D01*
X150192568Y-60198000D01*
X147867285Y-60198000D01*
X147909343Y-60096463D01*
X147929981Y-59939701D01*
X147909343Y-59782939D01*
X147848835Y-59636860D01*
X147752581Y-59511419D01*
X147627140Y-59415165D01*
X147481061Y-59354657D01*
X147324299Y-59334019D01*
X147167537Y-59354657D01*
X147072392Y-59394067D01*
X147001805Y-59401656D01*
X146938318Y-59369877D01*
X146902090Y-59308819D01*
X146899254Y-59261212D01*
X146908604Y-59190189D01*
X146908604Y-59190188D01*
X146909682Y-59182000D01*
X146889044Y-59025238D01*
X146828536Y-58879159D01*
X146732282Y-58753718D01*
X146606841Y-58657464D01*
X146460762Y-58596956D01*
X146304000Y-58576318D01*
X146147238Y-58596956D01*
X146001159Y-58657464D01*
X145875718Y-58753718D01*
X145779464Y-58879159D01*
X145718956Y-59025238D01*
X145698318Y-59182000D01*
X145288000Y-59182000D01*
X145288000Y-58420000D01*
X159160318Y-58420000D01*
X159180956Y-58576762D01*
X159241464Y-58722841D01*
X159337718Y-58848282D01*
X159463159Y-58944536D01*
X159609238Y-59005044D01*
X159766000Y-59025682D01*
X159774188Y-59024604D01*
X159914574Y-59006122D01*
X159922762Y-59005044D01*
X160068841Y-58944536D01*
X160194282Y-58848282D01*
X160290536Y-58722841D01*
X160351044Y-58576762D01*
X160371682Y-58420000D01*
X160351044Y-58263238D01*
X160290536Y-58117159D01*
X160194282Y-57991718D01*
X160068841Y-57895464D01*
X159922762Y-57834956D01*
X159766000Y-57814318D01*
X159609238Y-57834956D01*
X159463159Y-57895464D01*
X159337718Y-57991718D01*
X159241464Y-58117159D01*
X159180956Y-58263238D01*
X159160318Y-58420000D01*
X145288000Y-58420000D01*
X145288000Y-53801918D01*
X145308002Y-53733797D01*
X145361658Y-53687304D01*
X145430446Y-53676996D01*
X145533812Y-53690604D01*
X145542000Y-53691682D01*
X145559217Y-53689415D01*
X145629363Y-53700353D01*
X145682463Y-53747480D01*
X145701654Y-53815834D01*
X145700586Y-53830774D01*
X145698318Y-53848000D01*
X145718956Y-54004762D01*
X145779464Y-54150841D01*
X145875718Y-54276282D01*
X146001159Y-54372536D01*
X146006450Y-54374728D01*
X146054636Y-54425262D01*
X146068074Y-54494975D01*
X146041688Y-54560886D01*
X146006776Y-54591137D01*
X146001159Y-54593464D01*
X145875718Y-54689718D01*
X145779464Y-54815159D01*
X145718956Y-54961238D01*
X145698318Y-55118000D01*
X145718956Y-55274762D01*
X145779464Y-55420841D01*
X145875718Y-55546282D01*
X146001159Y-55642536D01*
X146006450Y-55644728D01*
X146054636Y-55695262D01*
X146068074Y-55764975D01*
X146041688Y-55830886D01*
X146006776Y-55861137D01*
X146001159Y-55863464D01*
X145875718Y-55959718D01*
X145779464Y-56085159D01*
X145718956Y-56231238D01*
X145698318Y-56388000D01*
X145718956Y-56544762D01*
X145779464Y-56690841D01*
X145875718Y-56816282D01*
X146001159Y-56912536D01*
X146006450Y-56914728D01*
X146054636Y-56965262D01*
X146068074Y-57034975D01*
X146041688Y-57100886D01*
X146006776Y-57131137D01*
X146001159Y-57133464D01*
X145875718Y-57229718D01*
X145779464Y-57355159D01*
X145718956Y-57501238D01*
X145698318Y-57658000D01*
X145718956Y-57814762D01*
X145779464Y-57960841D01*
X145875718Y-58086282D01*
X146001159Y-58182536D01*
X146147238Y-58243044D01*
X146304000Y-58263682D01*
X146312188Y-58262604D01*
X146452574Y-58244122D01*
X146460762Y-58243044D01*
X146606841Y-58182536D01*
X146732282Y-58086282D01*
X146828536Y-57960841D01*
X146889044Y-57814762D01*
X146909682Y-57658000D01*
X146908973Y-57652614D01*
X160469717Y-57652614D01*
X160490355Y-57809376D01*
X160550863Y-57955455D01*
X160647117Y-58080896D01*
X160772558Y-58177150D01*
X160918637Y-58237658D01*
X161075399Y-58258296D01*
X161083587Y-58257218D01*
X161223973Y-58238736D01*
X161232161Y-58237658D01*
X161378240Y-58177150D01*
X161503681Y-58080896D01*
X161599935Y-57955455D01*
X161617935Y-57912000D01*
X164735318Y-57912000D01*
X164755956Y-58068762D01*
X164816464Y-58214841D01*
X164912718Y-58340282D01*
X165038159Y-58436536D01*
X165184238Y-58497044D01*
X165341000Y-58517682D01*
X165349188Y-58516604D01*
X165489574Y-58498122D01*
X165497762Y-58497044D01*
X165643841Y-58436536D01*
X165769282Y-58340282D01*
X165865536Y-58214841D01*
X165926044Y-58068762D01*
X165946682Y-57912000D01*
X165926044Y-57755238D01*
X165865536Y-57609159D01*
X165769282Y-57483718D01*
X165643841Y-57387464D01*
X165497762Y-57326956D01*
X165341000Y-57306318D01*
X165184238Y-57326956D01*
X165038159Y-57387464D01*
X164912718Y-57483718D01*
X164816464Y-57609159D01*
X164755956Y-57755238D01*
X164735318Y-57912000D01*
X161617935Y-57912000D01*
X161660443Y-57809376D01*
X161681081Y-57652614D01*
X161678803Y-57635312D01*
X161689742Y-57565165D01*
X161736870Y-57512066D01*
X161787278Y-57493944D01*
X161877074Y-57482122D01*
X161885262Y-57481044D01*
X162031341Y-57420536D01*
X162156782Y-57324282D01*
X162253036Y-57198841D01*
X162313544Y-57052762D01*
X162334182Y-56896000D01*
X162313544Y-56739238D01*
X162253036Y-56593159D01*
X162156782Y-56467718D01*
X162031341Y-56371464D01*
X161885262Y-56310956D01*
X161728500Y-56290318D01*
X161571738Y-56310956D01*
X161425659Y-56371464D01*
X161300218Y-56467718D01*
X161203964Y-56593159D01*
X161143456Y-56739238D01*
X161122818Y-56896000D01*
X161124334Y-56907511D01*
X161125096Y-56913301D01*
X161114157Y-56983449D01*
X161067029Y-57036548D01*
X161016621Y-57054670D01*
X160926825Y-57066492D01*
X160918637Y-57067570D01*
X160772558Y-57128078D01*
X160647117Y-57224332D01*
X160550863Y-57349773D01*
X160490355Y-57495852D01*
X160469717Y-57652614D01*
X146908973Y-57652614D01*
X146889044Y-57501238D01*
X146828536Y-57355159D01*
X146732282Y-57229718D01*
X146606841Y-57133464D01*
X146601550Y-57131272D01*
X146553364Y-57080738D01*
X146539926Y-57011025D01*
X146566312Y-56945114D01*
X146601224Y-56914863D01*
X146606841Y-56912536D01*
X146732282Y-56816282D01*
X146828536Y-56690841D01*
X146889044Y-56544762D01*
X146909682Y-56388000D01*
X159730818Y-56388000D01*
X159751456Y-56544762D01*
X159811964Y-56690841D01*
X159908218Y-56816282D01*
X160033659Y-56912536D01*
X160179738Y-56973044D01*
X160336500Y-56993682D01*
X160344688Y-56992604D01*
X160485074Y-56974122D01*
X160493262Y-56973044D01*
X160639341Y-56912536D01*
X160764782Y-56816282D01*
X160861036Y-56690841D01*
X160921544Y-56544762D01*
X160942182Y-56388000D01*
X160921544Y-56231238D01*
X160861036Y-56085159D01*
X160764782Y-55959718D01*
X160639341Y-55863464D01*
X160493262Y-55802956D01*
X160336500Y-55782318D01*
X160179738Y-55802956D01*
X160033659Y-55863464D01*
X159908218Y-55959718D01*
X159811964Y-56085159D01*
X159751456Y-56231238D01*
X159730818Y-56388000D01*
X146909682Y-56388000D01*
X146889044Y-56231238D01*
X146828536Y-56085159D01*
X146732282Y-55959718D01*
X146606841Y-55863464D01*
X146601550Y-55861272D01*
X146553364Y-55810738D01*
X146539926Y-55741025D01*
X146566312Y-55675114D01*
X146601224Y-55644863D01*
X146606841Y-55642536D01*
X146732282Y-55546282D01*
X146828536Y-55420841D01*
X146889044Y-55274762D01*
X146909682Y-55118000D01*
X146889044Y-54961238D01*
X146828536Y-54815159D01*
X146732282Y-54689718D01*
X146606841Y-54593464D01*
X146601550Y-54591272D01*
X146553364Y-54540738D01*
X146539926Y-54471025D01*
X146566312Y-54405114D01*
X146601224Y-54374863D01*
X146606841Y-54372536D01*
X146732282Y-54276282D01*
X146828536Y-54150841D01*
X146848767Y-54102000D01*
X150192568Y-54102000D01*
X150213206Y-54258762D01*
X150273714Y-54404841D01*
X150278741Y-54411392D01*
X150354645Y-54510312D01*
X150369968Y-54530282D01*
X150376514Y-54535305D01*
X150406168Y-54558059D01*
X150495409Y-54626536D01*
X150641488Y-54687044D01*
X150798250Y-54707682D01*
X150806438Y-54706604D01*
X150946824Y-54688122D01*
X150955012Y-54687044D01*
X151101091Y-54626536D01*
X151190332Y-54558059D01*
X151219986Y-54535305D01*
X151226532Y-54530282D01*
X151235573Y-54518500D01*
X152048318Y-54518500D01*
X152068956Y-54675262D01*
X152129464Y-54821341D01*
X152225718Y-54946782D01*
X152351159Y-55043036D01*
X152497238Y-55103544D01*
X152654000Y-55124182D01*
X152662188Y-55123104D01*
X152802574Y-55104622D01*
X152810762Y-55103544D01*
X152956841Y-55043036D01*
X153082282Y-54946782D01*
X153178536Y-54821341D01*
X153239044Y-54675262D01*
X153259682Y-54518500D01*
X153239044Y-54361738D01*
X153178536Y-54215659D01*
X153110059Y-54126418D01*
X153087305Y-54096764D01*
X153082282Y-54090218D01*
X152956841Y-53993964D01*
X152810762Y-53933456D01*
X152654000Y-53912818D01*
X152497238Y-53933456D01*
X152351159Y-53993964D01*
X152225718Y-54090218D01*
X152220695Y-54096764D01*
X152197941Y-54126418D01*
X152129464Y-54215659D01*
X152068956Y-54361738D01*
X152048318Y-54518500D01*
X151235573Y-54518500D01*
X151241856Y-54510312D01*
X151317759Y-54411392D01*
X151322786Y-54404841D01*
X151383294Y-54258762D01*
X151403932Y-54102000D01*
X151383294Y-53945238D01*
X151322786Y-53799159D01*
X151226532Y-53673718D01*
X151101091Y-53577464D01*
X150955012Y-53516956D01*
X150798250Y-53496318D01*
X150641488Y-53516956D01*
X150495409Y-53577464D01*
X150369968Y-53673718D01*
X150273714Y-53799159D01*
X150213206Y-53945238D01*
X150192568Y-54102000D01*
X146848767Y-54102000D01*
X146889044Y-54004762D01*
X146909682Y-53848000D01*
X146889044Y-53691238D01*
X146828536Y-53545159D01*
X146732282Y-53419718D01*
X146606841Y-53323464D01*
X146460762Y-53262956D01*
X146304000Y-53242318D01*
X146286783Y-53244585D01*
X146216637Y-53233647D01*
X146163537Y-53186520D01*
X146144346Y-53118166D01*
X146145414Y-53103226D01*
X146147682Y-53086000D01*
X146127044Y-52929238D01*
X146066536Y-52783159D01*
X145970282Y-52657718D01*
X145866391Y-52578000D01*
X159160318Y-52578000D01*
X159180956Y-52734762D01*
X159241464Y-52880841D01*
X159337718Y-53006282D01*
X159463159Y-53102536D01*
X159609238Y-53163044D01*
X159766000Y-53183682D01*
X159774188Y-53182604D01*
X159914574Y-53164122D01*
X159922762Y-53163044D01*
X160068841Y-53102536D01*
X160194282Y-53006282D01*
X160290536Y-52880841D01*
X160351044Y-52734762D01*
X160371682Y-52578000D01*
X160351044Y-52421238D01*
X160290536Y-52275159D01*
X160194282Y-52149718D01*
X160068841Y-52053464D01*
X159922762Y-51992956D01*
X159766000Y-51972318D01*
X159609238Y-51992956D01*
X159463159Y-52053464D01*
X159337718Y-52149718D01*
X159241464Y-52275159D01*
X159180956Y-52421238D01*
X159160318Y-52578000D01*
X145866391Y-52578000D01*
X145844841Y-52561464D01*
X145698762Y-52500956D01*
X145542000Y-52480318D01*
X145533812Y-52481396D01*
X145430446Y-52495004D01*
X145360297Y-52484064D01*
X145307199Y-52436936D01*
X145288000Y-52370082D01*
X145288000Y-52277918D01*
X145308002Y-52209797D01*
X145361658Y-52163304D01*
X145430446Y-52152996D01*
X145533812Y-52166604D01*
X145542000Y-52167682D01*
X145550188Y-52166604D01*
X145690574Y-52148122D01*
X145698762Y-52147044D01*
X145844841Y-52086536D01*
X145970282Y-51990282D01*
X146066536Y-51864841D01*
X146068728Y-51859550D01*
X146119262Y-51811364D01*
X146188975Y-51797926D01*
X146254886Y-51824312D01*
X146285137Y-51859224D01*
X146287464Y-51864841D01*
X146383718Y-51990282D01*
X146509159Y-52086536D01*
X146655238Y-52147044D01*
X146812000Y-52167682D01*
X146820188Y-52166604D01*
X146960574Y-52148122D01*
X146968762Y-52147044D01*
X147114841Y-52086536D01*
X147240282Y-51990282D01*
X147336536Y-51864841D01*
X147397044Y-51718762D01*
X147417682Y-51562000D01*
X160423318Y-51562000D01*
X160443956Y-51718762D01*
X160504464Y-51864841D01*
X160600718Y-51990282D01*
X160726159Y-52086536D01*
X160872238Y-52147044D01*
X161029000Y-52167682D01*
X161037188Y-52166604D01*
X161177574Y-52148122D01*
X161185762Y-52147044D01*
X161331841Y-52086536D01*
X161457282Y-51990282D01*
X161553536Y-51864841D01*
X161573767Y-51816000D01*
X164735318Y-51816000D01*
X164755956Y-51972762D01*
X164816464Y-52118841D01*
X164912718Y-52244282D01*
X165038159Y-52340536D01*
X165184238Y-52401044D01*
X165341000Y-52421682D01*
X165349188Y-52420604D01*
X165489574Y-52402122D01*
X165497762Y-52401044D01*
X165643841Y-52340536D01*
X165769282Y-52244282D01*
X165865536Y-52118841D01*
X165926044Y-51972762D01*
X165946682Y-51816000D01*
X165926044Y-51659238D01*
X165865536Y-51513159D01*
X165769282Y-51387718D01*
X165643841Y-51291464D01*
X165497762Y-51230956D01*
X165341000Y-51210318D01*
X165184238Y-51230956D01*
X165038159Y-51291464D01*
X164912718Y-51387718D01*
X164816464Y-51513159D01*
X164755956Y-51659238D01*
X164735318Y-51816000D01*
X161573767Y-51816000D01*
X161614044Y-51718762D01*
X161634682Y-51562000D01*
X161633604Y-51553808D01*
X161632498Y-51545406D01*
X161643439Y-51475257D01*
X161690568Y-51422159D01*
X161740974Y-51404040D01*
X161849364Y-51389770D01*
X161885262Y-51385044D01*
X162031341Y-51324536D01*
X162156782Y-51228282D01*
X162253036Y-51102841D01*
X162313544Y-50956762D01*
X162334182Y-50800000D01*
X162313544Y-50643238D01*
X162253036Y-50497159D01*
X162156782Y-50371718D01*
X162031341Y-50275464D01*
X161885262Y-50214956D01*
X161728500Y-50194318D01*
X161571738Y-50214956D01*
X161425659Y-50275464D01*
X161300218Y-50371718D01*
X161203964Y-50497159D01*
X161143456Y-50643238D01*
X161122818Y-50800000D01*
X161123896Y-50808188D01*
X161123896Y-50808192D01*
X161125002Y-50816594D01*
X161114061Y-50886743D01*
X161066932Y-50939841D01*
X161016526Y-50957960D01*
X160921364Y-50970488D01*
X160872238Y-50976956D01*
X160864609Y-50980116D01*
X160796058Y-51008511D01*
X160727072Y-51015928D01*
X160694364Y-51061861D01*
X160600718Y-51133718D01*
X160504464Y-51259159D01*
X160443956Y-51405238D01*
X160423318Y-51562000D01*
X147417682Y-51562000D01*
X147397044Y-51405238D01*
X147336536Y-51259159D01*
X147240282Y-51133718D01*
X147114841Y-51037464D01*
X146968762Y-50976956D01*
X146812000Y-50956318D01*
X146655238Y-50976956D01*
X146509159Y-51037464D01*
X146383718Y-51133718D01*
X146287464Y-51259159D01*
X146285272Y-51264450D01*
X146234738Y-51312636D01*
X146165025Y-51326074D01*
X146099114Y-51299688D01*
X146068863Y-51264776D01*
X146066536Y-51259159D01*
X145970282Y-51133718D01*
X145844841Y-51037464D01*
X145698762Y-50976956D01*
X145542000Y-50956318D01*
X145533812Y-50957396D01*
X145430446Y-50971004D01*
X145360297Y-50960064D01*
X145307199Y-50912936D01*
X145288000Y-50846082D01*
X145288000Y-50292000D01*
X159730818Y-50292000D01*
X159751456Y-50448762D01*
X159811964Y-50594841D01*
X159908218Y-50720282D01*
X160033659Y-50816536D01*
X160179738Y-50877044D01*
X160336500Y-50897682D01*
X160344688Y-50896604D01*
X160485074Y-50878122D01*
X160493262Y-50877044D01*
X160569443Y-50845489D01*
X160638428Y-50838072D01*
X160671136Y-50792139D01*
X160758236Y-50725305D01*
X160764782Y-50720282D01*
X160861036Y-50594841D01*
X160921544Y-50448762D01*
X160942182Y-50292000D01*
X160921544Y-50135238D01*
X160861036Y-49989159D01*
X160764782Y-49863718D01*
X160639341Y-49767464D01*
X160493262Y-49706956D01*
X160336500Y-49686318D01*
X160179738Y-49706956D01*
X160033659Y-49767464D01*
X159908218Y-49863718D01*
X159811964Y-49989159D01*
X159751456Y-50135238D01*
X159730818Y-50292000D01*
X145288000Y-50292000D01*
X145288000Y-50245918D01*
X145308002Y-50177797D01*
X145361658Y-50131304D01*
X145430446Y-50120996D01*
X145533812Y-50134604D01*
X145542000Y-50135682D01*
X145550188Y-50134604D01*
X145690574Y-50116122D01*
X145698762Y-50115044D01*
X145844841Y-50054536D01*
X145970282Y-49958282D01*
X146066536Y-49832841D01*
X146127044Y-49686762D01*
X146147682Y-49530000D01*
X146127044Y-49373238D01*
X146066536Y-49227159D01*
X145970282Y-49101718D01*
X145844841Y-49005464D01*
X145717053Y-48952532D01*
X145706391Y-48948116D01*
X145698762Y-48944956D01*
X145542000Y-48924318D01*
X145533812Y-48925396D01*
X145430446Y-48939004D01*
X145360297Y-48928064D01*
X145307199Y-48880936D01*
X145288000Y-48814082D01*
X145288000Y-48006000D01*
X145952318Y-48006000D01*
X145972956Y-48162762D01*
X146033464Y-48308841D01*
X146038491Y-48315392D01*
X146114395Y-48414312D01*
X146129718Y-48434282D01*
X146255159Y-48530536D01*
X146401238Y-48591044D01*
X146558000Y-48611682D01*
X146566188Y-48610604D01*
X146706574Y-48592122D01*
X146714762Y-48591044D01*
X146860841Y-48530536D01*
X146986282Y-48434282D01*
X147001606Y-48414312D01*
X147077509Y-48315392D01*
X147082536Y-48308841D01*
X147143044Y-48162762D01*
X147151636Y-48097500D01*
X151103130Y-48097500D01*
X151123768Y-48254262D01*
X151126928Y-48261891D01*
X151131344Y-48272553D01*
X151184276Y-48400341D01*
X151280530Y-48525782D01*
X151405971Y-48622036D01*
X151552050Y-48682544D01*
X151708812Y-48703182D01*
X151717000Y-48702104D01*
X151857386Y-48683622D01*
X151865574Y-48682544D01*
X151959280Y-48643730D01*
X152029867Y-48636141D01*
X152093354Y-48667920D01*
X152123904Y-48711919D01*
X152126302Y-48717709D01*
X152126305Y-48717713D01*
X152129464Y-48725341D01*
X152225718Y-48850782D01*
X152351159Y-48947036D01*
X152478947Y-48999968D01*
X152484588Y-49002304D01*
X152497238Y-49007544D01*
X152654000Y-49028182D01*
X152662188Y-49027104D01*
X152802574Y-49008622D01*
X152810762Y-49007544D01*
X152823413Y-49002304D01*
X152829053Y-48999968D01*
X152956841Y-48947036D01*
X153082282Y-48850782D01*
X153178536Y-48725341D01*
X153239044Y-48579262D01*
X153259682Y-48422500D01*
X153239044Y-48265738D01*
X153234291Y-48254262D01*
X153181696Y-48127289D01*
X153178536Y-48119659D01*
X153110059Y-48030418D01*
X153087305Y-48000764D01*
X153082282Y-47994218D01*
X152956841Y-47897964D01*
X152810762Y-47837456D01*
X152654000Y-47816818D01*
X152497238Y-47837456D01*
X152403532Y-47876270D01*
X152332945Y-47883859D01*
X152269458Y-47852080D01*
X152238908Y-47808081D01*
X152236510Y-47802291D01*
X152236507Y-47802287D01*
X152233348Y-47794659D01*
X152137094Y-47669218D01*
X152011653Y-47572964D01*
X151865574Y-47512456D01*
X151708812Y-47491818D01*
X151552050Y-47512456D01*
X151405971Y-47572964D01*
X151280530Y-47669218D01*
X151184276Y-47794659D01*
X151123768Y-47940738D01*
X151103130Y-48097500D01*
X147151636Y-48097500D01*
X147163682Y-48006000D01*
X147143044Y-47849238D01*
X147082536Y-47703159D01*
X146986282Y-47577718D01*
X146860841Y-47481464D01*
X146714762Y-47420956D01*
X146558000Y-47400318D01*
X146401238Y-47420956D01*
X146255159Y-47481464D01*
X146129718Y-47577718D01*
X146033464Y-47703159D01*
X145972956Y-47849238D01*
X145952318Y-48006000D01*
X145288000Y-48006000D01*
X145288000Y-45561289D01*
X145308002Y-45493168D01*
X145361658Y-45446675D01*
X145430446Y-45436367D01*
X145533812Y-45449975D01*
X145542000Y-45451053D01*
X145550188Y-45449975D01*
X145690574Y-45431493D01*
X145698762Y-45430415D01*
X145844841Y-45369907D01*
X145970282Y-45273653D01*
X146066536Y-45148212D01*
X146127044Y-45002133D01*
X146147682Y-44845371D01*
X146127044Y-44688609D01*
X146066536Y-44542530D01*
X145974299Y-44422324D01*
X145948699Y-44356103D01*
X145962964Y-44286555D01*
X145974299Y-44268917D01*
X146061507Y-44155264D01*
X146061509Y-44155260D01*
X146066536Y-44148709D01*
X146127044Y-44002630D01*
X146147682Y-43845868D01*
X146127044Y-43689106D01*
X146066536Y-43543027D01*
X145970282Y-43417586D01*
X145844841Y-43321332D01*
X145698762Y-43260824D01*
X145542000Y-43240186D01*
X145533812Y-43241264D01*
X145430446Y-43254872D01*
X145360297Y-43243932D01*
X145307199Y-43196804D01*
X145288000Y-43129950D01*
X145288000Y-42501632D01*
X150226360Y-42501632D01*
X150246998Y-42658394D01*
X150307506Y-42804473D01*
X150403760Y-42929914D01*
X150529201Y-43026168D01*
X150675280Y-43086676D01*
X150832042Y-43107314D01*
X150840230Y-43106236D01*
X150980616Y-43087754D01*
X150988804Y-43086676D01*
X151134883Y-43026168D01*
X151260324Y-42929914D01*
X151356578Y-42804473D01*
X151362964Y-42789056D01*
X151370012Y-42772042D01*
X151414561Y-42716762D01*
X151481924Y-42694342D01*
X151534637Y-42703853D01*
X151643738Y-42749044D01*
X151800500Y-42769682D01*
X151808688Y-42768604D01*
X151949074Y-42750122D01*
X151957262Y-42749044D01*
X152103341Y-42688536D01*
X152228782Y-42592282D01*
X152325036Y-42466841D01*
X152385544Y-42320762D01*
X152406182Y-42164000D01*
X152385544Y-42007238D01*
X152325036Y-41861159D01*
X152228782Y-41735718D01*
X152103341Y-41639464D01*
X151957262Y-41578956D01*
X151800500Y-41558318D01*
X151643738Y-41578956D01*
X151497659Y-41639464D01*
X151372218Y-41735718D01*
X151275964Y-41861159D01*
X151272804Y-41868789D01*
X151272803Y-41868791D01*
X151262530Y-41893590D01*
X151217981Y-41948870D01*
X151150618Y-41971290D01*
X151097905Y-41961779D01*
X150988804Y-41916588D01*
X150832042Y-41895950D01*
X150675280Y-41916588D01*
X150529201Y-41977096D01*
X150403760Y-42073350D01*
X150307506Y-42198791D01*
X150246998Y-42344870D01*
X150226360Y-42501632D01*
X145288000Y-42501632D01*
X145288000Y-41656000D01*
X146206318Y-41656000D01*
X146226956Y-41812762D01*
X146287464Y-41958841D01*
X146383718Y-42084282D01*
X146509159Y-42180536D01*
X146655238Y-42241044D01*
X146812000Y-42261682D01*
X146820188Y-42260604D01*
X146960574Y-42242122D01*
X146968762Y-42241044D01*
X147114841Y-42180536D01*
X147240282Y-42084282D01*
X147336536Y-41958841D01*
X147397044Y-41812762D01*
X147417682Y-41656000D01*
X147397044Y-41499238D01*
X147336536Y-41353159D01*
X147240282Y-41227718D01*
X147114841Y-41131464D01*
X146968762Y-41070956D01*
X146812000Y-41050318D01*
X146655238Y-41070956D01*
X146509159Y-41131464D01*
X146383718Y-41227718D01*
X146287464Y-41353159D01*
X146226956Y-41499238D01*
X146206318Y-41656000D01*
X145288000Y-41656000D01*
X145288000Y-40894000D01*
X160430318Y-40894000D01*
X160450956Y-41050762D01*
X160511464Y-41196841D01*
X160607718Y-41322282D01*
X160733159Y-41418536D01*
X160879238Y-41479044D01*
X161036000Y-41499682D01*
X161044188Y-41498604D01*
X161184574Y-41480122D01*
X161192762Y-41479044D01*
X161338841Y-41418536D01*
X161464282Y-41322282D01*
X161560536Y-41196841D01*
X161621044Y-41050762D01*
X161641682Y-40894000D01*
X161621044Y-40737238D01*
X161560536Y-40591159D01*
X161464282Y-40465718D01*
X161445675Y-40451440D01*
X161345392Y-40374491D01*
X161338841Y-40369464D01*
X161192762Y-40308956D01*
X161036000Y-40288318D01*
X160879238Y-40308956D01*
X160733159Y-40369464D01*
X160726608Y-40374491D01*
X160626326Y-40451440D01*
X160607718Y-40465718D01*
X160511464Y-40591159D01*
X160450956Y-40737238D01*
X160430318Y-40894000D01*
X145288000Y-40894000D01*
X145288000Y-40753265D01*
X145308002Y-40685144D01*
X145361658Y-40638651D01*
X145431932Y-40628547D01*
X145476998Y-40644144D01*
X145482308Y-40647210D01*
X145488860Y-40652237D01*
X145634939Y-40712745D01*
X145643127Y-40713823D01*
X145713320Y-40723064D01*
X145791701Y-40733383D01*
X145799889Y-40732305D01*
X145820368Y-40729609D01*
X145870082Y-40723064D01*
X145940275Y-40713823D01*
X145948463Y-40712745D01*
X146094542Y-40652237D01*
X146219983Y-40555983D01*
X146221461Y-40557909D01*
X146272918Y-40529811D01*
X146343733Y-40534876D01*
X146383568Y-40560477D01*
X146383718Y-40560282D01*
X146509159Y-40656536D01*
X146655238Y-40717044D01*
X146812000Y-40737682D01*
X146820188Y-40736604D01*
X146852843Y-40732305D01*
X146968762Y-40717044D01*
X147114841Y-40656536D01*
X147240282Y-40560282D01*
X147336536Y-40434841D01*
X147397044Y-40288762D01*
X147417682Y-40132000D01*
X147397044Y-39975238D01*
X147336536Y-39829159D01*
X147240282Y-39703718D01*
X147232342Y-39697625D01*
X147136391Y-39624000D01*
X159668318Y-39624000D01*
X159688956Y-39780762D01*
X159749464Y-39926841D01*
X159845718Y-40052282D01*
X159971159Y-40148536D01*
X160117238Y-40209044D01*
X160274000Y-40229682D01*
X160282188Y-40228604D01*
X160422574Y-40210122D01*
X160430762Y-40209044D01*
X160576841Y-40148536D01*
X160702282Y-40052282D01*
X160798536Y-39926841D01*
X160859044Y-39780762D01*
X160879682Y-39624000D01*
X164735318Y-39624000D01*
X164755956Y-39780762D01*
X164816464Y-39926841D01*
X164912718Y-40052282D01*
X165038159Y-40148536D01*
X165184238Y-40209044D01*
X165341000Y-40229682D01*
X165349188Y-40228604D01*
X165489574Y-40210122D01*
X165497762Y-40209044D01*
X165643841Y-40148536D01*
X165769282Y-40052282D01*
X165865536Y-39926841D01*
X165926044Y-39780762D01*
X165946682Y-39624000D01*
X165926044Y-39467238D01*
X165865536Y-39321159D01*
X165769282Y-39195718D01*
X165643841Y-39099464D01*
X165497762Y-39038956D01*
X165341000Y-39018318D01*
X165184238Y-39038956D01*
X165038159Y-39099464D01*
X164912718Y-39195718D01*
X164816464Y-39321159D01*
X164755956Y-39467238D01*
X164735318Y-39624000D01*
X160879682Y-39624000D01*
X160859044Y-39467238D01*
X160798536Y-39321159D01*
X160702282Y-39195718D01*
X160695735Y-39190694D01*
X160687521Y-39184391D01*
X160645654Y-39127052D01*
X160641433Y-39056181D01*
X160676198Y-38994279D01*
X160738911Y-38960998D01*
X160765554Y-38960048D01*
X160765554Y-38958604D01*
X160773812Y-38958604D01*
X160782000Y-38959682D01*
X160790188Y-38958604D01*
X160930574Y-38940122D01*
X160938762Y-38939044D01*
X161084841Y-38878536D01*
X161210282Y-38782282D01*
X161306536Y-38656841D01*
X161367044Y-38510762D01*
X161378888Y-38420801D01*
X161407609Y-38355875D01*
X161466874Y-38316783D01*
X161537866Y-38315938D01*
X161552027Y-38320839D01*
X161654740Y-38363384D01*
X161654743Y-38363385D01*
X161662370Y-38366544D01*
X161819132Y-38387182D01*
X161827320Y-38386104D01*
X161967706Y-38367622D01*
X161975894Y-38366544D01*
X162121973Y-38306036D01*
X162247414Y-38209782D01*
X162343668Y-38084341D01*
X162404176Y-37938262D01*
X162424814Y-37781500D01*
X162404176Y-37624738D01*
X162343668Y-37478659D01*
X162247414Y-37353218D01*
X162121973Y-37256964D01*
X161975894Y-37196456D01*
X161819132Y-37175818D01*
X161662370Y-37196456D01*
X161516291Y-37256964D01*
X161390850Y-37353218D01*
X161294596Y-37478659D01*
X161234088Y-37624738D01*
X161224519Y-37697426D01*
X161222245Y-37714698D01*
X161193523Y-37779625D01*
X161134258Y-37818717D01*
X161063266Y-37819562D01*
X161049105Y-37814661D01*
X160946392Y-37772116D01*
X160946389Y-37772115D01*
X160938762Y-37768956D01*
X160782000Y-37748318D01*
X160625238Y-37768956D01*
X160479159Y-37829464D01*
X160353718Y-37925718D01*
X160257464Y-38051159D01*
X160196956Y-38197238D01*
X160176318Y-38354000D01*
X160196956Y-38510762D01*
X160257464Y-38656841D01*
X160353718Y-38782282D01*
X160360264Y-38787305D01*
X160360265Y-38787306D01*
X160368479Y-38793609D01*
X160410346Y-38850948D01*
X160414567Y-38921819D01*
X160379802Y-38983721D01*
X160317089Y-39017002D01*
X160290446Y-39017952D01*
X160290446Y-39019396D01*
X160282188Y-39019396D01*
X160274000Y-39018318D01*
X160117238Y-39038956D01*
X159971159Y-39099464D01*
X159845718Y-39195718D01*
X159749464Y-39321159D01*
X159688956Y-39467238D01*
X159668318Y-39624000D01*
X147136391Y-39624000D01*
X147121392Y-39612491D01*
X147114841Y-39607464D01*
X146968762Y-39546956D01*
X146960111Y-39545817D01*
X146820188Y-39527396D01*
X146812000Y-39526318D01*
X146803812Y-39527396D01*
X146663890Y-39545817D01*
X146655238Y-39546956D01*
X146509159Y-39607464D01*
X146383718Y-39703718D01*
X146382240Y-39701792D01*
X146330783Y-39729890D01*
X146259968Y-39724825D01*
X146220133Y-39699224D01*
X146219983Y-39699419D01*
X146217645Y-39697625D01*
X146094542Y-39603165D01*
X145948463Y-39542657D01*
X145791701Y-39522019D01*
X145634939Y-39542657D01*
X145488860Y-39603165D01*
X145482308Y-39608192D01*
X145476998Y-39611258D01*
X145408002Y-39627994D01*
X145340911Y-39604772D01*
X145297025Y-39548964D01*
X145288000Y-39502137D01*
X145288000Y-37846000D01*
X148492318Y-37846000D01*
X148512956Y-38002762D01*
X148573464Y-38148841D01*
X148669718Y-38274282D01*
X148795159Y-38370536D01*
X148941238Y-38431044D01*
X149098000Y-38451682D01*
X149106188Y-38450604D01*
X149246574Y-38432122D01*
X149254762Y-38431044D01*
X149400841Y-38370536D01*
X149526282Y-38274282D01*
X149622536Y-38148841D01*
X149683044Y-38002762D01*
X149703682Y-37846000D01*
X149683044Y-37689238D01*
X149622536Y-37543159D01*
X149526282Y-37417718D01*
X149400841Y-37321464D01*
X149254762Y-37260956D01*
X149098000Y-37240318D01*
X148941238Y-37260956D01*
X148795159Y-37321464D01*
X148669718Y-37417718D01*
X148573464Y-37543159D01*
X148512956Y-37689238D01*
X148492318Y-37846000D01*
X145288000Y-37846000D01*
X145288000Y-35179000D01*
X145308002Y-35110879D01*
X145361658Y-35064386D01*
X145414000Y-35053000D01*
X168022000Y-35053000D01*
X168090121Y-35073002D01*
G37*
%TD.AperFunction*%
%TA.AperFunction,Conductor*%
G36*
X168090121Y-68329991D02*
G01*
X168136614Y-68383647D01*
X168148000Y-68435989D01*
X168148000Y-69806511D01*
X168127998Y-69874632D01*
X168074342Y-69921125D01*
X168022000Y-69932511D01*
X167780913Y-69932511D01*
X167712792Y-69912509D01*
X167691818Y-69895606D01*
X167161515Y-69365303D01*
X167159759Y-69363269D01*
X167157421Y-69358486D01*
X167121519Y-69325182D01*
X167118114Y-69321902D01*
X167104719Y-69308507D01*
X167100749Y-69305783D01*
X167098101Y-69303458D01*
X167083877Y-69290263D01*
X167083874Y-69290261D01*
X167075350Y-69282354D01*
X167064546Y-69278044D01*
X167060557Y-69275522D01*
X167049769Y-69269761D01*
X167045444Y-69267844D01*
X167035850Y-69261263D01*
X167024531Y-69258577D01*
X167024529Y-69258576D01*
X167011869Y-69255572D01*
X166994272Y-69250007D01*
X166979634Y-69244167D01*
X166979631Y-69244166D01*
X166971374Y-69240872D01*
X166965081Y-69240255D01*
X166962002Y-69240255D01*
X166958929Y-69240105D01*
X166958940Y-69239889D01*
X166947565Y-69238557D01*
X166938250Y-69238101D01*
X166926930Y-69235415D01*
X166915401Y-69236984D01*
X166915400Y-69236984D01*
X166899823Y-69239104D01*
X166882832Y-69240255D01*
X166014278Y-69240255D01*
X165946157Y-69220253D01*
X165899664Y-69166597D01*
X165889560Y-69096323D01*
X165897869Y-69066037D01*
X165922884Y-69005646D01*
X165926044Y-68998017D01*
X165946682Y-68841255D01*
X165926044Y-68684493D01*
X165865536Y-68538414D01*
X165860509Y-68531863D01*
X165860507Y-68531859D01*
X165845800Y-68512692D01*
X165820200Y-68446471D01*
X165834465Y-68376923D01*
X165884067Y-68326127D01*
X165945763Y-68309989D01*
X168022000Y-68309989D01*
X168090121Y-68329991D01*
G37*
%TD.AperFunction*%
%TD*%
%TA.AperFunction,Conductor*%
%TO.N,GNDA*%
G36*
X149294121Y-67838002D02*
G01*
X149340614Y-67891658D01*
X149352000Y-67944000D01*
X149352000Y-72641980D01*
X149331998Y-72710101D01*
X149278342Y-72756594D01*
X149226000Y-72767980D01*
X146708827Y-72767980D01*
X146640706Y-72747978D01*
X146619731Y-72731075D01*
X146241065Y-72352408D01*
X146235212Y-72346142D01*
X146202654Y-72308820D01*
X146197658Y-72303093D01*
X146146016Y-72266799D01*
X146140731Y-72262873D01*
X146097013Y-72228594D01*
X146097009Y-72228592D01*
X146091032Y-72223905D01*
X146084109Y-72220779D01*
X146081161Y-72218994D01*
X146068201Y-72211602D01*
X146065155Y-72209969D01*
X146058942Y-72205602D01*
X146000122Y-72182669D01*
X145994043Y-72180113D01*
X145987890Y-72177335D01*
X145936505Y-72154134D01*
X145929034Y-72152749D01*
X145925766Y-72151725D01*
X145911325Y-72147612D01*
X145908052Y-72146772D01*
X145900976Y-72144013D01*
X145856306Y-72138133D01*
X145838383Y-72135773D01*
X145831866Y-72134741D01*
X145788465Y-72126697D01*
X145769797Y-72123237D01*
X145762217Y-72123674D01*
X145762216Y-72123674D01*
X145708345Y-72126780D01*
X145701093Y-72126989D01*
X143698486Y-72126989D01*
X143630365Y-72106987D01*
X143583872Y-72053331D01*
X143573768Y-71983057D01*
X143603262Y-71918477D01*
X143605206Y-71916389D01*
X143610419Y-71912389D01*
X143706673Y-71786948D01*
X143767181Y-71640869D01*
X143787819Y-71484107D01*
X143767181Y-71327345D01*
X143706673Y-71181266D01*
X143610419Y-71055825D01*
X143484978Y-70959571D01*
X143338899Y-70899063D01*
X143182137Y-70878425D01*
X143025375Y-70899063D01*
X142879296Y-70959571D01*
X142753855Y-71055825D01*
X142657601Y-71181266D01*
X142597093Y-71327345D01*
X142576455Y-71484107D01*
X142597093Y-71640869D01*
X142657601Y-71786948D01*
X142753855Y-71912389D01*
X142756090Y-71914104D01*
X142788909Y-71974206D01*
X142783844Y-72045021D01*
X142741297Y-72101857D01*
X142674777Y-72126668D01*
X142665788Y-72126989D01*
X140784204Y-72126989D01*
X140775633Y-72126697D01*
X140775208Y-72126668D01*
X140718637Y-72122811D01*
X140711161Y-72124116D01*
X140711157Y-72124116D01*
X140656435Y-72133667D01*
X140649909Y-72134630D01*
X140609471Y-72139524D01*
X140587247Y-72142213D01*
X140580140Y-72144898D01*
X140576847Y-72145707D01*
X140562376Y-72149666D01*
X140559100Y-72150655D01*
X140551613Y-72151962D01*
X140544655Y-72155017D01*
X140544653Y-72155017D01*
X140493809Y-72177335D01*
X140487704Y-72179827D01*
X140483351Y-72181472D01*
X140428644Y-72202144D01*
X140422391Y-72206442D01*
X140419360Y-72208026D01*
X140406283Y-72215306D01*
X140403324Y-72217056D01*
X140396364Y-72220111D01*
X140390337Y-72224736D01*
X140390333Y-72224738D01*
X140346267Y-72258551D01*
X140340948Y-72262416D01*
X140288916Y-72298177D01*
X140247967Y-72344137D01*
X140242986Y-72349413D01*
X138970925Y-73621474D01*
X138964660Y-73627327D01*
X138921604Y-73664887D01*
X138885317Y-73716519D01*
X138881384Y-73721814D01*
X138847105Y-73765532D01*
X138847103Y-73765536D01*
X138842416Y-73771513D01*
X138839290Y-73778436D01*
X138837505Y-73781384D01*
X138830113Y-73794344D01*
X138828480Y-73797390D01*
X138824113Y-73803603D01*
X138821354Y-73810680D01*
X138801180Y-73862422D01*
X138798625Y-73868501D01*
X138772645Y-73926040D01*
X138771260Y-73933511D01*
X138770236Y-73936779D01*
X138766123Y-73951220D01*
X138765283Y-73954493D01*
X138762524Y-73961569D01*
X138761533Y-73969099D01*
X138754284Y-74024162D01*
X138753252Y-74030679D01*
X138741748Y-74092748D01*
X138742185Y-74100328D01*
X138742185Y-74100329D01*
X138745291Y-74154200D01*
X138745500Y-74161452D01*
X138745500Y-74550000D01*
X138725498Y-74618121D01*
X138671842Y-74664614D01*
X138619500Y-74676000D01*
X130416615Y-74676000D01*
X130348494Y-74655998D01*
X130302001Y-74602342D01*
X130291897Y-74532068D01*
X130311420Y-74485724D01*
X130309379Y-74484546D01*
X130313509Y-74477393D01*
X130318536Y-74470841D01*
X130379044Y-74324762D01*
X130399682Y-74168000D01*
X130381177Y-74027437D01*
X130380122Y-74019426D01*
X130379044Y-74011238D01*
X130318536Y-73865159D01*
X130222282Y-73739718D01*
X130195580Y-73719229D01*
X130097296Y-73643813D01*
X130055429Y-73586475D01*
X130048000Y-73543850D01*
X130048000Y-72835091D01*
X130068002Y-72766970D01*
X130074037Y-72758388D01*
X130134102Y-72680109D01*
X130134104Y-72680105D01*
X130139131Y-72673554D01*
X130199639Y-72527475D01*
X130220277Y-72370713D01*
X130199639Y-72213951D01*
X130139131Y-72067872D01*
X130134104Y-72061321D01*
X130134102Y-72061317D01*
X130074037Y-71983038D01*
X130048437Y-71916818D01*
X130048000Y-71906335D01*
X130048000Y-71737088D01*
X130063933Y-71677627D01*
X130064536Y-71676841D01*
X130125044Y-71530762D01*
X130145682Y-71374000D01*
X130125044Y-71217238D01*
X130064536Y-71071159D01*
X130063933Y-71070373D01*
X130048000Y-71010912D01*
X130048000Y-70467088D01*
X130063933Y-70407627D01*
X130064536Y-70406841D01*
X130125044Y-70260762D01*
X130145682Y-70104000D01*
X130125044Y-69947238D01*
X130064536Y-69801159D01*
X130063933Y-69800373D01*
X130048000Y-69740912D01*
X130048000Y-69596000D01*
X147476318Y-69596000D01*
X147496956Y-69752762D01*
X147557464Y-69898841D01*
X147653718Y-70024282D01*
X147779159Y-70120536D01*
X147925238Y-70181044D01*
X148082000Y-70201682D01*
X148090188Y-70200604D01*
X148230574Y-70182122D01*
X148238762Y-70181044D01*
X148384841Y-70120536D01*
X148510282Y-70024282D01*
X148606536Y-69898841D01*
X148667044Y-69752762D01*
X148687682Y-69596000D01*
X148667044Y-69439238D01*
X148606536Y-69293159D01*
X148510282Y-69167718D01*
X148384841Y-69071464D01*
X148238762Y-69010956D01*
X148082000Y-68990318D01*
X147925238Y-69010956D01*
X147779159Y-69071464D01*
X147653718Y-69167718D01*
X147557464Y-69293159D01*
X147496956Y-69439238D01*
X147476318Y-69596000D01*
X130048000Y-69596000D01*
X130048000Y-67944000D01*
X130068002Y-67875879D01*
X130121658Y-67829386D01*
X130174000Y-67818000D01*
X149226000Y-67818000D01*
X149294121Y-67838002D01*
G37*
%TD.AperFunction*%
%TA.AperFunction,Conductor*%
G36*
X145451263Y-73547991D02*
G01*
X145472238Y-73564894D01*
X145672875Y-73765532D01*
X145850904Y-73943561D01*
X145856757Y-73949827D01*
X145894311Y-73992876D01*
X145945970Y-74029182D01*
X145951254Y-74033107D01*
X146000937Y-74072063D01*
X146007864Y-74075191D01*
X146010795Y-74076966D01*
X146023798Y-74084383D01*
X146026812Y-74085999D01*
X146033027Y-74090367D01*
X146040103Y-74093126D01*
X146040107Y-74093128D01*
X146091844Y-74113299D01*
X146097925Y-74115855D01*
X146155464Y-74141835D01*
X146162930Y-74143219D01*
X146166179Y-74144237D01*
X146180644Y-74148357D01*
X146183917Y-74149197D01*
X146190993Y-74151956D01*
X146235576Y-74157825D01*
X146253586Y-74160196D01*
X146260103Y-74161228D01*
X146261312Y-74161452D01*
X146322172Y-74172732D01*
X146329752Y-74172295D01*
X146329753Y-74172295D01*
X146383624Y-74169189D01*
X146390876Y-74168980D01*
X149226000Y-74168980D01*
X149294121Y-74188982D01*
X149340614Y-74242638D01*
X149352000Y-74294980D01*
X149352000Y-74550000D01*
X149331998Y-74618121D01*
X149278342Y-74664614D01*
X149226000Y-74676000D01*
X140272500Y-74676000D01*
X140204379Y-74655998D01*
X140157886Y-74602342D01*
X140146500Y-74550000D01*
X140146500Y-74479402D01*
X140166502Y-74411281D01*
X140183405Y-74390307D01*
X141008818Y-73564894D01*
X141071130Y-73530868D01*
X141097913Y-73527989D01*
X145383142Y-73527989D01*
X145451263Y-73547991D01*
G37*
%TD.AperFunction*%
%TD*%
%TA.AperFunction,Conductor*%
%TO.N,GNDA*%
G36*
X138437500Y-74804000D02*
G01*
X138417498Y-74872121D01*
X138363842Y-74918614D01*
X138311500Y-74930000D01*
X130682000Y-74930000D01*
X130613879Y-74909998D01*
X130567386Y-74856342D01*
X130556000Y-74804000D01*
X130556000Y-74698938D01*
X130562146Y-74676000D01*
X138437500Y-74676000D01*
X138437500Y-74804000D01*
G37*
%TD.AperFunction*%
%TA.AperFunction,Conductor*%
G36*
X143479106Y-74687496D02*
G01*
X143197795Y-74735293D01*
X142923604Y-74814286D01*
X142671735Y-74918614D01*
X142667401Y-74920409D01*
X142619183Y-74930000D01*
X142342281Y-74930000D01*
X142274160Y-74909998D01*
X142233162Y-74867000D01*
X142231688Y-74864448D01*
X142217040Y-74839076D01*
X142185458Y-74804000D01*
X142093675Y-74702065D01*
X142093674Y-74702064D01*
X142089253Y-74697154D01*
X142060137Y-74676000D01*
X143683816Y-74676000D01*
X143479106Y-74687496D01*
G37*
%TD.AperFunction*%
%TD*%
M02*
