%TF.GenerationSoftware,KiCad,Pcbnew,6.0.9-1.fc36*%
%TF.CreationDate,2022-11-17T16:54:58+00:00*%
%TF.ProjectId,esc,6573632e-6b69-4636-9164-5f7063625858,rev?*%
%TF.SameCoordinates,Original*%
%TF.FileFunction,Copper,L2,Inr*%
%TF.FilePolarity,Positive*%
%FSLAX46Y46*%
G04 Gerber Fmt 4.6, Leading zero omitted, Abs format (unit mm)*
G04 Created by KiCad (PCBNEW 6.0.9-1.fc36) date 2022-11-17 16:54:58*
%MOMM*%
%LPD*%
G01*
G04 APERTURE LIST*
%TA.AperFunction,ComponentPad*%
%ADD10C,1.524000*%
%TD*%
%TA.AperFunction,ComponentPad*%
%ADD11R,1.700000X1.700000*%
%TD*%
%TA.AperFunction,ComponentPad*%
%ADD12O,1.700000X1.700000*%
%TD*%
%TA.AperFunction,ViaPad*%
%ADD13C,0.800000*%
%TD*%
%TA.AperFunction,Conductor*%
%ADD14C,0.300000*%
%TD*%
%TA.AperFunction,Conductor*%
%ADD15C,0.200000*%
%TD*%
G04 APERTURE END LIST*
D10*
%TO.N,Net-(C42-Pad2)*%
%TO.C,J67*%
X135128000Y-104648000D03*
%TD*%
%TO.N,Net-(D29-Pad2)*%
%TO.C,J62*%
X124714000Y-116332000D03*
%TD*%
%TO.N,Net-(D31-Pad2)*%
%TO.C,J66*%
X135128000Y-109220000D03*
%TD*%
%TO.N,Net-(D7-Pad2)*%
%TO.C,J18*%
X108204000Y-109220000D03*
%TD*%
%TO.N,Net-(D4-Pad2)*%
%TO.C,J12*%
X108204000Y-116332000D03*
%TD*%
%TO.N,Net-(D19-Pad2)*%
%TO.C,J42*%
X121666000Y-109220000D03*
%TD*%
%TO.N,Net-(J87-Pad1)*%
%TO.C,J87*%
X110998000Y-124460000D03*
%TD*%
%TO.N,Net-(D16-Pad2)*%
%TO.C,J36*%
X121666000Y-116332000D03*
%TD*%
D11*
%TO.N,+3V3*%
%TO.C,J7*%
X112014000Y-87757000D03*
D12*
%TO.N,Net-(J7-Pad2)*%
X114554000Y-87757000D03*
%TO.N,Net-(J7-Pad3)*%
X117094000Y-87757000D03*
%TO.N,Net-(J7-Pad4)*%
X119634000Y-87757000D03*
%TO.N,GND*%
X122174000Y-87757000D03*
%TD*%
D10*
%TO.N,Net-(D22-Pad2)*%
%TO.C,J48*%
X121666000Y-102108000D03*
%TD*%
%TO.N,Net-(D8-Pad2)*%
%TO.C,J20*%
X97790000Y-109220000D03*
%TD*%
%TO.N,Net-(C38-Pad2)*%
%TO.C,J55*%
X121666000Y-90424000D03*
%TD*%
%TO.N,Net-(D20-Pad2)*%
%TO.C,J44*%
X111252000Y-109220000D03*
%TD*%
%TO.N,Net-(C32-Pad2)*%
%TO.C,J37*%
X121666000Y-111760000D03*
%TD*%
%TO.N,Net-(D34-Pad2)*%
%TO.C,J72*%
X135128000Y-102108000D03*
%TD*%
%TO.N,Net-(C28-Pad2)*%
%TO.C,J25*%
X108204000Y-97536000D03*
%TD*%
%TO.N,Net-(D13-Pad2)*%
%TO.C,J30*%
X108204000Y-94996000D03*
%TD*%
%TO.N,Net-(C26-Pad2)*%
%TO.C,J19*%
X108204000Y-104648000D03*
%TD*%
%TO.N,Net-(D38-Pad2)*%
%TO.C,J80*%
X124714000Y-94996000D03*
%TD*%
%TO.N,Net-(D32-Pad2)*%
%TO.C,J68*%
X124714000Y-109220000D03*
%TD*%
%TO.N,Net-(J85-Pad1)*%
%TO.C,J85*%
X97790000Y-124460000D03*
%TD*%
%TO.N,Net-(D5-Pad2)*%
%TO.C,J14*%
X97790000Y-116332000D03*
%TD*%
%TO.N,Net-(D35-Pad2)*%
%TO.C,J74*%
X124714000Y-102108000D03*
%TD*%
%TO.N,Net-(C44-Pad2)*%
%TO.C,J73*%
X135128000Y-97536000D03*
%TD*%
%TO.N,Net-(C34-Pad2)*%
%TO.C,J43*%
X121666000Y-104648000D03*
%TD*%
%TO.N,Net-(D10-Pad2)*%
%TO.C,J24*%
X108204000Y-102108000D03*
%TD*%
%TO.N,Net-(D25-Pad2)*%
%TO.C,J54*%
X121666000Y-94996000D03*
%TD*%
%TO.N,Net-(D37-Pad2)*%
%TO.C,J78*%
X135128000Y-94996000D03*
%TD*%
%TO.N,GND*%
%TO.C,J89*%
X97790000Y-126619000D03*
%TD*%
%TO.N,Net-(J86-Pad1)*%
%TO.C,J86*%
X110998000Y-121158000D03*
%TD*%
%TO.N,Net-(C30-Pad2)*%
%TO.C,J31*%
X108204000Y-90424000D03*
%TD*%
%TO.N,Net-(D26-Pad2)*%
%TO.C,J56*%
X111252000Y-94996000D03*
%TD*%
%TO.N,Net-(C46-Pad2)*%
%TO.C,J79*%
X135128000Y-90424000D03*
%TD*%
%TO.N,Net-(D14-Pad2)*%
%TO.C,J32*%
X97790000Y-94996000D03*
%TD*%
%TO.N,Net-(C24-Pad2)*%
%TO.C,J13*%
X108204000Y-111760000D03*
%TD*%
%TO.N,Net-(D11-Pad2)*%
%TO.C,J26*%
X97790000Y-102108000D03*
%TD*%
%TO.N,Net-(D23-Pad2)*%
%TO.C,J50*%
X111252000Y-102108000D03*
%TD*%
%TO.N,Net-(D17-Pad2)*%
%TO.C,J38*%
X111252000Y-116332000D03*
%TD*%
%TO.N,Net-(D28-Pad2)*%
%TO.C,J60*%
X135128000Y-116332000D03*
%TD*%
%TO.N,Net-(J84-Pad1)*%
%TO.C,J84*%
X97790000Y-121158000D03*
%TD*%
%TO.N,Net-(C36-Pad2)*%
%TO.C,J49*%
X121666000Y-97536000D03*
%TD*%
%TO.N,Net-(C40-Pad2)*%
%TO.C,J61*%
X135128000Y-111760000D03*
%TD*%
D13*
%TO.N,VDD*%
X88900000Y-131064000D03*
X69215000Y-100838000D03*
X86868000Y-130048000D03*
X84836000Y-130048000D03*
X86868000Y-129032000D03*
X85852000Y-131064000D03*
X76708000Y-130048000D03*
X83820000Y-130048000D03*
X68199000Y-100838000D03*
X82804000Y-107950000D03*
X81788000Y-93726000D03*
X77724000Y-130048000D03*
X87884000Y-131064000D03*
X89916000Y-131064000D03*
X78740000Y-130048000D03*
X69342000Y-93726000D03*
X77724000Y-129032000D03*
X79756000Y-131064000D03*
X68326000Y-107950000D03*
X86868000Y-131064000D03*
X55880000Y-115062000D03*
X69342000Y-107950000D03*
X54864000Y-100838000D03*
X84836000Y-131064000D03*
X89916000Y-129032000D03*
X81788000Y-129032000D03*
X82804000Y-93726000D03*
X68326000Y-93726000D03*
X87884000Y-130048000D03*
X88900000Y-129032000D03*
X81788000Y-115062000D03*
X76708000Y-129032000D03*
X81788000Y-131064000D03*
X54864000Y-115062000D03*
X55880000Y-93726000D03*
X90932000Y-130048000D03*
X77724000Y-131064000D03*
X81788000Y-130048000D03*
X85852000Y-130048000D03*
X90932000Y-129032000D03*
X80772000Y-129032000D03*
X55880000Y-107950000D03*
X55880000Y-100838000D03*
X79756000Y-129032000D03*
X78740000Y-129032000D03*
X83820000Y-129032000D03*
X54864000Y-107950000D03*
X69342000Y-115062000D03*
X82804000Y-129032000D03*
X82804000Y-130048000D03*
X81788000Y-100838000D03*
X68326000Y-115062000D03*
X80772000Y-131064000D03*
X82804000Y-131064000D03*
X85852000Y-129032000D03*
X79756000Y-130048000D03*
X84836000Y-129032000D03*
X87884000Y-129032000D03*
X81788000Y-107950000D03*
X89916000Y-130048000D03*
X90932000Y-131064000D03*
X82804000Y-115062000D03*
X76708000Y-131064000D03*
X88900000Y-130048000D03*
X83820000Y-131064000D03*
X78740000Y-131064000D03*
X82804000Y-100838000D03*
X54864000Y-93726000D03*
X80772000Y-130048000D03*
%TO.N,/Phases/PHASE_A*%
X57658000Y-85852000D03*
X63246000Y-100838000D03*
X64262000Y-113030000D03*
X54610000Y-86868000D03*
X58674000Y-85852000D03*
X64262000Y-114046000D03*
X53594000Y-85852000D03*
X64262000Y-115062000D03*
X64262000Y-100838000D03*
X56642000Y-84836000D03*
X62230000Y-92710000D03*
X63246000Y-114046000D03*
X62230000Y-105918000D03*
X60706000Y-85852000D03*
X56642000Y-86868000D03*
X64262000Y-105918000D03*
X63246000Y-91694000D03*
X64262000Y-107950000D03*
X64262000Y-99822000D03*
X58674000Y-86868000D03*
X64262000Y-93726000D03*
X64262000Y-91694000D03*
X64262000Y-98806000D03*
X59690000Y-85852000D03*
X55626000Y-86868000D03*
X63246000Y-105918000D03*
X62230000Y-91694000D03*
X55626000Y-85852000D03*
X63246000Y-115062000D03*
X62230000Y-106934000D03*
X59690000Y-86868000D03*
X63246000Y-107950000D03*
X64262000Y-92710000D03*
X62230000Y-99822000D03*
X63246000Y-98806000D03*
X63246000Y-93726000D03*
X63246000Y-113030000D03*
X58674000Y-84836000D03*
X54610000Y-84836000D03*
X55626000Y-84836000D03*
X63246000Y-92710000D03*
X62230000Y-100838000D03*
X53594000Y-86868000D03*
X62230000Y-98806000D03*
X63246000Y-106934000D03*
X64262000Y-106934000D03*
X57658000Y-84836000D03*
X60706000Y-84836000D03*
X63246000Y-99822000D03*
X62230000Y-114046000D03*
X59690000Y-84836000D03*
X56642000Y-85852000D03*
X60706000Y-86868000D03*
X62230000Y-113030000D03*
X62230000Y-115062000D03*
X54610000Y-85852000D03*
X62230000Y-93726000D03*
X62230000Y-107950000D03*
X53594000Y-84836000D03*
X57658000Y-86868000D03*
%TO.N,/Phases/Phase A/BRIDGE_LOW*%
X53340000Y-122428000D03*
%TO.N,/Phases/PHASE_B*%
X76708000Y-91694000D03*
X75692000Y-115062000D03*
X74930000Y-84836000D03*
X75946000Y-84836000D03*
X76708000Y-100838000D03*
X74930000Y-85852000D03*
X75692000Y-100838000D03*
X75692000Y-107950000D03*
X75692000Y-106934000D03*
X77724000Y-115062000D03*
X74930000Y-86868000D03*
X73914000Y-86868000D03*
X77724000Y-106934000D03*
X71882000Y-86868000D03*
X76708000Y-99822000D03*
X76708000Y-114046000D03*
X71882000Y-84836000D03*
X71882000Y-85852000D03*
X76708000Y-106934000D03*
X72898000Y-85852000D03*
X73914000Y-84836000D03*
X75692000Y-99822000D03*
X75946000Y-86868000D03*
X77724000Y-99822000D03*
X76708000Y-92710000D03*
X75692000Y-92710000D03*
X69850000Y-86868000D03*
X76708000Y-93726000D03*
X77724000Y-113030000D03*
X77724000Y-100838000D03*
X75692000Y-105918000D03*
X77724000Y-105918000D03*
X70866000Y-84836000D03*
X76708000Y-107950000D03*
X73914000Y-85852000D03*
X68834000Y-85852000D03*
X68834000Y-84836000D03*
X75692000Y-91694000D03*
X72898000Y-86868000D03*
X77724000Y-98806000D03*
X76708000Y-105918000D03*
X75692000Y-113030000D03*
X68834000Y-86868000D03*
X76708000Y-98806000D03*
X77724000Y-92710000D03*
X77724000Y-114046000D03*
X72898000Y-84836000D03*
X76708000Y-115062000D03*
X69850000Y-84836000D03*
X76708000Y-113030000D03*
X70866000Y-85852000D03*
X69850000Y-85852000D03*
X77724000Y-91694000D03*
X75692000Y-114046000D03*
X75692000Y-98806000D03*
X75692000Y-93726000D03*
X77724000Y-107950000D03*
X77724000Y-93726000D03*
X75946000Y-85852000D03*
X70866000Y-86868000D03*
%TO.N,/Phases/Phase B/BRIDGE_LOW*%
X67437000Y-122174000D03*
%TO.N,/Phases/PHASE_C*%
X90170000Y-107950000D03*
X91186000Y-106934000D03*
X90170000Y-113030000D03*
X84074000Y-84836000D03*
X90170000Y-105918000D03*
X91186000Y-105918000D03*
X91186000Y-98806000D03*
X89154000Y-106934000D03*
X89154000Y-113030000D03*
X90170000Y-93726000D03*
X91186000Y-86868000D03*
X87122000Y-86868000D03*
X91186000Y-114046000D03*
X89154000Y-105918000D03*
X84074000Y-85852000D03*
X89154000Y-84836000D03*
X90170000Y-99822000D03*
X91186000Y-92710000D03*
X90170000Y-86868000D03*
X91186000Y-85852000D03*
X89154000Y-86868000D03*
X89154000Y-115062000D03*
X90170000Y-91694000D03*
X84074000Y-86868000D03*
X90170000Y-114046000D03*
X88138000Y-86868000D03*
X86106000Y-86868000D03*
X89154000Y-92710000D03*
X90170000Y-115062000D03*
X89154000Y-91694000D03*
X90170000Y-106934000D03*
X87122000Y-85852000D03*
X88138000Y-85852000D03*
X91186000Y-84836000D03*
X89154000Y-99822000D03*
X86106000Y-84836000D03*
X91186000Y-100838000D03*
X91186000Y-93726000D03*
X91186000Y-107950000D03*
X90170000Y-85852000D03*
X90170000Y-98806000D03*
X90170000Y-100838000D03*
X88138000Y-84836000D03*
X91186000Y-91694000D03*
X85090000Y-85852000D03*
X91186000Y-99822000D03*
X89154000Y-114046000D03*
X89154000Y-98806000D03*
X85090000Y-86868000D03*
X85090000Y-84836000D03*
X87122000Y-84836000D03*
X91186000Y-115062000D03*
X89154000Y-93726000D03*
X86106000Y-85852000D03*
X91186000Y-113030000D03*
X90170000Y-84836000D03*
X89154000Y-100838000D03*
X90170000Y-92710000D03*
X89154000Y-107950000D03*
X89154000Y-85852000D03*
%TO.N,GNDPWR*%
X52578000Y-123190000D03*
X57912000Y-130048000D03*
X68072000Y-129032000D03*
X66040000Y-131064000D03*
X68072000Y-130048000D03*
X65024000Y-130048000D03*
X66040000Y-130048000D03*
X64008000Y-130048000D03*
X57912000Y-129032000D03*
X68072000Y-131064000D03*
X61976000Y-130048000D03*
X62992000Y-129032000D03*
X59944000Y-130048000D03*
X58928000Y-130048000D03*
X53467000Y-127127000D03*
X53848000Y-131064000D03*
X60960000Y-131064000D03*
X55880000Y-131064000D03*
X61976000Y-129032000D03*
X67056000Y-129032000D03*
X59944000Y-131064000D03*
X67056000Y-130048000D03*
X64008000Y-131064000D03*
X58928000Y-129032000D03*
X59944000Y-129032000D03*
X65024000Y-131064000D03*
X64008000Y-129032000D03*
X56896000Y-131064000D03*
X55880000Y-130048000D03*
X53848000Y-130048000D03*
X52451000Y-127127000D03*
X67056000Y-131064000D03*
X53848000Y-129032000D03*
X61976000Y-131064000D03*
X53467000Y-126111000D03*
X56896000Y-130048000D03*
X54864000Y-129032000D03*
X57912000Y-131064000D03*
X62992000Y-130048000D03*
X67310000Y-123317000D03*
X60960000Y-129032000D03*
X54864000Y-130048000D03*
X65024000Y-129032000D03*
X62992000Y-131064000D03*
X55880000Y-129032000D03*
X52451000Y-126111000D03*
X60960000Y-130048000D03*
X56896000Y-129032000D03*
X66040000Y-129032000D03*
X58928000Y-131064000D03*
X54864000Y-131064000D03*
%TO.N,/Phases/A_CURRENT_SENSE*%
X125243037Y-127682793D03*
X106112965Y-125349000D03*
%TO.N,GND*%
X129895955Y-127896571D03*
X130599999Y-118654951D03*
X134112000Y-124079000D03*
X108068525Y-98890745D03*
X122288000Y-125108000D03*
X110278500Y-119888000D03*
X108077000Y-106045000D03*
X106553000Y-119273501D03*
X121666000Y-91948000D03*
X98171000Y-118237000D03*
X121666000Y-99060000D03*
X107950000Y-91821000D03*
X134874000Y-106045000D03*
X136906000Y-122174000D03*
X135001000Y-91821000D03*
X121539000Y-113284000D03*
X108077000Y-113157000D03*
X134747000Y-98933000D03*
X134874000Y-113284000D03*
X97155000Y-118237000D03*
X115443000Y-128332500D03*
X100812500Y-126790827D03*
X99187000Y-118237000D03*
X113463138Y-86802496D03*
X121539000Y-106172000D03*
%TO.N,+3V3*%
X109855000Y-125476000D03*
X128905683Y-128032096D03*
X130122325Y-119532919D03*
X134112000Y-123079497D03*
X136906000Y-127070500D03*
X121793000Y-126631500D03*
X107061000Y-117475000D03*
X114681000Y-126619000D03*
X135349810Y-122343074D03*
%TO.N,/Phases/B_CURRENT_SENSE*%
X124686002Y-125878390D03*
X118364000Y-124968000D03*
%TO.N,+5V*%
X104013000Y-127635000D03*
%TO.N,+3.3VA*%
X106553000Y-121285000D03*
X126262525Y-126723795D03*
X111659204Y-125650167D03*
X116880125Y-121909125D03*
%TO.N,GNDA*%
X118237000Y-123190000D03*
X106426000Y-124206000D03*
X127127000Y-127508000D03*
%TO.N,+12V*%
X106311500Y-116491739D03*
X132752500Y-94851067D03*
X119211000Y-94869000D03*
X106172000Y-109982000D03*
X132753373Y-109582500D03*
X132842000Y-102489000D03*
X132842000Y-116967000D03*
X120038028Y-109582500D03*
X119507000Y-102489000D03*
X119507000Y-117094000D03*
X106172000Y-95758000D03*
X106311500Y-102842217D03*
X124115017Y-119944729D03*
%TO.N,Net-(C24-Pad1)*%
X103467091Y-115254547D03*
%TO.N,Net-(C26-Pad1)*%
X104077500Y-110006358D03*
%TO.N,Net-(C28-Pad1)*%
X104077500Y-103078027D03*
%TO.N,Net-(C30-Pad1)*%
X104077500Y-96024400D03*
%TO.N,Net-(C32-Pad1)*%
X117642428Y-115164727D03*
%TO.N,Net-(C34-Pad1)*%
X117800713Y-109582500D03*
%TO.N,Net-(C36-Pad1)*%
X117348000Y-102870000D03*
%TO.N,Net-(C38-Pad1)*%
X116967000Y-95631000D03*
%TO.N,Net-(C40-Pad1)*%
X130968375Y-115176916D03*
%TO.N,Net-(C42-Pad1)*%
X131115102Y-109582500D03*
%TO.N,Net-(C44-Pad1)*%
X130937000Y-102870000D03*
%TO.N,Net-(C46-Pad1)*%
X130810000Y-95758000D03*
%TO.N,Net-(D4-Pad1)*%
X103188500Y-114294655D03*
%TO.N,Net-(D5-Pad1)*%
X99060000Y-111506000D03*
%TO.N,Net-(D7-Pad1)*%
X103124000Y-107188000D03*
%TO.N,Net-(D8-Pad1)*%
X99695000Y-103759000D03*
%TO.N,Net-(D10-Pad1)*%
X103162113Y-99849437D03*
%TO.N,Net-(D11-Pad1)*%
X99441000Y-96774000D03*
%TO.N,Net-(D13-Pad1)*%
X102934500Y-92843463D03*
%TO.N,Net-(D14-Pad1)*%
X100584000Y-89662000D03*
%TO.N,Net-(D16-Pad1)*%
X116968065Y-114427000D03*
%TO.N,Net-(D17-Pad1)*%
X113134010Y-111681001D03*
%TO.N,Net-(D19-Pad1)*%
X117348000Y-107823000D03*
%TO.N,Net-(D20-Pad1)*%
X113804500Y-104470071D03*
%TO.N,Net-(D22-Pad1)*%
X117221000Y-100586972D03*
%TO.N,Net-(D23-Pad1)*%
X112776000Y-97282000D03*
%TO.N,Net-(D25-Pad1)*%
X117094000Y-93599000D03*
%TO.N,Net-(D26-Pad1)*%
X112644385Y-90304692D03*
%TO.N,Net-(D28-Pad1)*%
X130488767Y-114300000D03*
%TO.N,Net-(D29-Pad1)*%
X126259972Y-111304806D03*
%TO.N,Net-(D31-Pad1)*%
X130937000Y-107866498D03*
%TO.N,Net-(D32-Pad1)*%
X127381000Y-104013000D03*
%TO.N,Net-(D34-Pad1)*%
X130683000Y-100711000D03*
%TO.N,Net-(D35-Pad1)*%
X127381000Y-96774000D03*
%TO.N,Net-(D37-Pad1)*%
X130683000Y-93599000D03*
%TO.N,Net-(D38-Pad1)*%
X127254000Y-89535000D03*
%TO.N,/~{MCLR}*%
X135255000Y-125095000D03*
X137033000Y-128270000D03*
X126397016Y-122841016D03*
%TO.N,/Phases/A_HIN*%
X101667907Y-113451190D03*
X101535500Y-94234000D03*
X101600241Y-108628321D03*
X101655500Y-101470525D03*
X102170500Y-117221000D03*
%TO.N,/Phases/~{A_LIN}*%
X102374500Y-105930500D03*
X102214103Y-118253846D03*
X102383977Y-112289977D03*
X102355000Y-99259883D03*
X102599453Y-91893253D03*
%TO.N,/Phases/B_HIN*%
X115505500Y-106426000D03*
X115505500Y-113331031D03*
X115557500Y-99837472D03*
X115505500Y-92325384D03*
X115570000Y-117094000D03*
%TO.N,/Phases/~{B_LIN}*%
X116257937Y-91350074D03*
X116205000Y-105283000D03*
X116268565Y-112522947D03*
X116257000Y-98290694D03*
X116840000Y-117348000D03*
%TO.N,/Phases/C_HIN*%
X129594527Y-117513415D03*
X128967500Y-113524613D03*
X128905000Y-99441000D03*
X128905000Y-92329000D03*
X129025060Y-106273001D03*
%TO.N,/Phases/~{C_LIN}*%
X129667000Y-91186000D03*
X129724560Y-105283000D03*
X129667000Y-98171000D03*
X129789267Y-112772862D03*
X128905006Y-118236994D03*
%TO.N,Net-(J84-Pad1)*%
X98298000Y-122555000D03*
%TO.N,Net-(J85-Pad1)*%
X97403905Y-123001766D03*
%TO.N,Net-(J7-Pad2)*%
X109220000Y-117729000D03*
%TO.N,Net-(J7-Pad3)*%
X110205904Y-117564683D03*
%TO.N,Net-(J7-Pad4)*%
X114554000Y-117602000D03*
%TO.N,Net-(J17-Pad1)*%
X54610000Y-117602000D03*
%TO.N,Net-(J23-Pad1)*%
X54610000Y-110490000D03*
%TO.N,Net-(J29-Pad1)*%
X54610000Y-103378000D03*
%TO.N,Net-(J35-Pad1)*%
X54610000Y-96266000D03*
%TO.N,Net-(J41-Pad1)*%
X68072000Y-103378000D03*
%TO.N,Net-(J47-Pad1)*%
X68072000Y-110490000D03*
%TO.N,Net-(J53-Pad1)*%
X68072000Y-117856000D03*
%TO.N,Net-(J59-Pad1)*%
X68072000Y-96266000D03*
%TO.N,Net-(J65-Pad1)*%
X81279998Y-117602000D03*
%TO.N,Net-(J71-Pad1)*%
X81534000Y-110490000D03*
%TO.N,Net-(J77-Pad1)*%
X81534000Y-103378000D03*
%TO.N,Net-(J83-Pad1)*%
X81534000Y-96266000D03*
%TO.N,Net-(J86-Pad1)*%
X110617000Y-122555000D03*
%TO.N,Net-(J87-Pad1)*%
X111448636Y-123200946D03*
%TO.N,/I2C_SCL*%
X135259866Y-128529839D03*
X119507000Y-128817457D03*
%TO.N,/I2C_SDA*%
X134620000Y-127762000D03*
X121065895Y-128621074D03*
%TO.N,/QEI_A{slash}HALL_A*%
X124542784Y-123329500D03*
X130815791Y-127505539D03*
%TO.N,/QEI_B{slash}HALL_B*%
X126105611Y-118250866D03*
%TO.N,/HOME{slash}HALL_C*%
X126715143Y-119042999D03*
%TD*%
D14*
%TO.N,+3.3VA*%
X124863205Y-126723795D02*
X126262525Y-126723795D01*
X124206000Y-127381000D02*
X124863205Y-126723795D01*
X111659204Y-125650167D02*
X113390037Y-127381000D01*
X113390037Y-127381000D02*
X124206000Y-127381000D01*
%TO.N,GNDA*%
X127127000Y-127508000D02*
X127127000Y-126528316D01*
X124677684Y-124079000D02*
X122682000Y-124079000D01*
X127127000Y-126528316D02*
X124677684Y-124079000D01*
D15*
%TO.N,/QEI_A{slash}HALL_A*%
X127635000Y-125857000D02*
X129167252Y-125857000D01*
X129167252Y-125857000D02*
X130815791Y-127505539D01*
X124542784Y-123329500D02*
X125107500Y-123329500D01*
X125107500Y-123329500D02*
X127635000Y-125857000D01*
%TD*%
%TA.AperFunction,Conductor*%
%TO.N,VDD*%
G36*
X57854121Y-89174002D02*
G01*
X57900614Y-89227658D01*
X57912000Y-89280000D01*
X57912000Y-117475000D01*
X65278000Y-117475000D01*
X65278000Y-110490000D01*
X67466318Y-110490000D01*
X67486956Y-110646762D01*
X67547464Y-110792841D01*
X67643718Y-110918282D01*
X67769159Y-111014536D01*
X67915238Y-111075044D01*
X68072000Y-111095682D01*
X68080188Y-111094604D01*
X68220574Y-111076122D01*
X68228762Y-111075044D01*
X68374841Y-111014536D01*
X68500282Y-110918282D01*
X68596536Y-110792841D01*
X68657044Y-110646762D01*
X68677682Y-110490000D01*
X68657044Y-110333238D01*
X68596536Y-110187159D01*
X68500282Y-110061718D01*
X68374841Y-109965464D01*
X68228762Y-109904956D01*
X68072000Y-109884318D01*
X67915238Y-109904956D01*
X67769159Y-109965464D01*
X67643718Y-110061718D01*
X67547464Y-110187159D01*
X67486956Y-110333238D01*
X67466318Y-110490000D01*
X65278000Y-110490000D01*
X65278000Y-103378000D01*
X67466318Y-103378000D01*
X67486956Y-103534762D01*
X67547464Y-103680841D01*
X67643718Y-103806282D01*
X67769159Y-103902536D01*
X67915238Y-103963044D01*
X68072000Y-103983682D01*
X68080188Y-103982604D01*
X68220574Y-103964122D01*
X68228762Y-103963044D01*
X68374841Y-103902536D01*
X68500282Y-103806282D01*
X68596536Y-103680841D01*
X68657044Y-103534762D01*
X68677682Y-103378000D01*
X68657044Y-103221238D01*
X68596536Y-103075159D01*
X68500282Y-102949718D01*
X68374841Y-102853464D01*
X68228762Y-102792956D01*
X68072000Y-102772318D01*
X67915238Y-102792956D01*
X67769159Y-102853464D01*
X67643718Y-102949718D01*
X67547464Y-103075159D01*
X67486956Y-103221238D01*
X67466318Y-103378000D01*
X65278000Y-103378000D01*
X65278000Y-96266000D01*
X67466318Y-96266000D01*
X67486956Y-96422762D01*
X67547464Y-96568841D01*
X67643718Y-96694282D01*
X67769159Y-96790536D01*
X67915238Y-96851044D01*
X68072000Y-96871682D01*
X68080188Y-96870604D01*
X68220574Y-96852122D01*
X68228762Y-96851044D01*
X68374841Y-96790536D01*
X68500282Y-96694282D01*
X68596536Y-96568841D01*
X68657044Y-96422762D01*
X68677682Y-96266000D01*
X68657044Y-96109238D01*
X68596536Y-95963159D01*
X68500282Y-95837718D01*
X68374841Y-95741464D01*
X68228762Y-95680956D01*
X68072000Y-95660318D01*
X67915238Y-95680956D01*
X67769159Y-95741464D01*
X67643718Y-95837718D01*
X67547464Y-95963159D01*
X67486956Y-96109238D01*
X67466318Y-96266000D01*
X65278000Y-96266000D01*
X65278000Y-89280000D01*
X65298002Y-89211879D01*
X65351658Y-89165386D01*
X65404000Y-89154000D01*
X71248000Y-89154000D01*
X71316121Y-89174002D01*
X71362614Y-89227658D01*
X71374000Y-89280000D01*
X71374000Y-117475000D01*
X78740000Y-117475000D01*
X78740000Y-110490000D01*
X80928318Y-110490000D01*
X80948956Y-110646762D01*
X81009464Y-110792841D01*
X81105718Y-110918282D01*
X81231159Y-111014536D01*
X81377238Y-111075044D01*
X81534000Y-111095682D01*
X81542188Y-111094604D01*
X81682574Y-111076122D01*
X81690762Y-111075044D01*
X81836841Y-111014536D01*
X81962282Y-110918282D01*
X82058536Y-110792841D01*
X82119044Y-110646762D01*
X82139682Y-110490000D01*
X82119044Y-110333238D01*
X82058536Y-110187159D01*
X81962282Y-110061718D01*
X81836841Y-109965464D01*
X81690762Y-109904956D01*
X81534000Y-109884318D01*
X81377238Y-109904956D01*
X81231159Y-109965464D01*
X81105718Y-110061718D01*
X81009464Y-110187159D01*
X80948956Y-110333238D01*
X80928318Y-110490000D01*
X78740000Y-110490000D01*
X78740000Y-103378000D01*
X80928318Y-103378000D01*
X80948956Y-103534762D01*
X81009464Y-103680841D01*
X81105718Y-103806282D01*
X81231159Y-103902536D01*
X81377238Y-103963044D01*
X81534000Y-103983682D01*
X81542188Y-103982604D01*
X81682574Y-103964122D01*
X81690762Y-103963044D01*
X81836841Y-103902536D01*
X81962282Y-103806282D01*
X82058536Y-103680841D01*
X82119044Y-103534762D01*
X82139682Y-103378000D01*
X82119044Y-103221238D01*
X82058536Y-103075159D01*
X81962282Y-102949718D01*
X81836841Y-102853464D01*
X81690762Y-102792956D01*
X81534000Y-102772318D01*
X81377238Y-102792956D01*
X81231159Y-102853464D01*
X81105718Y-102949718D01*
X81009464Y-103075159D01*
X80948956Y-103221238D01*
X80928318Y-103378000D01*
X78740000Y-103378000D01*
X78740000Y-96266000D01*
X80928318Y-96266000D01*
X80948956Y-96422762D01*
X81009464Y-96568841D01*
X81105718Y-96694282D01*
X81231159Y-96790536D01*
X81377238Y-96851044D01*
X81534000Y-96871682D01*
X81542188Y-96870604D01*
X81682574Y-96852122D01*
X81690762Y-96851044D01*
X81836841Y-96790536D01*
X81962282Y-96694282D01*
X82058536Y-96568841D01*
X82119044Y-96422762D01*
X82139682Y-96266000D01*
X82119044Y-96109238D01*
X82058536Y-95963159D01*
X81962282Y-95837718D01*
X81836841Y-95741464D01*
X81690762Y-95680956D01*
X81534000Y-95660318D01*
X81377238Y-95680956D01*
X81231159Y-95741464D01*
X81105718Y-95837718D01*
X81009464Y-95963159D01*
X80948956Y-96109238D01*
X80928318Y-96266000D01*
X78740000Y-96266000D01*
X78740000Y-89280000D01*
X78760002Y-89211879D01*
X78813658Y-89165386D01*
X78866000Y-89154000D01*
X84710000Y-89154000D01*
X84778121Y-89174002D01*
X84824614Y-89227658D01*
X84836000Y-89280000D01*
X84836000Y-117475000D01*
X93091000Y-117475000D01*
X93159121Y-117495002D01*
X93205614Y-117548658D01*
X93217000Y-117601000D01*
X93217000Y-122167835D01*
X93216490Y-122174000D01*
X93213308Y-122174000D01*
X93217393Y-122215475D01*
X93218000Y-122227825D01*
X93218000Y-123100281D01*
X93197733Y-123168811D01*
X93139985Y-123257905D01*
X93098907Y-123395261D01*
X93098031Y-123538624D01*
X93137428Y-123676471D01*
X93184014Y-123750305D01*
X93198562Y-123773363D01*
X93218000Y-123840598D01*
X93218000Y-123900281D01*
X93197733Y-123968811D01*
X93139985Y-124057905D01*
X93098907Y-124195261D01*
X93098031Y-124338624D01*
X93137428Y-124476471D01*
X93198562Y-124573363D01*
X93218000Y-124640598D01*
X93218000Y-124700281D01*
X93197733Y-124768811D01*
X93139985Y-124857905D01*
X93098907Y-124995261D01*
X93098031Y-125138624D01*
X93137428Y-125276471D01*
X93198562Y-125373363D01*
X93218000Y-125440598D01*
X93218000Y-125500281D01*
X93197733Y-125568811D01*
X93139985Y-125657905D01*
X93098907Y-125795261D01*
X93098852Y-125804237D01*
X93098852Y-125804238D01*
X93098484Y-125864445D01*
X93098031Y-125938624D01*
X93137428Y-126076471D01*
X93198562Y-126173363D01*
X93218000Y-126240598D01*
X93218000Y-126300281D01*
X93197733Y-126368811D01*
X93139985Y-126457905D01*
X93098907Y-126595261D01*
X93098031Y-126738624D01*
X93137428Y-126876471D01*
X93191777Y-126962609D01*
X93198562Y-126973363D01*
X93218000Y-127040598D01*
X93218000Y-127100281D01*
X93197733Y-127168811D01*
X93139985Y-127257905D01*
X93098907Y-127395261D01*
X93098031Y-127538624D01*
X93137428Y-127676471D01*
X93198562Y-127773363D01*
X93218000Y-127840598D01*
X93218000Y-127900281D01*
X93197733Y-127968811D01*
X93139985Y-128057905D01*
X93098907Y-128195261D01*
X93098031Y-128338624D01*
X93137428Y-128476471D01*
X93198562Y-128573363D01*
X93218000Y-128640598D01*
X93218000Y-129486175D01*
X93217393Y-129498525D01*
X93213308Y-129540000D01*
X93216632Y-129540000D01*
X93217000Y-129543918D01*
X93217000Y-130043881D01*
X93216730Y-130052122D01*
X93206068Y-130214794D01*
X93206017Y-130215542D01*
X93199273Y-130309831D01*
X93197173Y-130325423D01*
X93168522Y-130469463D01*
X93168075Y-130471608D01*
X93156641Y-130524171D01*
X93143964Y-130582443D01*
X93140157Y-130596160D01*
X93094157Y-130731672D01*
X93092900Y-130735203D01*
X93071773Y-130791848D01*
X93051995Y-130844874D01*
X93046953Y-130856551D01*
X92984313Y-130983573D01*
X92981911Y-130988199D01*
X92925136Y-131092173D01*
X92919314Y-131101789D01*
X92841047Y-131218924D01*
X92837150Y-131224431D01*
X92765807Y-131319734D01*
X92759671Y-131327303D01*
X92666958Y-131433022D01*
X92661321Y-131439039D01*
X92577039Y-131523321D01*
X92571022Y-131528958D01*
X92465303Y-131621671D01*
X92457734Y-131627807D01*
X92362431Y-131699150D01*
X92356924Y-131703047D01*
X92239789Y-131781314D01*
X92230173Y-131787136D01*
X92171781Y-131819021D01*
X92126183Y-131843919D01*
X92121573Y-131846313D01*
X91994551Y-131908953D01*
X91982874Y-131913995D01*
X91929848Y-131933773D01*
X91873203Y-131954900D01*
X91869672Y-131956157D01*
X91734160Y-132002157D01*
X91720443Y-132005964D01*
X91662171Y-132018641D01*
X91609608Y-132030075D01*
X91607498Y-132030515D01*
X91553770Y-132041202D01*
X91463423Y-132059173D01*
X91447831Y-132061273D01*
X91353542Y-132068017D01*
X91352794Y-132068068D01*
X91190122Y-132078730D01*
X91181881Y-132079000D01*
X76458119Y-132079000D01*
X76449878Y-132078730D01*
X76287206Y-132068068D01*
X76286458Y-132068017D01*
X76192169Y-132061273D01*
X76176577Y-132059173D01*
X76086230Y-132041202D01*
X76032502Y-132030515D01*
X76030392Y-132030075D01*
X75977829Y-132018641D01*
X75919557Y-132005964D01*
X75905840Y-132002157D01*
X75770328Y-131956157D01*
X75766797Y-131954900D01*
X75710152Y-131933773D01*
X75657126Y-131913995D01*
X75645449Y-131908953D01*
X75518427Y-131846313D01*
X75513817Y-131843919D01*
X75468219Y-131819021D01*
X75409827Y-131787136D01*
X75400211Y-131781314D01*
X75283076Y-131703047D01*
X75277569Y-131699150D01*
X75182266Y-131627807D01*
X75174697Y-131621671D01*
X75068978Y-131528958D01*
X75062961Y-131523321D01*
X74978679Y-131439039D01*
X74973042Y-131433022D01*
X74880329Y-131327303D01*
X74874193Y-131319734D01*
X74802850Y-131224431D01*
X74798953Y-131218924D01*
X74720686Y-131101789D01*
X74714864Y-131092173D01*
X74658089Y-130988199D01*
X74655687Y-130983573D01*
X74593047Y-130856551D01*
X74588005Y-130844874D01*
X74568227Y-130791848D01*
X74547100Y-130735203D01*
X74545843Y-130731672D01*
X74499843Y-130596160D01*
X74496036Y-130582443D01*
X74483359Y-130524171D01*
X74471925Y-130471608D01*
X74471478Y-130469463D01*
X74442827Y-130325423D01*
X74440727Y-130309831D01*
X74433983Y-130215542D01*
X74433932Y-130214794D01*
X74424148Y-130065517D01*
X74425165Y-130048000D01*
X74427362Y-130048000D01*
X74409932Y-129782071D01*
X74402590Y-129745159D01*
X74358747Y-129524742D01*
X74358745Y-129524736D01*
X74357941Y-129520692D01*
X74350417Y-129498525D01*
X74273601Y-129272236D01*
X74272277Y-129268335D01*
X74261559Y-129246600D01*
X74156233Y-129033022D01*
X74154407Y-129029319D01*
X74136081Y-129001892D01*
X74008641Y-128811164D01*
X74008637Y-128811159D01*
X74006348Y-128807733D01*
X74003634Y-128804639D01*
X74003630Y-128804633D01*
X73833341Y-128610457D01*
X73830632Y-128607368D01*
X73690027Y-128484060D01*
X73633367Y-128434370D01*
X73633361Y-128434366D01*
X73630267Y-128431652D01*
X73626841Y-128429363D01*
X73626836Y-128429359D01*
X73412116Y-128285888D01*
X73412114Y-128285887D01*
X73408681Y-128283593D01*
X73314404Y-128237101D01*
X73173358Y-128167544D01*
X73173356Y-128167543D01*
X73169665Y-128165723D01*
X73057303Y-128127581D01*
X72921218Y-128081386D01*
X72921214Y-128081385D01*
X72917308Y-128080059D01*
X72913264Y-128079255D01*
X72913258Y-128079253D01*
X72659972Y-128028872D01*
X72659969Y-128028872D01*
X72655929Y-128028068D01*
X72651818Y-128027799D01*
X72651814Y-128027798D01*
X72507759Y-128018356D01*
X72441092Y-127993941D01*
X72398208Y-127937360D01*
X72390000Y-127892626D01*
X72390000Y-127508000D01*
X54147734Y-127508000D01*
X54079613Y-127487998D01*
X54033120Y-127434342D01*
X54023016Y-127364068D01*
X54031325Y-127333782D01*
X54048884Y-127291391D01*
X54052044Y-127283762D01*
X54072682Y-127127000D01*
X54052044Y-126970238D01*
X53991536Y-126824159D01*
X53895282Y-126698718D01*
X53897208Y-126697240D01*
X53869110Y-126645783D01*
X53874175Y-126574968D01*
X53896506Y-126540221D01*
X53895282Y-126539282D01*
X53953409Y-126463529D01*
X53991536Y-126413841D01*
X54052044Y-126267762D01*
X54072682Y-126111000D01*
X54052044Y-125954238D01*
X53991536Y-125808159D01*
X53895282Y-125682718D01*
X53769841Y-125586464D01*
X53623762Y-125525956D01*
X53467000Y-125505318D01*
X53310238Y-125525956D01*
X53164159Y-125586464D01*
X53038718Y-125682718D01*
X53037240Y-125680792D01*
X52985783Y-125708890D01*
X52914968Y-125703825D01*
X52880221Y-125681494D01*
X52879282Y-125682718D01*
X52760392Y-125591491D01*
X52753841Y-125586464D01*
X52607762Y-125525956D01*
X52451000Y-125505318D01*
X52294238Y-125525956D01*
X52148159Y-125586464D01*
X52022718Y-125682718D01*
X51926464Y-125808159D01*
X51865956Y-125954238D01*
X51845318Y-126111000D01*
X51865956Y-126267762D01*
X51926464Y-126413841D01*
X51964591Y-126463529D01*
X52022718Y-126539282D01*
X52020792Y-126540760D01*
X52048890Y-126592217D01*
X52043825Y-126663032D01*
X52021494Y-126697779D01*
X52022718Y-126698718D01*
X51926464Y-126824159D01*
X51865956Y-126970238D01*
X51845318Y-127127000D01*
X51865956Y-127283762D01*
X51869116Y-127291391D01*
X51886675Y-127333782D01*
X51894264Y-127404372D01*
X51862485Y-127467859D01*
X51801427Y-127504086D01*
X51770266Y-127508000D01*
X51689000Y-127508000D01*
X51620879Y-127487998D01*
X51574386Y-127434342D01*
X51563000Y-127382000D01*
X51563000Y-123190000D01*
X51972318Y-123190000D01*
X51992956Y-123346762D01*
X52053464Y-123492841D01*
X52149718Y-123618282D01*
X52275159Y-123714536D01*
X52421238Y-123775044D01*
X52578000Y-123795682D01*
X52586188Y-123794604D01*
X52726574Y-123776122D01*
X52734762Y-123775044D01*
X52880841Y-123714536D01*
X53006282Y-123618282D01*
X53102536Y-123492841D01*
X53163044Y-123346762D01*
X53166962Y-123317000D01*
X66704318Y-123317000D01*
X66724956Y-123473762D01*
X66785464Y-123619841D01*
X66881718Y-123745282D01*
X67007159Y-123841536D01*
X67153238Y-123902044D01*
X67310000Y-123922682D01*
X67318188Y-123921604D01*
X67458574Y-123903122D01*
X67466762Y-123902044D01*
X67612841Y-123841536D01*
X67738282Y-123745282D01*
X67834536Y-123619841D01*
X67895044Y-123473762D01*
X67915682Y-123317000D01*
X67895044Y-123160238D01*
X67834536Y-123014159D01*
X67738282Y-122888718D01*
X67732006Y-122883902D01*
X67698055Y-122821728D01*
X67703120Y-122750913D01*
X67744471Y-122694983D01*
X67865282Y-122602282D01*
X67961536Y-122476841D01*
X68022044Y-122330762D01*
X68042682Y-122174000D01*
X68022044Y-122017238D01*
X67961536Y-121871159D01*
X67865282Y-121745718D01*
X67739841Y-121649464D01*
X67593762Y-121588956D01*
X67437000Y-121568318D01*
X67280238Y-121588956D01*
X67134159Y-121649464D01*
X67008718Y-121745718D01*
X66912464Y-121871159D01*
X66851956Y-122017238D01*
X66831318Y-122174000D01*
X66851956Y-122330762D01*
X66912464Y-122476841D01*
X67008718Y-122602282D01*
X67014994Y-122607098D01*
X67048945Y-122669272D01*
X67043880Y-122740087D01*
X67002529Y-122796017D01*
X66881718Y-122888718D01*
X66785464Y-123014159D01*
X66724956Y-123160238D01*
X66704318Y-123317000D01*
X53166962Y-123317000D01*
X53183682Y-123190000D01*
X53181415Y-123172783D01*
X53192353Y-123102637D01*
X53239480Y-123049537D01*
X53307834Y-123030346D01*
X53322774Y-123031414D01*
X53340000Y-123033682D01*
X53348188Y-123032604D01*
X53357220Y-123031415D01*
X53496762Y-123013044D01*
X53642841Y-122952536D01*
X53768282Y-122856282D01*
X53864536Y-122730841D01*
X53925044Y-122584762D01*
X53945682Y-122428000D01*
X53925044Y-122271238D01*
X53864536Y-122125159D01*
X53768282Y-121999718D01*
X53642841Y-121903464D01*
X53496762Y-121842956D01*
X53340000Y-121822318D01*
X53183238Y-121842956D01*
X53037159Y-121903464D01*
X52911718Y-121999718D01*
X52815464Y-122125159D01*
X52754956Y-122271238D01*
X52734318Y-122428000D01*
X52736585Y-122445217D01*
X52725647Y-122515363D01*
X52678520Y-122568463D01*
X52610166Y-122587654D01*
X52595226Y-122586586D01*
X52578000Y-122584318D01*
X52421238Y-122604956D01*
X52275159Y-122665464D01*
X52149718Y-122761718D01*
X52053464Y-122887159D01*
X51992956Y-123033238D01*
X51972318Y-123190000D01*
X51563000Y-123190000D01*
X51563000Y-117602000D01*
X54004318Y-117602000D01*
X54024956Y-117758762D01*
X54085464Y-117904841D01*
X54181718Y-118030282D01*
X54307159Y-118126536D01*
X54453238Y-118187044D01*
X54610000Y-118207682D01*
X54618188Y-118206604D01*
X54758574Y-118188122D01*
X54766762Y-118187044D01*
X54912841Y-118126536D01*
X55038282Y-118030282D01*
X55134536Y-117904841D01*
X55154767Y-117856000D01*
X67466318Y-117856000D01*
X67486956Y-118012762D01*
X67547464Y-118158841D01*
X67643718Y-118284282D01*
X67769159Y-118380536D01*
X67915238Y-118441044D01*
X68072000Y-118461682D01*
X68080188Y-118460604D01*
X68220574Y-118442122D01*
X68228762Y-118441044D01*
X68374841Y-118380536D01*
X68500282Y-118284282D01*
X68596536Y-118158841D01*
X68657044Y-118012762D01*
X68677682Y-117856000D01*
X68657044Y-117699238D01*
X68616767Y-117602000D01*
X80674316Y-117602000D01*
X80694954Y-117758762D01*
X80755462Y-117904841D01*
X80851716Y-118030282D01*
X80977157Y-118126536D01*
X81123236Y-118187044D01*
X81279998Y-118207682D01*
X81288186Y-118206604D01*
X81428572Y-118188122D01*
X81436760Y-118187044D01*
X81582839Y-118126536D01*
X81708280Y-118030282D01*
X81804534Y-117904841D01*
X81865042Y-117758762D01*
X81885680Y-117602000D01*
X81865042Y-117445238D01*
X81804534Y-117299159D01*
X81708280Y-117173718D01*
X81582839Y-117077464D01*
X81436760Y-117016956D01*
X81279998Y-116996318D01*
X81123236Y-117016956D01*
X80977157Y-117077464D01*
X80851716Y-117173718D01*
X80755462Y-117299159D01*
X80694954Y-117445238D01*
X80674316Y-117602000D01*
X68616767Y-117602000D01*
X68596536Y-117553159D01*
X68500282Y-117427718D01*
X68374841Y-117331464D01*
X68228762Y-117270956D01*
X68072000Y-117250318D01*
X67915238Y-117270956D01*
X67769159Y-117331464D01*
X67643718Y-117427718D01*
X67547464Y-117553159D01*
X67486956Y-117699238D01*
X67466318Y-117856000D01*
X55154767Y-117856000D01*
X55195044Y-117758762D01*
X55215682Y-117602000D01*
X55195044Y-117445238D01*
X55134536Y-117299159D01*
X55038282Y-117173718D01*
X54912841Y-117077464D01*
X54766762Y-117016956D01*
X54610000Y-116996318D01*
X54453238Y-117016956D01*
X54307159Y-117077464D01*
X54181718Y-117173718D01*
X54085464Y-117299159D01*
X54024956Y-117445238D01*
X54004318Y-117602000D01*
X51563000Y-117602000D01*
X51563000Y-110490000D01*
X54004318Y-110490000D01*
X54024956Y-110646762D01*
X54085464Y-110792841D01*
X54181718Y-110918282D01*
X54307159Y-111014536D01*
X54453238Y-111075044D01*
X54610000Y-111095682D01*
X54618188Y-111094604D01*
X54758574Y-111076122D01*
X54766762Y-111075044D01*
X54912841Y-111014536D01*
X55038282Y-110918282D01*
X55134536Y-110792841D01*
X55195044Y-110646762D01*
X55215682Y-110490000D01*
X55195044Y-110333238D01*
X55134536Y-110187159D01*
X55038282Y-110061718D01*
X54912841Y-109965464D01*
X54766762Y-109904956D01*
X54610000Y-109884318D01*
X54453238Y-109904956D01*
X54307159Y-109965464D01*
X54181718Y-110061718D01*
X54085464Y-110187159D01*
X54024956Y-110333238D01*
X54004318Y-110490000D01*
X51563000Y-110490000D01*
X51563000Y-103378000D01*
X54004318Y-103378000D01*
X54024956Y-103534762D01*
X54085464Y-103680841D01*
X54181718Y-103806282D01*
X54307159Y-103902536D01*
X54453238Y-103963044D01*
X54610000Y-103983682D01*
X54618188Y-103982604D01*
X54758574Y-103964122D01*
X54766762Y-103963044D01*
X54912841Y-103902536D01*
X55038282Y-103806282D01*
X55134536Y-103680841D01*
X55195044Y-103534762D01*
X55215682Y-103378000D01*
X55195044Y-103221238D01*
X55134536Y-103075159D01*
X55038282Y-102949718D01*
X54912841Y-102853464D01*
X54766762Y-102792956D01*
X54610000Y-102772318D01*
X54453238Y-102792956D01*
X54307159Y-102853464D01*
X54181718Y-102949718D01*
X54085464Y-103075159D01*
X54024956Y-103221238D01*
X54004318Y-103378000D01*
X51563000Y-103378000D01*
X51563000Y-96266000D01*
X54004318Y-96266000D01*
X54024956Y-96422762D01*
X54085464Y-96568841D01*
X54181718Y-96694282D01*
X54307159Y-96790536D01*
X54453238Y-96851044D01*
X54610000Y-96871682D01*
X54618188Y-96870604D01*
X54758574Y-96852122D01*
X54766762Y-96851044D01*
X54912841Y-96790536D01*
X55038282Y-96694282D01*
X55134536Y-96568841D01*
X55195044Y-96422762D01*
X55215682Y-96266000D01*
X55195044Y-96109238D01*
X55134536Y-95963159D01*
X55038282Y-95837718D01*
X54912841Y-95741464D01*
X54766762Y-95680956D01*
X54610000Y-95660318D01*
X54453238Y-95680956D01*
X54307159Y-95741464D01*
X54181718Y-95837718D01*
X54085464Y-95963159D01*
X54024956Y-96109238D01*
X54004318Y-96266000D01*
X51563000Y-96266000D01*
X51563000Y-89280000D01*
X51583002Y-89211879D01*
X51636658Y-89165386D01*
X51689000Y-89154000D01*
X57786000Y-89154000D01*
X57854121Y-89174002D01*
G37*
%TD.AperFunction*%
%TD*%
%TA.AperFunction,Conductor*%
%TO.N,GNDA*%
G36*
X101551804Y-118130002D02*
G01*
X101598297Y-118183658D01*
X101606354Y-118237399D01*
X101609499Y-118237399D01*
X101609499Y-118245658D01*
X101608421Y-118253846D01*
X101629059Y-118410608D01*
X101689567Y-118556687D01*
X101694594Y-118563238D01*
X101775669Y-118668897D01*
X101785821Y-118682128D01*
X101911262Y-118778382D01*
X102057341Y-118838890D01*
X102214103Y-118859528D01*
X102222291Y-118858450D01*
X102362677Y-118839968D01*
X102370865Y-118838890D01*
X102516944Y-118778382D01*
X102642385Y-118682128D01*
X102652538Y-118668897D01*
X102733612Y-118563238D01*
X102738639Y-118556687D01*
X102799147Y-118410608D01*
X102819785Y-118253846D01*
X102818707Y-118245658D01*
X102818707Y-118237399D01*
X102821945Y-118237399D01*
X102830547Y-118182283D01*
X102877682Y-118129190D01*
X102944523Y-118110000D01*
X108693770Y-118110000D01*
X108761891Y-118130002D01*
X108782868Y-118146907D01*
X108786690Y-118150729D01*
X108791718Y-118157282D01*
X108798268Y-118162308D01*
X108798269Y-118162309D01*
X108854438Y-118205409D01*
X108917159Y-118253536D01*
X109063238Y-118314044D01*
X109220000Y-118334682D01*
X109228188Y-118333604D01*
X109368574Y-118315122D01*
X109376762Y-118314044D01*
X109522841Y-118253536D01*
X109585562Y-118205409D01*
X109641731Y-118162309D01*
X109641732Y-118162308D01*
X109648282Y-118157282D01*
X109653310Y-118150729D01*
X109657132Y-118146907D01*
X109719444Y-118112880D01*
X109746230Y-118110000D01*
X109928170Y-118110000D01*
X109976386Y-118119590D01*
X110049142Y-118149727D01*
X110205904Y-118170365D01*
X110214092Y-118169287D01*
X110354478Y-118150805D01*
X110362666Y-118149727D01*
X110435422Y-118119590D01*
X110483638Y-118110000D01*
X114190912Y-118110000D01*
X114250373Y-118125933D01*
X114251159Y-118126536D01*
X114258785Y-118129695D01*
X114258787Y-118129696D01*
X114354369Y-118169287D01*
X114397238Y-118187044D01*
X114554000Y-118207682D01*
X114562188Y-118206604D01*
X114702574Y-118188122D01*
X114710762Y-118187044D01*
X114753631Y-118169287D01*
X114849213Y-118129696D01*
X114849215Y-118129695D01*
X114856841Y-118126536D01*
X114857627Y-118125933D01*
X114917088Y-118110000D01*
X123064000Y-118110000D01*
X123132121Y-118130002D01*
X123178614Y-118183658D01*
X123190000Y-118236000D01*
X123190000Y-126904500D01*
X123169998Y-126972621D01*
X123116342Y-127019114D01*
X123064000Y-127030500D01*
X122466278Y-127030500D01*
X122398157Y-127010498D01*
X122351664Y-126956842D01*
X122341560Y-126886568D01*
X122349869Y-126856282D01*
X122349870Y-126856281D01*
X122378044Y-126788262D01*
X122398682Y-126631500D01*
X122378044Y-126474738D01*
X122317536Y-126328659D01*
X122221282Y-126203218D01*
X122095841Y-126106964D01*
X121949762Y-126046456D01*
X121793000Y-126025818D01*
X121636238Y-126046456D01*
X121490159Y-126106964D01*
X121364718Y-126203218D01*
X121268464Y-126328659D01*
X121207956Y-126474738D01*
X121187318Y-126631500D01*
X121207956Y-126788262D01*
X121236131Y-126856281D01*
X121236131Y-126856282D01*
X121243720Y-126926871D01*
X121211941Y-126990358D01*
X121150883Y-127026586D01*
X121119722Y-127030500D01*
X115349100Y-127030500D01*
X115280979Y-127010498D01*
X115234486Y-126956842D01*
X115224382Y-126886568D01*
X115232691Y-126856282D01*
X115266044Y-126775762D01*
X115286682Y-126619000D01*
X115266044Y-126462238D01*
X115205536Y-126316159D01*
X115127668Y-126214679D01*
X115114305Y-126197264D01*
X115109282Y-126190718D01*
X114983841Y-126094464D01*
X114837762Y-126033956D01*
X114681000Y-126013318D01*
X114524238Y-126033956D01*
X114378159Y-126094464D01*
X114252718Y-126190718D01*
X114247695Y-126197264D01*
X114234332Y-126214679D01*
X114156464Y-126316159D01*
X114095956Y-126462238D01*
X114075318Y-126619000D01*
X114095956Y-126775762D01*
X114129309Y-126856282D01*
X114136898Y-126926871D01*
X114105119Y-126990358D01*
X114044061Y-127026586D01*
X114012900Y-127030500D01*
X113587409Y-127030500D01*
X113519288Y-127010498D01*
X113498314Y-126993595D01*
X112296026Y-125791307D01*
X112262000Y-125728995D01*
X112260199Y-125685765D01*
X112262065Y-125671597D01*
X112264886Y-125650167D01*
X112244248Y-125493405D01*
X112183740Y-125347326D01*
X112087486Y-125221885D01*
X111962045Y-125125631D01*
X111903482Y-125101374D01*
X111848203Y-125056825D01*
X111825782Y-124989462D01*
X111831045Y-124968000D01*
X117758318Y-124968000D01*
X117778956Y-125124762D01*
X117839464Y-125270841D01*
X117935718Y-125396282D01*
X118061159Y-125492536D01*
X118207238Y-125553044D01*
X118364000Y-125573682D01*
X118372188Y-125572604D01*
X118512574Y-125554122D01*
X118520762Y-125553044D01*
X118666841Y-125492536D01*
X118792282Y-125396282D01*
X118888536Y-125270841D01*
X118949044Y-125124762D01*
X118951251Y-125108000D01*
X121682318Y-125108000D01*
X121702956Y-125264762D01*
X121763464Y-125410841D01*
X121859718Y-125536282D01*
X121866264Y-125541305D01*
X121881563Y-125553044D01*
X121985159Y-125632536D01*
X122131238Y-125693044D01*
X122288000Y-125713682D01*
X122296188Y-125712604D01*
X122436574Y-125694122D01*
X122444762Y-125693044D01*
X122590841Y-125632536D01*
X122694437Y-125553044D01*
X122709736Y-125541305D01*
X122716282Y-125536282D01*
X122812536Y-125410841D01*
X122873044Y-125264762D01*
X122893682Y-125108000D01*
X122873044Y-124951238D01*
X122812536Y-124805159D01*
X122716282Y-124679718D01*
X122590841Y-124583464D01*
X122444762Y-124522956D01*
X122288000Y-124502318D01*
X122131238Y-124522956D01*
X121985159Y-124583464D01*
X121859718Y-124679718D01*
X121763464Y-124805159D01*
X121702956Y-124951238D01*
X121682318Y-125108000D01*
X118951251Y-125108000D01*
X118969682Y-124968000D01*
X118949044Y-124811238D01*
X118888536Y-124665159D01*
X118792282Y-124539718D01*
X118774556Y-124526116D01*
X118688391Y-124460000D01*
X118666841Y-124443464D01*
X118520762Y-124382956D01*
X118364000Y-124362318D01*
X118207238Y-124382956D01*
X118061159Y-124443464D01*
X118039609Y-124460000D01*
X117953445Y-124526116D01*
X117935718Y-124539718D01*
X117839464Y-124665159D01*
X117778956Y-124811238D01*
X117758318Y-124968000D01*
X111831045Y-124968000D01*
X111842145Y-124922729D01*
X111846141Y-124915695D01*
X111881542Y-124853378D01*
X111941123Y-124674272D01*
X111964780Y-124487005D01*
X111965157Y-124460000D01*
X111946738Y-124272145D01*
X111892181Y-124091445D01*
X111803566Y-123924783D01*
X111765572Y-123878198D01*
X111738018Y-123812766D01*
X111750213Y-123742825D01*
X111786512Y-123698599D01*
X111870369Y-123634254D01*
X111870372Y-123634251D01*
X111876918Y-123629228D01*
X111973172Y-123503787D01*
X112033680Y-123357708D01*
X112054318Y-123200946D01*
X112033680Y-123044184D01*
X111973172Y-122898105D01*
X111876918Y-122772664D01*
X111751477Y-122676410D01*
X111605398Y-122615902D01*
X111448636Y-122595264D01*
X111440448Y-122596342D01*
X111356664Y-122607372D01*
X111286515Y-122596432D01*
X111233417Y-122549304D01*
X111215296Y-122498896D01*
X111207124Y-122436821D01*
X111202044Y-122398238D01*
X111176847Y-122337407D01*
X111145863Y-122262605D01*
X111138274Y-122192015D01*
X111170053Y-122128528D01*
X111228387Y-122093030D01*
X111347748Y-122059703D01*
X111427297Y-122019520D01*
X111510728Y-121977377D01*
X111510730Y-121977376D01*
X111516229Y-121974598D01*
X111600030Y-121909125D01*
X116274443Y-121909125D01*
X116295081Y-122065887D01*
X116355589Y-122211966D01*
X116451843Y-122337407D01*
X116577284Y-122433661D01*
X116723363Y-122494169D01*
X116880125Y-122514807D01*
X116888313Y-122513729D01*
X117028699Y-122495247D01*
X117036887Y-122494169D01*
X117182966Y-122433661D01*
X117308407Y-122337407D01*
X117404661Y-122211966D01*
X117465169Y-122065887D01*
X117485807Y-121909125D01*
X117465169Y-121752363D01*
X117404661Y-121606284D01*
X117308407Y-121480843D01*
X117182966Y-121384589D01*
X117036887Y-121324081D01*
X116880125Y-121303443D01*
X116723363Y-121324081D01*
X116577284Y-121384589D01*
X116451843Y-121480843D01*
X116355589Y-121606284D01*
X116295081Y-121752363D01*
X116274443Y-121909125D01*
X111600030Y-121909125D01*
X111664970Y-121858388D01*
X111668996Y-121853724D01*
X111668999Y-121853721D01*
X111784278Y-121720169D01*
X111784279Y-121720167D01*
X111788307Y-121715501D01*
X111881542Y-121551378D01*
X111941123Y-121372272D01*
X111964780Y-121185005D01*
X111965157Y-121158000D01*
X111946738Y-120970145D01*
X111892181Y-120789445D01*
X111803566Y-120622783D01*
X111684266Y-120476508D01*
X111677978Y-120471306D01*
X111543577Y-120360120D01*
X111543574Y-120360118D01*
X111538827Y-120356191D01*
X111372788Y-120266414D01*
X111192474Y-120210597D01*
X111186356Y-120209954D01*
X111186351Y-120209953D01*
X111010881Y-120191511D01*
X111010879Y-120191511D01*
X111004752Y-120190867D01*
X110998609Y-120191426D01*
X110998607Y-120191426D01*
X110992457Y-120191383D01*
X110992465Y-120190213D01*
X110928956Y-120177676D01*
X110877795Y-120128451D01*
X110861368Y-120059381D01*
X110863679Y-120044780D01*
X110863544Y-120044762D01*
X110883104Y-119896188D01*
X110884182Y-119888000D01*
X110863544Y-119731238D01*
X110803036Y-119585159D01*
X110706782Y-119459718D01*
X110581341Y-119363464D01*
X110435262Y-119302956D01*
X110278500Y-119282318D01*
X110121738Y-119302956D01*
X109975659Y-119363464D01*
X109850218Y-119459718D01*
X109753964Y-119585159D01*
X109693456Y-119731238D01*
X109672818Y-119888000D01*
X109693456Y-120044762D01*
X109753964Y-120190841D01*
X109850218Y-120316282D01*
X109975659Y-120412536D01*
X110117544Y-120471307D01*
X110172824Y-120515854D01*
X110195245Y-120583218D01*
X110179739Y-120648416D01*
X110112022Y-120771591D01*
X110112017Y-120771603D01*
X110109052Y-120776996D01*
X110051978Y-120956917D01*
X110051292Y-120963036D01*
X110051291Y-120963039D01*
X110033616Y-121120609D01*
X110030937Y-121144496D01*
X110046732Y-121332590D01*
X110048431Y-121338515D01*
X110091120Y-121487389D01*
X110098760Y-121514034D01*
X110185040Y-121681917D01*
X110188865Y-121686743D01*
X110188867Y-121686746D01*
X110298456Y-121825014D01*
X110298460Y-121825019D01*
X110302285Y-121829844D01*
X110306979Y-121833839D01*
X110306982Y-121833842D01*
X110313174Y-121839112D01*
X110352086Y-121898496D01*
X110352715Y-121969490D01*
X110314862Y-122029553D01*
X110308222Y-122035020D01*
X110188718Y-122126718D01*
X110092464Y-122252159D01*
X110031956Y-122398238D01*
X110011318Y-122555000D01*
X110031956Y-122711762D01*
X110092464Y-122857841D01*
X110188718Y-122983282D01*
X110195264Y-122988305D01*
X110224918Y-123011059D01*
X110314159Y-123079536D01*
X110460238Y-123140044D01*
X110617000Y-123160682D01*
X110625188Y-123159604D01*
X110708972Y-123148574D01*
X110779121Y-123159514D01*
X110832219Y-123206642D01*
X110850340Y-123257050D01*
X110863592Y-123357708D01*
X110866754Y-123365343D01*
X110867198Y-123366998D01*
X110865508Y-123437975D01*
X110825714Y-123496771D01*
X110781066Y-123520483D01*
X110674675Y-123551796D01*
X110635697Y-123563268D01*
X110468420Y-123650718D01*
X110321316Y-123768993D01*
X110199986Y-123913588D01*
X110109052Y-124078996D01*
X110051978Y-124258917D01*
X110030937Y-124446496D01*
X110046732Y-124634590D01*
X110048431Y-124640515D01*
X110071527Y-124721062D01*
X110071076Y-124792057D01*
X110032314Y-124851539D01*
X109967547Y-124880621D01*
X109933966Y-124880714D01*
X109855000Y-124870318D01*
X109698238Y-124890956D01*
X109552159Y-124951464D01*
X109426718Y-125047718D01*
X109330464Y-125173159D01*
X109269956Y-125319238D01*
X109249318Y-125476000D01*
X109269956Y-125632762D01*
X109330464Y-125778841D01*
X109426718Y-125904282D01*
X109552159Y-126000536D01*
X109698238Y-126061044D01*
X109855000Y-126081682D01*
X109863188Y-126080604D01*
X110003574Y-126062122D01*
X110011762Y-126061044D01*
X110157841Y-126000536D01*
X110283282Y-125904282D01*
X110379536Y-125778841D01*
X110440044Y-125632762D01*
X110460682Y-125476000D01*
X110459854Y-125469712D01*
X110479606Y-125402443D01*
X110533262Y-125355950D01*
X110603536Y-125345846D01*
X110624536Y-125350730D01*
X110790317Y-125404595D01*
X110947630Y-125423354D01*
X110954633Y-125424189D01*
X111019906Y-125452117D01*
X111059719Y-125510900D01*
X111064636Y-125565748D01*
X111053522Y-125650167D01*
X111074160Y-125806929D01*
X111134668Y-125953008D01*
X111230922Y-126078449D01*
X111356363Y-126174703D01*
X111502442Y-126235211D01*
X111659204Y-126255849D01*
X111694804Y-126251162D01*
X111764950Y-126262101D01*
X111800344Y-126286989D01*
X113106254Y-127592899D01*
X113118332Y-127607853D01*
X113121564Y-127611405D01*
X113127212Y-127620152D01*
X113135389Y-127626598D01*
X113151123Y-127639002D01*
X113155059Y-127642500D01*
X113155147Y-127642396D01*
X113159106Y-127645751D01*
X113162784Y-127649429D01*
X113167009Y-127652448D01*
X113167017Y-127652455D01*
X113177113Y-127659669D01*
X113181863Y-127663236D01*
X113210668Y-127685944D01*
X113210671Y-127685945D01*
X113218848Y-127692392D01*
X113226826Y-127695194D01*
X113233707Y-127700111D01*
X113278880Y-127713621D01*
X113284477Y-127715440D01*
X113328943Y-127731055D01*
X113334081Y-127731500D01*
X113336786Y-127731500D01*
X113338983Y-127731595D01*
X113339517Y-127731755D01*
X113339516Y-127731782D01*
X113339634Y-127731789D01*
X113345501Y-127733544D01*
X113395056Y-127731597D01*
X113400003Y-127731500D01*
X114891746Y-127731500D01*
X114959867Y-127751502D01*
X115006360Y-127805158D01*
X115016464Y-127875432D01*
X114991709Y-127934204D01*
X114918464Y-128029659D01*
X114857956Y-128175738D01*
X114837318Y-128332500D01*
X114857956Y-128489262D01*
X114918464Y-128635341D01*
X115014718Y-128760782D01*
X115140159Y-128857036D01*
X115286238Y-128917544D01*
X115443000Y-128938182D01*
X115451188Y-128937104D01*
X115591574Y-128918622D01*
X115599762Y-128917544D01*
X115745841Y-128857036D01*
X115752393Y-128852009D01*
X115759546Y-128847879D01*
X115760927Y-128850271D01*
X115814510Y-128829552D01*
X115884059Y-128843813D01*
X115934858Y-128893412D01*
X115951000Y-128955115D01*
X115951000Y-129921000D01*
X115930998Y-129989121D01*
X115877342Y-130035614D01*
X115825000Y-130047000D01*
X98805000Y-130047000D01*
X98736879Y-130026998D01*
X98690386Y-129973342D01*
X98679000Y-129921000D01*
X98679000Y-127635000D01*
X103407318Y-127635000D01*
X103427956Y-127791762D01*
X103488464Y-127937841D01*
X103584718Y-128063282D01*
X103710159Y-128159536D01*
X103856238Y-128220044D01*
X104013000Y-128240682D01*
X104021188Y-128239604D01*
X104161574Y-128221122D01*
X104169762Y-128220044D01*
X104315841Y-128159536D01*
X104441282Y-128063282D01*
X104537536Y-127937841D01*
X104598044Y-127791762D01*
X104618682Y-127635000D01*
X104598044Y-127478238D01*
X104537536Y-127332159D01*
X104441282Y-127206718D01*
X104315841Y-127110464D01*
X104169762Y-127049956D01*
X104013000Y-127029318D01*
X103856238Y-127049956D01*
X103710159Y-127110464D01*
X103584718Y-127206718D01*
X103488464Y-127332159D01*
X103427956Y-127478238D01*
X103407318Y-127635000D01*
X98679000Y-127635000D01*
X98679000Y-127016378D01*
X98685442Y-126976606D01*
X98715394Y-126886568D01*
X98733123Y-126833272D01*
X98738485Y-126790827D01*
X100206818Y-126790827D01*
X100227456Y-126947589D01*
X100287964Y-127093668D01*
X100384218Y-127219109D01*
X100509659Y-127315363D01*
X100655738Y-127375871D01*
X100812500Y-127396509D01*
X100820688Y-127395431D01*
X100961074Y-127376949D01*
X100969262Y-127375871D01*
X101115341Y-127315363D01*
X101240782Y-127219109D01*
X101337036Y-127093668D01*
X101397544Y-126947589D01*
X101418182Y-126790827D01*
X101397544Y-126634065D01*
X101337036Y-126487986D01*
X101240782Y-126362545D01*
X101115341Y-126266291D01*
X100969262Y-126205783D01*
X100812500Y-126185145D01*
X100655738Y-126205783D01*
X100509659Y-126266291D01*
X100384218Y-126362545D01*
X100287964Y-126487986D01*
X100227456Y-126634065D01*
X100206818Y-126790827D01*
X98738485Y-126790827D01*
X98756780Y-126646005D01*
X98757157Y-126619000D01*
X98738738Y-126431145D01*
X98685487Y-126254771D01*
X98684378Y-126251097D01*
X98679000Y-126214679D01*
X98679000Y-125349000D01*
X105507283Y-125349000D01*
X105527921Y-125505762D01*
X105588429Y-125651841D01*
X105684683Y-125777282D01*
X105810124Y-125873536D01*
X105956203Y-125934044D01*
X106112965Y-125954682D01*
X106121153Y-125953604D01*
X106261539Y-125935122D01*
X106269727Y-125934044D01*
X106415806Y-125873536D01*
X106541247Y-125777282D01*
X106637501Y-125651841D01*
X106698009Y-125505762D01*
X106718647Y-125349000D01*
X106698009Y-125192238D01*
X106637501Y-125046159D01*
X106541247Y-124920718D01*
X106415806Y-124824464D01*
X106269727Y-124763956D01*
X106112965Y-124743318D01*
X105956203Y-124763956D01*
X105810124Y-124824464D01*
X105684683Y-124920718D01*
X105588429Y-125046159D01*
X105527921Y-125192238D01*
X105507283Y-125349000D01*
X98679000Y-125349000D01*
X98679000Y-124857378D01*
X98685442Y-124817606D01*
X98731176Y-124680124D01*
X98733123Y-124674272D01*
X98756780Y-124487005D01*
X98757157Y-124460000D01*
X98738738Y-124272145D01*
X98684378Y-124092097D01*
X98679000Y-124055679D01*
X98679000Y-123081230D01*
X98699002Y-123013109D01*
X98715907Y-122992132D01*
X98719729Y-122988310D01*
X98726282Y-122983282D01*
X98822536Y-122857841D01*
X98883044Y-122711762D01*
X98903682Y-122555000D01*
X98883044Y-122398238D01*
X98822536Y-122252159D01*
X98726282Y-122126718D01*
X98719729Y-122121690D01*
X98715907Y-122117868D01*
X98681880Y-122055556D01*
X98679000Y-122028770D01*
X98679000Y-121555378D01*
X98685442Y-121515606D01*
X98727353Y-121389616D01*
X98733123Y-121372272D01*
X98744148Y-121285000D01*
X105947318Y-121285000D01*
X105967956Y-121441762D01*
X106028464Y-121587841D01*
X106124718Y-121713282D01*
X106250159Y-121809536D01*
X106396238Y-121870044D01*
X106553000Y-121890682D01*
X106561188Y-121889604D01*
X106701574Y-121871122D01*
X106709762Y-121870044D01*
X106855841Y-121809536D01*
X106981282Y-121713282D01*
X107077536Y-121587841D01*
X107138044Y-121441762D01*
X107158682Y-121285000D01*
X107138044Y-121128238D01*
X107077536Y-120982159D01*
X106981282Y-120856718D01*
X106855841Y-120760464D01*
X106709762Y-120699956D01*
X106553000Y-120679318D01*
X106396238Y-120699956D01*
X106250159Y-120760464D01*
X106124718Y-120856718D01*
X106028464Y-120982159D01*
X105967956Y-121128238D01*
X105947318Y-121285000D01*
X98744148Y-121285000D01*
X98756780Y-121185005D01*
X98757157Y-121158000D01*
X98738738Y-120970145D01*
X98720681Y-120910338D01*
X98684378Y-120790097D01*
X98679000Y-120753679D01*
X98679000Y-119273501D01*
X105947318Y-119273501D01*
X105967956Y-119430263D01*
X106028464Y-119576342D01*
X106124718Y-119701783D01*
X106250159Y-119798037D01*
X106396238Y-119858545D01*
X106553000Y-119879183D01*
X106561188Y-119878105D01*
X106701574Y-119859623D01*
X106709762Y-119858545D01*
X106855841Y-119798037D01*
X106981282Y-119701783D01*
X107077536Y-119576342D01*
X107138044Y-119430263D01*
X107158682Y-119273501D01*
X107138044Y-119116739D01*
X107077536Y-118970660D01*
X106992262Y-118859528D01*
X106986305Y-118851765D01*
X106981282Y-118845219D01*
X106855841Y-118748965D01*
X106709762Y-118688457D01*
X106553000Y-118667819D01*
X106396238Y-118688457D01*
X106250159Y-118748965D01*
X106124718Y-118845219D01*
X106119695Y-118851765D01*
X106113738Y-118859528D01*
X106028464Y-118970660D01*
X105967956Y-119116739D01*
X105947318Y-119273501D01*
X98679000Y-119273501D01*
X98679000Y-118859615D01*
X98699002Y-118791494D01*
X98752658Y-118745001D01*
X98822932Y-118734897D01*
X98869276Y-118754420D01*
X98870454Y-118752379D01*
X98877607Y-118756509D01*
X98884159Y-118761536D01*
X99030238Y-118822044D01*
X99187000Y-118842682D01*
X99195188Y-118841604D01*
X99335574Y-118823122D01*
X99343762Y-118822044D01*
X99489841Y-118761536D01*
X99615282Y-118665282D01*
X99711536Y-118539841D01*
X99772044Y-118393762D01*
X99792682Y-118237000D01*
X99792257Y-118233775D01*
X99811606Y-118167879D01*
X99865262Y-118121386D01*
X99917604Y-118110000D01*
X101483683Y-118110000D01*
X101551804Y-118130002D01*
G37*
%TD.AperFunction*%
%TD*%
M02*
