%TF.GenerationSoftware,KiCad,Pcbnew,6.0.4-1.fc35*%
%TF.CreationDate,2022-04-18T17:29:02+01:00*%
%TF.ProjectId,esc,6573632e-6b69-4636-9164-5f7063625858,rev?*%
%TF.SameCoordinates,Original*%
%TF.FileFunction,Legend,Top*%
%TF.FilePolarity,Positive*%
%FSLAX46Y46*%
G04 Gerber Fmt 4.6, Leading zero omitted, Abs format (unit mm)*
G04 Created by KiCad (PCBNEW 6.0.4-1.fc35) date 2022-04-18 17:29:02*
%MOMM*%
%LPD*%
G01*
G04 APERTURE LIST*
%ADD10C,0.150000*%
%ADD11C,0.120000*%
%ADD12C,0.160000*%
G04 APERTURE END LIST*
D10*
%TO.C,TP12*%
X173013904Y-64984380D02*
X173585333Y-64984380D01*
X173299619Y-65984380D02*
X173299619Y-64984380D01*
X173918666Y-65984380D02*
X173918666Y-64984380D01*
X174299619Y-64984380D01*
X174394857Y-65032000D01*
X174442476Y-65079619D01*
X174490095Y-65174857D01*
X174490095Y-65317714D01*
X174442476Y-65412952D01*
X174394857Y-65460571D01*
X174299619Y-65508190D01*
X173918666Y-65508190D01*
X175442476Y-65984380D02*
X174871047Y-65984380D01*
X175156761Y-65984380D02*
X175156761Y-64984380D01*
X175061523Y-65127238D01*
X174966285Y-65222476D01*
X174871047Y-65270095D01*
X175823428Y-65079619D02*
X175871047Y-65032000D01*
X175966285Y-64984380D01*
X176204380Y-64984380D01*
X176299619Y-65032000D01*
X176347238Y-65079619D01*
X176394857Y-65174857D01*
X176394857Y-65270095D01*
X176347238Y-65412952D01*
X175775809Y-65984380D01*
X176394857Y-65984380D01*
%TO.C,TP11*%
X167933904Y-54900380D02*
X168505333Y-54900380D01*
X168219619Y-55900380D02*
X168219619Y-54900380D01*
X168838666Y-55900380D02*
X168838666Y-54900380D01*
X169219619Y-54900380D01*
X169314857Y-54948000D01*
X169362476Y-54995619D01*
X169410095Y-55090857D01*
X169410095Y-55233714D01*
X169362476Y-55328952D01*
X169314857Y-55376571D01*
X169219619Y-55424190D01*
X168838666Y-55424190D01*
X170362476Y-55900380D02*
X169791047Y-55900380D01*
X170076761Y-55900380D02*
X170076761Y-54900380D01*
X169981523Y-55043238D01*
X169886285Y-55138476D01*
X169791047Y-55186095D01*
X171314857Y-55900380D02*
X170743428Y-55900380D01*
X171029142Y-55900380D02*
X171029142Y-54900380D01*
X170933904Y-55043238D01*
X170838666Y-55138476D01*
X170743428Y-55186095D01*
%TO.C,TP10*%
X174791904Y-48474380D02*
X175363333Y-48474380D01*
X175077619Y-49474380D02*
X175077619Y-48474380D01*
X175696666Y-49474380D02*
X175696666Y-48474380D01*
X176077619Y-48474380D01*
X176172857Y-48522000D01*
X176220476Y-48569619D01*
X176268095Y-48664857D01*
X176268095Y-48807714D01*
X176220476Y-48902952D01*
X176172857Y-48950571D01*
X176077619Y-48998190D01*
X175696666Y-48998190D01*
X177220476Y-49474380D02*
X176649047Y-49474380D01*
X176934761Y-49474380D02*
X176934761Y-48474380D01*
X176839523Y-48617238D01*
X176744285Y-48712476D01*
X176649047Y-48760095D01*
X177839523Y-48474380D02*
X177934761Y-48474380D01*
X178030000Y-48522000D01*
X178077619Y-48569619D01*
X178125238Y-48664857D01*
X178172857Y-48855333D01*
X178172857Y-49093428D01*
X178125238Y-49283904D01*
X178077619Y-49379142D01*
X178030000Y-49426761D01*
X177934761Y-49474380D01*
X177839523Y-49474380D01*
X177744285Y-49426761D01*
X177696666Y-49379142D01*
X177649047Y-49283904D01*
X177601428Y-49093428D01*
X177601428Y-48855333D01*
X177649047Y-48664857D01*
X177696666Y-48569619D01*
X177744285Y-48522000D01*
X177839523Y-48474380D01*
%TO.C,U17*%
X164623904Y-42632380D02*
X164623904Y-43441904D01*
X164671523Y-43537142D01*
X164719142Y-43584761D01*
X164814380Y-43632380D01*
X165004857Y-43632380D01*
X165100095Y-43584761D01*
X165147714Y-43537142D01*
X165195333Y-43441904D01*
X165195333Y-42632380D01*
X166195333Y-43632380D02*
X165623904Y-43632380D01*
X165909619Y-43632380D02*
X165909619Y-42632380D01*
X165814380Y-42775238D01*
X165719142Y-42870476D01*
X165623904Y-42918095D01*
X166528666Y-42632380D02*
X167195333Y-42632380D01*
X166766761Y-43632380D01*
%TO.C,R43*%
X147947142Y-58364380D02*
X147613809Y-57888190D01*
X147375714Y-58364380D02*
X147375714Y-57364380D01*
X147756666Y-57364380D01*
X147851904Y-57412000D01*
X147899523Y-57459619D01*
X147947142Y-57554857D01*
X147947142Y-57697714D01*
X147899523Y-57792952D01*
X147851904Y-57840571D01*
X147756666Y-57888190D01*
X147375714Y-57888190D01*
X148804285Y-57697714D02*
X148804285Y-58364380D01*
X148566190Y-57316761D02*
X148328095Y-58031047D01*
X148947142Y-58031047D01*
X149232857Y-57364380D02*
X149851904Y-57364380D01*
X149518571Y-57745333D01*
X149661428Y-57745333D01*
X149756666Y-57792952D01*
X149804285Y-57840571D01*
X149851904Y-57935809D01*
X149851904Y-58173904D01*
X149804285Y-58269142D01*
X149756666Y-58316761D01*
X149661428Y-58364380D01*
X149375714Y-58364380D01*
X149280476Y-58316761D01*
X149232857Y-58269142D01*
%TO.C,R13*%
X175125142Y-52776380D02*
X174791809Y-52300190D01*
X174553714Y-52776380D02*
X174553714Y-51776380D01*
X174934666Y-51776380D01*
X175029904Y-51824000D01*
X175077523Y-51871619D01*
X175125142Y-51966857D01*
X175125142Y-52109714D01*
X175077523Y-52204952D01*
X175029904Y-52252571D01*
X174934666Y-52300190D01*
X174553714Y-52300190D01*
X176077523Y-52776380D02*
X175506095Y-52776380D01*
X175791809Y-52776380D02*
X175791809Y-51776380D01*
X175696571Y-51919238D01*
X175601333Y-52014476D01*
X175506095Y-52062095D01*
X176410857Y-51776380D02*
X177029904Y-51776380D01*
X176696571Y-52157333D01*
X176839428Y-52157333D01*
X176934666Y-52204952D01*
X176982285Y-52252571D01*
X177029904Y-52347809D01*
X177029904Y-52585904D01*
X176982285Y-52681142D01*
X176934666Y-52728761D01*
X176839428Y-52776380D01*
X176553714Y-52776380D01*
X176458476Y-52728761D01*
X176410857Y-52681142D01*
%TO.C,SW3*%
X197254761Y-34861333D02*
X197302380Y-34718476D01*
X197302380Y-34480380D01*
X197254761Y-34385142D01*
X197207142Y-34337523D01*
X197111904Y-34289904D01*
X197016666Y-34289904D01*
X196921428Y-34337523D01*
X196873809Y-34385142D01*
X196826190Y-34480380D01*
X196778571Y-34670857D01*
X196730952Y-34766095D01*
X196683333Y-34813714D01*
X196588095Y-34861333D01*
X196492857Y-34861333D01*
X196397619Y-34813714D01*
X196350000Y-34766095D01*
X196302380Y-34670857D01*
X196302380Y-34432761D01*
X196350000Y-34289904D01*
X196302380Y-33956571D02*
X197302380Y-33718476D01*
X196588095Y-33528000D01*
X197302380Y-33337523D01*
X196302380Y-33099428D01*
X196302380Y-32813714D02*
X196302380Y-32194666D01*
X196683333Y-32528000D01*
X196683333Y-32385142D01*
X196730952Y-32289904D01*
X196778571Y-32242285D01*
X196873809Y-32194666D01*
X197111904Y-32194666D01*
X197207142Y-32242285D01*
X197254761Y-32289904D01*
X197302380Y-32385142D01*
X197302380Y-32670857D01*
X197254761Y-32766095D01*
X197207142Y-32813714D01*
%TO.C,U11*%
X164877904Y-48728380D02*
X164877904Y-49537904D01*
X164925523Y-49633142D01*
X164973142Y-49680761D01*
X165068380Y-49728380D01*
X165258857Y-49728380D01*
X165354095Y-49680761D01*
X165401714Y-49633142D01*
X165449333Y-49537904D01*
X165449333Y-48728380D01*
X166449333Y-49728380D02*
X165877904Y-49728380D01*
X166163619Y-49728380D02*
X166163619Y-48728380D01*
X166068380Y-48871238D01*
X165973142Y-48966476D01*
X165877904Y-49014095D01*
X167401714Y-49728380D02*
X166830285Y-49728380D01*
X167116000Y-49728380D02*
X167116000Y-48728380D01*
X167020761Y-48871238D01*
X166925523Y-48966476D01*
X166830285Y-49014095D01*
%TO.C,D18*%
X167949714Y-59380380D02*
X167949714Y-58380380D01*
X168187809Y-58380380D01*
X168330666Y-58428000D01*
X168425904Y-58523238D01*
X168473523Y-58618476D01*
X168521142Y-58808952D01*
X168521142Y-58951809D01*
X168473523Y-59142285D01*
X168425904Y-59237523D01*
X168330666Y-59332761D01*
X168187809Y-59380380D01*
X167949714Y-59380380D01*
X169473523Y-59380380D02*
X168902095Y-59380380D01*
X169187809Y-59380380D02*
X169187809Y-58380380D01*
X169092571Y-58523238D01*
X168997333Y-58618476D01*
X168902095Y-58666095D01*
X170044952Y-58808952D02*
X169949714Y-58761333D01*
X169902095Y-58713714D01*
X169854476Y-58618476D01*
X169854476Y-58570857D01*
X169902095Y-58475619D01*
X169949714Y-58428000D01*
X170044952Y-58380380D01*
X170235428Y-58380380D01*
X170330666Y-58428000D01*
X170378285Y-58475619D01*
X170425904Y-58570857D01*
X170425904Y-58618476D01*
X170378285Y-58713714D01*
X170330666Y-58761333D01*
X170235428Y-58808952D01*
X170044952Y-58808952D01*
X169949714Y-58856571D01*
X169902095Y-58904190D01*
X169854476Y-58999428D01*
X169854476Y-59189904D01*
X169902095Y-59285142D01*
X169949714Y-59332761D01*
X170044952Y-59380380D01*
X170235428Y-59380380D01*
X170330666Y-59332761D01*
X170378285Y-59285142D01*
X170425904Y-59189904D01*
X170425904Y-58999428D01*
X170378285Y-58904190D01*
X170330666Y-58856571D01*
X170235428Y-58808952D01*
%TO.C,D38*%
X144581714Y-38298380D02*
X144581714Y-37298380D01*
X144819809Y-37298380D01*
X144962666Y-37346000D01*
X145057904Y-37441238D01*
X145105523Y-37536476D01*
X145153142Y-37726952D01*
X145153142Y-37869809D01*
X145105523Y-38060285D01*
X145057904Y-38155523D01*
X144962666Y-38250761D01*
X144819809Y-38298380D01*
X144581714Y-38298380D01*
X145486476Y-37298380D02*
X146105523Y-37298380D01*
X145772190Y-37679333D01*
X145915047Y-37679333D01*
X146010285Y-37726952D01*
X146057904Y-37774571D01*
X146105523Y-37869809D01*
X146105523Y-38107904D01*
X146057904Y-38203142D01*
X146010285Y-38250761D01*
X145915047Y-38298380D01*
X145629333Y-38298380D01*
X145534095Y-38250761D01*
X145486476Y-38203142D01*
X146676952Y-37726952D02*
X146581714Y-37679333D01*
X146534095Y-37631714D01*
X146486476Y-37536476D01*
X146486476Y-37488857D01*
X146534095Y-37393619D01*
X146581714Y-37346000D01*
X146676952Y-37298380D01*
X146867428Y-37298380D01*
X146962666Y-37346000D01*
X147010285Y-37393619D01*
X147057904Y-37488857D01*
X147057904Y-37536476D01*
X147010285Y-37631714D01*
X146962666Y-37679333D01*
X146867428Y-37726952D01*
X146676952Y-37726952D01*
X146581714Y-37774571D01*
X146534095Y-37822190D01*
X146486476Y-37917428D01*
X146486476Y-38107904D01*
X146534095Y-38203142D01*
X146581714Y-38250761D01*
X146676952Y-38298380D01*
X146867428Y-38298380D01*
X146962666Y-38250761D01*
X147010285Y-38203142D01*
X147057904Y-38107904D01*
X147057904Y-37917428D01*
X147010285Y-37822190D01*
X146962666Y-37774571D01*
X146867428Y-37726952D01*
%TO.C,R14*%
X175125142Y-55824380D02*
X174791809Y-55348190D01*
X174553714Y-55824380D02*
X174553714Y-54824380D01*
X174934666Y-54824380D01*
X175029904Y-54872000D01*
X175077523Y-54919619D01*
X175125142Y-55014857D01*
X175125142Y-55157714D01*
X175077523Y-55252952D01*
X175029904Y-55300571D01*
X174934666Y-55348190D01*
X174553714Y-55348190D01*
X176077523Y-55824380D02*
X175506095Y-55824380D01*
X175791809Y-55824380D02*
X175791809Y-54824380D01*
X175696571Y-54967238D01*
X175601333Y-55062476D01*
X175506095Y-55110095D01*
X176934666Y-55157714D02*
X176934666Y-55824380D01*
X176696571Y-54776761D02*
X176458476Y-55491047D01*
X177077523Y-55491047D01*
%TO.C,C40*%
X147185142Y-71731142D02*
X147137523Y-71778761D01*
X146994666Y-71826380D01*
X146899428Y-71826380D01*
X146756571Y-71778761D01*
X146661333Y-71683523D01*
X146613714Y-71588285D01*
X146566095Y-71397809D01*
X146566095Y-71254952D01*
X146613714Y-71064476D01*
X146661333Y-70969238D01*
X146756571Y-70874000D01*
X146899428Y-70826380D01*
X146994666Y-70826380D01*
X147137523Y-70874000D01*
X147185142Y-70921619D01*
X148042285Y-71159714D02*
X148042285Y-71826380D01*
X147804190Y-70778761D02*
X147566095Y-71493047D01*
X148185142Y-71493047D01*
X148756571Y-70826380D02*
X148851809Y-70826380D01*
X148947047Y-70874000D01*
X148994666Y-70921619D01*
X149042285Y-71016857D01*
X149089904Y-71207333D01*
X149089904Y-71445428D01*
X149042285Y-71635904D01*
X148994666Y-71731142D01*
X148947047Y-71778761D01*
X148851809Y-71826380D01*
X148756571Y-71826380D01*
X148661333Y-71778761D01*
X148613714Y-71731142D01*
X148566095Y-71635904D01*
X148518476Y-71445428D01*
X148518476Y-71207333D01*
X148566095Y-71016857D01*
X148613714Y-70921619D01*
X148661333Y-70874000D01*
X148756571Y-70826380D01*
%TO.C,L3*%
X187031333Y-56840380D02*
X186555142Y-56840380D01*
X186555142Y-55840380D01*
X187269428Y-55840380D02*
X187888476Y-55840380D01*
X187555142Y-56221333D01*
X187698000Y-56221333D01*
X187793238Y-56268952D01*
X187840857Y-56316571D01*
X187888476Y-56411809D01*
X187888476Y-56649904D01*
X187840857Y-56745142D01*
X187793238Y-56792761D01*
X187698000Y-56840380D01*
X187412285Y-56840380D01*
X187317047Y-56792761D01*
X187269428Y-56745142D01*
%TO.C,C33*%
X165473142Y-56237142D02*
X165425523Y-56284761D01*
X165282666Y-56332380D01*
X165187428Y-56332380D01*
X165044571Y-56284761D01*
X164949333Y-56189523D01*
X164901714Y-56094285D01*
X164854095Y-55903809D01*
X164854095Y-55760952D01*
X164901714Y-55570476D01*
X164949333Y-55475238D01*
X165044571Y-55380000D01*
X165187428Y-55332380D01*
X165282666Y-55332380D01*
X165425523Y-55380000D01*
X165473142Y-55427619D01*
X165806476Y-55332380D02*
X166425523Y-55332380D01*
X166092190Y-55713333D01*
X166235047Y-55713333D01*
X166330285Y-55760952D01*
X166377904Y-55808571D01*
X166425523Y-55903809D01*
X166425523Y-56141904D01*
X166377904Y-56237142D01*
X166330285Y-56284761D01*
X166235047Y-56332380D01*
X165949333Y-56332380D01*
X165854095Y-56284761D01*
X165806476Y-56237142D01*
X166758857Y-55332380D02*
X167377904Y-55332380D01*
X167044571Y-55713333D01*
X167187428Y-55713333D01*
X167282666Y-55760952D01*
X167330285Y-55808571D01*
X167377904Y-55903809D01*
X167377904Y-56141904D01*
X167330285Y-56237142D01*
X167282666Y-56284761D01*
X167187428Y-56332380D01*
X166901714Y-56332380D01*
X166806476Y-56284761D01*
X166758857Y-56237142D01*
%TO.C,R1*%
X175966380Y-70270666D02*
X175490190Y-70604000D01*
X175966380Y-70842095D02*
X174966380Y-70842095D01*
X174966380Y-70461142D01*
X175014000Y-70365904D01*
X175061619Y-70318285D01*
X175156857Y-70270666D01*
X175299714Y-70270666D01*
X175394952Y-70318285D01*
X175442571Y-70365904D01*
X175490190Y-70461142D01*
X175490190Y-70842095D01*
X175966380Y-69318285D02*
X175966380Y-69889714D01*
X175966380Y-69604000D02*
X174966380Y-69604000D01*
X175109238Y-69699238D01*
X175204476Y-69794476D01*
X175252095Y-69889714D01*
%TO.C,C5*%
X124293333Y-71731142D02*
X124245714Y-71778761D01*
X124102857Y-71826380D01*
X124007619Y-71826380D01*
X123864761Y-71778761D01*
X123769523Y-71683523D01*
X123721904Y-71588285D01*
X123674285Y-71397809D01*
X123674285Y-71254952D01*
X123721904Y-71064476D01*
X123769523Y-70969238D01*
X123864761Y-70874000D01*
X124007619Y-70826380D01*
X124102857Y-70826380D01*
X124245714Y-70874000D01*
X124293333Y-70921619D01*
X125198095Y-70826380D02*
X124721904Y-70826380D01*
X124674285Y-71302571D01*
X124721904Y-71254952D01*
X124817142Y-71207333D01*
X125055238Y-71207333D01*
X125150476Y-71254952D01*
X125198095Y-71302571D01*
X125245714Y-71397809D01*
X125245714Y-71635904D01*
X125198095Y-71731142D01*
X125150476Y-71778761D01*
X125055238Y-71826380D01*
X124817142Y-71826380D01*
X124721904Y-71778761D01*
X124674285Y-71731142D01*
%TO.C,C42*%
X147693142Y-65127142D02*
X147645523Y-65174761D01*
X147502666Y-65222380D01*
X147407428Y-65222380D01*
X147264571Y-65174761D01*
X147169333Y-65079523D01*
X147121714Y-64984285D01*
X147074095Y-64793809D01*
X147074095Y-64650952D01*
X147121714Y-64460476D01*
X147169333Y-64365238D01*
X147264571Y-64270000D01*
X147407428Y-64222380D01*
X147502666Y-64222380D01*
X147645523Y-64270000D01*
X147693142Y-64317619D01*
X148550285Y-64555714D02*
X148550285Y-65222380D01*
X148312190Y-64174761D02*
X148074095Y-64889047D01*
X148693142Y-64889047D01*
X149026476Y-64317619D02*
X149074095Y-64270000D01*
X149169333Y-64222380D01*
X149407428Y-64222380D01*
X149502666Y-64270000D01*
X149550285Y-64317619D01*
X149597904Y-64412857D01*
X149597904Y-64508095D01*
X149550285Y-64650952D01*
X148978857Y-65222380D01*
X149597904Y-65222380D01*
%TO.C,D31*%
X144327714Y-64206380D02*
X144327714Y-63206380D01*
X144565809Y-63206380D01*
X144708666Y-63254000D01*
X144803904Y-63349238D01*
X144851523Y-63444476D01*
X144899142Y-63634952D01*
X144899142Y-63777809D01*
X144851523Y-63968285D01*
X144803904Y-64063523D01*
X144708666Y-64158761D01*
X144565809Y-64206380D01*
X144327714Y-64206380D01*
X145232476Y-63206380D02*
X145851523Y-63206380D01*
X145518190Y-63587333D01*
X145661047Y-63587333D01*
X145756285Y-63634952D01*
X145803904Y-63682571D01*
X145851523Y-63777809D01*
X145851523Y-64015904D01*
X145803904Y-64111142D01*
X145756285Y-64158761D01*
X145661047Y-64206380D01*
X145375333Y-64206380D01*
X145280095Y-64158761D01*
X145232476Y-64111142D01*
X146803904Y-64206380D02*
X146232476Y-64206380D01*
X146518190Y-64206380D02*
X146518190Y-63206380D01*
X146422952Y-63349238D01*
X146327714Y-63444476D01*
X146232476Y-63492095D01*
%TO.C,D27*%
X168457714Y-71064380D02*
X168457714Y-70064380D01*
X168695809Y-70064380D01*
X168838666Y-70112000D01*
X168933904Y-70207238D01*
X168981523Y-70302476D01*
X169029142Y-70492952D01*
X169029142Y-70635809D01*
X168981523Y-70826285D01*
X168933904Y-70921523D01*
X168838666Y-71016761D01*
X168695809Y-71064380D01*
X168457714Y-71064380D01*
X169410095Y-70159619D02*
X169457714Y-70112000D01*
X169552952Y-70064380D01*
X169791047Y-70064380D01*
X169886285Y-70112000D01*
X169933904Y-70159619D01*
X169981523Y-70254857D01*
X169981523Y-70350095D01*
X169933904Y-70492952D01*
X169362476Y-71064380D01*
X169981523Y-71064380D01*
X170314857Y-70064380D02*
X170981523Y-70064380D01*
X170552952Y-71064380D01*
%TO.C,D37*%
X144581714Y-39568380D02*
X144581714Y-38568380D01*
X144819809Y-38568380D01*
X144962666Y-38616000D01*
X145057904Y-38711238D01*
X145105523Y-38806476D01*
X145153142Y-38996952D01*
X145153142Y-39139809D01*
X145105523Y-39330285D01*
X145057904Y-39425523D01*
X144962666Y-39520761D01*
X144819809Y-39568380D01*
X144581714Y-39568380D01*
X145486476Y-38568380D02*
X146105523Y-38568380D01*
X145772190Y-38949333D01*
X145915047Y-38949333D01*
X146010285Y-38996952D01*
X146057904Y-39044571D01*
X146105523Y-39139809D01*
X146105523Y-39377904D01*
X146057904Y-39473142D01*
X146010285Y-39520761D01*
X145915047Y-39568380D01*
X145629333Y-39568380D01*
X145534095Y-39520761D01*
X145486476Y-39473142D01*
X146438857Y-38568380D02*
X147105523Y-38568380D01*
X146676952Y-39568380D01*
%TO.C,R42*%
X147947142Y-50998380D02*
X147613809Y-50522190D01*
X147375714Y-50998380D02*
X147375714Y-49998380D01*
X147756666Y-49998380D01*
X147851904Y-50046000D01*
X147899523Y-50093619D01*
X147947142Y-50188857D01*
X147947142Y-50331714D01*
X147899523Y-50426952D01*
X147851904Y-50474571D01*
X147756666Y-50522190D01*
X147375714Y-50522190D01*
X148804285Y-50331714D02*
X148804285Y-50998380D01*
X148566190Y-49950761D02*
X148328095Y-50665047D01*
X148947142Y-50665047D01*
X149280476Y-50093619D02*
X149328095Y-50046000D01*
X149423333Y-49998380D01*
X149661428Y-49998380D01*
X149756666Y-50046000D01*
X149804285Y-50093619D01*
X149851904Y-50188857D01*
X149851904Y-50284095D01*
X149804285Y-50426952D01*
X149232857Y-50998380D01*
X149851904Y-50998380D01*
%TO.C,C7*%
X175093333Y-54205142D02*
X175045714Y-54252761D01*
X174902857Y-54300380D01*
X174807619Y-54300380D01*
X174664761Y-54252761D01*
X174569523Y-54157523D01*
X174521904Y-54062285D01*
X174474285Y-53871809D01*
X174474285Y-53728952D01*
X174521904Y-53538476D01*
X174569523Y-53443238D01*
X174664761Y-53348000D01*
X174807619Y-53300380D01*
X174902857Y-53300380D01*
X175045714Y-53348000D01*
X175093333Y-53395619D01*
X175426666Y-53300380D02*
X176093333Y-53300380D01*
X175664761Y-54300380D01*
%TO.C,D20*%
X144835714Y-57602380D02*
X144835714Y-56602380D01*
X145073809Y-56602380D01*
X145216666Y-56650000D01*
X145311904Y-56745238D01*
X145359523Y-56840476D01*
X145407142Y-57030952D01*
X145407142Y-57173809D01*
X145359523Y-57364285D01*
X145311904Y-57459523D01*
X145216666Y-57554761D01*
X145073809Y-57602380D01*
X144835714Y-57602380D01*
X145788095Y-56697619D02*
X145835714Y-56650000D01*
X145930952Y-56602380D01*
X146169047Y-56602380D01*
X146264285Y-56650000D01*
X146311904Y-56697619D01*
X146359523Y-56792857D01*
X146359523Y-56888095D01*
X146311904Y-57030952D01*
X145740476Y-57602380D01*
X146359523Y-57602380D01*
X146978571Y-56602380D02*
X147073809Y-56602380D01*
X147169047Y-56650000D01*
X147216666Y-56697619D01*
X147264285Y-56792857D01*
X147311904Y-56983333D01*
X147311904Y-57221428D01*
X147264285Y-57411904D01*
X147216666Y-57507142D01*
X147169047Y-57554761D01*
X147073809Y-57602380D01*
X146978571Y-57602380D01*
X146883333Y-57554761D01*
X146835714Y-57507142D01*
X146788095Y-57411904D01*
X146740476Y-57221428D01*
X146740476Y-56983333D01*
X146788095Y-56792857D01*
X146835714Y-56697619D01*
X146883333Y-56650000D01*
X146978571Y-56602380D01*
%TO.C,D32*%
X144327714Y-62936380D02*
X144327714Y-61936380D01*
X144565809Y-61936380D01*
X144708666Y-61984000D01*
X144803904Y-62079238D01*
X144851523Y-62174476D01*
X144899142Y-62364952D01*
X144899142Y-62507809D01*
X144851523Y-62698285D01*
X144803904Y-62793523D01*
X144708666Y-62888761D01*
X144565809Y-62936380D01*
X144327714Y-62936380D01*
X145232476Y-61936380D02*
X145851523Y-61936380D01*
X145518190Y-62317333D01*
X145661047Y-62317333D01*
X145756285Y-62364952D01*
X145803904Y-62412571D01*
X145851523Y-62507809D01*
X145851523Y-62745904D01*
X145803904Y-62841142D01*
X145756285Y-62888761D01*
X145661047Y-62936380D01*
X145375333Y-62936380D01*
X145280095Y-62888761D01*
X145232476Y-62841142D01*
X146232476Y-62031619D02*
X146280095Y-61984000D01*
X146375333Y-61936380D01*
X146613428Y-61936380D01*
X146708666Y-61984000D01*
X146756285Y-62031619D01*
X146803904Y-62126857D01*
X146803904Y-62222095D01*
X146756285Y-62364952D01*
X146184857Y-62936380D01*
X146803904Y-62936380D01*
%TO.C,R52*%
X147693142Y-62682380D02*
X147359809Y-62206190D01*
X147121714Y-62682380D02*
X147121714Y-61682380D01*
X147502666Y-61682380D01*
X147597904Y-61730000D01*
X147645523Y-61777619D01*
X147693142Y-61872857D01*
X147693142Y-62015714D01*
X147645523Y-62110952D01*
X147597904Y-62158571D01*
X147502666Y-62206190D01*
X147121714Y-62206190D01*
X148597904Y-61682380D02*
X148121714Y-61682380D01*
X148074095Y-62158571D01*
X148121714Y-62110952D01*
X148216952Y-62063333D01*
X148455047Y-62063333D01*
X148550285Y-62110952D01*
X148597904Y-62158571D01*
X148645523Y-62253809D01*
X148645523Y-62491904D01*
X148597904Y-62587142D01*
X148550285Y-62634761D01*
X148455047Y-62682380D01*
X148216952Y-62682380D01*
X148121714Y-62634761D01*
X148074095Y-62587142D01*
X149026476Y-61777619D02*
X149074095Y-61730000D01*
X149169333Y-61682380D01*
X149407428Y-61682380D01*
X149502666Y-61730000D01*
X149550285Y-61777619D01*
X149597904Y-61872857D01*
X149597904Y-61968095D01*
X149550285Y-62110952D01*
X148978857Y-62682380D01*
X149597904Y-62682380D01*
%TO.C,C41*%
X168775142Y-63095142D02*
X168727523Y-63142761D01*
X168584666Y-63190380D01*
X168489428Y-63190380D01*
X168346571Y-63142761D01*
X168251333Y-63047523D01*
X168203714Y-62952285D01*
X168156095Y-62761809D01*
X168156095Y-62618952D01*
X168203714Y-62428476D01*
X168251333Y-62333238D01*
X168346571Y-62238000D01*
X168489428Y-62190380D01*
X168584666Y-62190380D01*
X168727523Y-62238000D01*
X168775142Y-62285619D01*
X169632285Y-62523714D02*
X169632285Y-63190380D01*
X169394190Y-62142761D02*
X169156095Y-62857047D01*
X169775142Y-62857047D01*
X170679904Y-63190380D02*
X170108476Y-63190380D01*
X170394190Y-63190380D02*
X170394190Y-62190380D01*
X170298952Y-62333238D01*
X170203714Y-62428476D01*
X170108476Y-62476095D01*
%TO.C,D33*%
X168203714Y-47188380D02*
X168203714Y-46188380D01*
X168441809Y-46188380D01*
X168584666Y-46236000D01*
X168679904Y-46331238D01*
X168727523Y-46426476D01*
X168775142Y-46616952D01*
X168775142Y-46759809D01*
X168727523Y-46950285D01*
X168679904Y-47045523D01*
X168584666Y-47140761D01*
X168441809Y-47188380D01*
X168203714Y-47188380D01*
X169108476Y-46188380D02*
X169727523Y-46188380D01*
X169394190Y-46569333D01*
X169537047Y-46569333D01*
X169632285Y-46616952D01*
X169679904Y-46664571D01*
X169727523Y-46759809D01*
X169727523Y-46997904D01*
X169679904Y-47093142D01*
X169632285Y-47140761D01*
X169537047Y-47188380D01*
X169251333Y-47188380D01*
X169156095Y-47140761D01*
X169108476Y-47093142D01*
X170060857Y-46188380D02*
X170679904Y-46188380D01*
X170346571Y-46569333D01*
X170489428Y-46569333D01*
X170584666Y-46616952D01*
X170632285Y-46664571D01*
X170679904Y-46759809D01*
X170679904Y-46997904D01*
X170632285Y-47093142D01*
X170584666Y-47140761D01*
X170489428Y-47188380D01*
X170203714Y-47188380D01*
X170108476Y-47140761D01*
X170060857Y-47093142D01*
%TO.C,R20*%
X175125142Y-60396380D02*
X174791809Y-59920190D01*
X174553714Y-60396380D02*
X174553714Y-59396380D01*
X174934666Y-59396380D01*
X175029904Y-59444000D01*
X175077523Y-59491619D01*
X175125142Y-59586857D01*
X175125142Y-59729714D01*
X175077523Y-59824952D01*
X175029904Y-59872571D01*
X174934666Y-59920190D01*
X174553714Y-59920190D01*
X175506095Y-59491619D02*
X175553714Y-59444000D01*
X175648952Y-59396380D01*
X175887047Y-59396380D01*
X175982285Y-59444000D01*
X176029904Y-59491619D01*
X176077523Y-59586857D01*
X176077523Y-59682095D01*
X176029904Y-59824952D01*
X175458476Y-60396380D01*
X176077523Y-60396380D01*
X176696571Y-59396380D02*
X176791809Y-59396380D01*
X176887047Y-59444000D01*
X176934666Y-59491619D01*
X176982285Y-59586857D01*
X177029904Y-59777333D01*
X177029904Y-60015428D01*
X176982285Y-60205904D01*
X176934666Y-60301142D01*
X176887047Y-60348761D01*
X176791809Y-60396380D01*
X176696571Y-60396380D01*
X176601333Y-60348761D01*
X176553714Y-60301142D01*
X176506095Y-60205904D01*
X176458476Y-60015428D01*
X176458476Y-59777333D01*
X176506095Y-59586857D01*
X176553714Y-59491619D01*
X176601333Y-59444000D01*
X176696571Y-59396380D01*
%TO.C,R51*%
X147693142Y-63952380D02*
X147359809Y-63476190D01*
X147121714Y-63952380D02*
X147121714Y-62952380D01*
X147502666Y-62952380D01*
X147597904Y-63000000D01*
X147645523Y-63047619D01*
X147693142Y-63142857D01*
X147693142Y-63285714D01*
X147645523Y-63380952D01*
X147597904Y-63428571D01*
X147502666Y-63476190D01*
X147121714Y-63476190D01*
X148597904Y-62952380D02*
X148121714Y-62952380D01*
X148074095Y-63428571D01*
X148121714Y-63380952D01*
X148216952Y-63333333D01*
X148455047Y-63333333D01*
X148550285Y-63380952D01*
X148597904Y-63428571D01*
X148645523Y-63523809D01*
X148645523Y-63761904D01*
X148597904Y-63857142D01*
X148550285Y-63904761D01*
X148455047Y-63952380D01*
X148216952Y-63952380D01*
X148121714Y-63904761D01*
X148074095Y-63857142D01*
X149597904Y-63952380D02*
X149026476Y-63952380D01*
X149312190Y-63952380D02*
X149312190Y-62952380D01*
X149216952Y-63095238D01*
X149121714Y-63190476D01*
X149026476Y-63238095D01*
%TO.C,R12*%
X172077142Y-49728380D02*
X171743809Y-49252190D01*
X171505714Y-49728380D02*
X171505714Y-48728380D01*
X171886666Y-48728380D01*
X171981904Y-48776000D01*
X172029523Y-48823619D01*
X172077142Y-48918857D01*
X172077142Y-49061714D01*
X172029523Y-49156952D01*
X171981904Y-49204571D01*
X171886666Y-49252190D01*
X171505714Y-49252190D01*
X173029523Y-49728380D02*
X172458095Y-49728380D01*
X172743809Y-49728380D02*
X172743809Y-48728380D01*
X172648571Y-48871238D01*
X172553333Y-48966476D01*
X172458095Y-49014095D01*
X173410476Y-48823619D02*
X173458095Y-48776000D01*
X173553333Y-48728380D01*
X173791428Y-48728380D01*
X173886666Y-48776000D01*
X173934285Y-48823619D01*
X173981904Y-48918857D01*
X173981904Y-49014095D01*
X173934285Y-49156952D01*
X173362857Y-49728380D01*
X173981904Y-49728380D01*
%TO.C,R50*%
X147185142Y-69032380D02*
X146851809Y-68556190D01*
X146613714Y-69032380D02*
X146613714Y-68032380D01*
X146994666Y-68032380D01*
X147089904Y-68080000D01*
X147137523Y-68127619D01*
X147185142Y-68222857D01*
X147185142Y-68365714D01*
X147137523Y-68460952D01*
X147089904Y-68508571D01*
X146994666Y-68556190D01*
X146613714Y-68556190D01*
X148089904Y-68032380D02*
X147613714Y-68032380D01*
X147566095Y-68508571D01*
X147613714Y-68460952D01*
X147708952Y-68413333D01*
X147947047Y-68413333D01*
X148042285Y-68460952D01*
X148089904Y-68508571D01*
X148137523Y-68603809D01*
X148137523Y-68841904D01*
X148089904Y-68937142D01*
X148042285Y-68984761D01*
X147947047Y-69032380D01*
X147708952Y-69032380D01*
X147613714Y-68984761D01*
X147566095Y-68937142D01*
X148756571Y-68032380D02*
X148851809Y-68032380D01*
X148947047Y-68080000D01*
X148994666Y-68127619D01*
X149042285Y-68222857D01*
X149089904Y-68413333D01*
X149089904Y-68651428D01*
X149042285Y-68841904D01*
X148994666Y-68937142D01*
X148947047Y-68984761D01*
X148851809Y-69032380D01*
X148756571Y-69032380D01*
X148661333Y-68984761D01*
X148613714Y-68937142D01*
X148566095Y-68841904D01*
X148518476Y-68651428D01*
X148518476Y-68413333D01*
X148566095Y-68222857D01*
X148613714Y-68127619D01*
X148661333Y-68080000D01*
X148756571Y-68032380D01*
%TO.C,C2*%
X102195333Y-71731142D02*
X102147714Y-71778761D01*
X102004857Y-71826380D01*
X101909619Y-71826380D01*
X101766761Y-71778761D01*
X101671523Y-71683523D01*
X101623904Y-71588285D01*
X101576285Y-71397809D01*
X101576285Y-71254952D01*
X101623904Y-71064476D01*
X101671523Y-70969238D01*
X101766761Y-70874000D01*
X101909619Y-70826380D01*
X102004857Y-70826380D01*
X102147714Y-70874000D01*
X102195333Y-70921619D01*
X102576285Y-70921619D02*
X102623904Y-70874000D01*
X102719142Y-70826380D01*
X102957238Y-70826380D01*
X103052476Y-70874000D01*
X103100095Y-70921619D01*
X103147714Y-71016857D01*
X103147714Y-71112095D01*
X103100095Y-71254952D01*
X102528666Y-71826380D01*
X103147714Y-71826380D01*
%TO.C,U15*%
X164623904Y-67016380D02*
X164623904Y-67825904D01*
X164671523Y-67921142D01*
X164719142Y-67968761D01*
X164814380Y-68016380D01*
X165004857Y-68016380D01*
X165100095Y-67968761D01*
X165147714Y-67921142D01*
X165195333Y-67825904D01*
X165195333Y-67016380D01*
X166195333Y-68016380D02*
X165623904Y-68016380D01*
X165909619Y-68016380D02*
X165909619Y-67016380D01*
X165814380Y-67159238D01*
X165719142Y-67254476D01*
X165623904Y-67302095D01*
X167100095Y-67016380D02*
X166623904Y-67016380D01*
X166576285Y-67492571D01*
X166623904Y-67444952D01*
X166719142Y-67397333D01*
X166957238Y-67397333D01*
X167052476Y-67444952D01*
X167100095Y-67492571D01*
X167147714Y-67587809D01*
X167147714Y-67825904D01*
X167100095Y-67921142D01*
X167052476Y-67968761D01*
X166957238Y-68016380D01*
X166719142Y-68016380D01*
X166623904Y-67968761D01*
X166576285Y-67921142D01*
%TO.C,C6*%
X174839333Y-77573142D02*
X174791714Y-77620761D01*
X174648857Y-77668380D01*
X174553619Y-77668380D01*
X174410761Y-77620761D01*
X174315523Y-77525523D01*
X174267904Y-77430285D01*
X174220285Y-77239809D01*
X174220285Y-77096952D01*
X174267904Y-76906476D01*
X174315523Y-76811238D01*
X174410761Y-76716000D01*
X174553619Y-76668380D01*
X174648857Y-76668380D01*
X174791714Y-76716000D01*
X174839333Y-76763619D01*
X175696476Y-76668380D02*
X175506000Y-76668380D01*
X175410761Y-76716000D01*
X175363142Y-76763619D01*
X175267904Y-76906476D01*
X175220285Y-77096952D01*
X175220285Y-77477904D01*
X175267904Y-77573142D01*
X175315523Y-77620761D01*
X175410761Y-77668380D01*
X175601238Y-77668380D01*
X175696476Y-77620761D01*
X175744095Y-77573142D01*
X175791714Y-77477904D01*
X175791714Y-77239809D01*
X175744095Y-77144571D01*
X175696476Y-77096952D01*
X175601238Y-77049333D01*
X175410761Y-77049333D01*
X175315523Y-77096952D01*
X175267904Y-77144571D01*
X175220285Y-77239809D01*
%TO.C,SW1*%
X195277666Y-56834146D02*
X195420523Y-56881765D01*
X195658619Y-56881765D01*
X195753857Y-56834146D01*
X195801476Y-56786527D01*
X195849095Y-56691289D01*
X195849095Y-56596051D01*
X195801476Y-56500813D01*
X195753857Y-56453194D01*
X195658619Y-56405575D01*
X195468142Y-56357956D01*
X195372904Y-56310337D01*
X195325285Y-56262718D01*
X195277666Y-56167480D01*
X195277666Y-56072242D01*
X195325285Y-55977004D01*
X195372904Y-55929385D01*
X195468142Y-55881765D01*
X195706238Y-55881765D01*
X195849095Y-55929385D01*
X196182428Y-55881765D02*
X196420523Y-56881765D01*
X196611000Y-56167480D01*
X196801476Y-56881765D01*
X197039571Y-55881765D01*
X197944333Y-56881765D02*
X197372904Y-56881765D01*
X197658619Y-56881765D02*
X197658619Y-55881765D01*
X197563380Y-56024623D01*
X197468142Y-56119861D01*
X197372904Y-56167480D01*
%TO.C,C22*%
X182237142Y-42013142D02*
X182189523Y-42060761D01*
X182046666Y-42108380D01*
X181951428Y-42108380D01*
X181808571Y-42060761D01*
X181713333Y-41965523D01*
X181665714Y-41870285D01*
X181618095Y-41679809D01*
X181618095Y-41536952D01*
X181665714Y-41346476D01*
X181713333Y-41251238D01*
X181808571Y-41156000D01*
X181951428Y-41108380D01*
X182046666Y-41108380D01*
X182189523Y-41156000D01*
X182237142Y-41203619D01*
X182618095Y-41203619D02*
X182665714Y-41156000D01*
X182760952Y-41108380D01*
X182999047Y-41108380D01*
X183094285Y-41156000D01*
X183141904Y-41203619D01*
X183189523Y-41298857D01*
X183189523Y-41394095D01*
X183141904Y-41536952D01*
X182570476Y-42108380D01*
X183189523Y-42108380D01*
X183570476Y-41203619D02*
X183618095Y-41156000D01*
X183713333Y-41108380D01*
X183951428Y-41108380D01*
X184046666Y-41156000D01*
X184094285Y-41203619D01*
X184141904Y-41298857D01*
X184141904Y-41394095D01*
X184094285Y-41536952D01*
X183522857Y-42108380D01*
X184141904Y-42108380D01*
%TO.C,C31*%
X168521142Y-52681142D02*
X168473523Y-52728761D01*
X168330666Y-52776380D01*
X168235428Y-52776380D01*
X168092571Y-52728761D01*
X167997333Y-52633523D01*
X167949714Y-52538285D01*
X167902095Y-52347809D01*
X167902095Y-52204952D01*
X167949714Y-52014476D01*
X167997333Y-51919238D01*
X168092571Y-51824000D01*
X168235428Y-51776380D01*
X168330666Y-51776380D01*
X168473523Y-51824000D01*
X168521142Y-51871619D01*
X168854476Y-51776380D02*
X169473523Y-51776380D01*
X169140190Y-52157333D01*
X169283047Y-52157333D01*
X169378285Y-52204952D01*
X169425904Y-52252571D01*
X169473523Y-52347809D01*
X169473523Y-52585904D01*
X169425904Y-52681142D01*
X169378285Y-52728761D01*
X169283047Y-52776380D01*
X168997333Y-52776380D01*
X168902095Y-52728761D01*
X168854476Y-52681142D01*
X170425904Y-52776380D02*
X169854476Y-52776380D01*
X170140190Y-52776380D02*
X170140190Y-51776380D01*
X170044952Y-51919238D01*
X169949714Y-52014476D01*
X169854476Y-52062095D01*
%TO.C,J4*%
X197532666Y-73874380D02*
X197532666Y-74588666D01*
X197485047Y-74731523D01*
X197389809Y-74826761D01*
X197246952Y-74874380D01*
X197151714Y-74874380D01*
X198437428Y-74207714D02*
X198437428Y-74874380D01*
X198199333Y-73826761D02*
X197961238Y-74541047D01*
X198580285Y-74541047D01*
%TO.C,C1*%
X183221333Y-78589142D02*
X183173714Y-78636761D01*
X183030857Y-78684380D01*
X182935619Y-78684380D01*
X182792761Y-78636761D01*
X182697523Y-78541523D01*
X182649904Y-78446285D01*
X182602285Y-78255809D01*
X182602285Y-78112952D01*
X182649904Y-77922476D01*
X182697523Y-77827238D01*
X182792761Y-77732000D01*
X182935619Y-77684380D01*
X183030857Y-77684380D01*
X183173714Y-77732000D01*
X183221333Y-77779619D01*
X184173714Y-78684380D02*
X183602285Y-78684380D01*
X183888000Y-78684380D02*
X183888000Y-77684380D01*
X183792761Y-77827238D01*
X183697523Y-77922476D01*
X183602285Y-77970095D01*
%TO.C,L2*%
X172299333Y-33980380D02*
X171823142Y-33980380D01*
X171823142Y-32980380D01*
X172585047Y-33075619D02*
X172632666Y-33028000D01*
X172727904Y-32980380D01*
X172966000Y-32980380D01*
X173061238Y-33028000D01*
X173108857Y-33075619D01*
X173156476Y-33170857D01*
X173156476Y-33266095D01*
X173108857Y-33408952D01*
X172537428Y-33980380D01*
X173156476Y-33980380D01*
%TO.C,R54*%
X147947142Y-45664380D02*
X147613809Y-45188190D01*
X147375714Y-45664380D02*
X147375714Y-44664380D01*
X147756666Y-44664380D01*
X147851904Y-44712000D01*
X147899523Y-44759619D01*
X147947142Y-44854857D01*
X147947142Y-44997714D01*
X147899523Y-45092952D01*
X147851904Y-45140571D01*
X147756666Y-45188190D01*
X147375714Y-45188190D01*
X148851904Y-44664380D02*
X148375714Y-44664380D01*
X148328095Y-45140571D01*
X148375714Y-45092952D01*
X148470952Y-45045333D01*
X148709047Y-45045333D01*
X148804285Y-45092952D01*
X148851904Y-45140571D01*
X148899523Y-45235809D01*
X148899523Y-45473904D01*
X148851904Y-45569142D01*
X148804285Y-45616761D01*
X148709047Y-45664380D01*
X148470952Y-45664380D01*
X148375714Y-45616761D01*
X148328095Y-45569142D01*
X149756666Y-44997714D02*
X149756666Y-45664380D01*
X149518571Y-44616761D02*
X149280476Y-45331047D01*
X149899523Y-45331047D01*
%TO.C,D29*%
X143565714Y-69794380D02*
X143565714Y-68794380D01*
X143803809Y-68794380D01*
X143946666Y-68842000D01*
X144041904Y-68937238D01*
X144089523Y-69032476D01*
X144137142Y-69222952D01*
X144137142Y-69365809D01*
X144089523Y-69556285D01*
X144041904Y-69651523D01*
X143946666Y-69746761D01*
X143803809Y-69794380D01*
X143565714Y-69794380D01*
X144518095Y-68889619D02*
X144565714Y-68842000D01*
X144660952Y-68794380D01*
X144899047Y-68794380D01*
X144994285Y-68842000D01*
X145041904Y-68889619D01*
X145089523Y-68984857D01*
X145089523Y-69080095D01*
X145041904Y-69222952D01*
X144470476Y-69794380D01*
X145089523Y-69794380D01*
X145565714Y-69794380D02*
X145756190Y-69794380D01*
X145851428Y-69746761D01*
X145899047Y-69699142D01*
X145994285Y-69556285D01*
X146041904Y-69365809D01*
X146041904Y-68984857D01*
X145994285Y-68889619D01*
X145946666Y-68842000D01*
X145851428Y-68794380D01*
X145660952Y-68794380D01*
X145565714Y-68842000D01*
X145518095Y-68889619D01*
X145470476Y-68984857D01*
X145470476Y-69222952D01*
X145518095Y-69318190D01*
X145565714Y-69365809D01*
X145660952Y-69413428D01*
X145851428Y-69413428D01*
X145946666Y-69365809D01*
X145994285Y-69318190D01*
X146041904Y-69222952D01*
%TO.C,L1*%
X185253333Y-56840380D02*
X184777142Y-56840380D01*
X184777142Y-55840380D01*
X186110476Y-56840380D02*
X185539047Y-56840380D01*
X185824761Y-56840380D02*
X185824761Y-55840380D01*
X185729523Y-55983238D01*
X185634285Y-56078476D01*
X185539047Y-56126095D01*
%TO.C,R15*%
X175125142Y-57348380D02*
X174791809Y-56872190D01*
X174553714Y-57348380D02*
X174553714Y-56348380D01*
X174934666Y-56348380D01*
X175029904Y-56396000D01*
X175077523Y-56443619D01*
X175125142Y-56538857D01*
X175125142Y-56681714D01*
X175077523Y-56776952D01*
X175029904Y-56824571D01*
X174934666Y-56872190D01*
X174553714Y-56872190D01*
X176077523Y-57348380D02*
X175506095Y-57348380D01*
X175791809Y-57348380D02*
X175791809Y-56348380D01*
X175696571Y-56491238D01*
X175601333Y-56586476D01*
X175506095Y-56634095D01*
X176982285Y-56348380D02*
X176506095Y-56348380D01*
X176458476Y-56824571D01*
X176506095Y-56776952D01*
X176601333Y-56729333D01*
X176839428Y-56729333D01*
X176934666Y-56776952D01*
X176982285Y-56824571D01*
X177029904Y-56919809D01*
X177029904Y-57157904D01*
X176982285Y-57253142D01*
X176934666Y-57300761D01*
X176839428Y-57348380D01*
X176601333Y-57348380D01*
X176506095Y-57300761D01*
X176458476Y-57253142D01*
%TO.C,J3*%
X197024666Y-69556380D02*
X197024666Y-70270666D01*
X196977047Y-70413523D01*
X196881809Y-70508761D01*
X196738952Y-70556380D01*
X196643714Y-70556380D01*
X197405619Y-69556380D02*
X198024666Y-69556380D01*
X197691333Y-69937333D01*
X197834190Y-69937333D01*
X197929428Y-69984952D01*
X197977047Y-70032571D01*
X198024666Y-70127809D01*
X198024666Y-70365904D01*
X197977047Y-70461142D01*
X197929428Y-70508761D01*
X197834190Y-70556380D01*
X197548476Y-70556380D01*
X197453238Y-70508761D01*
X197405619Y-70461142D01*
%TO.C,C4*%
X183729333Y-71731142D02*
X183681714Y-71778761D01*
X183538857Y-71826380D01*
X183443619Y-71826380D01*
X183300761Y-71778761D01*
X183205523Y-71683523D01*
X183157904Y-71588285D01*
X183110285Y-71397809D01*
X183110285Y-71254952D01*
X183157904Y-71064476D01*
X183205523Y-70969238D01*
X183300761Y-70874000D01*
X183443619Y-70826380D01*
X183538857Y-70826380D01*
X183681714Y-70874000D01*
X183729333Y-70921619D01*
X184586476Y-71159714D02*
X184586476Y-71826380D01*
X184348380Y-70778761D02*
X184110285Y-71493047D01*
X184729333Y-71493047D01*
%TO.C,C17*%
X189603142Y-36425142D02*
X189555523Y-36472761D01*
X189412666Y-36520380D01*
X189317428Y-36520380D01*
X189174571Y-36472761D01*
X189079333Y-36377523D01*
X189031714Y-36282285D01*
X188984095Y-36091809D01*
X188984095Y-35948952D01*
X189031714Y-35758476D01*
X189079333Y-35663238D01*
X189174571Y-35568000D01*
X189317428Y-35520380D01*
X189412666Y-35520380D01*
X189555523Y-35568000D01*
X189603142Y-35615619D01*
X190555523Y-36520380D02*
X189984095Y-36520380D01*
X190269809Y-36520380D02*
X190269809Y-35520380D01*
X190174571Y-35663238D01*
X190079333Y-35758476D01*
X189984095Y-35806095D01*
X190888857Y-35520380D02*
X191555523Y-35520380D01*
X191126952Y-36520380D01*
%TO.C,D16*%
X144581714Y-52776380D02*
X144581714Y-51776380D01*
X144819809Y-51776380D01*
X144962666Y-51824000D01*
X145057904Y-51919238D01*
X145105523Y-52014476D01*
X145153142Y-52204952D01*
X145153142Y-52347809D01*
X145105523Y-52538285D01*
X145057904Y-52633523D01*
X144962666Y-52728761D01*
X144819809Y-52776380D01*
X144581714Y-52776380D01*
X146105523Y-52776380D02*
X145534095Y-52776380D01*
X145819809Y-52776380D02*
X145819809Y-51776380D01*
X145724571Y-51919238D01*
X145629333Y-52014476D01*
X145534095Y-52062095D01*
X146962666Y-51776380D02*
X146772190Y-51776380D01*
X146676952Y-51824000D01*
X146629333Y-51871619D01*
X146534095Y-52014476D01*
X146486476Y-52204952D01*
X146486476Y-52585904D01*
X146534095Y-52681142D01*
X146581714Y-52728761D01*
X146676952Y-52776380D01*
X146867428Y-52776380D01*
X146962666Y-52728761D01*
X147010285Y-52681142D01*
X147057904Y-52585904D01*
X147057904Y-52347809D01*
X147010285Y-52252571D01*
X146962666Y-52204952D01*
X146867428Y-52157333D01*
X146676952Y-52157333D01*
X146581714Y-52204952D01*
X146534095Y-52252571D01*
X146486476Y-52347809D01*
%TO.C,C34*%
X147947142Y-59539142D02*
X147899523Y-59586761D01*
X147756666Y-59634380D01*
X147661428Y-59634380D01*
X147518571Y-59586761D01*
X147423333Y-59491523D01*
X147375714Y-59396285D01*
X147328095Y-59205809D01*
X147328095Y-59062952D01*
X147375714Y-58872476D01*
X147423333Y-58777238D01*
X147518571Y-58682000D01*
X147661428Y-58634380D01*
X147756666Y-58634380D01*
X147899523Y-58682000D01*
X147947142Y-58729619D01*
X148280476Y-58634380D02*
X148899523Y-58634380D01*
X148566190Y-59015333D01*
X148709047Y-59015333D01*
X148804285Y-59062952D01*
X148851904Y-59110571D01*
X148899523Y-59205809D01*
X148899523Y-59443904D01*
X148851904Y-59539142D01*
X148804285Y-59586761D01*
X148709047Y-59634380D01*
X148423333Y-59634380D01*
X148328095Y-59586761D01*
X148280476Y-59539142D01*
X149756666Y-58967714D02*
X149756666Y-59634380D01*
X149518571Y-58586761D02*
X149280476Y-59301047D01*
X149899523Y-59301047D01*
%TO.C,D19*%
X144835714Y-58872380D02*
X144835714Y-57872380D01*
X145073809Y-57872380D01*
X145216666Y-57920000D01*
X145311904Y-58015238D01*
X145359523Y-58110476D01*
X145407142Y-58300952D01*
X145407142Y-58443809D01*
X145359523Y-58634285D01*
X145311904Y-58729523D01*
X145216666Y-58824761D01*
X145073809Y-58872380D01*
X144835714Y-58872380D01*
X146359523Y-58872380D02*
X145788095Y-58872380D01*
X146073809Y-58872380D02*
X146073809Y-57872380D01*
X145978571Y-58015238D01*
X145883333Y-58110476D01*
X145788095Y-58158095D01*
X146835714Y-58872380D02*
X147026190Y-58872380D01*
X147121428Y-58824761D01*
X147169047Y-58777142D01*
X147264285Y-58634285D01*
X147311904Y-58443809D01*
X147311904Y-58062857D01*
X147264285Y-57967619D01*
X147216666Y-57920000D01*
X147121428Y-57872380D01*
X146930952Y-57872380D01*
X146835714Y-57920000D01*
X146788095Y-57967619D01*
X146740476Y-58062857D01*
X146740476Y-58300952D01*
X146788095Y-58396190D01*
X146835714Y-58443809D01*
X146930952Y-58491428D01*
X147121428Y-58491428D01*
X147216666Y-58443809D01*
X147264285Y-58396190D01*
X147311904Y-58300952D01*
%TO.C,U18*%
X164623904Y-36536380D02*
X164623904Y-37345904D01*
X164671523Y-37441142D01*
X164719142Y-37488761D01*
X164814380Y-37536380D01*
X165004857Y-37536380D01*
X165100095Y-37488761D01*
X165147714Y-37441142D01*
X165195333Y-37345904D01*
X165195333Y-36536380D01*
X166195333Y-37536380D02*
X165623904Y-37536380D01*
X165909619Y-37536380D02*
X165909619Y-36536380D01*
X165814380Y-36679238D01*
X165719142Y-36774476D01*
X165623904Y-36822095D01*
X166766761Y-36964952D02*
X166671523Y-36917333D01*
X166623904Y-36869714D01*
X166576285Y-36774476D01*
X166576285Y-36726857D01*
X166623904Y-36631619D01*
X166671523Y-36584000D01*
X166766761Y-36536380D01*
X166957238Y-36536380D01*
X167052476Y-36584000D01*
X167100095Y-36631619D01*
X167147714Y-36726857D01*
X167147714Y-36774476D01*
X167100095Y-36869714D01*
X167052476Y-36917333D01*
X166957238Y-36964952D01*
X166766761Y-36964952D01*
X166671523Y-37012571D01*
X166623904Y-37060190D01*
X166576285Y-37155428D01*
X166576285Y-37345904D01*
X166623904Y-37441142D01*
X166671523Y-37488761D01*
X166766761Y-37536380D01*
X166957238Y-37536380D01*
X167052476Y-37488761D01*
X167100095Y-37441142D01*
X167147714Y-37345904D01*
X167147714Y-37155428D01*
X167100095Y-37060190D01*
X167052476Y-37012571D01*
X166957238Y-36964952D01*
%TO.C,C16*%
X184269142Y-48871142D02*
X184221523Y-48918761D01*
X184078666Y-48966380D01*
X183983428Y-48966380D01*
X183840571Y-48918761D01*
X183745333Y-48823523D01*
X183697714Y-48728285D01*
X183650095Y-48537809D01*
X183650095Y-48394952D01*
X183697714Y-48204476D01*
X183745333Y-48109238D01*
X183840571Y-48014000D01*
X183983428Y-47966380D01*
X184078666Y-47966380D01*
X184221523Y-48014000D01*
X184269142Y-48061619D01*
X185221523Y-48966380D02*
X184650095Y-48966380D01*
X184935809Y-48966380D02*
X184935809Y-47966380D01*
X184840571Y-48109238D01*
X184745333Y-48204476D01*
X184650095Y-48252095D01*
X186078666Y-47966380D02*
X185888190Y-47966380D01*
X185792952Y-48014000D01*
X185745333Y-48061619D01*
X185650095Y-48204476D01*
X185602476Y-48394952D01*
X185602476Y-48775904D01*
X185650095Y-48871142D01*
X185697714Y-48918761D01*
X185792952Y-48966380D01*
X185983428Y-48966380D01*
X186078666Y-48918761D01*
X186126285Y-48871142D01*
X186173904Y-48775904D01*
X186173904Y-48537809D01*
X186126285Y-48442571D01*
X186078666Y-48394952D01*
X185983428Y-48347333D01*
X185792952Y-48347333D01*
X185697714Y-48394952D01*
X185650095Y-48442571D01*
X185602476Y-48537809D01*
%TO.C,D28*%
X143565714Y-71064380D02*
X143565714Y-70064380D01*
X143803809Y-70064380D01*
X143946666Y-70112000D01*
X144041904Y-70207238D01*
X144089523Y-70302476D01*
X144137142Y-70492952D01*
X144137142Y-70635809D01*
X144089523Y-70826285D01*
X144041904Y-70921523D01*
X143946666Y-71016761D01*
X143803809Y-71064380D01*
X143565714Y-71064380D01*
X144518095Y-70159619D02*
X144565714Y-70112000D01*
X144660952Y-70064380D01*
X144899047Y-70064380D01*
X144994285Y-70112000D01*
X145041904Y-70159619D01*
X145089523Y-70254857D01*
X145089523Y-70350095D01*
X145041904Y-70492952D01*
X144470476Y-71064380D01*
X145089523Y-71064380D01*
X145660952Y-70492952D02*
X145565714Y-70445333D01*
X145518095Y-70397714D01*
X145470476Y-70302476D01*
X145470476Y-70254857D01*
X145518095Y-70159619D01*
X145565714Y-70112000D01*
X145660952Y-70064380D01*
X145851428Y-70064380D01*
X145946666Y-70112000D01*
X145994285Y-70159619D01*
X146041904Y-70254857D01*
X146041904Y-70302476D01*
X145994285Y-70397714D01*
X145946666Y-70445333D01*
X145851428Y-70492952D01*
X145660952Y-70492952D01*
X145565714Y-70540571D01*
X145518095Y-70588190D01*
X145470476Y-70683428D01*
X145470476Y-70873904D01*
X145518095Y-70969142D01*
X145565714Y-71016761D01*
X145660952Y-71064380D01*
X145851428Y-71064380D01*
X145946666Y-71016761D01*
X145994285Y-70969142D01*
X146041904Y-70873904D01*
X146041904Y-70683428D01*
X145994285Y-70588190D01*
X145946666Y-70540571D01*
X145851428Y-70492952D01*
%TO.C,SW2*%
X186586761Y-47561333D02*
X186634380Y-47418476D01*
X186634380Y-47180380D01*
X186586761Y-47085142D01*
X186539142Y-47037523D01*
X186443904Y-46989904D01*
X186348666Y-46989904D01*
X186253428Y-47037523D01*
X186205809Y-47085142D01*
X186158190Y-47180380D01*
X186110571Y-47370857D01*
X186062952Y-47466095D01*
X186015333Y-47513714D01*
X185920095Y-47561333D01*
X185824857Y-47561333D01*
X185729619Y-47513714D01*
X185682000Y-47466095D01*
X185634380Y-47370857D01*
X185634380Y-47132761D01*
X185682000Y-46989904D01*
X185634380Y-46656571D02*
X186634380Y-46418476D01*
X185920095Y-46228000D01*
X186634380Y-46037523D01*
X185634380Y-45799428D01*
X185729619Y-45466095D02*
X185682000Y-45418476D01*
X185634380Y-45323238D01*
X185634380Y-45085142D01*
X185682000Y-44989904D01*
X185729619Y-44942285D01*
X185824857Y-44894666D01*
X185920095Y-44894666D01*
X186062952Y-44942285D01*
X186634380Y-45513714D01*
X186634380Y-44894666D01*
%TO.C,R21*%
X175125142Y-61920380D02*
X174791809Y-61444190D01*
X174553714Y-61920380D02*
X174553714Y-60920380D01*
X174934666Y-60920380D01*
X175029904Y-60968000D01*
X175077523Y-61015619D01*
X175125142Y-61110857D01*
X175125142Y-61253714D01*
X175077523Y-61348952D01*
X175029904Y-61396571D01*
X174934666Y-61444190D01*
X174553714Y-61444190D01*
X175506095Y-61015619D02*
X175553714Y-60968000D01*
X175648952Y-60920380D01*
X175887047Y-60920380D01*
X175982285Y-60968000D01*
X176029904Y-61015619D01*
X176077523Y-61110857D01*
X176077523Y-61206095D01*
X176029904Y-61348952D01*
X175458476Y-61920380D01*
X176077523Y-61920380D01*
X177029904Y-61920380D02*
X176458476Y-61920380D01*
X176744190Y-61920380D02*
X176744190Y-60920380D01*
X176648952Y-61063238D01*
X176553714Y-61158476D01*
X176458476Y-61206095D01*
%TO.C,C45*%
X168521142Y-39473142D02*
X168473523Y-39520761D01*
X168330666Y-39568380D01*
X168235428Y-39568380D01*
X168092571Y-39520761D01*
X167997333Y-39425523D01*
X167949714Y-39330285D01*
X167902095Y-39139809D01*
X167902095Y-38996952D01*
X167949714Y-38806476D01*
X167997333Y-38711238D01*
X168092571Y-38616000D01*
X168235428Y-38568380D01*
X168330666Y-38568380D01*
X168473523Y-38616000D01*
X168521142Y-38663619D01*
X169378285Y-38901714D02*
X169378285Y-39568380D01*
X169140190Y-38520761D02*
X168902095Y-39235047D01*
X169521142Y-39235047D01*
X170378285Y-38568380D02*
X169902095Y-38568380D01*
X169854476Y-39044571D01*
X169902095Y-38996952D01*
X169997333Y-38949333D01*
X170235428Y-38949333D01*
X170330666Y-38996952D01*
X170378285Y-39044571D01*
X170425904Y-39139809D01*
X170425904Y-39377904D01*
X170378285Y-39473142D01*
X170330666Y-39520761D01*
X170235428Y-39568380D01*
X169997333Y-39568380D01*
X169902095Y-39520761D01*
X169854476Y-39473142D01*
%TO.C,C10*%
X175125142Y-58777142D02*
X175077523Y-58824761D01*
X174934666Y-58872380D01*
X174839428Y-58872380D01*
X174696571Y-58824761D01*
X174601333Y-58729523D01*
X174553714Y-58634285D01*
X174506095Y-58443809D01*
X174506095Y-58300952D01*
X174553714Y-58110476D01*
X174601333Y-58015238D01*
X174696571Y-57920000D01*
X174839428Y-57872380D01*
X174934666Y-57872380D01*
X175077523Y-57920000D01*
X175125142Y-57967619D01*
X176077523Y-58872380D02*
X175506095Y-58872380D01*
X175791809Y-58872380D02*
X175791809Y-57872380D01*
X175696571Y-58015238D01*
X175601333Y-58110476D01*
X175506095Y-58158095D01*
X176696571Y-57872380D02*
X176791809Y-57872380D01*
X176887047Y-57920000D01*
X176934666Y-57967619D01*
X176982285Y-58062857D01*
X177029904Y-58253333D01*
X177029904Y-58491428D01*
X176982285Y-58681904D01*
X176934666Y-58777142D01*
X176887047Y-58824761D01*
X176791809Y-58872380D01*
X176696571Y-58872380D01*
X176601333Y-58824761D01*
X176553714Y-58777142D01*
X176506095Y-58681904D01*
X176458476Y-58491428D01*
X176458476Y-58253333D01*
X176506095Y-58062857D01*
X176553714Y-57967619D01*
X176601333Y-57920000D01*
X176696571Y-57872380D01*
%TO.C,D34*%
X144581714Y-47442380D02*
X144581714Y-46442380D01*
X144819809Y-46442380D01*
X144962666Y-46490000D01*
X145057904Y-46585238D01*
X145105523Y-46680476D01*
X145153142Y-46870952D01*
X145153142Y-47013809D01*
X145105523Y-47204285D01*
X145057904Y-47299523D01*
X144962666Y-47394761D01*
X144819809Y-47442380D01*
X144581714Y-47442380D01*
X145486476Y-46442380D02*
X146105523Y-46442380D01*
X145772190Y-46823333D01*
X145915047Y-46823333D01*
X146010285Y-46870952D01*
X146057904Y-46918571D01*
X146105523Y-47013809D01*
X146105523Y-47251904D01*
X146057904Y-47347142D01*
X146010285Y-47394761D01*
X145915047Y-47442380D01*
X145629333Y-47442380D01*
X145534095Y-47394761D01*
X145486476Y-47347142D01*
X146962666Y-46775714D02*
X146962666Y-47442380D01*
X146724571Y-46394761D02*
X146486476Y-47109047D01*
X147105523Y-47109047D01*
%TO.C,U1*%
X183134095Y-68794380D02*
X183134095Y-69603904D01*
X183181714Y-69699142D01*
X183229333Y-69746761D01*
X183324571Y-69794380D01*
X183515047Y-69794380D01*
X183610285Y-69746761D01*
X183657904Y-69699142D01*
X183705523Y-69603904D01*
X183705523Y-68794380D01*
X184705523Y-69794380D02*
X184134095Y-69794380D01*
X184419809Y-69794380D02*
X184419809Y-68794380D01*
X184324571Y-68937238D01*
X184229333Y-69032476D01*
X184134095Y-69080095D01*
%TO.C,R49*%
X147185142Y-70556380D02*
X146851809Y-70080190D01*
X146613714Y-70556380D02*
X146613714Y-69556380D01*
X146994666Y-69556380D01*
X147089904Y-69604000D01*
X147137523Y-69651619D01*
X147185142Y-69746857D01*
X147185142Y-69889714D01*
X147137523Y-69984952D01*
X147089904Y-70032571D01*
X146994666Y-70080190D01*
X146613714Y-70080190D01*
X148042285Y-69889714D02*
X148042285Y-70556380D01*
X147804190Y-69508761D02*
X147566095Y-70223047D01*
X148185142Y-70223047D01*
X148613714Y-70556380D02*
X148804190Y-70556380D01*
X148899428Y-70508761D01*
X148947047Y-70461142D01*
X149042285Y-70318285D01*
X149089904Y-70127809D01*
X149089904Y-69746857D01*
X149042285Y-69651619D01*
X148994666Y-69604000D01*
X148899428Y-69556380D01*
X148708952Y-69556380D01*
X148613714Y-69604000D01*
X148566095Y-69651619D01*
X148518476Y-69746857D01*
X148518476Y-69984952D01*
X148566095Y-70080190D01*
X148613714Y-70127809D01*
X148708952Y-70175428D01*
X148899428Y-70175428D01*
X148994666Y-70127809D01*
X149042285Y-70080190D01*
X149089904Y-69984952D01*
%TO.C,U12*%
X164623904Y-54062380D02*
X164623904Y-54871904D01*
X164671523Y-54967142D01*
X164719142Y-55014761D01*
X164814380Y-55062380D01*
X165004857Y-55062380D01*
X165100095Y-55014761D01*
X165147714Y-54967142D01*
X165195333Y-54871904D01*
X165195333Y-54062380D01*
X166195333Y-55062380D02*
X165623904Y-55062380D01*
X165909619Y-55062380D02*
X165909619Y-54062380D01*
X165814380Y-54205238D01*
X165719142Y-54300476D01*
X165623904Y-54348095D01*
X166576285Y-54157619D02*
X166623904Y-54110000D01*
X166719142Y-54062380D01*
X166957238Y-54062380D01*
X167052476Y-54110000D01*
X167100095Y-54157619D01*
X167147714Y-54252857D01*
X167147714Y-54348095D01*
X167100095Y-54490952D01*
X166528666Y-55062380D01*
X167147714Y-55062380D01*
%TO.C,J5*%
X196516666Y-67016380D02*
X196516666Y-67730666D01*
X196469047Y-67873523D01*
X196373809Y-67968761D01*
X196230952Y-68016380D01*
X196135714Y-68016380D01*
X197469047Y-67016380D02*
X196992857Y-67016380D01*
X196945238Y-67492571D01*
X196992857Y-67444952D01*
X197088095Y-67397333D01*
X197326190Y-67397333D01*
X197421428Y-67444952D01*
X197469047Y-67492571D01*
X197516666Y-67587809D01*
X197516666Y-67825904D01*
X197469047Y-67921142D01*
X197421428Y-67968761D01*
X197326190Y-68016380D01*
X197088095Y-68016380D01*
X196992857Y-67968761D01*
X196945238Y-67921142D01*
%TO.C,U16*%
X164623904Y-60920380D02*
X164623904Y-61729904D01*
X164671523Y-61825142D01*
X164719142Y-61872761D01*
X164814380Y-61920380D01*
X165004857Y-61920380D01*
X165100095Y-61872761D01*
X165147714Y-61825142D01*
X165195333Y-61729904D01*
X165195333Y-60920380D01*
X166195333Y-61920380D02*
X165623904Y-61920380D01*
X165909619Y-61920380D02*
X165909619Y-60920380D01*
X165814380Y-61063238D01*
X165719142Y-61158476D01*
X165623904Y-61206095D01*
X167052476Y-60920380D02*
X166862000Y-60920380D01*
X166766761Y-60968000D01*
X166719142Y-61015619D01*
X166623904Y-61158476D01*
X166576285Y-61348952D01*
X166576285Y-61729904D01*
X166623904Y-61825142D01*
X166671523Y-61872761D01*
X166766761Y-61920380D01*
X166957238Y-61920380D01*
X167052476Y-61872761D01*
X167100095Y-61825142D01*
X167147714Y-61729904D01*
X167147714Y-61491809D01*
X167100095Y-61396571D01*
X167052476Y-61348952D01*
X166957238Y-61301333D01*
X166766761Y-61301333D01*
X166671523Y-61348952D01*
X166623904Y-61396571D01*
X166576285Y-61491809D01*
%TO.C,D36*%
X167949714Y-41092380D02*
X167949714Y-40092380D01*
X168187809Y-40092380D01*
X168330666Y-40140000D01*
X168425904Y-40235238D01*
X168473523Y-40330476D01*
X168521142Y-40520952D01*
X168521142Y-40663809D01*
X168473523Y-40854285D01*
X168425904Y-40949523D01*
X168330666Y-41044761D01*
X168187809Y-41092380D01*
X167949714Y-41092380D01*
X168854476Y-40092380D02*
X169473523Y-40092380D01*
X169140190Y-40473333D01*
X169283047Y-40473333D01*
X169378285Y-40520952D01*
X169425904Y-40568571D01*
X169473523Y-40663809D01*
X169473523Y-40901904D01*
X169425904Y-40997142D01*
X169378285Y-41044761D01*
X169283047Y-41092380D01*
X168997333Y-41092380D01*
X168902095Y-41044761D01*
X168854476Y-40997142D01*
X170330666Y-40092380D02*
X170140190Y-40092380D01*
X170044952Y-40140000D01*
X169997333Y-40187619D01*
X169902095Y-40330476D01*
X169854476Y-40520952D01*
X169854476Y-40901904D01*
X169902095Y-40997142D01*
X169949714Y-41044761D01*
X170044952Y-41092380D01*
X170235428Y-41092380D01*
X170330666Y-41044761D01*
X170378285Y-40997142D01*
X170425904Y-40901904D01*
X170425904Y-40663809D01*
X170378285Y-40568571D01*
X170330666Y-40520952D01*
X170235428Y-40473333D01*
X170044952Y-40473333D01*
X169949714Y-40520952D01*
X169902095Y-40568571D01*
X169854476Y-40663809D01*
%TO.C,C43*%
X168775142Y-44553142D02*
X168727523Y-44600761D01*
X168584666Y-44648380D01*
X168489428Y-44648380D01*
X168346571Y-44600761D01*
X168251333Y-44505523D01*
X168203714Y-44410285D01*
X168156095Y-44219809D01*
X168156095Y-44076952D01*
X168203714Y-43886476D01*
X168251333Y-43791238D01*
X168346571Y-43696000D01*
X168489428Y-43648380D01*
X168584666Y-43648380D01*
X168727523Y-43696000D01*
X168775142Y-43743619D01*
X169632285Y-43981714D02*
X169632285Y-44648380D01*
X169394190Y-43600761D02*
X169156095Y-44315047D01*
X169775142Y-44315047D01*
X170060857Y-43648380D02*
X170679904Y-43648380D01*
X170346571Y-44029333D01*
X170489428Y-44029333D01*
X170584666Y-44076952D01*
X170632285Y-44124571D01*
X170679904Y-44219809D01*
X170679904Y-44457904D01*
X170632285Y-44553142D01*
X170584666Y-44600761D01*
X170489428Y-44648380D01*
X170203714Y-44648380D01*
X170108476Y-44600761D01*
X170060857Y-44553142D01*
%TO.C,R55*%
X147947142Y-39060380D02*
X147613809Y-38584190D01*
X147375714Y-39060380D02*
X147375714Y-38060380D01*
X147756666Y-38060380D01*
X147851904Y-38108000D01*
X147899523Y-38155619D01*
X147947142Y-38250857D01*
X147947142Y-38393714D01*
X147899523Y-38488952D01*
X147851904Y-38536571D01*
X147756666Y-38584190D01*
X147375714Y-38584190D01*
X148851904Y-38060380D02*
X148375714Y-38060380D01*
X148328095Y-38536571D01*
X148375714Y-38488952D01*
X148470952Y-38441333D01*
X148709047Y-38441333D01*
X148804285Y-38488952D01*
X148851904Y-38536571D01*
X148899523Y-38631809D01*
X148899523Y-38869904D01*
X148851904Y-38965142D01*
X148804285Y-39012761D01*
X148709047Y-39060380D01*
X148470952Y-39060380D01*
X148375714Y-39012761D01*
X148328095Y-38965142D01*
X149804285Y-38060380D02*
X149328095Y-38060380D01*
X149280476Y-38536571D01*
X149328095Y-38488952D01*
X149423333Y-38441333D01*
X149661428Y-38441333D01*
X149756666Y-38488952D01*
X149804285Y-38536571D01*
X149851904Y-38631809D01*
X149851904Y-38869904D01*
X149804285Y-38965142D01*
X149756666Y-39012761D01*
X149661428Y-39060380D01*
X149423333Y-39060380D01*
X149328095Y-39012761D01*
X149280476Y-38965142D01*
%TO.C,R56*%
X147947142Y-37536380D02*
X147613809Y-37060190D01*
X147375714Y-37536380D02*
X147375714Y-36536380D01*
X147756666Y-36536380D01*
X147851904Y-36584000D01*
X147899523Y-36631619D01*
X147947142Y-36726857D01*
X147947142Y-36869714D01*
X147899523Y-36964952D01*
X147851904Y-37012571D01*
X147756666Y-37060190D01*
X147375714Y-37060190D01*
X148851904Y-36536380D02*
X148375714Y-36536380D01*
X148328095Y-37012571D01*
X148375714Y-36964952D01*
X148470952Y-36917333D01*
X148709047Y-36917333D01*
X148804285Y-36964952D01*
X148851904Y-37012571D01*
X148899523Y-37107809D01*
X148899523Y-37345904D01*
X148851904Y-37441142D01*
X148804285Y-37488761D01*
X148709047Y-37536380D01*
X148470952Y-37536380D01*
X148375714Y-37488761D01*
X148328095Y-37441142D01*
X149756666Y-36536380D02*
X149566190Y-36536380D01*
X149470952Y-36584000D01*
X149423333Y-36631619D01*
X149328095Y-36774476D01*
X149280476Y-36964952D01*
X149280476Y-37345904D01*
X149328095Y-37441142D01*
X149375714Y-37488761D01*
X149470952Y-37536380D01*
X149661428Y-37536380D01*
X149756666Y-37488761D01*
X149804285Y-37441142D01*
X149851904Y-37345904D01*
X149851904Y-37107809D01*
X149804285Y-37012571D01*
X149756666Y-36964952D01*
X149661428Y-36917333D01*
X149470952Y-36917333D01*
X149375714Y-36964952D01*
X149328095Y-37012571D01*
X149280476Y-37107809D01*
%TO.C,C14*%
X196715142Y-48109142D02*
X196667523Y-48156761D01*
X196524666Y-48204380D01*
X196429428Y-48204380D01*
X196286571Y-48156761D01*
X196191333Y-48061523D01*
X196143714Y-47966285D01*
X196096095Y-47775809D01*
X196096095Y-47632952D01*
X196143714Y-47442476D01*
X196191333Y-47347238D01*
X196286571Y-47252000D01*
X196429428Y-47204380D01*
X196524666Y-47204380D01*
X196667523Y-47252000D01*
X196715142Y-47299619D01*
X197667523Y-48204380D02*
X197096095Y-48204380D01*
X197381809Y-48204380D02*
X197381809Y-47204380D01*
X197286571Y-47347238D01*
X197191333Y-47442476D01*
X197096095Y-47490095D01*
X198524666Y-47537714D02*
X198524666Y-48204380D01*
X198286571Y-47156761D02*
X198048476Y-47871047D01*
X198667523Y-47871047D01*
%TO.C,D17*%
X144581714Y-50998380D02*
X144581714Y-49998380D01*
X144819809Y-49998380D01*
X144962666Y-50046000D01*
X145057904Y-50141238D01*
X145105523Y-50236476D01*
X145153142Y-50426952D01*
X145153142Y-50569809D01*
X145105523Y-50760285D01*
X145057904Y-50855523D01*
X144962666Y-50950761D01*
X144819809Y-50998380D01*
X144581714Y-50998380D01*
X146105523Y-50998380D02*
X145534095Y-50998380D01*
X145819809Y-50998380D02*
X145819809Y-49998380D01*
X145724571Y-50141238D01*
X145629333Y-50236476D01*
X145534095Y-50284095D01*
X146438857Y-49998380D02*
X147105523Y-49998380D01*
X146676952Y-50998380D01*
%TO.C,R41*%
X147947142Y-52268380D02*
X147613809Y-51792190D01*
X147375714Y-52268380D02*
X147375714Y-51268380D01*
X147756666Y-51268380D01*
X147851904Y-51316000D01*
X147899523Y-51363619D01*
X147947142Y-51458857D01*
X147947142Y-51601714D01*
X147899523Y-51696952D01*
X147851904Y-51744571D01*
X147756666Y-51792190D01*
X147375714Y-51792190D01*
X148804285Y-51601714D02*
X148804285Y-52268380D01*
X148566190Y-51220761D02*
X148328095Y-51935047D01*
X148947142Y-51935047D01*
X149851904Y-52268380D02*
X149280476Y-52268380D01*
X149566190Y-52268380D02*
X149566190Y-51268380D01*
X149470952Y-51411238D01*
X149375714Y-51506476D01*
X149280476Y-51554095D01*
%TO.C,C11*%
X175125142Y-63349142D02*
X175077523Y-63396761D01*
X174934666Y-63444380D01*
X174839428Y-63444380D01*
X174696571Y-63396761D01*
X174601333Y-63301523D01*
X174553714Y-63206285D01*
X174506095Y-63015809D01*
X174506095Y-62872952D01*
X174553714Y-62682476D01*
X174601333Y-62587238D01*
X174696571Y-62492000D01*
X174839428Y-62444380D01*
X174934666Y-62444380D01*
X175077523Y-62492000D01*
X175125142Y-62539619D01*
X176077523Y-63444380D02*
X175506095Y-63444380D01*
X175791809Y-63444380D02*
X175791809Y-62444380D01*
X175696571Y-62587238D01*
X175601333Y-62682476D01*
X175506095Y-62730095D01*
X177029904Y-63444380D02*
X176458476Y-63444380D01*
X176744190Y-63444380D02*
X176744190Y-62444380D01*
X176648952Y-62587238D01*
X176553714Y-62682476D01*
X176458476Y-62730095D01*
%TO.C,C32*%
X147947142Y-53443142D02*
X147899523Y-53490761D01*
X147756666Y-53538380D01*
X147661428Y-53538380D01*
X147518571Y-53490761D01*
X147423333Y-53395523D01*
X147375714Y-53300285D01*
X147328095Y-53109809D01*
X147328095Y-52966952D01*
X147375714Y-52776476D01*
X147423333Y-52681238D01*
X147518571Y-52586000D01*
X147661428Y-52538380D01*
X147756666Y-52538380D01*
X147899523Y-52586000D01*
X147947142Y-52633619D01*
X148280476Y-52538380D02*
X148899523Y-52538380D01*
X148566190Y-52919333D01*
X148709047Y-52919333D01*
X148804285Y-52966952D01*
X148851904Y-53014571D01*
X148899523Y-53109809D01*
X148899523Y-53347904D01*
X148851904Y-53443142D01*
X148804285Y-53490761D01*
X148709047Y-53538380D01*
X148423333Y-53538380D01*
X148328095Y-53490761D01*
X148280476Y-53443142D01*
X149280476Y-52633619D02*
X149328095Y-52586000D01*
X149423333Y-52538380D01*
X149661428Y-52538380D01*
X149756666Y-52586000D01*
X149804285Y-52633619D01*
X149851904Y-52728857D01*
X149851904Y-52824095D01*
X149804285Y-52966952D01*
X149232857Y-53538380D01*
X149851904Y-53538380D01*
%TO.C,D35*%
X144581714Y-46172380D02*
X144581714Y-45172380D01*
X144819809Y-45172380D01*
X144962666Y-45220000D01*
X145057904Y-45315238D01*
X145105523Y-45410476D01*
X145153142Y-45600952D01*
X145153142Y-45743809D01*
X145105523Y-45934285D01*
X145057904Y-46029523D01*
X144962666Y-46124761D01*
X144819809Y-46172380D01*
X144581714Y-46172380D01*
X145486476Y-45172380D02*
X146105523Y-45172380D01*
X145772190Y-45553333D01*
X145915047Y-45553333D01*
X146010285Y-45600952D01*
X146057904Y-45648571D01*
X146105523Y-45743809D01*
X146105523Y-45981904D01*
X146057904Y-46077142D01*
X146010285Y-46124761D01*
X145915047Y-46172380D01*
X145629333Y-46172380D01*
X145534095Y-46124761D01*
X145486476Y-46077142D01*
X147010285Y-45172380D02*
X146534095Y-45172380D01*
X146486476Y-45648571D01*
X146534095Y-45600952D01*
X146629333Y-45553333D01*
X146867428Y-45553333D01*
X146962666Y-45600952D01*
X147010285Y-45648571D01*
X147057904Y-45743809D01*
X147057904Y-45981904D01*
X147010285Y-46077142D01*
X146962666Y-46124761D01*
X146867428Y-46172380D01*
X146629333Y-46172380D01*
X146534095Y-46124761D01*
X146486476Y-46077142D01*
%TO.C,D15*%
X167949714Y-54046380D02*
X167949714Y-53046380D01*
X168187809Y-53046380D01*
X168330666Y-53094000D01*
X168425904Y-53189238D01*
X168473523Y-53284476D01*
X168521142Y-53474952D01*
X168521142Y-53617809D01*
X168473523Y-53808285D01*
X168425904Y-53903523D01*
X168330666Y-53998761D01*
X168187809Y-54046380D01*
X167949714Y-54046380D01*
X169473523Y-54046380D02*
X168902095Y-54046380D01*
X169187809Y-54046380D02*
X169187809Y-53046380D01*
X169092571Y-53189238D01*
X168997333Y-53284476D01*
X168902095Y-53332095D01*
X170378285Y-53046380D02*
X169902095Y-53046380D01*
X169854476Y-53522571D01*
X169902095Y-53474952D01*
X169997333Y-53427333D01*
X170235428Y-53427333D01*
X170330666Y-53474952D01*
X170378285Y-53522571D01*
X170425904Y-53617809D01*
X170425904Y-53855904D01*
X170378285Y-53951142D01*
X170330666Y-53998761D01*
X170235428Y-54046380D01*
X169997333Y-54046380D01*
X169902095Y-53998761D01*
X169854476Y-53951142D01*
%TO.C,C46*%
X147947142Y-40235142D02*
X147899523Y-40282761D01*
X147756666Y-40330380D01*
X147661428Y-40330380D01*
X147518571Y-40282761D01*
X147423333Y-40187523D01*
X147375714Y-40092285D01*
X147328095Y-39901809D01*
X147328095Y-39758952D01*
X147375714Y-39568476D01*
X147423333Y-39473238D01*
X147518571Y-39378000D01*
X147661428Y-39330380D01*
X147756666Y-39330380D01*
X147899523Y-39378000D01*
X147947142Y-39425619D01*
X148804285Y-39663714D02*
X148804285Y-40330380D01*
X148566190Y-39282761D02*
X148328095Y-39997047D01*
X148947142Y-39997047D01*
X149756666Y-39330380D02*
X149566190Y-39330380D01*
X149470952Y-39378000D01*
X149423333Y-39425619D01*
X149328095Y-39568476D01*
X149280476Y-39758952D01*
X149280476Y-40139904D01*
X149328095Y-40235142D01*
X149375714Y-40282761D01*
X149470952Y-40330380D01*
X149661428Y-40330380D01*
X149756666Y-40282761D01*
X149804285Y-40235142D01*
X149851904Y-40139904D01*
X149851904Y-39901809D01*
X149804285Y-39806571D01*
X149756666Y-39758952D01*
X149661428Y-39711333D01*
X149470952Y-39711333D01*
X149375714Y-39758952D01*
X149328095Y-39806571D01*
X149280476Y-39901809D01*
%TO.C,C44*%
X147947142Y-48109142D02*
X147899523Y-48156761D01*
X147756666Y-48204380D01*
X147661428Y-48204380D01*
X147518571Y-48156761D01*
X147423333Y-48061523D01*
X147375714Y-47966285D01*
X147328095Y-47775809D01*
X147328095Y-47632952D01*
X147375714Y-47442476D01*
X147423333Y-47347238D01*
X147518571Y-47252000D01*
X147661428Y-47204380D01*
X147756666Y-47204380D01*
X147899523Y-47252000D01*
X147947142Y-47299619D01*
X148804285Y-47537714D02*
X148804285Y-48204380D01*
X148566190Y-47156761D02*
X148328095Y-47871047D01*
X148947142Y-47871047D01*
X149756666Y-47537714D02*
X149756666Y-48204380D01*
X149518571Y-47156761D02*
X149280476Y-47871047D01*
X149899523Y-47871047D01*
%TO.C,D30*%
X167949714Y-64968380D02*
X167949714Y-63968380D01*
X168187809Y-63968380D01*
X168330666Y-64016000D01*
X168425904Y-64111238D01*
X168473523Y-64206476D01*
X168521142Y-64396952D01*
X168521142Y-64539809D01*
X168473523Y-64730285D01*
X168425904Y-64825523D01*
X168330666Y-64920761D01*
X168187809Y-64968380D01*
X167949714Y-64968380D01*
X168854476Y-63968380D02*
X169473523Y-63968380D01*
X169140190Y-64349333D01*
X169283047Y-64349333D01*
X169378285Y-64396952D01*
X169425904Y-64444571D01*
X169473523Y-64539809D01*
X169473523Y-64777904D01*
X169425904Y-64873142D01*
X169378285Y-64920761D01*
X169283047Y-64968380D01*
X168997333Y-64968380D01*
X168902095Y-64920761D01*
X168854476Y-64873142D01*
X170092571Y-63968380D02*
X170187809Y-63968380D01*
X170283047Y-64016000D01*
X170330666Y-64063619D01*
X170378285Y-64158857D01*
X170425904Y-64349333D01*
X170425904Y-64587428D01*
X170378285Y-64777904D01*
X170330666Y-64873142D01*
X170283047Y-64920761D01*
X170187809Y-64968380D01*
X170092571Y-64968380D01*
X169997333Y-64920761D01*
X169949714Y-64873142D01*
X169902095Y-64777904D01*
X169854476Y-64587428D01*
X169854476Y-64349333D01*
X169902095Y-64158857D01*
X169949714Y-64063619D01*
X169997333Y-64016000D01*
X170092571Y-63968380D01*
%TO.C,C3*%
X182205333Y-68175142D02*
X182157714Y-68222761D01*
X182014857Y-68270380D01*
X181919619Y-68270380D01*
X181776761Y-68222761D01*
X181681523Y-68127523D01*
X181633904Y-68032285D01*
X181586285Y-67841809D01*
X181586285Y-67698952D01*
X181633904Y-67508476D01*
X181681523Y-67413238D01*
X181776761Y-67318000D01*
X181919619Y-67270380D01*
X182014857Y-67270380D01*
X182157714Y-67318000D01*
X182205333Y-67365619D01*
X182538666Y-67270380D02*
X183157714Y-67270380D01*
X182824380Y-67651333D01*
X182967238Y-67651333D01*
X183062476Y-67698952D01*
X183110095Y-67746571D01*
X183157714Y-67841809D01*
X183157714Y-68079904D01*
X183110095Y-68175142D01*
X183062476Y-68222761D01*
X182967238Y-68270380D01*
X182681523Y-68270380D01*
X182586285Y-68222761D01*
X182538666Y-68175142D01*
%TO.C,R53*%
X147947142Y-46934380D02*
X147613809Y-46458190D01*
X147375714Y-46934380D02*
X147375714Y-45934380D01*
X147756666Y-45934380D01*
X147851904Y-45982000D01*
X147899523Y-46029619D01*
X147947142Y-46124857D01*
X147947142Y-46267714D01*
X147899523Y-46362952D01*
X147851904Y-46410571D01*
X147756666Y-46458190D01*
X147375714Y-46458190D01*
X148851904Y-45934380D02*
X148375714Y-45934380D01*
X148328095Y-46410571D01*
X148375714Y-46362952D01*
X148470952Y-46315333D01*
X148709047Y-46315333D01*
X148804285Y-46362952D01*
X148851904Y-46410571D01*
X148899523Y-46505809D01*
X148899523Y-46743904D01*
X148851904Y-46839142D01*
X148804285Y-46886761D01*
X148709047Y-46934380D01*
X148470952Y-46934380D01*
X148375714Y-46886761D01*
X148328095Y-46839142D01*
X149232857Y-45934380D02*
X149851904Y-45934380D01*
X149518571Y-46315333D01*
X149661428Y-46315333D01*
X149756666Y-46362952D01*
X149804285Y-46410571D01*
X149851904Y-46505809D01*
X149851904Y-46743904D01*
X149804285Y-46839142D01*
X149756666Y-46886761D01*
X149661428Y-46934380D01*
X149375714Y-46934380D01*
X149280476Y-46886761D01*
X149232857Y-46839142D01*
%TO.C,R44*%
X147947142Y-57094380D02*
X147613809Y-56618190D01*
X147375714Y-57094380D02*
X147375714Y-56094380D01*
X147756666Y-56094380D01*
X147851904Y-56142000D01*
X147899523Y-56189619D01*
X147947142Y-56284857D01*
X147947142Y-56427714D01*
X147899523Y-56522952D01*
X147851904Y-56570571D01*
X147756666Y-56618190D01*
X147375714Y-56618190D01*
X148804285Y-56427714D02*
X148804285Y-57094380D01*
X148566190Y-56046761D02*
X148328095Y-56761047D01*
X148947142Y-56761047D01*
X149756666Y-56427714D02*
X149756666Y-57094380D01*
X149518571Y-56046761D02*
X149280476Y-56761047D01*
X149899523Y-56761047D01*
D11*
%TO.C,TP12*%
X176846000Y-66486000D02*
X176846000Y-65086000D01*
X178246000Y-65086000D02*
X178246000Y-66486000D01*
X176846000Y-65086000D02*
X178246000Y-65086000D01*
X178246000Y-66486000D02*
X176846000Y-66486000D01*
%TO.C,TP11*%
X169226000Y-57596000D02*
X169226000Y-56196000D01*
X170626000Y-56196000D02*
X170626000Y-57596000D01*
X169226000Y-56196000D02*
X170626000Y-56196000D01*
X170626000Y-57596000D02*
X169226000Y-57596000D01*
%TO.C,TP10*%
X176214000Y-51500000D02*
X174814000Y-51500000D01*
X174814000Y-50100000D02*
X176214000Y-50100000D01*
X176214000Y-50100000D02*
X176214000Y-51500000D01*
X174814000Y-51500000D02*
X174814000Y-50100000D01*
%TO.C,U17*%
X160528000Y-42652000D02*
X158578000Y-42652000D01*
X160528000Y-47772000D02*
X158578000Y-47772000D01*
X160528000Y-47772000D02*
X163978000Y-47772000D01*
X160528000Y-42652000D02*
X162478000Y-42652000D01*
%TO.C,R43*%
X155177258Y-56881500D02*
X154702742Y-56881500D01*
X155177258Y-57926500D02*
X154702742Y-57926500D01*
%TO.C,R13*%
X172957258Y-52846500D02*
X172482742Y-52846500D01*
X172957258Y-51801500D02*
X172482742Y-51801500D01*
%TO.C,SW3*%
X188169000Y-34858000D02*
X188169000Y-33528000D01*
X190769000Y-32198000D02*
X195909000Y-32198000D01*
X195909000Y-34858000D02*
X195909000Y-32198000D01*
X189499000Y-34858000D02*
X188169000Y-34858000D01*
X190769000Y-34858000D02*
X190769000Y-32198000D01*
X190769000Y-34858000D02*
X195909000Y-34858000D01*
%TO.C,Q17*%
X141662000Y-59034000D02*
X141662000Y-59304000D01*
X141662000Y-65664000D02*
X144492000Y-65664000D01*
X141662000Y-65934000D02*
X141662000Y-65664000D01*
X140162000Y-59034000D02*
X141662000Y-59034000D01*
X140162000Y-65934000D02*
X141662000Y-65934000D01*
X141662000Y-59304000D02*
X142762000Y-59304000D01*
%TO.C,U11*%
X160528000Y-53868000D02*
X163978000Y-53868000D01*
X160528000Y-48748000D02*
X162478000Y-48748000D01*
X160528000Y-48748000D02*
X158578000Y-48748000D01*
X160528000Y-53868000D02*
X158578000Y-53868000D01*
%TO.C,D18*%
X167616000Y-59778000D02*
X167616000Y-58078000D01*
X167616000Y-58078000D02*
X165066000Y-58078000D01*
X167616000Y-59778000D02*
X165066000Y-59778000D01*
%TO.C,D38*%
X152884000Y-38950000D02*
X152884000Y-37250000D01*
X152884000Y-38950000D02*
X150334000Y-38950000D01*
X152884000Y-37250000D02*
X150334000Y-37250000D01*
%TO.C,R14*%
X172957258Y-54849500D02*
X172482742Y-54849500D01*
X172957258Y-55894500D02*
X172482742Y-55894500D01*
%TO.C,C40*%
X155201252Y-72363000D02*
X154678748Y-72363000D01*
X155201252Y-70893000D02*
X154678748Y-70893000D01*
%TO.C,L3*%
X186287000Y-57054385D02*
X193727000Y-57054385D01*
X193727000Y-65574385D02*
X186287000Y-65574385D01*
X193727000Y-57054385D02*
X193727000Y-65574385D01*
X186287000Y-65574385D02*
X186287000Y-57054385D01*
%TO.C,C33*%
X165975420Y-56386000D02*
X166256580Y-56386000D01*
X165975420Y-57406000D02*
X166256580Y-57406000D01*
%TO.C,Q9*%
X126930000Y-44064000D02*
X128030000Y-44064000D01*
X126930000Y-50694000D02*
X126930000Y-50424000D01*
X126930000Y-50424000D02*
X129760000Y-50424000D01*
X125430000Y-43794000D02*
X126930000Y-43794000D01*
X125430000Y-50694000D02*
X126930000Y-50694000D01*
X126930000Y-43794000D02*
X126930000Y-44064000D01*
%TO.C,R1*%
X176036500Y-72881258D02*
X176036500Y-72406742D01*
X174991500Y-72881258D02*
X174991500Y-72406742D01*
%TO.C,Q21*%
X141662000Y-50423000D02*
X144492000Y-50423000D01*
X141662000Y-50693000D02*
X141662000Y-50423000D01*
X141662000Y-44063000D02*
X142762000Y-44063000D01*
X140162000Y-43793000D02*
X141662000Y-43793000D01*
X140162000Y-50693000D02*
X141662000Y-50693000D01*
X141662000Y-43793000D02*
X141662000Y-44063000D01*
%TO.C,C42*%
X155201252Y-64797000D02*
X154678748Y-64797000D01*
X155201252Y-66267000D02*
X154678748Y-66267000D01*
%TO.C,D31*%
X152884000Y-65366000D02*
X150334000Y-65366000D01*
X152884000Y-65366000D02*
X152884000Y-63666000D01*
X152884000Y-63666000D02*
X150334000Y-63666000D01*
%TO.C,D27*%
X167616000Y-71970000D02*
X165066000Y-71970000D01*
X167616000Y-70270000D02*
X165066000Y-70270000D01*
X167616000Y-71970000D02*
X167616000Y-70270000D01*
%TO.C,D37*%
X152884000Y-39282000D02*
X150334000Y-39282000D01*
X152884000Y-40982000D02*
X150334000Y-40982000D01*
X152884000Y-40982000D02*
X152884000Y-39282000D01*
%TO.C,R42*%
X155177258Y-48753500D02*
X154702742Y-48753500D01*
X155177258Y-49798500D02*
X154702742Y-49798500D01*
%TO.C,C7*%
X172579420Y-54358000D02*
X172860580Y-54358000D01*
X172579420Y-53338000D02*
X172860580Y-53338000D01*
%TO.C,D20*%
X152884000Y-55538000D02*
X150334000Y-55538000D01*
X152884000Y-57238000D02*
X152884000Y-55538000D01*
X152884000Y-57238000D02*
X150334000Y-57238000D01*
%TO.C,D32*%
X152884000Y-63334000D02*
X150334000Y-63334000D01*
X152884000Y-63334000D02*
X152884000Y-61634000D01*
X152884000Y-61634000D02*
X150334000Y-61634000D01*
%TO.C,R52*%
X155177258Y-60945500D02*
X154702742Y-60945500D01*
X155177258Y-61990500D02*
X154702742Y-61990500D01*
%TO.C,C41*%
X165975420Y-62482000D02*
X166256580Y-62482000D01*
X165975420Y-63502000D02*
X166256580Y-63502000D01*
%TO.C,C39*%
X165975420Y-68578000D02*
X166256580Y-68578000D01*
X165975420Y-69598000D02*
X166256580Y-69598000D01*
%TO.C,D33*%
X167616000Y-47586000D02*
X165066000Y-47586000D01*
X167616000Y-45886000D02*
X165066000Y-45886000D01*
X167616000Y-47586000D02*
X167616000Y-45886000D01*
%TO.C,R20*%
X172957258Y-59421500D02*
X172482742Y-59421500D01*
X172957258Y-60466500D02*
X172482742Y-60466500D01*
%TO.C,R51*%
X155177258Y-62977500D02*
X154702742Y-62977500D01*
X155177258Y-64022500D02*
X154702742Y-64022500D01*
%TO.C,R12*%
X172957258Y-51322500D02*
X172482742Y-51322500D01*
X172957258Y-50277500D02*
X172482742Y-50277500D01*
%TO.C,R50*%
X155177258Y-67041500D02*
X154702742Y-67041500D01*
X155177258Y-68086500D02*
X154702742Y-68086500D01*
%TO.C,U15*%
X160528000Y-72156000D02*
X163978000Y-72156000D01*
X160528000Y-67036000D02*
X162478000Y-67036000D01*
X160528000Y-67036000D02*
X158578000Y-67036000D01*
X160528000Y-72156000D02*
X158578000Y-72156000D01*
%TO.C,C6*%
X177405420Y-77726000D02*
X177686580Y-77726000D01*
X177405420Y-76706000D02*
X177686580Y-76706000D01*
%TO.C,SW1*%
X195281000Y-65169385D02*
X197941000Y-65169385D01*
X195281000Y-60029385D02*
X195281000Y-65169385D01*
X195281000Y-58759385D02*
X195281000Y-57429385D01*
X197941000Y-60029385D02*
X197941000Y-65169385D01*
X195281000Y-60029385D02*
X197941000Y-60029385D01*
X195281000Y-57429385D02*
X196611000Y-57429385D01*
%TO.C,C22*%
X185221349Y-37631000D02*
X185221349Y-40295000D01*
X184861349Y-37631000D02*
X184861349Y-40441000D01*
X185061349Y-32817000D02*
X185061349Y-35551000D01*
X185741349Y-37631000D02*
X185741349Y-40009000D01*
X184661349Y-37631000D02*
X184661349Y-40505000D01*
X186981349Y-34425000D02*
X186981349Y-38757000D01*
X185901349Y-33282000D02*
X185901349Y-35551000D01*
X185861349Y-37631000D02*
X185861349Y-39929000D01*
X183660349Y-32514000D02*
X183660349Y-40668000D01*
X185381349Y-37631000D02*
X185381349Y-40218000D01*
X187461349Y-35493000D02*
X187461349Y-37689000D01*
X186781349Y-34137000D02*
X186781349Y-39045000D01*
X184140349Y-32561000D02*
X184140349Y-40621000D01*
X185021349Y-37631000D02*
X185021349Y-40381000D01*
X187261349Y-34946000D02*
X187261349Y-38236000D01*
X184981349Y-32786000D02*
X184981349Y-35551000D01*
X185941349Y-37631000D02*
X185941349Y-39871000D01*
X185341349Y-37631000D02*
X185341349Y-40238000D01*
X185461349Y-33007000D02*
X185461349Y-35551000D01*
X186141349Y-37631000D02*
X186141349Y-39715000D01*
X183820349Y-32523000D02*
X183820349Y-40659000D01*
X186381349Y-33684000D02*
X186381349Y-39498000D01*
X185301349Y-37631000D02*
X185301349Y-40257000D01*
X183580349Y-32511000D02*
X183580349Y-40671000D01*
X184381349Y-32606000D02*
X184381349Y-35551000D01*
X186661349Y-33987000D02*
X186661349Y-39195000D01*
X183860349Y-32526000D02*
X183860349Y-40656000D01*
X185181349Y-32869000D02*
X185181349Y-35551000D01*
X184701349Y-37631000D02*
X184701349Y-40493000D01*
X179490651Y-33876000D02*
X179490651Y-34676000D01*
X184661349Y-32677000D02*
X184661349Y-35551000D01*
X184461349Y-37631000D02*
X184461349Y-40558000D01*
X185621349Y-33098000D02*
X185621349Y-35551000D01*
X185301349Y-32925000D02*
X185301349Y-35551000D01*
X185261349Y-32905000D02*
X185261349Y-35551000D01*
X186221349Y-37631000D02*
X186221349Y-39646000D01*
X187581349Y-36058000D02*
X187581349Y-37124000D01*
X184221349Y-37631000D02*
X184221349Y-40608000D01*
X185661349Y-33122000D02*
X185661349Y-35551000D01*
X185781349Y-37631000D02*
X185781349Y-39983000D01*
X184581349Y-32655000D02*
X184581349Y-35551000D01*
X185141349Y-32851000D02*
X185141349Y-35551000D01*
X185181349Y-37631000D02*
X185181349Y-40313000D01*
X185461349Y-37631000D02*
X185461349Y-40175000D01*
X184821349Y-32728000D02*
X184821349Y-35551000D01*
X183980349Y-32539000D02*
X183980349Y-40643000D01*
X184381349Y-37631000D02*
X184381349Y-40576000D01*
X184501349Y-32634000D02*
X184501349Y-35551000D01*
X185061349Y-37631000D02*
X185061349Y-40365000D01*
X187021349Y-34489000D02*
X187021349Y-38693000D01*
X186461349Y-33765000D02*
X186461349Y-39417000D01*
X187061349Y-34557000D02*
X187061349Y-38625000D01*
X185221349Y-32887000D02*
X185221349Y-35551000D01*
X183620349Y-32512000D02*
X183620349Y-40670000D01*
X184341349Y-32597000D02*
X184341349Y-35551000D01*
X186941349Y-34363000D02*
X186941349Y-38819000D01*
X184020349Y-32543000D02*
X184020349Y-40639000D01*
X187341349Y-35138000D02*
X187341349Y-38044000D01*
X186701349Y-34035000D02*
X186701349Y-39147000D01*
X186141349Y-33467000D02*
X186141349Y-35551000D01*
X186061349Y-37631000D02*
X186061349Y-39780000D01*
X184701349Y-32689000D02*
X184701349Y-35551000D01*
X186181349Y-37631000D02*
X186181349Y-39681000D01*
X186221349Y-33536000D02*
X186221349Y-35551000D01*
X185101349Y-37631000D02*
X185101349Y-40348000D01*
X185861349Y-33253000D02*
X185861349Y-35551000D01*
X185101349Y-32834000D02*
X185101349Y-35551000D01*
X185421349Y-37631000D02*
X185421349Y-40197000D01*
X185701349Y-37631000D02*
X185701349Y-40035000D01*
X184501349Y-37631000D02*
X184501349Y-40548000D01*
X186101349Y-37631000D02*
X186101349Y-39747000D01*
X184941349Y-32770000D02*
X184941349Y-35551000D01*
X184461349Y-32624000D02*
X184461349Y-35551000D01*
X185821349Y-37631000D02*
X185821349Y-39956000D01*
X187421349Y-35362000D02*
X187421349Y-37820000D01*
X185701349Y-33147000D02*
X185701349Y-35551000D01*
X184421349Y-37631000D02*
X184421349Y-40567000D01*
X185541349Y-37631000D02*
X185541349Y-40131000D01*
X185981349Y-33341000D02*
X185981349Y-35551000D01*
X185501349Y-37631000D02*
X185501349Y-40153000D01*
X183540349Y-32511000D02*
X183540349Y-40671000D01*
X183740349Y-32517000D02*
X183740349Y-40665000D01*
X185021349Y-32801000D02*
X185021349Y-35551000D01*
X185781349Y-33199000D02*
X185781349Y-35551000D01*
X184301349Y-37631000D02*
X184301349Y-40593000D01*
X185141349Y-37631000D02*
X185141349Y-40331000D01*
X184901349Y-37631000D02*
X184901349Y-40426000D01*
X185941349Y-33311000D02*
X185941349Y-35551000D01*
X187141349Y-34701000D02*
X187141349Y-38481000D01*
X185621349Y-37631000D02*
X185621349Y-40084000D01*
X184861349Y-32741000D02*
X184861349Y-35551000D01*
X184621349Y-37631000D02*
X184621349Y-40516000D01*
X186021349Y-37631000D02*
X186021349Y-39811000D01*
X186021349Y-33371000D02*
X186021349Y-35551000D01*
X186541349Y-33850000D02*
X186541349Y-39332000D01*
X186341349Y-33646000D02*
X186341349Y-39536000D01*
X184541349Y-37631000D02*
X184541349Y-40538000D01*
X185901349Y-37631000D02*
X185901349Y-39900000D01*
X186101349Y-33435000D02*
X186101349Y-35551000D01*
X185661349Y-37631000D02*
X185661349Y-40060000D01*
X187541349Y-35823000D02*
X187541349Y-37359000D01*
X186261349Y-37631000D02*
X186261349Y-39610000D01*
X183900349Y-32530000D02*
X183900349Y-40652000D01*
X185261349Y-37631000D02*
X185261349Y-40277000D01*
X179090651Y-34276000D02*
X179890651Y-34276000D01*
X186061349Y-33402000D02*
X186061349Y-35551000D01*
X186861349Y-34246000D02*
X186861349Y-38936000D01*
X184821349Y-37631000D02*
X184821349Y-40454000D01*
X186261349Y-33572000D02*
X186261349Y-35551000D01*
X184341349Y-37631000D02*
X184341349Y-40585000D01*
X186741349Y-34086000D02*
X186741349Y-39096000D01*
X184781349Y-32714000D02*
X184781349Y-35551000D01*
X185821349Y-33226000D02*
X185821349Y-35551000D01*
X184901349Y-32756000D02*
X184901349Y-35551000D01*
X184221349Y-32574000D02*
X184221349Y-35551000D01*
X183780349Y-32520000D02*
X183780349Y-40662000D01*
X183940349Y-32534000D02*
X183940349Y-40648000D01*
X186901349Y-34304000D02*
X186901349Y-38878000D01*
X184981349Y-37631000D02*
X184981349Y-40396000D01*
X184261349Y-37631000D02*
X184261349Y-40601000D01*
X184100349Y-32554000D02*
X184100349Y-40628000D01*
X186421349Y-33724000D02*
X186421349Y-39458000D01*
X184301349Y-32589000D02*
X184301349Y-35551000D01*
X186301349Y-33608000D02*
X186301349Y-39574000D01*
X185581349Y-33074000D02*
X185581349Y-35551000D01*
X187181349Y-34778000D02*
X187181349Y-38404000D01*
X184741349Y-37631000D02*
X184741349Y-40480000D01*
X185981349Y-37631000D02*
X185981349Y-39841000D01*
X187221349Y-34860000D02*
X187221349Y-38322000D01*
X184581349Y-37631000D02*
X184581349Y-40527000D01*
X185741349Y-33173000D02*
X185741349Y-35551000D01*
X185421349Y-32985000D02*
X185421349Y-35551000D01*
X184180349Y-32567000D02*
X184180349Y-40615000D01*
X184621349Y-32666000D02*
X184621349Y-35551000D01*
X185381349Y-32964000D02*
X185381349Y-35551000D01*
X186181349Y-33501000D02*
X186181349Y-35551000D01*
X186821349Y-34191000D02*
X186821349Y-38991000D01*
X185501349Y-33029000D02*
X185501349Y-35551000D01*
X184741349Y-32702000D02*
X184741349Y-35551000D01*
X187301349Y-35039000D02*
X187301349Y-38143000D01*
X184060349Y-32549000D02*
X184060349Y-40633000D01*
X184541349Y-32644000D02*
X184541349Y-35551000D01*
X187101349Y-34627000D02*
X187101349Y-38555000D01*
X184421349Y-32615000D02*
X184421349Y-35551000D01*
X186501349Y-33807000D02*
X186501349Y-39375000D01*
X184941349Y-37631000D02*
X184941349Y-40412000D01*
X185541349Y-33051000D02*
X185541349Y-35551000D01*
X184261349Y-32581000D02*
X184261349Y-35551000D01*
X186621349Y-33940000D02*
X186621349Y-39242000D01*
X186581349Y-33894000D02*
X186581349Y-39288000D01*
X184781349Y-37631000D02*
X184781349Y-40468000D01*
X187381349Y-35245000D02*
X187381349Y-37937000D01*
X185581349Y-37631000D02*
X185581349Y-40108000D01*
X187501349Y-35643000D02*
X187501349Y-37539000D01*
X183700349Y-32515000D02*
X183700349Y-40667000D01*
X185341349Y-32944000D02*
X185341349Y-35551000D01*
X183500349Y-32511000D02*
X183500349Y-40671000D01*
X187620349Y-36591000D02*
G75*
G03*
X187620349Y-36591000I-4120000J0D01*
G01*
%TO.C,C31*%
X165975420Y-51310000D02*
X166256580Y-51310000D01*
X165975420Y-50290000D02*
X166256580Y-50290000D01*
%TO.C,J4*%
X186944000Y-77784000D02*
X185614000Y-77784000D01*
X188214000Y-77784000D02*
X198434000Y-77784000D01*
X188214000Y-77784000D02*
X188214000Y-75124000D01*
X185614000Y-77784000D02*
X185614000Y-76454000D01*
X198434000Y-77784000D02*
X198434000Y-75124000D01*
X188214000Y-75124000D02*
X198434000Y-75124000D01*
%TO.C,C1*%
X181496580Y-76706000D02*
X181215420Y-76706000D01*
X181496580Y-77726000D02*
X181215420Y-77726000D01*
%TO.C,Q19*%
X141662000Y-58314000D02*
X141662000Y-58044000D01*
X141662000Y-51414000D02*
X141662000Y-51684000D01*
X140162000Y-51414000D02*
X141662000Y-51414000D01*
X140162000Y-58314000D02*
X141662000Y-58314000D01*
X141662000Y-58044000D02*
X144492000Y-58044000D01*
X141662000Y-51684000D02*
X142762000Y-51684000D01*
%TO.C,L2*%
X171555000Y-34363000D02*
X178995000Y-34363000D01*
X171555000Y-42883000D02*
X171555000Y-34363000D01*
X178995000Y-34363000D02*
X178995000Y-42883000D01*
X178995000Y-42883000D02*
X171555000Y-42883000D01*
%TO.C,Q5*%
X112198000Y-43794000D02*
X112198000Y-44064000D01*
X112198000Y-50424000D02*
X115028000Y-50424000D01*
X112198000Y-50694000D02*
X112198000Y-50424000D01*
X110698000Y-43794000D02*
X112198000Y-43794000D01*
X110698000Y-50694000D02*
X112198000Y-50694000D01*
X112198000Y-44064000D02*
X113298000Y-44064000D01*
%TO.C,R54*%
X155177258Y-42657500D02*
X154702742Y-42657500D01*
X155177258Y-43702500D02*
X154702742Y-43702500D01*
%TO.C,D29*%
X152884000Y-69430000D02*
X150334000Y-69430000D01*
X152884000Y-69430000D02*
X152884000Y-67730000D01*
X152884000Y-67730000D02*
X150334000Y-67730000D01*
%TO.C,L1*%
X186107000Y-57054385D02*
X186107000Y-65574385D01*
X178667000Y-65574385D02*
X178667000Y-57054385D01*
X186107000Y-65574385D02*
X178667000Y-65574385D01*
X178667000Y-57054385D02*
X186107000Y-57054385D01*
%TO.C,R15*%
X172957258Y-56373500D02*
X172482742Y-56373500D01*
X172957258Y-57418500D02*
X172482742Y-57418500D01*
%TO.C,J3*%
X186944000Y-73466000D02*
X185614000Y-73466000D01*
X198434000Y-73466000D02*
X198434000Y-70806000D01*
X188214000Y-70806000D02*
X198434000Y-70806000D01*
X185614000Y-73466000D02*
X185614000Y-72136000D01*
X188214000Y-73466000D02*
X198434000Y-73466000D01*
X188214000Y-73466000D02*
X188214000Y-70806000D01*
%TO.C,C4*%
X184406000Y-73546580D02*
X184406000Y-73265420D01*
X183386000Y-73546580D02*
X183386000Y-73265420D01*
%TO.C,C17*%
X192693000Y-36094677D02*
X195449000Y-36094677D01*
X189748000Y-38334677D02*
X192830000Y-38334677D01*
X189013000Y-40535677D02*
X199129000Y-40535677D01*
X195312000Y-37574677D02*
X197824000Y-37574677D01*
X192561000Y-36134677D02*
X195581000Y-36134677D01*
X191071000Y-36894677D02*
X197071000Y-36894677D01*
X189877000Y-38134677D02*
X192830000Y-38134677D01*
X195312000Y-39454677D02*
X198908000Y-39454677D01*
X191017000Y-36934677D02*
X197125000Y-36934677D01*
X195312000Y-39094677D02*
X198778000Y-39094677D01*
X195312000Y-37334677D02*
X197591000Y-37334677D01*
X190551000Y-37334677D02*
X192830000Y-37334677D01*
X190817000Y-37094677D02*
X197325000Y-37094677D01*
X189001000Y-40695677D02*
X199141000Y-40695677D01*
X189047000Y-40254677D02*
X199095000Y-40254677D01*
X189824000Y-38214677D02*
X192830000Y-38214677D01*
X195312000Y-37934677D02*
X198121000Y-37934677D01*
X191241000Y-36774677D02*
X196901000Y-36774677D01*
X189036000Y-40335677D02*
X199106000Y-40335677D01*
X195312000Y-37814677D02*
X198028000Y-37814677D01*
X192225000Y-36254677D02*
X195917000Y-36254677D01*
X195312000Y-39214677D02*
X198825000Y-39214677D01*
X191182000Y-36814677D02*
X196960000Y-36814677D01*
X189333000Y-39174677D02*
X192830000Y-39174677D01*
X195312000Y-39054677D02*
X198761000Y-39054677D01*
X190696000Y-45995323D02*
X191696000Y-45995323D01*
X195312000Y-38494677D02*
X198488000Y-38494677D01*
X189798000Y-38254677D02*
X192830000Y-38254677D01*
X189247000Y-39414677D02*
X192830000Y-39414677D01*
X189041000Y-40294677D02*
X199101000Y-40294677D01*
X195312000Y-39734677D02*
X198989000Y-39734677D01*
X188991000Y-40935677D02*
X199151000Y-40935677D01*
X189234000Y-39454677D02*
X192830000Y-39454677D01*
X188998000Y-40735677D02*
X199144000Y-40735677D01*
X195312000Y-38814677D02*
X198655000Y-38814677D01*
X191126000Y-36854677D02*
X197016000Y-36854677D01*
X190635000Y-37254677D02*
X197507000Y-37254677D01*
X189124000Y-39854677D02*
X199018000Y-39854677D01*
X190770000Y-37134677D02*
X197372000Y-37134677D01*
X189991000Y-37974677D02*
X192830000Y-37974677D01*
X189288000Y-39294677D02*
X192830000Y-39294677D01*
X188991000Y-40975677D02*
X199151000Y-40975677D01*
X188993000Y-40855677D02*
X199149000Y-40855677D01*
X195312000Y-38454677D02*
X198466000Y-38454677D01*
X189197000Y-39574677D02*
X192830000Y-39574677D01*
X195312000Y-38174677D02*
X198292000Y-38174677D01*
X195312000Y-38214677D02*
X198318000Y-38214677D01*
X189026000Y-40415677D02*
X199116000Y-40415677D01*
X195312000Y-38294677D02*
X198369000Y-38294677D01*
X190114000Y-37814677D02*
X192830000Y-37814677D01*
X191301000Y-36734677D02*
X196841000Y-36734677D01*
X189432000Y-38934677D02*
X192830000Y-38934677D01*
X195312000Y-38574677D02*
X198533000Y-38574677D01*
X190392000Y-37494677D02*
X192830000Y-37494677D01*
X192441000Y-36174677D02*
X195701000Y-36174677D01*
X189303000Y-39254677D02*
X192830000Y-39254677D01*
X195312000Y-38694677D02*
X198596000Y-38694677D01*
X189089000Y-40014677D02*
X199053000Y-40014677D01*
X189450000Y-38894677D02*
X192830000Y-38894677D01*
X190431000Y-37454677D02*
X192830000Y-37454677D01*
X195312000Y-39174677D02*
X198809000Y-39174677D01*
X195312000Y-37774677D02*
X197996000Y-37774677D01*
X195312000Y-38134677D02*
X198265000Y-38134677D01*
X195312000Y-39614677D02*
X198956000Y-39614677D01*
X188992000Y-40895677D02*
X199150000Y-40895677D01*
X195312000Y-37694677D02*
X197929000Y-37694677D01*
X189381000Y-39054677D02*
X192830000Y-39054677D01*
X190082000Y-37854677D02*
X192830000Y-37854677D01*
X190965000Y-36974677D02*
X197177000Y-36974677D01*
X195312000Y-39414677D02*
X198895000Y-39414677D01*
X190179000Y-37734677D02*
X192830000Y-37734677D01*
X192034000Y-36334677D02*
X196108000Y-36334677D01*
X189274000Y-39334677D02*
X192830000Y-39334677D01*
X191196000Y-46495323D02*
X191196000Y-45495323D01*
X195312000Y-38894677D02*
X198692000Y-38894677D01*
X189081000Y-40054677D02*
X199061000Y-40054677D01*
X195312000Y-38254677D02*
X198344000Y-38254677D01*
X189588000Y-38614677D02*
X192830000Y-38614677D01*
X188994000Y-40815677D02*
X199148000Y-40815677D01*
X195312000Y-39134677D02*
X198794000Y-39134677D01*
X189260000Y-39374677D02*
X192830000Y-39374677D01*
X195312000Y-38374677D02*
X198418000Y-38374677D01*
X193209000Y-35974677D02*
X194933000Y-35974677D01*
X189153000Y-39734677D02*
X192830000Y-39734677D01*
X195312000Y-39494677D02*
X198921000Y-39494677D01*
X195312000Y-38854677D02*
X198674000Y-38854677D01*
X195312000Y-38414677D02*
X198442000Y-38414677D01*
X190021000Y-37934677D02*
X192830000Y-37934677D01*
X189507000Y-38774677D02*
X192830000Y-38774677D01*
X191632000Y-36534677D02*
X196510000Y-36534677D01*
X189143000Y-39774677D02*
X198999000Y-39774677D01*
X190213000Y-37694677D02*
X192830000Y-37694677D01*
X195312000Y-38774677D02*
X198635000Y-38774677D01*
X195312000Y-39294677D02*
X198854000Y-39294677D01*
X189468000Y-38854677D02*
X192830000Y-38854677D01*
X189414000Y-38974677D02*
X192830000Y-38974677D01*
X195312000Y-38014677D02*
X198181000Y-38014677D01*
X189021000Y-40455677D02*
X199121000Y-40455677D01*
X195312000Y-39574677D02*
X198945000Y-39574677D01*
X195312000Y-39534677D02*
X198933000Y-39534677D01*
X195312000Y-38614677D02*
X198554000Y-38614677D01*
X191862000Y-36414677D02*
X196280000Y-36414677D01*
X189676000Y-38454677D02*
X192830000Y-38454677D01*
X189348000Y-39134677D02*
X192830000Y-39134677D01*
X190355000Y-37534677D02*
X192830000Y-37534677D01*
X190470000Y-37414677D02*
X192830000Y-37414677D01*
X195312000Y-38334677D02*
X198394000Y-38334677D01*
X189654000Y-38494677D02*
X192830000Y-38494677D01*
X189850000Y-38174677D02*
X192830000Y-38174677D01*
X195312000Y-38094677D02*
X198237000Y-38094677D01*
X191362000Y-36694677D02*
X196780000Y-36694677D01*
X189006000Y-40615677D02*
X199136000Y-40615677D01*
X189773000Y-38294677D02*
X192830000Y-38294677D01*
X195312000Y-39254677D02*
X198839000Y-39254677D01*
X192127000Y-36294677D02*
X196015000Y-36294677D01*
X189060000Y-40174677D02*
X199082000Y-40174677D01*
X189174000Y-39654677D02*
X192830000Y-39654677D01*
X189053000Y-40214677D02*
X199089000Y-40214677D01*
X191426000Y-36654677D02*
X196716000Y-36654677D01*
X188991000Y-41015677D02*
X199151000Y-41015677D01*
X195312000Y-37294677D02*
X197549000Y-37294677D01*
X190724000Y-37174677D02*
X197418000Y-37174677D01*
X189364000Y-39094677D02*
X192830000Y-39094677D01*
X189961000Y-38014677D02*
X192830000Y-38014677D01*
X189209000Y-39534677D02*
X192830000Y-39534677D01*
X195312000Y-38934677D02*
X198710000Y-38934677D01*
X189009000Y-40575677D02*
X199133000Y-40575677D01*
X195312000Y-37894677D02*
X198091000Y-37894677D01*
X189700000Y-38414677D02*
X192830000Y-38414677D01*
X189526000Y-38734677D02*
X192830000Y-38734677D01*
X189097000Y-39974677D02*
X199045000Y-39974677D01*
X195312000Y-39374677D02*
X198882000Y-39374677D01*
X195312000Y-39334677D02*
X198868000Y-39334677D01*
X195312000Y-39654677D02*
X198968000Y-39654677D01*
X195312000Y-37494677D02*
X197750000Y-37494677D01*
X190865000Y-37054677D02*
X197277000Y-37054677D01*
X191946000Y-36374677D02*
X196196000Y-36374677D01*
X189074000Y-40094677D02*
X199068000Y-40094677D01*
X189933000Y-38054677D02*
X192830000Y-38054677D01*
X195312000Y-39014677D02*
X198745000Y-39014677D01*
X195312000Y-38654677D02*
X198575000Y-38654677D01*
X190318000Y-37574677D02*
X192830000Y-37574677D01*
X191782000Y-36454677D02*
X196360000Y-36454677D01*
X189631000Y-38534677D02*
X192830000Y-38534677D01*
X190051000Y-37894677D02*
X192830000Y-37894677D01*
X195312000Y-37974677D02*
X198151000Y-37974677D01*
X189031000Y-40375677D02*
X199111000Y-40375677D01*
X190247000Y-37654677D02*
X192830000Y-37654677D01*
X189397000Y-39014677D02*
X192830000Y-39014677D01*
X190915000Y-37014677D02*
X197227000Y-37014677D01*
X189317000Y-39214677D02*
X192830000Y-39214677D01*
X189567000Y-38654677D02*
X192830000Y-38654677D01*
X190146000Y-37774677D02*
X192830000Y-37774677D01*
X191706000Y-36494677D02*
X196436000Y-36494677D01*
X189003000Y-40655677D02*
X199139000Y-40655677D01*
X189115000Y-39894677D02*
X199027000Y-39894677D01*
X189017000Y-40495677D02*
X199125000Y-40495677D01*
X192841000Y-36054677D02*
X195301000Y-36054677D01*
X189106000Y-39934677D02*
X199036000Y-39934677D01*
X195312000Y-37654677D02*
X197895000Y-37654677D01*
X189905000Y-38094677D02*
X192830000Y-38094677D01*
X195312000Y-37414677D02*
X197672000Y-37414677D01*
X189186000Y-39614677D02*
X192830000Y-39614677D01*
X189164000Y-39694677D02*
X192830000Y-39694677D01*
X189133000Y-39814677D02*
X199009000Y-39814677D01*
X189067000Y-40134677D02*
X199075000Y-40134677D01*
X189546000Y-38694677D02*
X192830000Y-38694677D01*
X188996000Y-40775677D02*
X199146000Y-40775677D01*
X195312000Y-38734677D02*
X198616000Y-38734677D01*
X195312000Y-38534677D02*
X198511000Y-38534677D01*
X195312000Y-37614677D02*
X197860000Y-37614677D01*
X189487000Y-38814677D02*
X192830000Y-38814677D01*
X193472000Y-35934677D02*
X194670000Y-35934677D01*
X191492000Y-36614677D02*
X196650000Y-36614677D01*
X189724000Y-38374677D02*
X192830000Y-38374677D01*
X195312000Y-37734677D02*
X197963000Y-37734677D01*
X195312000Y-37454677D02*
X197711000Y-37454677D01*
X190593000Y-37294677D02*
X192830000Y-37294677D01*
X189609000Y-38574677D02*
X192830000Y-38574677D01*
X195312000Y-38054677D02*
X198209000Y-38054677D01*
X189221000Y-39494677D02*
X192830000Y-39494677D01*
X195312000Y-37854677D02*
X198060000Y-37854677D01*
X190510000Y-37374677D02*
X192830000Y-37374677D01*
X195312000Y-39694677D02*
X198978000Y-39694677D01*
X191561000Y-36574677D02*
X196581000Y-36574677D01*
X195312000Y-37534677D02*
X197787000Y-37534677D01*
X195312000Y-38974677D02*
X198728000Y-38974677D01*
X190282000Y-37614677D02*
X192830000Y-37614677D01*
X193009000Y-36014677D02*
X195133000Y-36014677D01*
X190679000Y-37214677D02*
X197463000Y-37214677D01*
X192329000Y-36214677D02*
X195813000Y-36214677D01*
X195312000Y-37374677D02*
X197632000Y-37374677D01*
X199191000Y-41015677D02*
G75*
G03*
X199191000Y-41015677I-5120000J0D01*
G01*
%TO.C,D16*%
X152884000Y-53174000D02*
X150334000Y-53174000D01*
X152884000Y-51474000D02*
X150334000Y-51474000D01*
X152884000Y-53174000D02*
X152884000Y-51474000D01*
%TO.C,C34*%
X155201252Y-58701000D02*
X154678748Y-58701000D01*
X155201252Y-60171000D02*
X154678748Y-60171000D01*
%TO.C,D19*%
X152884000Y-57570000D02*
X150334000Y-57570000D01*
X152884000Y-59270000D02*
X152884000Y-57570000D01*
X152884000Y-59270000D02*
X150334000Y-59270000D01*
%TO.C,U18*%
X160528000Y-36556000D02*
X158578000Y-36556000D01*
X160528000Y-41676000D02*
X163978000Y-41676000D01*
X160528000Y-41676000D02*
X158578000Y-41676000D01*
X160528000Y-36556000D02*
X162478000Y-36556000D01*
%TO.C,C16*%
X177724000Y-50740036D02*
X180331000Y-50740036D01*
X177508000Y-51260036D02*
X180331000Y-51260036D01*
X177494000Y-51300036D02*
X180331000Y-51300036D01*
X182411000Y-51580036D02*
X185328000Y-51580036D01*
X178006000Y-50260036D02*
X180331000Y-50260036D01*
X177809000Y-50580036D02*
X180331000Y-50580036D01*
X180838000Y-48500036D02*
X181904000Y-48500036D01*
X178182000Y-50020036D02*
X180331000Y-50020036D01*
X177361000Y-51820036D02*
X180331000Y-51820036D01*
X178033000Y-50220036D02*
X180331000Y-50220036D01*
X182411000Y-50740036D02*
X185018000Y-50740036D01*
X182411000Y-51100036D02*
X185176000Y-51100036D01*
X182411000Y-50420036D02*
X184840000Y-50420036D01*
X177354000Y-51860036D02*
X180331000Y-51860036D01*
X178091000Y-50140036D02*
X180331000Y-50140036D01*
X177386000Y-51700036D02*
X180331000Y-51700036D01*
X180025000Y-48700036D02*
X182717000Y-48700036D01*
X177597000Y-51020036D02*
X180331000Y-51020036D01*
X182411000Y-51180036D02*
X185206000Y-51180036D01*
X182411000Y-50460036D02*
X184864000Y-50460036D01*
X182411000Y-51060036D02*
X185161000Y-51060036D01*
X179056000Y-56990734D02*
X179056000Y-56190734D01*
X177291000Y-52581036D02*
X185451000Y-52581036D01*
X178767000Y-49420036D02*
X183975000Y-49420036D01*
X177300000Y-52301036D02*
X185442000Y-52301036D01*
X177614000Y-50980036D02*
X180331000Y-50980036D01*
X182411000Y-49820036D02*
X184390000Y-49820036D01*
X182411000Y-51260036D02*
X185234000Y-51260036D01*
X178247000Y-49940036D02*
X180331000Y-49940036D01*
X182411000Y-50620036D02*
X184955000Y-50620036D01*
X180603000Y-48540036D02*
X182139000Y-48540036D01*
X179084000Y-49180036D02*
X183658000Y-49180036D01*
X178464000Y-49700036D02*
X184278000Y-49700036D01*
X182411000Y-51460036D02*
X185296000Y-51460036D01*
X177347000Y-51901036D02*
X185395000Y-51901036D01*
X177631000Y-50940036D02*
X180331000Y-50940036D01*
X178062000Y-50180036D02*
X180331000Y-50180036D01*
X182411000Y-51500036D02*
X185307000Y-51500036D01*
X177979000Y-50300036D02*
X180331000Y-50300036D01*
X182411000Y-50900036D02*
X185093000Y-50900036D01*
X178545000Y-49620036D02*
X184197000Y-49620036D01*
X182411000Y-51380036D02*
X185273000Y-51380036D01*
X178388000Y-49780036D02*
X184354000Y-49780036D01*
X177521000Y-51220036D02*
X180331000Y-51220036D01*
X177319000Y-52101036D02*
X185423000Y-52101036D01*
X182411000Y-50380036D02*
X184815000Y-50380036D01*
X177404000Y-51620036D02*
X180331000Y-51620036D01*
X182411000Y-51700036D02*
X185356000Y-51700036D01*
X178504000Y-49660036D02*
X184238000Y-49660036D01*
X178971000Y-49260036D02*
X183771000Y-49260036D01*
X177649000Y-50900036D02*
X180331000Y-50900036D01*
X177295000Y-52381036D02*
X185447000Y-52381036D01*
X182411000Y-51780036D02*
X185373000Y-51780036D01*
X177550000Y-51140036D02*
X180331000Y-51140036D01*
X177566000Y-51100036D02*
X180331000Y-51100036D01*
X178866000Y-49340036D02*
X183876000Y-49340036D01*
X177581000Y-51060036D02*
X180331000Y-51060036D01*
X182411000Y-50980036D02*
X185128000Y-50980036D01*
X177482000Y-51340036D02*
X180331000Y-51340036D01*
X182411000Y-49980036D02*
X184527000Y-49980036D01*
X177787000Y-50620036D02*
X180331000Y-50620036D01*
X182411000Y-50940036D02*
X185111000Y-50940036D01*
X178316000Y-49860036D02*
X180331000Y-49860036D01*
X177469000Y-51380036D02*
X180331000Y-51380036D01*
X177297000Y-52341036D02*
X185445000Y-52341036D01*
X177854000Y-50500036D02*
X180331000Y-50500036D01*
X178587000Y-49580036D02*
X184155000Y-49580036D01*
X182411000Y-51660036D02*
X185347000Y-51660036D01*
X177292000Y-52461036D02*
X185450000Y-52461036D01*
X177927000Y-50380036D02*
X180331000Y-50380036D01*
X182411000Y-51300036D02*
X185248000Y-51300036D01*
X179819000Y-48780036D02*
X182923000Y-48780036D01*
X177291000Y-52501036D02*
X185451000Y-52501036D01*
X182411000Y-50020036D02*
X184560000Y-50020036D01*
X182411000Y-51420036D02*
X185285000Y-51420036D01*
X182411000Y-51740036D02*
X185365000Y-51740036D01*
X182411000Y-50820036D02*
X185057000Y-50820036D01*
X182411000Y-50100036D02*
X184621000Y-50100036D01*
X177953000Y-50340036D02*
X180331000Y-50340036D01*
X177685000Y-50820036D02*
X180331000Y-50820036D01*
X182411000Y-51140036D02*
X185192000Y-51140036D01*
X182411000Y-50140036D02*
X184651000Y-50140036D01*
X178121000Y-50100036D02*
X180331000Y-50100036D01*
X177667000Y-50860036D02*
X180331000Y-50860036D01*
X182411000Y-50500036D02*
X184888000Y-50500036D01*
X182411000Y-50700036D02*
X184998000Y-50700036D01*
X180423000Y-48580036D02*
X182319000Y-48580036D01*
X177765000Y-50660036D02*
X180331000Y-50660036D01*
X182411000Y-50580036D02*
X184933000Y-50580036D01*
X177435000Y-51500036D02*
X180331000Y-51500036D01*
X182411000Y-51540036D02*
X185318000Y-51540036D01*
X182411000Y-51620036D02*
X185338000Y-51620036D01*
X177306000Y-52221036D02*
X185436000Y-52221036D01*
X182411000Y-50780036D02*
X185037000Y-50780036D01*
X178352000Y-49820036D02*
X180331000Y-49820036D01*
X177369000Y-51780036D02*
X180331000Y-51780036D01*
X182411000Y-49900036D02*
X184461000Y-49900036D01*
X179558000Y-48900036D02*
X183184000Y-48900036D01*
X182411000Y-50340036D02*
X184789000Y-50340036D01*
X182411000Y-50220036D02*
X184709000Y-50220036D01*
X180273000Y-48620036D02*
X182469000Y-48620036D01*
X178281000Y-49900036D02*
X180331000Y-49900036D01*
X177377000Y-51740036D02*
X180331000Y-51740036D01*
X178815000Y-49380036D02*
X183927000Y-49380036D01*
X180142000Y-48660036D02*
X182600000Y-48660036D01*
X177744000Y-50700036D02*
X180331000Y-50700036D01*
X179269000Y-49060036D02*
X183473000Y-49060036D01*
X177446000Y-51460036D02*
X180331000Y-51460036D01*
X182411000Y-51020036D02*
X185145000Y-51020036D01*
X179481000Y-48940036D02*
X183261000Y-48940036D01*
X182411000Y-51820036D02*
X185381000Y-51820036D01*
X177831000Y-50540036D02*
X180331000Y-50540036D01*
X178720000Y-49460036D02*
X184022000Y-49460036D01*
X177395000Y-51660036D02*
X180331000Y-51660036D01*
X179337000Y-49020036D02*
X183405000Y-49020036D01*
X179726000Y-48820036D02*
X183016000Y-48820036D01*
X177303000Y-52261036D02*
X185439000Y-52261036D01*
X182411000Y-49940036D02*
X184495000Y-49940036D01*
X182411000Y-49860036D02*
X184426000Y-49860036D01*
X182411000Y-50060036D02*
X184591000Y-50060036D01*
X177323000Y-52061036D02*
X185419000Y-52061036D01*
X179143000Y-49140036D02*
X183599000Y-49140036D01*
X179026000Y-49220036D02*
X183716000Y-49220036D01*
X182411000Y-50180036D02*
X184680000Y-50180036D01*
X177341000Y-51941036D02*
X185401000Y-51941036D01*
X182411000Y-50540036D02*
X184911000Y-50540036D01*
X177294000Y-52421036D02*
X185448000Y-52421036D01*
X178151000Y-50060036D02*
X180331000Y-50060036D01*
X177310000Y-52181036D02*
X185432000Y-52181036D01*
X178426000Y-49740036D02*
X184316000Y-49740036D01*
X182411000Y-51340036D02*
X185260000Y-51340036D01*
X177457000Y-51420036D02*
X180331000Y-51420036D01*
X177878000Y-50460036D02*
X180331000Y-50460036D01*
X177334000Y-51981036D02*
X185408000Y-51981036D01*
X177424000Y-51540036D02*
X180331000Y-51540036D01*
X182411000Y-51860036D02*
X185388000Y-51860036D01*
X182411000Y-50300036D02*
X184763000Y-50300036D01*
X177536000Y-51180036D02*
X180331000Y-51180036D01*
X177902000Y-50420036D02*
X180331000Y-50420036D01*
X177314000Y-52141036D02*
X185428000Y-52141036D01*
X178917000Y-49300036D02*
X183825000Y-49300036D01*
X178674000Y-49500036D02*
X184068000Y-49500036D01*
X178215000Y-49980036D02*
X180331000Y-49980036D01*
X178656000Y-56590734D02*
X179456000Y-56590734D01*
X179205000Y-49100036D02*
X183537000Y-49100036D01*
X177329000Y-52021036D02*
X185413000Y-52021036D01*
X179640000Y-48860036D02*
X183102000Y-48860036D01*
X179407000Y-48980036D02*
X183335000Y-48980036D01*
X182411000Y-51220036D02*
X185221000Y-51220036D01*
X179918000Y-48740036D02*
X182824000Y-48740036D01*
X182411000Y-50660036D02*
X184977000Y-50660036D01*
X178630000Y-49540036D02*
X184112000Y-49540036D01*
X182411000Y-50260036D02*
X184736000Y-50260036D01*
X177414000Y-51580036D02*
X180331000Y-51580036D01*
X177705000Y-50780036D02*
X180331000Y-50780036D01*
X177291000Y-52541036D02*
X185451000Y-52541036D01*
X182411000Y-50860036D02*
X185075000Y-50860036D01*
X185491000Y-52581036D02*
G75*
G03*
X185491000Y-52581036I-4120000J0D01*
G01*
%TO.C,D28*%
X152884000Y-69762000D02*
X150334000Y-69762000D01*
X152884000Y-71462000D02*
X150334000Y-71462000D01*
X152884000Y-71462000D02*
X152884000Y-69762000D01*
%TO.C,Q15*%
X126930000Y-42804000D02*
X129760000Y-42804000D01*
X126930000Y-36444000D02*
X128030000Y-36444000D01*
X125430000Y-43074000D02*
X126930000Y-43074000D01*
X125430000Y-36174000D02*
X126930000Y-36174000D01*
X126930000Y-36174000D02*
X126930000Y-36444000D01*
X126930000Y-43074000D02*
X126930000Y-42804000D01*
%TO.C,SW2*%
X185241000Y-47558000D02*
X185241000Y-44898000D01*
X180101000Y-47558000D02*
X185241000Y-47558000D01*
X180101000Y-44898000D02*
X185241000Y-44898000D01*
X178831000Y-47558000D02*
X177501000Y-47558000D01*
X180101000Y-47558000D02*
X180101000Y-44898000D01*
X177501000Y-47558000D02*
X177501000Y-46228000D01*
%TO.C,R21*%
X172957258Y-60945500D02*
X172482742Y-60945500D01*
X172957258Y-61990500D02*
X172482742Y-61990500D01*
%TO.C,C45*%
X165975420Y-38098000D02*
X166256580Y-38098000D01*
X165975420Y-39118000D02*
X166256580Y-39118000D01*
%TO.C,C10*%
X172579420Y-57910000D02*
X172860580Y-57910000D01*
X172579420Y-58930000D02*
X172860580Y-58930000D01*
%TO.C,D34*%
X152884000Y-47078000D02*
X152884000Y-45378000D01*
X152884000Y-47078000D02*
X150334000Y-47078000D01*
X152884000Y-45378000D02*
X150334000Y-45378000D01*
%TO.C,U1*%
X176928000Y-75744000D02*
X176478000Y-75744000D01*
X182678000Y-75744000D02*
X182678000Y-75294000D01*
X176478000Y-75744000D02*
X176478000Y-75294000D01*
X176928000Y-69544000D02*
X176478000Y-69544000D01*
X182228000Y-69544000D02*
X182678000Y-69544000D01*
X176478000Y-69994000D02*
X176478000Y-69544000D01*
X182678000Y-69544000D02*
X182678000Y-69994000D01*
X182228000Y-75744000D02*
X182678000Y-75744000D01*
D12*
X176058000Y-71044000D02*
G75*
G03*
X176058000Y-71044000I-80000J0D01*
G01*
D11*
%TO.C,R49*%
X155177258Y-69073500D02*
X154702742Y-69073500D01*
X155177258Y-70118500D02*
X154702742Y-70118500D01*
%TO.C,Q1*%
X112198000Y-59034000D02*
X112198000Y-59304000D01*
X112198000Y-65934000D02*
X112198000Y-65664000D01*
X112198000Y-59304000D02*
X113298000Y-59304000D01*
X110698000Y-65934000D02*
X112198000Y-65934000D01*
X110698000Y-59034000D02*
X112198000Y-59034000D01*
X112198000Y-65664000D02*
X115028000Y-65664000D01*
%TO.C,U12*%
X160528000Y-54844000D02*
X162478000Y-54844000D01*
X160528000Y-54844000D02*
X158578000Y-54844000D01*
X160528000Y-59964000D02*
X163978000Y-59964000D01*
X160528000Y-59964000D02*
X158578000Y-59964000D01*
%TO.C,J5*%
X188224000Y-69148000D02*
X195904000Y-69148000D01*
X185624000Y-69148000D02*
X185624000Y-67818000D01*
X186954000Y-69148000D02*
X185624000Y-69148000D01*
X195904000Y-69148000D02*
X195904000Y-66488000D01*
X188224000Y-66488000D02*
X195904000Y-66488000D01*
X188224000Y-69148000D02*
X188224000Y-66488000D01*
%TO.C,U16*%
X160528000Y-66060000D02*
X163978000Y-66060000D01*
X160528000Y-66060000D02*
X158578000Y-66060000D01*
X160528000Y-60940000D02*
X158578000Y-60940000D01*
X160528000Y-60940000D02*
X162478000Y-60940000D01*
%TO.C,Q23*%
X141662000Y-36444000D02*
X142762000Y-36444000D01*
X141662000Y-42804000D02*
X144492000Y-42804000D01*
X140162000Y-43074000D02*
X141662000Y-43074000D01*
X141662000Y-43074000D02*
X141662000Y-42804000D01*
X140162000Y-36174000D02*
X141662000Y-36174000D01*
X141662000Y-36174000D02*
X141662000Y-36444000D01*
%TO.C,D36*%
X167616000Y-41490000D02*
X167616000Y-39790000D01*
X167616000Y-39790000D02*
X165066000Y-39790000D01*
X167616000Y-41490000D02*
X165066000Y-41490000D01*
%TO.C,C43*%
X165975420Y-44194000D02*
X166256580Y-44194000D01*
X165975420Y-45214000D02*
X166256580Y-45214000D01*
%TO.C,R55*%
X155177258Y-38593500D02*
X154702742Y-38593500D01*
X155177258Y-39638500D02*
X154702742Y-39638500D01*
%TO.C,Q11*%
X126930000Y-58044000D02*
X129760000Y-58044000D01*
X125430000Y-51414000D02*
X126930000Y-51414000D01*
X126930000Y-51414000D02*
X126930000Y-51684000D01*
X126930000Y-51684000D02*
X128030000Y-51684000D01*
X125430000Y-58314000D02*
X126930000Y-58314000D01*
X126930000Y-58314000D02*
X126930000Y-58044000D01*
%TO.C,R56*%
X155177258Y-36561500D02*
X154702742Y-36561500D01*
X155177258Y-37606500D02*
X154702742Y-37606500D01*
%TO.C,C14*%
X189914000Y-46889062D02*
X194164000Y-46889062D01*
X187021000Y-50729062D02*
X197057000Y-50729062D01*
X188664000Y-56509708D02*
X189664000Y-56509708D01*
X187514000Y-49209062D02*
X190798000Y-49209062D01*
X193280000Y-49649062D02*
X196762000Y-49649062D01*
X187215000Y-49929062D02*
X190798000Y-49929062D01*
X190809000Y-46569062D02*
X193269000Y-46569062D01*
X188399000Y-47969062D02*
X190798000Y-47969062D01*
X187741000Y-48809062D02*
X190798000Y-48809062D01*
X190095000Y-46809062D02*
X193983000Y-46809062D01*
X187065000Y-50489062D02*
X197013000Y-50489062D01*
X188561000Y-47809062D02*
X190798000Y-47809062D01*
X193280000Y-48129062D02*
X195828000Y-48129062D01*
X193280000Y-47929062D02*
X195640000Y-47929062D01*
X188833000Y-47569062D02*
X195245000Y-47569062D01*
X193280000Y-50209062D02*
X196946000Y-50209062D01*
X193280000Y-49049062D02*
X196479000Y-49049062D01*
X193280000Y-50089062D02*
X196913000Y-50089062D01*
X193280000Y-48529062D02*
X196149000Y-48529062D01*
X193280000Y-49089062D02*
X196501000Y-49089062D01*
X187121000Y-50249062D02*
X190798000Y-50249062D01*
X187242000Y-49849062D02*
X190798000Y-49849062D01*
X186960000Y-51410062D02*
X197118000Y-51410062D01*
X187349000Y-49569062D02*
X190798000Y-49569062D01*
X190977000Y-46529062D02*
X193101000Y-46529062D01*
X193280000Y-48249062D02*
X195931000Y-48249062D01*
X187901000Y-48569062D02*
X190798000Y-48569062D01*
X187057000Y-50529062D02*
X197021000Y-50529062D01*
X189394000Y-47169062D02*
X194684000Y-47169062D01*
X187365000Y-49529062D02*
X190798000Y-49529062D01*
X187009000Y-50809062D02*
X197069000Y-50809062D01*
X187959000Y-48489062D02*
X190798000Y-48489062D01*
X193280000Y-50249062D02*
X196957000Y-50249062D01*
X193280000Y-49209062D02*
X196564000Y-49209062D01*
X187049000Y-50569062D02*
X197029000Y-50569062D01*
X188647000Y-47729062D02*
X195431000Y-47729062D01*
X193280000Y-49369062D02*
X196642000Y-49369062D01*
X193280000Y-50049062D02*
X196901000Y-50049062D01*
X187256000Y-49809062D02*
X190798000Y-49809062D01*
X193280000Y-47849062D02*
X195559000Y-47849062D01*
X187202000Y-49969062D02*
X190798000Y-49969062D01*
X193280000Y-49929062D02*
X196863000Y-49929062D01*
X190409000Y-46689062D02*
X193669000Y-46689062D01*
X193280000Y-49009062D02*
X196456000Y-49009062D01*
X193280000Y-48009062D02*
X195718000Y-48009062D01*
X187766000Y-48769062D02*
X190798000Y-48769062D01*
X187111000Y-50289062D02*
X196967000Y-50289062D01*
X187692000Y-48889062D02*
X190798000Y-48889062D01*
X186974000Y-51130062D02*
X197104000Y-51130062D01*
X187436000Y-49369062D02*
X190798000Y-49369062D01*
X189330000Y-47209062D02*
X194748000Y-47209062D01*
X188360000Y-48009062D02*
X190798000Y-48009062D01*
X193280000Y-48369062D02*
X196028000Y-48369062D01*
X190193000Y-46769062D02*
X193885000Y-46769062D01*
X187177000Y-50049062D02*
X190798000Y-50049062D01*
X188323000Y-48049062D02*
X190798000Y-48049062D01*
X189150000Y-47329062D02*
X194928000Y-47329062D01*
X187873000Y-48609062D02*
X190798000Y-48609062D01*
X186962000Y-51330062D02*
X197116000Y-51330062D01*
X189460000Y-47129062D02*
X194618000Y-47129062D01*
X187929000Y-48529062D02*
X190798000Y-48529062D01*
X188738000Y-47649062D02*
X195340000Y-47649062D01*
X193280000Y-47889062D02*
X195600000Y-47889062D01*
X193280000Y-50169062D02*
X196936000Y-50169062D01*
X193280000Y-49329062D02*
X196623000Y-49329062D01*
X187845000Y-48649062D02*
X190798000Y-48649062D01*
X186977000Y-51090062D02*
X197101000Y-51090062D01*
X187818000Y-48689062D02*
X190798000Y-48689062D01*
X187556000Y-49129062D02*
X190798000Y-49129062D01*
X193280000Y-49969062D02*
X196876000Y-49969062D01*
X191440000Y-46449062D02*
X192638000Y-46449062D01*
X189164000Y-57009708D02*
X189164000Y-56009708D01*
X193280000Y-48609062D02*
X196205000Y-48609062D01*
X186985000Y-51010062D02*
X197093000Y-51010062D01*
X187074000Y-50449062D02*
X197004000Y-50449062D01*
X193280000Y-48969062D02*
X196434000Y-48969062D01*
X186989000Y-50970062D02*
X197089000Y-50970062D01*
X188215000Y-48169062D02*
X190798000Y-48169062D01*
X193280000Y-49849062D02*
X196836000Y-49849062D01*
X193280000Y-48289062D02*
X195964000Y-48289062D01*
X188050000Y-48369062D02*
X190798000Y-48369062D01*
X187301000Y-49689062D02*
X190798000Y-49689062D01*
X191177000Y-46489062D02*
X192901000Y-46489062D01*
X193280000Y-49249062D02*
X196584000Y-49249062D01*
X193280000Y-48049062D02*
X195755000Y-48049062D01*
X188883000Y-47529062D02*
X195195000Y-47529062D01*
X193280000Y-49729062D02*
X196793000Y-49729062D01*
X193280000Y-49689062D02*
X196777000Y-49689062D01*
X188692000Y-47689062D02*
X195386000Y-47689062D01*
X190661000Y-46609062D02*
X193417000Y-46609062D01*
X188250000Y-48129062D02*
X190798000Y-48129062D01*
X187028000Y-50689062D02*
X197050000Y-50689062D01*
X193280000Y-49809062D02*
X196822000Y-49809062D01*
X187165000Y-50089062D02*
X190798000Y-50089062D01*
X193280000Y-50129062D02*
X196924000Y-50129062D01*
X193280000Y-48729062D02*
X196286000Y-48729062D01*
X188985000Y-47449062D02*
X195093000Y-47449062D01*
X188785000Y-47609062D02*
X195293000Y-47609062D01*
X193280000Y-48329062D02*
X195996000Y-48329062D01*
X187455000Y-49329062D02*
X190798000Y-49329062D01*
X188519000Y-47849062D02*
X190798000Y-47849062D01*
X189674000Y-47009062D02*
X194404000Y-47009062D01*
X187092000Y-50369062D02*
X196986000Y-50369062D01*
X186959000Y-51530062D02*
X197119000Y-51530062D01*
X187083000Y-50409062D02*
X196995000Y-50409062D01*
X193280000Y-49569062D02*
X196729000Y-49569062D01*
X187228000Y-49889062D02*
X190798000Y-49889062D01*
X186959000Y-51450062D02*
X197119000Y-51450062D01*
X193280000Y-49409062D02*
X196660000Y-49409062D01*
X186966000Y-51250062D02*
X197112000Y-51250062D01*
X189830000Y-46929062D02*
X194248000Y-46929062D01*
X193280000Y-49169062D02*
X196543000Y-49169062D01*
X189269000Y-47249062D02*
X194809000Y-47249062D01*
X189039000Y-47409062D02*
X195039000Y-47409062D01*
X189529000Y-47089062D02*
X194549000Y-47089062D01*
X193280000Y-48569062D02*
X196177000Y-48569062D01*
X193280000Y-48169062D02*
X195863000Y-48169062D01*
X186969000Y-51210062D02*
X197109000Y-51210062D01*
X188019000Y-48409062D02*
X190798000Y-48409062D01*
X193280000Y-50009062D02*
X196889000Y-50009062D01*
X193280000Y-48409062D02*
X196059000Y-48409062D01*
X187101000Y-50329062D02*
X196977000Y-50329062D01*
X193280000Y-49489062D02*
X196696000Y-49489062D01*
X186994000Y-50930062D02*
X197084000Y-50930062D01*
X190297000Y-46729062D02*
X193781000Y-46729062D01*
X186971000Y-51170062D02*
X197107000Y-51170062D01*
X189094000Y-47369062D02*
X194984000Y-47369062D01*
X193280000Y-48929062D02*
X196410000Y-48929062D01*
X193280000Y-48809062D02*
X196337000Y-48809062D01*
X188114000Y-48289062D02*
X190798000Y-48289062D01*
X187035000Y-50649062D02*
X197043000Y-50649062D01*
X187154000Y-50129062D02*
X190798000Y-50129062D01*
X189600000Y-47049062D02*
X194478000Y-47049062D01*
X187792000Y-48729062D02*
X190798000Y-48729062D01*
X190529000Y-46649062D02*
X193549000Y-46649062D01*
X186981000Y-51050062D02*
X197097000Y-51050062D01*
X186959000Y-51490062D02*
X197119000Y-51490062D01*
X193280000Y-48649062D02*
X196233000Y-48649062D01*
X186999000Y-50890062D02*
X197079000Y-50890062D01*
X187668000Y-48929062D02*
X190798000Y-48929062D01*
X187189000Y-50009062D02*
X190798000Y-50009062D01*
X188478000Y-47889062D02*
X190798000Y-47889062D01*
X187475000Y-49289062D02*
X190798000Y-49289062D01*
X187316000Y-49649062D02*
X190798000Y-49649062D01*
X193280000Y-49769062D02*
X196807000Y-49769062D01*
X193280000Y-49609062D02*
X196746000Y-49609062D01*
X193280000Y-47969062D02*
X195679000Y-47969062D01*
X187015000Y-50769062D02*
X197063000Y-50769062D01*
X193280000Y-49889062D02*
X196850000Y-49889062D01*
X187332000Y-49609062D02*
X190798000Y-49609062D01*
X187622000Y-49009062D02*
X190798000Y-49009062D01*
X193280000Y-49449062D02*
X196678000Y-49449062D01*
X189209000Y-47289062D02*
X194869000Y-47289062D01*
X186961000Y-51370062D02*
X197117000Y-51370062D01*
X188603000Y-47769062D02*
X195475000Y-47769062D01*
X188438000Y-47929062D02*
X190798000Y-47929062D01*
X193280000Y-47809062D02*
X195517000Y-47809062D01*
X187418000Y-49409062D02*
X190798000Y-49409062D01*
X187644000Y-48969062D02*
X190798000Y-48969062D01*
X187716000Y-48849062D02*
X190798000Y-48849062D01*
X186964000Y-51290062D02*
X197114000Y-51290062D01*
X187494000Y-49249062D02*
X190798000Y-49249062D01*
X187382000Y-49489062D02*
X190798000Y-49489062D01*
X188082000Y-48329062D02*
X190798000Y-48329062D01*
X189750000Y-46969062D02*
X194328000Y-46969062D01*
X187004000Y-50850062D02*
X197074000Y-50850062D01*
X187142000Y-50169062D02*
X190798000Y-50169062D01*
X193280000Y-48889062D02*
X196386000Y-48889062D01*
X193280000Y-48089062D02*
X195792000Y-48089062D01*
X188147000Y-48249062D02*
X190798000Y-48249062D01*
X187132000Y-50209062D02*
X190798000Y-50209062D01*
X193280000Y-48449062D02*
X196089000Y-48449062D01*
X187285000Y-49729062D02*
X190798000Y-49729062D01*
X193280000Y-48769062D02*
X196312000Y-48769062D01*
X187599000Y-49049062D02*
X190798000Y-49049062D01*
X187042000Y-50609062D02*
X197036000Y-50609062D01*
X193280000Y-48489062D02*
X196119000Y-48489062D01*
X193280000Y-49289062D02*
X196603000Y-49289062D01*
X187577000Y-49089062D02*
X190798000Y-49089062D01*
X188181000Y-48209062D02*
X190798000Y-48209062D01*
X193280000Y-48689062D02*
X196260000Y-48689062D01*
X187400000Y-49449062D02*
X190798000Y-49449062D01*
X193280000Y-49129062D02*
X196522000Y-49129062D01*
X193280000Y-48849062D02*
X196362000Y-48849062D01*
X193280000Y-48209062D02*
X195897000Y-48209062D01*
X187535000Y-49169062D02*
X190798000Y-49169062D01*
X190002000Y-46849062D02*
X194076000Y-46849062D01*
X188286000Y-48089062D02*
X190798000Y-48089062D01*
X193280000Y-49529062D02*
X196713000Y-49529062D01*
X188933000Y-47489062D02*
X195145000Y-47489062D01*
X187271000Y-49769062D02*
X190798000Y-49769062D01*
X187989000Y-48449062D02*
X190798000Y-48449062D01*
X197159000Y-51530062D02*
G75*
G03*
X197159000Y-51530062I-5120000J0D01*
G01*
%TO.C,D17*%
X152884000Y-49442000D02*
X150334000Y-49442000D01*
X152884000Y-51142000D02*
X150334000Y-51142000D01*
X152884000Y-51142000D02*
X152884000Y-49442000D01*
%TO.C,Q13*%
X126930000Y-65934000D02*
X126930000Y-65664000D01*
X125430000Y-65934000D02*
X126930000Y-65934000D01*
X125430000Y-59034000D02*
X126930000Y-59034000D01*
X126930000Y-59304000D02*
X128030000Y-59304000D01*
X126930000Y-65664000D02*
X129760000Y-65664000D01*
X126930000Y-59034000D02*
X126930000Y-59304000D01*
%TO.C,R41*%
X155177258Y-50785500D02*
X154702742Y-50785500D01*
X155177258Y-51830500D02*
X154702742Y-51830500D01*
%TO.C,Q3*%
X112198000Y-51414000D02*
X112198000Y-51684000D01*
X110698000Y-58314000D02*
X112198000Y-58314000D01*
X110698000Y-51414000D02*
X112198000Y-51414000D01*
X112198000Y-58044000D02*
X115028000Y-58044000D01*
X112198000Y-58314000D02*
X112198000Y-58044000D01*
X112198000Y-51684000D02*
X113298000Y-51684000D01*
%TO.C,C11*%
X172579420Y-62482000D02*
X172860580Y-62482000D01*
X172579420Y-63502000D02*
X172860580Y-63502000D01*
%TO.C,C32*%
X155201252Y-52605000D02*
X154678748Y-52605000D01*
X155201252Y-54075000D02*
X154678748Y-54075000D01*
%TO.C,D35*%
X152884000Y-45046000D02*
X152884000Y-43346000D01*
X152884000Y-45046000D02*
X150334000Y-45046000D01*
X152884000Y-43346000D02*
X150334000Y-43346000D01*
%TO.C,D15*%
X167616000Y-51982000D02*
X165066000Y-51982000D01*
X167616000Y-53682000D02*
X167616000Y-51982000D01*
X167616000Y-53682000D02*
X165066000Y-53682000D01*
%TO.C,C46*%
X155201252Y-40413000D02*
X154678748Y-40413000D01*
X155201252Y-41883000D02*
X154678748Y-41883000D01*
%TO.C,C44*%
X155201252Y-46509000D02*
X154678748Y-46509000D01*
X155201252Y-47979000D02*
X154678748Y-47979000D01*
%TO.C,D30*%
X167616000Y-64174000D02*
X165066000Y-64174000D01*
X167616000Y-65874000D02*
X167616000Y-64174000D01*
X167616000Y-65874000D02*
X165066000Y-65874000D01*
%TO.C,C3*%
X179972580Y-68328000D02*
X179691420Y-68328000D01*
X179972580Y-67308000D02*
X179691420Y-67308000D01*
%TO.C,R53*%
X155177258Y-45734500D02*
X154702742Y-45734500D01*
X155177258Y-44689500D02*
X154702742Y-44689500D01*
%TO.C,R44*%
X155177258Y-54849500D02*
X154702742Y-54849500D01*
X155177258Y-55894500D02*
X154702742Y-55894500D01*
%TO.C,Q7*%
X112198000Y-36444000D02*
X113298000Y-36444000D01*
X112198000Y-43074000D02*
X112198000Y-42804000D01*
X110698000Y-43074000D02*
X112198000Y-43074000D01*
X110698000Y-36174000D02*
X112198000Y-36174000D01*
X112198000Y-36174000D02*
X112198000Y-36444000D01*
X112198000Y-42804000D02*
X115028000Y-42804000D01*
%TD*%
M02*
