%TF.GenerationSoftware,KiCad,Pcbnew,6.0.4-1.fc35*%
%TF.CreationDate,2022-04-18T17:29:02+01:00*%
%TF.ProjectId,esc,6573632e-6b69-4636-9164-5f7063625858,rev?*%
%TF.SameCoordinates,Original*%
%TF.FileFunction,Paste,Top*%
%TF.FilePolarity,Positive*%
%FSLAX46Y46*%
G04 Gerber Fmt 4.6, Leading zero omitted, Abs format (unit mm)*
G04 Created by KiCad (PCBNEW 6.0.4-1.fc35) date 2022-04-18 17:29:02*
%MOMM*%
%LPD*%
G01*
G04 APERTURE LIST*
G04 Aperture macros list*
%AMRoundRect*
0 Rectangle with rounded corners*
0 $1 Rounding radius*
0 $2 $3 $4 $5 $6 $7 $8 $9 X,Y pos of 4 corners*
0 Add a 4 corners polygon primitive as box body*
4,1,4,$2,$3,$4,$5,$6,$7,$8,$9,$2,$3,0*
0 Add four circle primitives for the rounded corners*
1,1,$1+$1,$2,$3*
1,1,$1+$1,$4,$5*
1,1,$1+$1,$6,$7*
1,1,$1+$1,$8,$9*
0 Add four rect primitives between the rounded corners*
20,1,$1+$1,$2,$3,$4,$5,0*
20,1,$1+$1,$4,$5,$6,$7,0*
20,1,$1+$1,$6,$7,$8,$9,0*
20,1,$1+$1,$8,$9,$2,$3,0*%
G04 Aperture macros list end*
%ADD10RoundRect,0.150000X0.675000X0.150000X-0.675000X0.150000X-0.675000X-0.150000X0.675000X-0.150000X0*%
%ADD11RoundRect,0.200000X0.200000X0.275000X-0.200000X0.275000X-0.200000X-0.275000X0.200000X-0.275000X0*%
%ADD12R,3.050000X2.750000*%
%ADD13R,2.200000X1.200000*%
%ADD14R,0.600000X0.450000*%
%ADD15RoundRect,0.250000X0.250000X0.475000X-0.250000X0.475000X-0.250000X-0.475000X0.250000X-0.475000X0*%
%ADD16RoundRect,0.999000X-1.751000X0.501000X-1.751000X-0.501000X1.751000X-0.501000X1.751000X0.501000X0*%
%ADD17RoundRect,0.225000X-0.225000X-0.250000X0.225000X-0.250000X0.225000X0.250000X-0.225000X0.250000X0*%
%ADD18RoundRect,0.200000X0.275000X-0.200000X0.275000X0.200000X-0.275000X0.200000X-0.275000X-0.200000X0*%
%ADD19RoundRect,0.375000X-2.625000X-0.375000X2.625000X-0.375000X2.625000X0.375000X-2.625000X0.375000X0*%
%ADD20RoundRect,0.225000X0.225000X0.250000X-0.225000X0.250000X-0.225000X-0.250000X0.225000X-0.250000X0*%
%ADD21RoundRect,0.999000X1.751000X-0.501000X1.751000X0.501000X-1.751000X0.501000X-1.751000X-0.501000X0*%
%ADD22RoundRect,0.225000X0.250000X-0.225000X0.250000X0.225000X-0.250000X0.225000X-0.250000X-0.225000X0*%
%ADD23RoundRect,0.250000X-0.260000X-0.260000X0.260000X-0.260000X0.260000X0.260000X-0.260000X0.260000X0*%
%ADD24RoundRect,0.050000X-0.325000X-0.050000X0.325000X-0.050000X0.325000X0.050000X-0.325000X0.050000X0*%
%ADD25RoundRect,0.050000X0.050000X-0.325000X0.050000X0.325000X-0.050000X0.325000X-0.050000X-0.325000X0*%
%ADD26RoundRect,0.050000X-0.050000X-0.325000X0.050000X-0.325000X0.050000X0.325000X-0.050000X0.325000X0*%
%ADD27RoundRect,0.050000X0.325000X-0.050000X0.325000X0.050000X-0.325000X0.050000X-0.325000X-0.050000X0*%
G04 APERTURE END LIST*
D10*
%TO.C,U17*%
X163153000Y-47117000D03*
X163153000Y-45847000D03*
X163153000Y-44577000D03*
X163153000Y-43307000D03*
X157903000Y-43307000D03*
X157903000Y-44577000D03*
X157903000Y-45847000D03*
X157903000Y-47117000D03*
%TD*%
D11*
%TO.C,R43*%
X155765000Y-57404000D03*
X154115000Y-57404000D03*
%TD*%
%TO.C,R13*%
X173545000Y-52324000D03*
X171895000Y-52324000D03*
%TD*%
D12*
%TO.C,Q17*%
X135417000Y-64009000D03*
X135417000Y-60959000D03*
X138767000Y-60959000D03*
X138767000Y-64009000D03*
D13*
X143392000Y-64764000D03*
X143392000Y-60204000D03*
%TD*%
D10*
%TO.C,U11*%
X163153000Y-53213000D03*
X163153000Y-51943000D03*
X163153000Y-50673000D03*
X163153000Y-49403000D03*
X157903000Y-49403000D03*
X157903000Y-50673000D03*
X157903000Y-51943000D03*
X157903000Y-53213000D03*
%TD*%
D14*
%TO.C,D18*%
X167166000Y-58928000D03*
X165066000Y-58928000D03*
%TD*%
%TO.C,D38*%
X152434000Y-38100000D03*
X150334000Y-38100000D03*
%TD*%
D11*
%TO.C,R14*%
X173545000Y-55372000D03*
X171895000Y-55372000D03*
%TD*%
D15*
%TO.C,C40*%
X155890000Y-71628000D03*
X153990000Y-71628000D03*
%TD*%
D16*
%TO.C,L3*%
X190007000Y-58814385D03*
X190007000Y-63814385D03*
%TD*%
D17*
%TO.C,C33*%
X165341000Y-56896000D03*
X166891000Y-56896000D03*
%TD*%
D12*
%TO.C,Q9*%
X120685000Y-45719000D03*
X120685000Y-48769000D03*
X124035000Y-45719000D03*
X124035000Y-48769000D03*
D13*
X128660000Y-49524000D03*
X128660000Y-44964000D03*
%TD*%
D18*
%TO.C,R1*%
X175514000Y-73469000D03*
X175514000Y-71819000D03*
%TD*%
D19*
%TO.C,C5*%
X126238000Y-68366000D03*
X126238000Y-73366000D03*
%TD*%
D12*
%TO.C,Q21*%
X135417000Y-45718000D03*
X138767000Y-45718000D03*
X138767000Y-48768000D03*
X135417000Y-48768000D03*
D13*
X143392000Y-49523000D03*
X143392000Y-44963000D03*
%TD*%
D15*
%TO.C,C42*%
X155890000Y-65532000D03*
X153990000Y-65532000D03*
%TD*%
D14*
%TO.C,D31*%
X152434000Y-64516000D03*
X150334000Y-64516000D03*
%TD*%
%TO.C,D27*%
X167166000Y-71120000D03*
X165066000Y-71120000D03*
%TD*%
%TO.C,D37*%
X152434000Y-40132000D03*
X150334000Y-40132000D03*
%TD*%
D11*
%TO.C,R42*%
X155765000Y-49276000D03*
X154115000Y-49276000D03*
%TD*%
D17*
%TO.C,C7*%
X171945000Y-53848000D03*
X173495000Y-53848000D03*
%TD*%
D14*
%TO.C,D20*%
X152434000Y-56388000D03*
X150334000Y-56388000D03*
%TD*%
%TO.C,D32*%
X152434000Y-62484000D03*
X150334000Y-62484000D03*
%TD*%
D11*
%TO.C,R52*%
X155765000Y-61468000D03*
X154115000Y-61468000D03*
%TD*%
D17*
%TO.C,C41*%
X165341000Y-62992000D03*
X166891000Y-62992000D03*
%TD*%
%TO.C,C39*%
X165341000Y-69088000D03*
X166891000Y-69088000D03*
%TD*%
D14*
%TO.C,D33*%
X167166000Y-46736000D03*
X165066000Y-46736000D03*
%TD*%
D11*
%TO.C,R20*%
X173545000Y-59944000D03*
X171895000Y-59944000D03*
%TD*%
%TO.C,R51*%
X155765000Y-63500000D03*
X154115000Y-63500000D03*
%TD*%
%TO.C,R12*%
X173545000Y-50800000D03*
X171895000Y-50800000D03*
%TD*%
%TO.C,R50*%
X155765000Y-67564000D03*
X154115000Y-67564000D03*
%TD*%
D19*
%TO.C,C2*%
X103886000Y-68366000D03*
X103886000Y-73366000D03*
%TD*%
D10*
%TO.C,U15*%
X163153000Y-71501000D03*
X163153000Y-70231000D03*
X163153000Y-68961000D03*
X163153000Y-67691000D03*
X157903000Y-67691000D03*
X157903000Y-68961000D03*
X157903000Y-70231000D03*
X157903000Y-71501000D03*
%TD*%
D17*
%TO.C,C6*%
X176771000Y-77216000D03*
X178321000Y-77216000D03*
%TD*%
%TO.C,C31*%
X165341000Y-50800000D03*
X166891000Y-50800000D03*
%TD*%
D20*
%TO.C,C1*%
X182131000Y-77216000D03*
X180581000Y-77216000D03*
%TD*%
D12*
%TO.C,Q19*%
X138767000Y-56389000D03*
X135417000Y-53339000D03*
X135417000Y-56389000D03*
X138767000Y-53339000D03*
D13*
X143392000Y-57144000D03*
X143392000Y-52584000D03*
%TD*%
D21*
%TO.C,L2*%
X175275000Y-41123000D03*
X175275000Y-36123000D03*
%TD*%
D12*
%TO.C,Q5*%
X105953000Y-48769000D03*
X109303000Y-48769000D03*
X105953000Y-45719000D03*
X109303000Y-45719000D03*
D13*
X113928000Y-49524000D03*
X113928000Y-44964000D03*
%TD*%
D11*
%TO.C,R54*%
X155765000Y-43180000D03*
X154115000Y-43180000D03*
%TD*%
D14*
%TO.C,D29*%
X152434000Y-68580000D03*
X150334000Y-68580000D03*
%TD*%
D21*
%TO.C,L1*%
X182387000Y-63814385D03*
X182387000Y-58814385D03*
%TD*%
D11*
%TO.C,R15*%
X173545000Y-56896000D03*
X171895000Y-56896000D03*
%TD*%
D22*
%TO.C,C4*%
X183896000Y-74181000D03*
X183896000Y-72631000D03*
%TD*%
D14*
%TO.C,D16*%
X152434000Y-52324000D03*
X150334000Y-52324000D03*
%TD*%
D15*
%TO.C,C34*%
X155890000Y-59436000D03*
X153990000Y-59436000D03*
%TD*%
D14*
%TO.C,D19*%
X152434000Y-58420000D03*
X150334000Y-58420000D03*
%TD*%
D10*
%TO.C,U18*%
X163153000Y-41021000D03*
X163153000Y-39751000D03*
X163153000Y-38481000D03*
X163153000Y-37211000D03*
X157903000Y-37211000D03*
X157903000Y-38481000D03*
X157903000Y-39751000D03*
X157903000Y-41021000D03*
%TD*%
D14*
%TO.C,D28*%
X152434000Y-70612000D03*
X150334000Y-70612000D03*
%TD*%
D12*
%TO.C,Q15*%
X124035000Y-38099000D03*
X120685000Y-38099000D03*
X120685000Y-41149000D03*
X124035000Y-41149000D03*
D13*
X128660000Y-41904000D03*
X128660000Y-37344000D03*
%TD*%
D11*
%TO.C,R21*%
X173545000Y-61468000D03*
X171895000Y-61468000D03*
%TD*%
D17*
%TO.C,C45*%
X165341000Y-38608000D03*
X166891000Y-38608000D03*
%TD*%
%TO.C,C10*%
X171945000Y-58420000D03*
X173495000Y-58420000D03*
%TD*%
D14*
%TO.C,D34*%
X152434000Y-46228000D03*
X150334000Y-46228000D03*
%TD*%
D23*
%TO.C,U1*%
X178308000Y-72644000D03*
X180848000Y-73914000D03*
X180848000Y-72644000D03*
X179578000Y-73914000D03*
X179578000Y-72644000D03*
X178308000Y-71374000D03*
X178308000Y-73914000D03*
X179578000Y-71374000D03*
X180848000Y-71374000D03*
D24*
X177078000Y-71044000D03*
X177078000Y-71444000D03*
X177078000Y-71844000D03*
X177078000Y-72244000D03*
X177078000Y-72644000D03*
X177078000Y-73044000D03*
X177078000Y-73444000D03*
X177078000Y-73844000D03*
X177078000Y-74244000D03*
D25*
X177978000Y-75144000D03*
D26*
X178378000Y-75144000D03*
X178778000Y-75144000D03*
X179178000Y-75144000D03*
X179578000Y-75144000D03*
X179978000Y-75144000D03*
X180378000Y-75144000D03*
X180778000Y-75144000D03*
X181178000Y-75144000D03*
D27*
X182078000Y-74244000D03*
X182078000Y-73844000D03*
D24*
X182078000Y-73444000D03*
X182078000Y-73044000D03*
X182078000Y-72644000D03*
X182078000Y-72244000D03*
X182078000Y-71844000D03*
X182078000Y-71444000D03*
X182078000Y-71044000D03*
D25*
X181178000Y-70144000D03*
X180778000Y-70144000D03*
X180378000Y-70144000D03*
D26*
X179978000Y-70144000D03*
X179578000Y-70144000D03*
X179178000Y-70144000D03*
X178778000Y-70144000D03*
X178378000Y-70144000D03*
X177978000Y-70144000D03*
%TD*%
D11*
%TO.C,R49*%
X155765000Y-69596000D03*
X154115000Y-69596000D03*
%TD*%
D12*
%TO.C,Q1*%
X105953000Y-60959000D03*
X105953000Y-64009000D03*
X109303000Y-60959000D03*
X109303000Y-64009000D03*
D13*
X113928000Y-64764000D03*
X113928000Y-60204000D03*
%TD*%
D10*
%TO.C,U12*%
X163153000Y-59309000D03*
X163153000Y-58039000D03*
X163153000Y-56769000D03*
X163153000Y-55499000D03*
X157903000Y-55499000D03*
X157903000Y-56769000D03*
X157903000Y-58039000D03*
X157903000Y-59309000D03*
%TD*%
%TO.C,U16*%
X163153000Y-65405000D03*
X163153000Y-64135000D03*
X163153000Y-62865000D03*
X163153000Y-61595000D03*
X157903000Y-61595000D03*
X157903000Y-62865000D03*
X157903000Y-64135000D03*
X157903000Y-65405000D03*
%TD*%
D12*
%TO.C,Q23*%
X135417000Y-41149000D03*
X138767000Y-38099000D03*
X138767000Y-41149000D03*
X135417000Y-38099000D03*
D13*
X143392000Y-41904000D03*
X143392000Y-37344000D03*
%TD*%
D14*
%TO.C,D36*%
X167166000Y-40640000D03*
X165066000Y-40640000D03*
%TD*%
D17*
%TO.C,C43*%
X165341000Y-44704000D03*
X166891000Y-44704000D03*
%TD*%
D11*
%TO.C,R55*%
X155765000Y-39116000D03*
X154115000Y-39116000D03*
%TD*%
D12*
%TO.C,Q11*%
X120685000Y-53339000D03*
X120685000Y-56389000D03*
X124035000Y-56389000D03*
X124035000Y-53339000D03*
D13*
X128660000Y-57144000D03*
X128660000Y-52584000D03*
%TD*%
D11*
%TO.C,R56*%
X155765000Y-37084000D03*
X154115000Y-37084000D03*
%TD*%
D14*
%TO.C,D17*%
X152434000Y-50292000D03*
X150334000Y-50292000D03*
%TD*%
D12*
%TO.C,Q13*%
X120685000Y-64009000D03*
X120685000Y-60959000D03*
X124035000Y-64009000D03*
X124035000Y-60959000D03*
D13*
X128660000Y-64764000D03*
X128660000Y-60204000D03*
%TD*%
D11*
%TO.C,R41*%
X155765000Y-51308000D03*
X154115000Y-51308000D03*
%TD*%
D12*
%TO.C,Q3*%
X105953000Y-56389000D03*
X109303000Y-56389000D03*
X109303000Y-53339000D03*
X105953000Y-53339000D03*
D13*
X113928000Y-57144000D03*
X113928000Y-52584000D03*
%TD*%
D17*
%TO.C,C11*%
X173495000Y-62992000D03*
X171945000Y-62992000D03*
%TD*%
D15*
%TO.C,C32*%
X155890000Y-53340000D03*
X153990000Y-53340000D03*
%TD*%
D14*
%TO.C,D35*%
X152434000Y-44196000D03*
X150334000Y-44196000D03*
%TD*%
%TO.C,D15*%
X167166000Y-52832000D03*
X165066000Y-52832000D03*
%TD*%
D15*
%TO.C,C46*%
X155890000Y-41148000D03*
X153990000Y-41148000D03*
%TD*%
%TO.C,C44*%
X155890000Y-47244000D03*
X153990000Y-47244000D03*
%TD*%
D14*
%TO.C,D30*%
X167166000Y-65024000D03*
X165066000Y-65024000D03*
%TD*%
D20*
%TO.C,C3*%
X179057000Y-67818000D03*
X180607000Y-67818000D03*
%TD*%
D11*
%TO.C,R53*%
X155765000Y-45212000D03*
X154115000Y-45212000D03*
%TD*%
%TO.C,R44*%
X155765000Y-55372000D03*
X154115000Y-55372000D03*
%TD*%
D12*
%TO.C,Q7*%
X105953000Y-38099000D03*
X109303000Y-41149000D03*
X105953000Y-41149000D03*
X109303000Y-38099000D03*
D13*
X113928000Y-41904000D03*
X113928000Y-37344000D03*
%TD*%
M02*
