M48
; DRILL file {KiCad 6.0.4-1.fc35} date Mon 18 Apr 2022 17:28:56 BST
; FORMAT={-:-/ absolute / inch / decimal}
; #@! TF.CreationDate,2022-04-18T17:28:56+01:00
; #@! TF.GenerationSoftware,Kicad,Pcbnew,6.0.4-1.fc35
; #@! TF.FileFunction,Plated,1,4,PTH
FMAT,2
INCH
; #@! TA.AperFunction,Plated,PTH,ViaDrill
T1C0.0157
; #@! TA.AperFunction,Plated,PTH,ComponentDrill
T2C0.0315
; #@! TA.AperFunction,Plated,PTH,ComponentDrill
T3C0.0394
%
G90
G05
T1
X4.03Y-3.01
X4.03Y-3.05
X4.03Y-3.09
X4.04Y-1.25
X4.04Y-1.29
X4.04Y-1.33
X4.07Y-3.01
X4.07Y-3.05
X4.07Y-3.09
X4.08Y-1.25
X4.08Y-1.29
X4.08Y-1.33
X4.11Y-1.7
X4.11Y-2.0
X4.11Y-2.3
X4.11Y-2.6
X4.11Y-3.01
X4.11Y-3.05
X4.11Y-3.09
X4.12Y-1.25
X4.12Y-1.29
X4.12Y-1.33
X4.15Y-3.01
X4.15Y-3.05
X4.15Y-3.09
X4.16Y-1.25
X4.16Y-1.29
X4.16Y-1.33
X4.19Y-3.01
X4.19Y-3.05
X4.19Y-3.09
X4.2Y-1.25
X4.2Y-1.29
X4.2Y-1.33
X4.2126Y-2.7894
X4.23Y-3.01
X4.23Y-3.05
X4.23Y-3.09
X4.24Y-1.25
X4.24Y-1.29
X4.24Y-1.33
X4.2518Y-2.7927
X4.27Y-3.01
X4.27Y-3.05
X4.27Y-3.09
X4.28Y-1.25
X4.28Y-1.29
X4.28Y-1.33
X4.31Y-3.01
X4.31Y-3.05
X4.31Y-3.09
X4.35Y-3.01
X4.35Y-3.05
X4.35Y-3.09
X4.39Y-3.01
X4.39Y-3.05
X4.39Y-3.09
X4.43Y-1.52
X4.43Y-1.56
X4.43Y-1.6
X4.43Y-1.82
X4.43Y-1.86
X4.43Y-1.9
X4.43Y-2.12
X4.43Y-2.16
X4.43Y-2.2
X4.43Y-2.42
X4.43Y-2.46
X4.43Y-2.5
X4.43Y-3.01
X4.43Y-3.05
X4.43Y-3.09
X4.47Y-1.52
X4.47Y-1.56
X4.47Y-1.6
X4.47Y-1.82
X4.47Y-1.86
X4.47Y-1.9
X4.47Y-2.12
X4.47Y-2.16
X4.47Y-2.2
X4.47Y-2.42
X4.47Y-2.46
X4.47Y-2.5
X4.47Y-3.01
X4.47Y-3.05
X4.47Y-3.09
X4.51Y-1.52
X4.51Y-1.56
X4.51Y-1.6
X4.51Y-1.82
X4.51Y-1.86
X4.51Y-1.9
X4.51Y-2.12
X4.51Y-2.16
X4.51Y-2.2
X4.51Y-2.42
X4.51Y-2.46
X4.51Y-2.5
X4.51Y-3.01
X4.51Y-3.05
X4.51Y-3.09
X4.53Y-1.7
X4.5318Y-1.9971
X4.5318Y-2.2971
X4.5318Y-2.5971
X4.55Y-3.01
X4.55Y-3.05
X4.55Y-3.09
X4.59Y-3.01
X4.59Y-3.05
X4.59Y-3.09
X4.64Y-1.25
X4.64Y-1.29
X4.64Y-1.33
X4.68Y-1.25
X4.68Y-1.29
X4.68Y-1.33
X4.6893Y-2.5977
X4.69Y-1.7
X4.69Y-2.3
X4.7Y-2.0
X4.72Y-1.25
X4.72Y-1.29
X4.72Y-1.33
X4.7298Y-2.7898
X4.76Y-1.25
X4.76Y-1.29
X4.76Y-1.33
X4.77Y-2.79
X4.8Y-1.25
X4.8Y-1.29
X4.8Y-1.33
X4.83Y-2.95
X4.84Y-1.25
X4.84Y-1.29
X4.84Y-1.33
X4.88Y-1.25
X4.88Y-1.29
X4.88Y-1.33
X4.93Y-3.01
X4.93Y-3.05
X4.93Y-3.09
X4.97Y-3.01
X4.97Y-3.05
X4.97Y-3.09
X5.01Y-1.52
X5.01Y-1.56
X5.01Y-1.6
X5.01Y-1.82
X5.01Y-1.86
X5.01Y-1.9
X5.01Y-2.12
X5.01Y-2.16
X5.01Y-2.2
X5.01Y-2.42
X5.01Y-2.46
X5.01Y-2.5
X5.01Y-3.01
X5.01Y-3.05
X5.01Y-3.09
X5.05Y-1.52
X5.05Y-1.56
X5.05Y-1.6
X5.05Y-1.82
X5.05Y-1.86
X5.05Y-1.9
X5.05Y-2.12
X5.05Y-2.16
X5.05Y-2.2
X5.05Y-2.42
X5.05Y-2.46
X5.05Y-2.5
X5.05Y-3.01
X5.05Y-3.05
X5.05Y-3.09
X5.09Y-1.52
X5.09Y-1.56
X5.09Y-1.6
X5.09Y-1.82
X5.09Y-1.86
X5.09Y-1.9
X5.09Y-2.0
X5.09Y-2.12
X5.09Y-2.16
X5.09Y-2.2
X5.09Y-2.42
X5.09Y-2.46
X5.09Y-2.5
X5.09Y-3.01
X5.09Y-3.05
X5.09Y-3.09
X5.1Y-2.76
X5.1Y-2.81
X5.1029Y-2.8492
X5.11Y-2.92
X5.1107Y-1.6977
X5.1107Y-2.2977
X5.1107Y-2.5977
X5.13Y-3.01
X5.13Y-3.05
X5.13Y-3.09
X5.17Y-3.01
X5.17Y-3.05
X5.17Y-3.09
X5.21Y-3.01
X5.21Y-3.05
X5.21Y-3.09
X5.24Y-1.25
X5.24Y-1.29
X5.24Y-1.33
X5.25Y-3.01
X5.25Y-3.05
X5.25Y-3.09
X5.2693Y-1.6977
X5.27Y-2.3
X5.27Y-2.6
X5.28Y-1.25
X5.28Y-1.29
X5.28Y-1.33
X5.28Y-2.0
X5.29Y-3.01
X5.29Y-3.05
X5.29Y-3.09
X5.32Y-1.25
X5.32Y-1.29
X5.32Y-1.33
X5.33Y-2.71
X5.33Y-2.84
X5.33Y-3.01
X5.33Y-3.05
X5.33Y-3.09
X5.36Y-1.25
X5.36Y-1.29
X5.36Y-1.33
X5.37Y-3.01
X5.37Y-3.05
X5.37Y-3.09
X5.4Y-1.25
X5.4Y-1.29
X5.4Y-1.33
X5.41Y-3.01
X5.41Y-3.05
X5.41Y-3.09
X5.44Y-1.25
X5.44Y-1.29
X5.44Y-1.33
X5.45Y-3.01
X5.45Y-3.05
X5.45Y-3.09
X5.48Y-1.25
X5.48Y-1.29
X5.48Y-1.33
X5.49Y-3.01
X5.49Y-3.05
X5.49Y-3.09
X5.5595Y-2.9105
X5.57Y-2.9676
X5.58Y-2.7705
X5.59Y-1.52
X5.59Y-1.56
X5.59Y-1.6
X5.59Y-1.82
X5.59Y-1.86
X5.59Y-1.9
X5.59Y-2.12
X5.59Y-2.16
X5.59Y-2.2
X5.59Y-2.42
X5.59Y-2.46
X5.59Y-2.5
X5.63Y-1.52
X5.63Y-1.56
X5.63Y-1.6
X5.63Y-1.82
X5.63Y-1.86
X5.63Y-1.9
X5.63Y-2.12
X5.63Y-2.16
X5.63Y-2.2
X5.63Y-2.42
X5.63Y-2.46
X5.63Y-2.5
X5.6371Y-2.8143
X5.67Y-1.52
X5.67Y-1.56
X5.67Y-1.6
X5.67Y-1.82
X5.67Y-1.86
X5.67Y-1.9
X5.67Y-2.12
X5.67Y-2.16
X5.67Y-2.2
X5.67Y-2.42
X5.67Y-2.46
X5.67Y-2.5
X5.7Y-2.7075
X5.7272Y-2.8171
X5.73Y-1.7262
X5.73Y-1.7656
X5.73Y-1.95
X5.73Y-2.03
X5.73Y-2.09
X5.7398Y-1.5798
X5.74Y-2.63
X5.75Y-2.52
X5.76Y-2.12
X5.76Y-2.17
X5.76Y-2.22
X5.76Y-2.27
X5.76Y-2.33
X5.77Y-1.89
X5.78Y-1.58
X5.78Y-1.64
X5.78Y-2.03
X5.7802Y-2.6385
X5.8Y-2.52
X5.8002Y-2.3598
X5.83Y-2.74
X5.8545Y-2.5855
X5.8618Y-2.6426
X5.864Y-2.8264
X5.87Y-1.49
X5.9359Y-2.8467
X5.9369Y-2.13
X5.9369Y-2.37
X5.9383Y-1.6733
X5.9705Y-2.6136
X5.9728Y-1.8936
X5.9764Y-1.66
X6.01Y-1.9064
X6.01Y-2.1464
X6.01Y-2.6264
X6.29Y-2.07
X6.29Y-2.3
X6.31Y-1.56
X6.3125Y-1.98
X6.3125Y-2.22
X6.32Y-2.4289
X6.3225Y-2.4682
X6.33Y-1.51
X6.33Y-2.78
X6.3322Y-2.7378
X6.3397Y-2.03
X6.34Y-1.61
X6.34Y-1.77
X6.3416Y-2.2698
X6.36Y-2.48
X6.36Y-2.71
X6.3673Y-1.8
X6.3673Y-2.0
X6.3673Y-2.24
X6.3675Y-1.84
X6.3675Y-2.5357
X6.3688Y-1.7396
X6.3694Y-2.7818
X6.3708Y-1.4875
X6.5095Y-1.56
X6.5095Y-2.04
X6.5095Y-2.28
X6.5095Y-2.52
X6.5095Y-2.7103
X6.51Y-1.8
X6.61Y-1.51
X6.61Y-1.78
X6.61Y-2.02
X6.61Y-2.26
X6.61Y-2.5
X6.61Y-2.7375
X6.6381Y-2.8265
X6.66Y-2.43
X6.6625Y-2.0
X6.68Y-2.18
X6.6835Y-2.5665
X6.7Y-2.89
X6.71Y-2.36
X6.75Y-2.8925
X6.8476Y-2.8573
X6.8529Y-2.637
X6.86Y-2.53
X6.86Y-2.75
X6.86Y-2.82
X6.8633Y-2.96
X6.865Y-2.8926
X6.89Y-1.77
X6.8954Y-2.6334
X6.9006Y-1.4222
X6.9015Y-2.6885
X6.9106Y-2.9538
X6.9199Y-1.7401
X6.93Y-2.99
X6.96Y-2.68
X7.03Y-2.6275
X7.0438Y-3.0838
X7.08Y-2.61
X7.0829Y-3.0797
X7.1806Y-2.2394
X7.2Y-2.61
X7.2Y-3.0
X7.24Y-2.87
X7.2501Y-2.2329
X7.2544Y-3.0233
X7.26Y-3.07
X7.27Y-1.72
X7.27Y-2.95
X7.29Y-3.0051
X7.3321Y-1.7079
X7.36Y-2.38
X7.43Y-2.2329
T2
X7.1406Y-2.0012
X7.1406Y-2.139
X7.1555Y-1.4406
X7.2933Y-1.4406
T3
X7.0406Y-1.82
X7.1406Y-1.82
X7.2406Y-1.82
X7.36Y-2.84
X7.36Y-3.01
X7.3604Y-2.67
X7.46Y-2.84
X7.46Y-3.01
X7.4604Y-2.67
X7.4606Y-1.32
X7.56Y-2.84
X7.56Y-3.01
X7.5604Y-2.67
X7.5606Y-1.32
X7.5606Y-1.9303
X7.5606Y-2.1272
X7.6406Y-1.5164
X7.6406Y-1.7132
X7.66Y-2.84
X7.66Y-3.01
X7.6604Y-2.67
X7.6606Y-1.32
X7.7406Y-2.3134
X7.7406Y-2.4134
X7.7406Y-2.5134
X7.76Y-2.84
X7.76Y-3.01
T0
M30
